# Blender 5.2.0 LTS
# www.blender.org
mtllib gizmos.mtl
o 00_gizmo_light_directional
v -0.125000 -0.125000 -0.000000 0.4980 0.4980 0.4980
v 0.125000 -0.125000 -0.000000 0.4980 0.4980 0.4980
v -0.125000 0.125000 0.000000 0.4980 0.4980 0.4980
v 0.125000 0.125000 0.000000 0.4980 0.4980 0.4980
vn -0.0000 -0.0000 1.0000
vt 0.000000 0.000000
vt 1.000000 0.000000
vt 1.000000 1.000000
vt 0.000000 1.000000
s 0
usemtl gizmo_light_directional
f 1/1/1 2/2/1 4/3/1 3/4/1
o 01_gizmo_light_point
v -0.062500 -0.062500 -0.000000 0.4980 0.4980 0.4980
v 0.062500 -0.062500 -0.000000 0.4980 0.4980 0.4980
v -0.062500 0.062500 0.000000 0.4980 0.4980 0.4980
v 0.062500 0.062500 0.000000 0.4980 0.4980 0.4980
vn -0.0000 -0.0000 1.0000
vt 0.000000 0.000000
vt 1.000000 0.000000
vt 1.000000 1.000000
vt 0.000000 1.000000
s 0
usemtl gizmo_light_point
f 5/5/2 6/6/2 8/7/2 7/8/2
o 02_sphere
v 0.000000 1.000000 0.000000 1.0000 1.0000 1.0000
v 0.000000 0.831470 -0.555570 1.0000 1.0000 1.0000
v 0.000000 0.555570 -0.831470 1.0000 1.0000 1.0000
v 0.000000 0.195090 -0.980785 1.0000 1.0000 1.0000
v 0.000000 0.000000 -1.000000 1.0000 1.0000 1.0000
v 0.000000 -0.195090 -0.980785 1.0000 1.0000 1.0000
v 0.000000 -0.555570 -0.831470 1.0000 1.0000 1.0000
v 0.000000 -1.000000 0.000000 1.0000 1.0000 1.0000
v 0.038060 0.980785 -0.191342 1.0000 1.0000 1.0000
v 0.074658 0.923880 -0.375330 1.0000 1.0000 1.0000
v 0.108386 0.831470 -0.544895 1.0000 1.0000 1.0000
v 0.137950 0.707107 -0.693520 1.0000 1.0000 1.0000
v 0.162212 0.555570 -0.815493 1.0000 1.0000 1.0000
v 0.180240 0.382683 -0.906127 1.0000 1.0000 1.0000
v 0.191342 0.195090 -0.961940 1.0000 1.0000 1.0000
v 0.195090 0.000000 -0.980785 1.0000 1.0000 1.0000
v 0.191342 -0.195090 -0.961940 1.0000 1.0000 1.0000
v 0.180240 -0.382683 -0.906127 1.0000 1.0000 1.0000
v 0.162212 -0.555570 -0.815493 1.0000 1.0000 1.0000
v 0.137950 -0.707107 -0.693520 1.0000 1.0000 1.0000
v 0.108386 -0.831470 -0.544895 1.0000 1.0000 1.0000
v 0.074658 -0.923880 -0.375330 1.0000 1.0000 1.0000
v 0.038060 -0.980785 -0.191342 1.0000 1.0000 1.0000
v 0.074658 0.980785 -0.180240 1.0000 1.0000 1.0000
v 0.146447 0.923880 -0.353553 1.0000 1.0000 1.0000
v 0.212608 0.831470 -0.513280 1.0000 1.0000 1.0000
v 0.270598 0.707107 -0.653281 1.0000 1.0000 1.0000
v 0.318190 0.555570 -0.768178 1.0000 1.0000 1.0000
v 0.353553 0.382683 -0.853553 1.0000 1.0000 1.0000
v 0.375330 0.195090 -0.906127 1.0000 1.0000 1.0000
v 0.382683 0.000000 -0.923879 1.0000 1.0000 1.0000
v 0.375330 -0.195090 -0.906127 1.0000 1.0000 1.0000
v 0.353553 -0.382683 -0.853553 1.0000 1.0000 1.0000
v 0.318190 -0.555570 -0.768178 1.0000 1.0000 1.0000
v 0.270598 -0.707107 -0.653281 1.0000 1.0000 1.0000
v 0.212608 -0.831470 -0.513280 1.0000 1.0000 1.0000
v 0.146447 -0.923880 -0.353553 1.0000 1.0000 1.0000
v 0.074658 -0.980785 -0.180240 1.0000 1.0000 1.0000
v 0.108386 0.980785 -0.162212 1.0000 1.0000 1.0000
v 0.212608 0.923880 -0.318190 1.0000 1.0000 1.0000
v 0.308658 0.831470 -0.461940 1.0000 1.0000 1.0000
v 0.392847 0.707107 -0.587938 1.0000 1.0000 1.0000
v 0.461940 0.555570 -0.691342 1.0000 1.0000 1.0000
v 0.513280 0.382683 -0.768178 1.0000 1.0000 1.0000
v 0.544895 0.195090 -0.815493 1.0000 1.0000 1.0000
v 0.555570 0.000000 -0.831469 1.0000 1.0000 1.0000
v 0.544895 -0.195090 -0.815493 1.0000 1.0000 1.0000
v 0.513280 -0.382683 -0.768178 1.0000 1.0000 1.0000
v 0.461940 -0.555570 -0.691342 1.0000 1.0000 1.0000
v 0.392847 -0.707107 -0.587938 1.0000 1.0000 1.0000
v 0.308658 -0.831470 -0.461940 1.0000 1.0000 1.0000
v 0.212608 -0.923880 -0.318190 1.0000 1.0000 1.0000
v 0.108386 -0.980785 -0.162212 1.0000 1.0000 1.0000
v 0.137950 0.980785 -0.137950 1.0000 1.0000 1.0000
v 0.270598 0.923880 -0.270598 1.0000 1.0000 1.0000
v 0.392847 0.831470 -0.392847 1.0000 1.0000 1.0000
v 0.500000 0.707107 -0.500000 1.0000 1.0000 1.0000
v 0.587938 0.555570 -0.587938 1.0000 1.0000 1.0000
v 0.653281 0.382683 -0.653281 1.0000 1.0000 1.0000
v 0.693520 0.195090 -0.693520 1.0000 1.0000 1.0000
v 0.707107 0.000000 -0.707107 1.0000 1.0000 1.0000
v 0.693520 -0.195090 -0.693520 1.0000 1.0000 1.0000
v 0.653281 -0.382683 -0.653281 1.0000 1.0000 1.0000
v 0.587938 -0.555570 -0.587938 1.0000 1.0000 1.0000
v 0.500000 -0.707107 -0.500000 1.0000 1.0000 1.0000
v 0.392847 -0.831470 -0.392847 1.0000 1.0000 1.0000
v 0.270598 -0.923880 -0.270598 1.0000 1.0000 1.0000
v 0.137950 -0.980785 -0.137950 1.0000 1.0000 1.0000
v 0.162212 0.980785 -0.108386 1.0000 1.0000 1.0000
v 0.318190 0.923880 -0.212608 1.0000 1.0000 1.0000
v 0.461940 0.831470 -0.308658 1.0000 1.0000 1.0000
v 0.587938 0.707107 -0.392847 1.0000 1.0000 1.0000
v 0.691342 0.555570 -0.461940 1.0000 1.0000 1.0000
v 0.768178 0.382683 -0.513280 1.0000 1.0000 1.0000
v 0.815493 0.195090 -0.544895 1.0000 1.0000 1.0000
v 0.831470 0.000000 -0.555570 1.0000 1.0000 1.0000
v 0.815493 -0.195090 -0.544895 1.0000 1.0000 1.0000
v 0.768178 -0.382683 -0.513280 1.0000 1.0000 1.0000
v 0.691342 -0.555570 -0.461940 1.0000 1.0000 1.0000
v 0.587938 -0.707107 -0.392847 1.0000 1.0000 1.0000
v 0.461940 -0.831470 -0.308658 1.0000 1.0000 1.0000
v 0.318190 -0.923880 -0.212608 1.0000 1.0000 1.0000
v 0.162212 -0.980785 -0.108386 1.0000 1.0000 1.0000
v 0.180240 0.980785 -0.074658 1.0000 1.0000 1.0000
v 0.353553 0.923880 -0.146447 1.0000 1.0000 1.0000
v 0.513280 0.831470 -0.212607 1.0000 1.0000 1.0000
v 0.653281 0.707107 -0.270598 1.0000 1.0000 1.0000
v 0.768178 0.555570 -0.318190 1.0000 1.0000 1.0000
v 0.853553 0.382683 -0.353553 1.0000 1.0000 1.0000
v 0.906127 0.195090 -0.375330 1.0000 1.0000 1.0000
v 0.923879 0.000000 -0.382683 1.0000 1.0000 1.0000
v 0.906127 -0.195090 -0.375330 1.0000 1.0000 1.0000
v 0.853553 -0.382683 -0.353553 1.0000 1.0000 1.0000
v 0.768178 -0.555570 -0.318190 1.0000 1.0000 1.0000
v 0.653281 -0.707107 -0.270598 1.0000 1.0000 1.0000
v 0.513280 -0.831470 -0.212607 1.0000 1.0000 1.0000
v 0.353553 -0.923880 -0.146447 1.0000 1.0000 1.0000
v 0.180240 -0.980785 -0.074658 1.0000 1.0000 1.0000
v 0.191342 0.980785 -0.038060 1.0000 1.0000 1.0000
v 0.375330 0.923880 -0.074658 1.0000 1.0000 1.0000
v 0.544895 0.831470 -0.108386 1.0000 1.0000 1.0000
v 0.693520 0.707107 -0.137950 1.0000 1.0000 1.0000
v 0.815493 0.555570 -0.162212 1.0000 1.0000 1.0000
v 0.906127 0.382683 -0.180240 1.0000 1.0000 1.0000
v 0.961940 0.195090 -0.191342 1.0000 1.0000 1.0000
v 0.980785 0.000000 -0.195090 1.0000 1.0000 1.0000
v 0.961940 -0.195090 -0.191342 1.0000 1.0000 1.0000
v 0.906127 -0.382683 -0.180240 1.0000 1.0000 1.0000
v 0.815493 -0.555570 -0.162212 1.0000 1.0000 1.0000
v 0.693520 -0.707107 -0.137950 1.0000 1.0000 1.0000
v 0.544895 -0.831470 -0.108386 1.0000 1.0000 1.0000
v 0.375330 -0.923880 -0.074658 1.0000 1.0000 1.0000
v 0.191342 -0.980785 -0.038060 1.0000 1.0000 1.0000
v 0.195090 0.980785 0.000000 1.0000 1.0000 1.0000
v 0.382683 0.923880 0.000000 1.0000 1.0000 1.0000
v 0.555570 0.831470 0.000000 1.0000 1.0000 1.0000
v 0.707107 0.707107 -0.000000 1.0000 1.0000 1.0000
v 0.831469 0.555570 0.000000 1.0000 1.0000 1.0000
v 0.923879 0.382683 -0.000000 1.0000 1.0000 1.0000
v 0.980785 0.195090 0.000000 1.0000 1.0000 1.0000
v 1.000000 0.000000 0.000000 1.0000 1.0000 1.0000
v 0.980785 -0.195090 0.000000 1.0000 1.0000 1.0000
v 0.923879 -0.382683 -0.000000 1.0000 1.0000 1.0000
v 0.831469 -0.555570 0.000000 1.0000 1.0000 1.0000
v 0.707107 -0.707107 -0.000000 1.0000 1.0000 1.0000
v 0.555570 -0.831470 0.000000 1.0000 1.0000 1.0000
v 0.382683 -0.923880 0.000000 1.0000 1.0000 1.0000
v 0.195090 -0.980785 0.000000 1.0000 1.0000 1.0000
v 0.191342 0.980785 0.038060 1.0000 1.0000 1.0000
v 0.375330 0.923880 0.074658 1.0000 1.0000 1.0000
v 0.544895 0.831470 0.108386 1.0000 1.0000 1.0000
v 0.693520 0.707107 0.137950 1.0000 1.0000 1.0000
v 0.815493 0.555570 0.162212 1.0000 1.0000 1.0000
v 0.906127 0.382683 0.180240 1.0000 1.0000 1.0000
v 0.961940 0.195090 0.191342 1.0000 1.0000 1.0000
v 0.980785 0.000000 0.195090 1.0000 1.0000 1.0000
v 0.961940 -0.195090 0.191342 1.0000 1.0000 1.0000
v 0.906127 -0.382683 0.180240 1.0000 1.0000 1.0000
v 0.815493 -0.555570 0.162212 1.0000 1.0000 1.0000
v 0.693520 -0.707107 0.137950 1.0000 1.0000 1.0000
v 0.544895 -0.831470 0.108386 1.0000 1.0000 1.0000
v 0.375330 -0.923880 0.074658 1.0000 1.0000 1.0000
v 0.191342 -0.980785 0.038060 1.0000 1.0000 1.0000
v 0.180240 0.980785 0.074658 1.0000 1.0000 1.0000
v 0.353553 0.923880 0.146447 1.0000 1.0000 1.0000
v 0.513280 0.831470 0.212608 1.0000 1.0000 1.0000
v 0.653281 0.707107 0.270598 1.0000 1.0000 1.0000
v 0.768178 0.555570 0.318190 1.0000 1.0000 1.0000
v 0.853553 0.382683 0.353553 1.0000 1.0000 1.0000
v 0.906127 0.195090 0.375330 1.0000 1.0000 1.0000
v 0.923879 0.000000 0.382683 1.0000 1.0000 1.0000
v 0.906127 -0.195090 0.375330 1.0000 1.0000 1.0000
v 0.853553 -0.382683 0.353553 1.0000 1.0000 1.0000
v 0.768178 -0.555570 0.318190 1.0000 1.0000 1.0000
v 0.653281 -0.707107 0.270598 1.0000 1.0000 1.0000
v 0.513280 -0.831470 0.212608 1.0000 1.0000 1.0000
v 0.353553 -0.923880 0.146447 1.0000 1.0000 1.0000
v 0.180240 -0.980785 0.074658 1.0000 1.0000 1.0000
v 0.162212 0.980785 0.108386 1.0000 1.0000 1.0000
v 0.318190 0.923880 0.212608 1.0000 1.0000 1.0000
v 0.461940 0.831470 0.308658 1.0000 1.0000 1.0000
v 0.587938 0.707107 0.392847 1.0000 1.0000 1.0000
v 0.691341 0.555570 0.461940 1.0000 1.0000 1.0000
v 0.768178 0.382683 0.513280 1.0000 1.0000 1.0000
v 0.815493 0.195090 0.544895 1.0000 1.0000 1.0000
v 0.831469 0.000000 0.555570 1.0000 1.0000 1.0000
v 0.815493 -0.195090 0.544895 1.0000 1.0000 1.0000
v 0.768178 -0.382683 0.513280 1.0000 1.0000 1.0000
v 0.691341 -0.555570 0.461940 1.0000 1.0000 1.0000
v 0.587938 -0.707107 0.392847 1.0000 1.0000 1.0000
v 0.461940 -0.831470 0.308658 1.0000 1.0000 1.0000
v 0.318190 -0.923880 0.212608 1.0000 1.0000 1.0000
v 0.162212 -0.980785 0.108386 1.0000 1.0000 1.0000
v 0.137950 0.980785 0.137950 1.0000 1.0000 1.0000
v 0.270598 0.923880 0.270598 1.0000 1.0000 1.0000
v 0.392847 0.831470 0.392847 1.0000 1.0000 1.0000
v 0.500000 0.707107 0.500000 1.0000 1.0000 1.0000
v 0.587938 0.555570 0.587938 1.0000 1.0000 1.0000
v 0.653281 0.382683 0.653281 1.0000 1.0000 1.0000
v 0.693520 0.195090 0.693520 1.0000 1.0000 1.0000
v 0.707106 0.000000 0.707107 1.0000 1.0000 1.0000
v 0.693520 -0.195090 0.693520 1.0000 1.0000 1.0000
v 0.653281 -0.382683 0.653281 1.0000 1.0000 1.0000
v 0.587938 -0.555570 0.587938 1.0000 1.0000 1.0000
v 0.500000 -0.707107 0.500000 1.0000 1.0000 1.0000
v 0.392847 -0.831470 0.392847 1.0000 1.0000 1.0000
v 0.270598 -0.923880 0.270598 1.0000 1.0000 1.0000
v 0.137950 -0.980785 0.137950 1.0000 1.0000 1.0000
v 0.108386 0.980785 0.162212 1.0000 1.0000 1.0000
v 0.212607 0.923880 0.318190 1.0000 1.0000 1.0000
v 0.308658 0.831470 0.461940 1.0000 1.0000 1.0000
v 0.392847 0.707107 0.587938 1.0000 1.0000 1.0000
v 0.461940 0.555570 0.691342 1.0000 1.0000 1.0000
v 0.513280 0.382683 0.768178 1.0000 1.0000 1.0000
v 0.544895 0.195090 0.815493 1.0000 1.0000 1.0000
v 0.555570 0.000000 0.831469 1.0000 1.0000 1.0000
v 0.544895 -0.195090 0.815493 1.0000 1.0000 1.0000
v 0.513280 -0.382683 0.768178 1.0000 1.0000 1.0000
v 0.461940 -0.555570 0.691342 1.0000 1.0000 1.0000
v 0.392847 -0.707107 0.587938 1.0000 1.0000 1.0000
v 0.308658 -0.831470 0.461940 1.0000 1.0000 1.0000
v 0.212607 -0.923880 0.318190 1.0000 1.0000 1.0000
v 0.108386 -0.980785 0.162212 1.0000 1.0000 1.0000
v 0.074658 0.980785 0.180240 1.0000 1.0000 1.0000
v 0.146447 0.923880 0.353553 1.0000 1.0000 1.0000
v 0.212607 0.831470 0.513280 1.0000 1.0000 1.0000
v 0.270598 0.707107 0.653281 1.0000 1.0000 1.0000
v 0.318189 0.555570 0.768178 1.0000 1.0000 1.0000
v 0.353553 0.382683 0.853553 1.0000 1.0000 1.0000
v 0.375330 0.195090 0.906127 1.0000 1.0000 1.0000
v 0.382683 0.000000 0.923879 1.0000 1.0000 1.0000
v 0.375330 -0.195090 0.906127 1.0000 1.0000 1.0000
v 0.353553 -0.382683 0.853553 1.0000 1.0000 1.0000
v 0.318189 -0.555570 0.768178 1.0000 1.0000 1.0000
v 0.270598 -0.707107 0.653281 1.0000 1.0000 1.0000
v 0.212607 -0.831470 0.513280 1.0000 1.0000 1.0000
v 0.146447 -0.923880 0.353553 1.0000 1.0000 1.0000
v 0.074658 -0.980785 0.180240 1.0000 1.0000 1.0000
v 0.038060 0.980785 0.191342 1.0000 1.0000 1.0000
v 0.074658 0.923880 0.375330 1.0000 1.0000 1.0000
v 0.108386 0.831470 0.544895 1.0000 1.0000 1.0000
v 0.137950 0.707107 0.693520 1.0000 1.0000 1.0000
v 0.162212 0.555570 0.815493 1.0000 1.0000 1.0000
v 0.180240 0.382683 0.906127 1.0000 1.0000 1.0000
v 0.191342 0.195090 0.961939 1.0000 1.0000 1.0000
v 0.195090 0.000000 0.980785 1.0000 1.0000 1.0000
v 0.191342 -0.195090 0.961939 1.0000 1.0000 1.0000
v 0.180240 -0.382683 0.906127 1.0000 1.0000 1.0000
v 0.162212 -0.555570 0.815493 1.0000 1.0000 1.0000
v 0.137950 -0.707107 0.693520 1.0000 1.0000 1.0000
v 0.108386 -0.831470 0.544895 1.0000 1.0000 1.0000
v 0.074658 -0.923880 0.375330 1.0000 1.0000 1.0000
v 0.038060 -0.980785 0.191342 1.0000 1.0000 1.0000
v -0.000000 0.980785 0.195090 1.0000 1.0000 1.0000
v -0.000000 0.923880 0.382683 1.0000 1.0000 1.0000
v -0.000000 0.831470 0.555570 1.0000 1.0000 1.0000
v -0.000000 0.707107 0.707107 1.0000 1.0000 1.0000
v -0.000000 0.555570 0.831469 1.0000 1.0000 1.0000
v 0.000000 0.382683 0.923879 1.0000 1.0000 1.0000
v -0.000000 0.195090 0.980785 1.0000 1.0000 1.0000
v -0.000000 0.000000 0.999999 1.0000 1.0000 1.0000
v -0.000000 -0.195090 0.980785 1.0000 1.0000 1.0000
v 0.000000 -0.382683 0.923879 1.0000 1.0000 1.0000
v -0.000000 -0.555570 0.831469 1.0000 1.0000 1.0000
v -0.000000 -0.707107 0.707107 1.0000 1.0000 1.0000
v -0.000000 -0.831470 0.555570 1.0000 1.0000 1.0000
v -0.000000 -0.923880 0.382683 1.0000 1.0000 1.0000
v -0.000000 -0.980785 0.195090 1.0000 1.0000 1.0000
v -0.038060 0.980785 0.191342 1.0000 1.0000 1.0000
v -0.074658 0.923880 0.375330 1.0000 1.0000 1.0000
v -0.108386 0.831470 0.544895 1.0000 1.0000 1.0000
v -0.137950 0.707107 0.693520 1.0000 1.0000 1.0000
v -0.162212 0.555570 0.815493 1.0000 1.0000 1.0000
v -0.180240 0.382683 0.906127 1.0000 1.0000 1.0000
v -0.191342 0.195090 0.961939 1.0000 1.0000 1.0000
v -0.195091 0.000000 0.980785 1.0000 1.0000 1.0000
v -0.191342 -0.195090 0.961939 1.0000 1.0000 1.0000
v -0.180240 -0.382683 0.906127 1.0000 1.0000 1.0000
v -0.162212 -0.555570 0.815493 1.0000 1.0000 1.0000
v -0.137950 -0.707107 0.693520 1.0000 1.0000 1.0000
v -0.108386 -0.831470 0.544895 1.0000 1.0000 1.0000
v -0.074658 -0.923880 0.375330 1.0000 1.0000 1.0000
v -0.038060 -0.980785 0.191342 1.0000 1.0000 1.0000
v -0.074658 0.980785 0.180240 1.0000 1.0000 1.0000
v -0.146447 0.923880 0.353553 1.0000 1.0000 1.0000
v -0.212608 0.831470 0.513280 1.0000 1.0000 1.0000
v -0.270598 0.707107 0.653281 1.0000 1.0000 1.0000
v -0.318190 0.555570 0.768177 1.0000 1.0000 1.0000
v -0.353553 0.382683 0.853553 1.0000 1.0000 1.0000
v -0.375330 0.195090 0.906127 1.0000 1.0000 1.0000
v -0.382683 0.000000 0.923879 1.0000 1.0000 1.0000
v -0.375330 -0.195090 0.906127 1.0000 1.0000 1.0000
v -0.353553 -0.382683 0.853553 1.0000 1.0000 1.0000
v -0.318190 -0.555570 0.768177 1.0000 1.0000 1.0000
v -0.270598 -0.707107 0.653281 1.0000 1.0000 1.0000
v -0.212608 -0.831470 0.513280 1.0000 1.0000 1.0000
v -0.146447 -0.923880 0.353553 1.0000 1.0000 1.0000
v -0.074658 -0.980785 0.180240 1.0000 1.0000 1.0000
v -0.108386 0.980785 0.162212 1.0000 1.0000 1.0000
v -0.212608 0.923880 0.318190 1.0000 1.0000 1.0000
v -0.308658 0.831470 0.461939 1.0000 1.0000 1.0000
v -0.392847 0.707107 0.587938 1.0000 1.0000 1.0000
v -0.461940 0.555570 0.691341 1.0000 1.0000 1.0000
v -0.513280 0.382683 0.768178 1.0000 1.0000 1.0000
v -0.544895 0.195090 0.815493 1.0000 1.0000 1.0000
v -0.555570 0.000000 0.831469 1.0000 1.0000 1.0000
v -0.544895 -0.195090 0.815493 1.0000 1.0000 1.0000
v -0.513280 -0.382683 0.768178 1.0000 1.0000 1.0000
v -0.461940 -0.555570 0.691341 1.0000 1.0000 1.0000
v -0.392847 -0.707107 0.587938 1.0000 1.0000 1.0000
v -0.308658 -0.831470 0.461939 1.0000 1.0000 1.0000
v -0.212608 -0.923880 0.318190 1.0000 1.0000 1.0000
v -0.108386 -0.980785 0.162212 1.0000 1.0000 1.0000
v -0.137950 0.980785 0.137950 1.0000 1.0000 1.0000
v -0.270598 0.923880 0.270598 1.0000 1.0000 1.0000
v -0.392847 0.831470 0.392847 1.0000 1.0000 1.0000
v -0.500000 0.707107 0.500000 1.0000 1.0000 1.0000
v -0.587938 0.555570 0.587937 1.0000 1.0000 1.0000
v -0.653281 0.382683 0.653281 1.0000 1.0000 1.0000
v -0.693520 0.195090 0.693520 1.0000 1.0000 1.0000
v -0.707106 0.000000 0.707106 1.0000 1.0000 1.0000
v -0.693520 -0.195090 0.693520 1.0000 1.0000 1.0000
v -0.653281 -0.382683 0.653281 1.0000 1.0000 1.0000
v -0.587938 -0.555570 0.587937 1.0000 1.0000 1.0000
v -0.500000 -0.707107 0.500000 1.0000 1.0000 1.0000
v -0.392847 -0.831470 0.392847 1.0000 1.0000 1.0000
v -0.270598 -0.923880 0.270598 1.0000 1.0000 1.0000
v -0.137950 -0.980785 0.137950 1.0000 1.0000 1.0000
v -0.162212 0.980785 0.108386 1.0000 1.0000 1.0000
v -0.318190 0.923880 0.212607 1.0000 1.0000 1.0000
v -0.461940 0.831470 0.308658 1.0000 1.0000 1.0000
v -0.587938 0.707107 0.392847 1.0000 1.0000 1.0000
v -0.691341 0.555570 0.461939 1.0000 1.0000 1.0000
v -0.768177 0.382683 0.513280 1.0000 1.0000 1.0000
v -0.815493 0.195090 0.544895 1.0000 1.0000 1.0000
v -0.831469 0.000000 0.555569 1.0000 1.0000 1.0000
v -0.815493 -0.195090 0.544895 1.0000 1.0000 1.0000
v -0.768177 -0.382683 0.513280 1.0000 1.0000 1.0000
v -0.691341 -0.555570 0.461939 1.0000 1.0000 1.0000
v -0.587938 -0.707107 0.392847 1.0000 1.0000 1.0000
v -0.461940 -0.831470 0.308658 1.0000 1.0000 1.0000
v -0.318190 -0.923880 0.212607 1.0000 1.0000 1.0000
v -0.162212 -0.980785 0.108386 1.0000 1.0000 1.0000
v -0.180240 0.980785 0.074658 1.0000 1.0000 1.0000
v -0.353553 0.923880 0.146447 1.0000 1.0000 1.0000
v -0.513280 0.831470 0.212607 1.0000 1.0000 1.0000
v -0.653281 0.707107 0.270598 1.0000 1.0000 1.0000
v -0.768177 0.555570 0.318189 1.0000 1.0000 1.0000
v -0.853553 0.382683 0.353553 1.0000 1.0000 1.0000
v -0.906127 0.195090 0.375330 1.0000 1.0000 1.0000
v -0.923879 0.000000 0.382683 1.0000 1.0000 1.0000
v -0.906127 -0.195090 0.375330 1.0000 1.0000 1.0000
v -0.853553 -0.382683 0.353553 1.0000 1.0000 1.0000
v -0.768177 -0.555570 0.318189 1.0000 1.0000 1.0000
v -0.653281 -0.707107 0.270598 1.0000 1.0000 1.0000
v -0.513280 -0.831470 0.212607 1.0000 1.0000 1.0000
v -0.353553 -0.923880 0.146447 1.0000 1.0000 1.0000
v -0.180240 -0.980785 0.074658 1.0000 1.0000 1.0000
v -0.191342 0.980785 0.038060 1.0000 1.0000 1.0000
v -0.375330 0.923880 0.074658 1.0000 1.0000 1.0000
v -0.544895 0.831470 0.108386 1.0000 1.0000 1.0000
v -0.693520 0.707107 0.137950 1.0000 1.0000 1.0000
v -0.815493 0.555570 0.162211 1.0000 1.0000 1.0000
v -0.906127 0.382683 0.180240 1.0000 1.0000 1.0000
v -0.961939 0.195090 0.191341 1.0000 1.0000 1.0000
v -0.980784 0.000000 0.195090 1.0000 1.0000 1.0000
v -0.961939 -0.195090 0.191341 1.0000 1.0000 1.0000
v -0.906127 -0.382683 0.180240 1.0000 1.0000 1.0000
v -0.815493 -0.555570 0.162211 1.0000 1.0000 1.0000
v -0.693520 -0.707107 0.137950 1.0000 1.0000 1.0000
v -0.544895 -0.831470 0.108386 1.0000 1.0000 1.0000
v -0.375330 -0.923880 0.074658 1.0000 1.0000 1.0000
v -0.191342 -0.980785 0.038060 1.0000 1.0000 1.0000
v -0.195090 0.980785 -0.000000 1.0000 1.0000 1.0000
v -0.382683 0.923880 -0.000000 1.0000 1.0000 1.0000
v -0.555570 0.831470 -0.000000 1.0000 1.0000 1.0000
v -0.707107 0.707107 -0.000000 1.0000 1.0000 1.0000
v -0.831469 0.555570 -0.000000 1.0000 1.0000 1.0000
v -0.923879 0.382683 -0.000000 1.0000 1.0000 1.0000
v -0.980785 0.195090 -0.000000 1.0000 1.0000 1.0000
v -0.999999 0.000000 -0.000000 1.0000 1.0000 1.0000
v -0.980785 -0.195090 -0.000000 1.0000 1.0000 1.0000
v -0.923879 -0.382683 -0.000000 1.0000 1.0000 1.0000
v -0.831469 -0.555570 -0.000000 1.0000 1.0000 1.0000
v -0.707107 -0.707107 -0.000000 1.0000 1.0000 1.0000
v -0.555570 -0.831470 -0.000000 1.0000 1.0000 1.0000
v -0.382683 -0.923880 -0.000000 1.0000 1.0000 1.0000
v -0.195090 -0.980785 -0.000000 1.0000 1.0000 1.0000
v -0.191342 0.980785 -0.038060 1.0000 1.0000 1.0000
v -0.375330 0.923880 -0.074658 1.0000 1.0000 1.0000
v -0.544895 0.831470 -0.108386 1.0000 1.0000 1.0000
v -0.693520 0.707107 -0.137950 1.0000 1.0000 1.0000
v -0.815493 0.555570 -0.162212 1.0000 1.0000 1.0000
v -0.906127 0.382683 -0.180240 1.0000 1.0000 1.0000
v -0.961939 0.195090 -0.191342 1.0000 1.0000 1.0000
v -0.980784 0.000000 -0.195091 1.0000 1.0000 1.0000
v -0.961939 -0.195090 -0.191342 1.0000 1.0000 1.0000
v -0.906127 -0.382683 -0.180240 1.0000 1.0000 1.0000
v -0.815493 -0.555570 -0.162212 1.0000 1.0000 1.0000
v -0.693520 -0.707107 -0.137950 1.0000 1.0000 1.0000
v -0.544895 -0.831470 -0.108386 1.0000 1.0000 1.0000
v -0.375330 -0.923880 -0.074658 1.0000 1.0000 1.0000
v -0.191342 -0.980785 -0.038060 1.0000 1.0000 1.0000
v -0.180240 0.980785 -0.074658 1.0000 1.0000 1.0000
v -0.353553 0.923880 -0.146447 1.0000 1.0000 1.0000
v -0.513279 0.831470 -0.212607 1.0000 1.0000 1.0000
v -0.653281 0.707107 -0.270598 1.0000 1.0000 1.0000
v -0.768177 0.555570 -0.318190 1.0000 1.0000 1.0000
v -0.853553 0.382683 -0.353553 1.0000 1.0000 1.0000
v -0.906127 0.195090 -0.375330 1.0000 1.0000 1.0000
v -0.923878 0.000000 -0.382683 1.0000 1.0000 1.0000
v -0.906127 -0.195090 -0.375330 1.0000 1.0000 1.0000
v -0.853553 -0.382683 -0.353553 1.0000 1.0000 1.0000
v -0.768177 -0.555570 -0.318190 1.0000 1.0000 1.0000
v -0.653281 -0.707107 -0.270598 1.0000 1.0000 1.0000
v -0.513279 -0.831470 -0.212607 1.0000 1.0000 1.0000
v -0.353553 -0.923880 -0.146447 1.0000 1.0000 1.0000
v -0.180240 -0.980785 -0.074658 1.0000 1.0000 1.0000
v -0.162212 0.980785 -0.108386 1.0000 1.0000 1.0000
v -0.318189 0.923880 -0.212607 1.0000 1.0000 1.0000
v -0.461939 0.831470 -0.308658 1.0000 1.0000 1.0000
v -0.587938 0.707107 -0.392847 1.0000 1.0000 1.0000
v -0.691341 0.555570 -0.461940 1.0000 1.0000 1.0000
v -0.768177 0.382683 -0.513280 1.0000 1.0000 1.0000
v -0.815493 0.195090 -0.544895 1.0000 1.0000 1.0000
v -0.831468 0.000000 -0.555570 1.0000 1.0000 1.0000
v -0.815493 -0.195090 -0.544895 1.0000 1.0000 1.0000
v -0.768177 -0.382683 -0.513280 1.0000 1.0000 1.0000
v -0.691341 -0.555570 -0.461940 1.0000 1.0000 1.0000
v -0.587938 -0.707107 -0.392847 1.0000 1.0000 1.0000
v -0.461939 -0.831470 -0.308658 1.0000 1.0000 1.0000
v -0.318189 -0.923880 -0.212607 1.0000 1.0000 1.0000
v -0.162212 -0.980785 -0.108386 1.0000 1.0000 1.0000
v -0.137950 0.980785 -0.137950 1.0000 1.0000 1.0000
v -0.270598 0.923880 -0.270598 1.0000 1.0000 1.0000
v -0.392847 0.831470 -0.392847 1.0000 1.0000 1.0000
v -0.500000 0.707107 -0.500000 1.0000 1.0000 1.0000
v -0.587937 0.555570 -0.587938 1.0000 1.0000 1.0000
v -0.653281 0.382683 -0.653281 1.0000 1.0000 1.0000
v -0.693519 0.195090 -0.693520 1.0000 1.0000 1.0000
v -0.707106 0.000000 -0.707106 1.0000 1.0000 1.0000
v -0.693519 -0.195090 -0.693520 1.0000 1.0000 1.0000
v -0.653281 -0.382683 -0.653281 1.0000 1.0000 1.0000
v -0.587937 -0.555570 -0.587938 1.0000 1.0000 1.0000
v -0.500000 -0.707107 -0.500000 1.0000 1.0000 1.0000
v -0.392847 -0.831470 -0.392847 1.0000 1.0000 1.0000
v -0.270598 -0.923880 -0.270598 1.0000 1.0000 1.0000
v -0.137950 -0.980785 -0.137950 1.0000 1.0000 1.0000
v -0.108386 0.980785 -0.162212 1.0000 1.0000 1.0000
v -0.212607 0.923880 -0.318190 1.0000 1.0000 1.0000
v -0.308658 0.831470 -0.461939 1.0000 1.0000 1.0000
v -0.392847 0.707107 -0.587938 1.0000 1.0000 1.0000
v -0.461939 0.555570 -0.691341 1.0000 1.0000 1.0000
v -0.513280 0.382683 -0.768177 1.0000 1.0000 1.0000
v -0.544895 0.195090 -0.815493 1.0000 1.0000 1.0000
v -0.555569 0.000000 -0.831469 1.0000 1.0000 1.0000
v -0.544895 -0.195090 -0.815493 1.0000 1.0000 1.0000
v -0.513280 -0.382683 -0.768177 1.0000 1.0000 1.0000
v -0.461939 -0.555570 -0.691341 1.0000 1.0000 1.0000
v -0.392847 -0.707107 -0.587938 1.0000 1.0000 1.0000
v -0.308658 -0.831470 -0.461939 1.0000 1.0000 1.0000
v -0.212607 -0.923880 -0.318190 1.0000 1.0000 1.0000
v -0.108386 -0.980785 -0.162212 1.0000 1.0000 1.0000
v -0.074658 0.980785 -0.180240 1.0000 1.0000 1.0000
v -0.146446 0.923880 -0.353553 1.0000 1.0000 1.0000
v -0.212607 0.831470 -0.513279 1.0000 1.0000 1.0000
v -0.270598 0.707107 -0.653281 1.0000 1.0000 1.0000
v -0.318189 0.555570 -0.768177 1.0000 1.0000 1.0000
v -0.353553 0.382683 -0.853553 1.0000 1.0000 1.0000
v -0.375330 0.195090 -0.906127 1.0000 1.0000 1.0000
v -0.382683 0.000000 -0.923879 1.0000 1.0000 1.0000
v -0.375330 -0.195090 -0.906127 1.0000 1.0000 1.0000
v -0.353553 -0.382683 -0.853553 1.0000 1.0000 1.0000
v -0.318189 -0.555570 -0.768177 1.0000 1.0000 1.0000
v -0.270598 -0.707107 -0.653281 1.0000 1.0000 1.0000
v -0.212607 -0.831470 -0.513279 1.0000 1.0000 1.0000
v -0.146446 -0.923880 -0.353553 1.0000 1.0000 1.0000
v -0.074658 -0.980785 -0.180240 1.0000 1.0000 1.0000
v -0.038060 0.980785 -0.191342 1.0000 1.0000 1.0000
v -0.074658 0.923880 -0.375330 1.0000 1.0000 1.0000
v -0.108386 0.831470 -0.544895 1.0000 1.0000 1.0000
v -0.137950 0.707107 -0.693520 1.0000 1.0000 1.0000
v -0.162211 0.555570 -0.815493 1.0000 1.0000 1.0000
v -0.180240 0.382683 -0.906127 1.0000 1.0000 1.0000
v -0.191341 0.195090 -0.961939 1.0000 1.0000 1.0000
v -0.195090 0.000000 -0.980784 1.0000 1.0000 1.0000
v -0.191341 -0.195090 -0.961939 1.0000 1.0000 1.0000
v -0.180240 -0.382683 -0.906127 1.0000 1.0000 1.0000
v -0.162211 -0.555570 -0.815493 1.0000 1.0000 1.0000
v -0.137950 -0.707107 -0.693520 1.0000 1.0000 1.0000
v -0.108386 -0.831470 -0.544895 1.0000 1.0000 1.0000
v -0.074658 -0.923880 -0.375330 1.0000 1.0000 1.0000
v -0.038060 -0.980785 -0.191342 1.0000 1.0000 1.0000
v 0.000000 0.980785 -0.195090 1.0000 1.0000 1.0000
v 0.000000 0.923880 -0.382683 1.0000 1.0000 1.0000
v 0.000000 0.707107 -0.707107 1.0000 1.0000 1.0000
v 0.000000 0.382683 -0.923879 1.0000 1.0000 1.0000
v 0.000000 -0.382683 -0.923879 1.0000 1.0000 1.0000
v 0.000000 -0.707107 -0.707107 1.0000 1.0000 1.0000
v 0.000000 -0.831470 -0.555570 1.0000 1.0000 1.0000
v 0.000000 -0.923880 -0.382683 1.0000 1.0000 1.0000
v 0.000000 -0.980785 -0.195090 1.0000 1.0000 1.0000
vn -0.0000 1.0000 -0.0000
vn -0.0000 0.8286 -0.5598
vn -0.0000 0.5528 -0.8333
vn -0.0000 0.1939 -0.9810
vn -0.0000 -0.0000 -1.0000
vn -0.0000 -0.1939 -0.9810
vn -0.0000 -0.5528 -0.8333
vn -0.0000 -1.0000 -0.0000
vn 0.0392 0.9796 -0.1971
vn 0.0757 0.9217 -0.3804
vn 0.1092 0.8286 -0.5490
vn 0.1385 0.7041 -0.6965
vn 0.1626 0.5528 -0.8173
vn 0.1804 0.3805 -0.9070
vn 0.1914 0.1939 -0.9622
vn 0.1951 -0.0000 -0.9808
vn 0.1914 -0.1939 -0.9622
vn 0.1804 -0.3805 -0.9070
vn 0.1626 -0.5528 -0.8173
vn 0.1385 -0.7041 -0.6965
vn 0.1092 -0.8286 -0.5490
vn 0.0757 -0.9217 -0.3804
vn 0.0392 -0.9796 -0.1971
vn 0.0769 0.9796 -0.1857
vn 0.1484 0.9217 -0.3584
vn 0.2142 0.8286 -0.5172
vn 0.2718 0.7041 -0.6561
vn 0.3189 0.5528 -0.7699
vn 0.3539 0.3805 -0.8544
vn 0.3754 0.1939 -0.9063
vn 0.3827 -0.0000 -0.9239
vn 0.3754 -0.1939 -0.9063
vn 0.3539 -0.3805 -0.8544
vn 0.3189 -0.5528 -0.7699
vn 0.2718 -0.7041 -0.6561
vn 0.2142 -0.8286 -0.5172
vn 0.1484 -0.9217 -0.3584
vn 0.0769 -0.9796 -0.1857
vn 0.1117 0.9796 -0.1671
vn 0.2155 0.9217 -0.3225
vn 0.3110 0.8286 -0.4654
vn 0.3945 0.7041 -0.5905
vn 0.4630 0.5528 -0.6929
vn 0.5138 0.3805 -0.7689
vn 0.5450 0.1939 -0.8157
vn 0.5556 -0.0000 -0.8315
vn 0.5450 -0.1939 -0.8157
vn 0.5138 -0.3805 -0.7689
vn 0.4630 -0.5528 -0.6929
vn 0.3945 -0.7041 -0.5905
vn 0.3110 -0.8286 -0.4654
vn 0.2155 -0.9217 -0.3225
vn 0.1117 -0.9796 -0.1671
vn 0.1421 0.9796 -0.1421
vn 0.2743 0.9217 -0.2743
vn 0.3958 0.8286 -0.3958
vn 0.5021 0.7041 -0.5021
vn 0.5893 0.5528 -0.5893
vn 0.6539 0.3805 -0.6539
vn 0.6937 0.1939 -0.6937
vn 0.7071 -0.0000 -0.7071
vn 0.6937 -0.1939 -0.6937
vn 0.6539 -0.3805 -0.6539
vn 0.5893 -0.5528 -0.5893
vn 0.5021 -0.7041 -0.5021
vn 0.3958 -0.8286 -0.3958
vn 0.2743 -0.9217 -0.2743
vn 0.1421 -0.9796 -0.1421
vn 0.1671 0.9796 -0.1117
vn 0.3225 0.9217 -0.2155
vn 0.4654 0.8286 -0.3110
vn 0.5905 0.7041 -0.3945
vn 0.6929 0.5528 -0.4630
vn 0.7689 0.3805 -0.5138
vn 0.8157 0.1939 -0.5450
vn 0.8315 -0.0000 -0.5556
vn 0.8157 -0.1939 -0.5450
vn 0.7689 -0.3805 -0.5138
vn 0.6929 -0.5528 -0.4630
vn 0.5905 -0.7041 -0.3945
vn 0.4654 -0.8286 -0.3110
vn 0.3225 -0.9217 -0.2155
vn 0.1671 -0.9796 -0.1117
vn 0.1857 0.9796 -0.0769
vn 0.3584 0.9217 -0.1484
vn 0.5172 0.8286 -0.2142
vn 0.6561 0.7041 -0.2718
vn 0.7699 0.5528 -0.3189
vn 0.8544 0.3805 -0.3539
vn 0.9063 0.1939 -0.3754
vn 0.9239 -0.0000 -0.3827
vn 0.9063 -0.1939 -0.3754
vn 0.8544 -0.3805 -0.3539
vn 0.7699 -0.5528 -0.3189
vn 0.6561 -0.7041 -0.2718
vn 0.5172 -0.8286 -0.2142
vn 0.3584 -0.9217 -0.1484
vn 0.1857 -0.9796 -0.0769
vn 0.1971 0.9796 -0.0392
vn 0.3804 0.9217 -0.0757
vn 0.5490 0.8286 -0.1092
vn 0.6965 0.7041 -0.1385
vn 0.8173 0.5528 -0.1626
vn 0.9070 0.3805 -0.1804
vn 0.9622 0.1939 -0.1914
vn 0.9808 -0.0000 -0.1951
vn 0.9622 -0.1939 -0.1914
vn 0.9070 -0.3805 -0.1804
vn 0.8173 -0.5528 -0.1626
vn 0.6965 -0.7041 -0.1385
vn 0.5490 -0.8286 -0.1092
vn 0.3804 -0.9217 -0.0757
vn 0.1971 -0.9796 -0.0392
vn 0.2010 0.9796 -0.0000
vn 0.3879 0.9217 -0.0000
vn 0.5598 0.8286 -0.0000
vn 0.7101 0.7041 -0.0000
vn 0.8333 0.5528 -0.0000
vn 0.9248 0.3805 -0.0000
vn 0.9810 0.1939 -0.0000
vn 1.0000 -0.0000 -0.0000
vn 0.9810 -0.1939 -0.0000
vn 0.9248 -0.3805 -0.0000
vn 0.8333 -0.5528 -0.0000
vn 0.7101 -0.7041 -0.0000
vn 0.5598 -0.8286 -0.0000
vn 0.3879 -0.9217 -0.0000
vn 0.2010 -0.9796 -0.0000
vn 0.1971 0.9796 0.0392
vn 0.3804 0.9217 0.0757
vn 0.5490 0.8286 0.1092
vn 0.6965 0.7041 0.1385
vn 0.8173 0.5528 0.1626
vn 0.9070 0.3805 0.1804
vn 0.9622 0.1939 0.1914
vn 0.9808 -0.0000 0.1951
vn 0.9622 -0.1939 0.1914
vn 0.9070 -0.3805 0.1804
vn 0.8173 -0.5528 0.1626
vn 0.6965 -0.7041 0.1385
vn 0.5490 -0.8286 0.1092
vn 0.3804 -0.9217 0.0757
vn 0.1971 -0.9796 0.0392
vn 0.1857 0.9796 0.0769
vn 0.3584 0.9217 0.1484
vn 0.5172 0.8286 0.2142
vn 0.6561 0.7041 0.2718
vn 0.7699 0.5528 0.3189
vn 0.8544 0.3805 0.3539
vn 0.9063 0.1939 0.3754
vn 0.9239 -0.0000 0.3827
vn 0.9063 -0.1939 0.3754
vn 0.8544 -0.3805 0.3539
vn 0.7699 -0.5528 0.3189
vn 0.6561 -0.7041 0.2718
vn 0.5172 -0.8286 0.2142
vn 0.3584 -0.9217 0.1484
vn 0.1857 -0.9796 0.0769
vn 0.1671 0.9796 0.1117
vn 0.3225 0.9217 0.2155
vn 0.4654 0.8286 0.3110
vn 0.5905 0.7041 0.3945
vn 0.6929 0.5528 0.4630
vn 0.7689 0.3805 0.5138
vn 0.8157 0.1939 0.5450
vn 0.8315 -0.0000 0.5556
vn 0.8157 -0.1939 0.5450
vn 0.7689 -0.3805 0.5138
vn 0.6929 -0.5528 0.4630
vn 0.5905 -0.7041 0.3945
vn 0.4654 -0.8286 0.3110
vn 0.3225 -0.9217 0.2155
vn 0.1671 -0.9796 0.1117
vn 0.1421 0.9796 0.1421
vn 0.2743 0.9217 0.2743
vn 0.3958 0.8286 0.3958
vn 0.5021 0.7041 0.5021
vn 0.5893 0.5528 0.5893
vn 0.6539 0.3805 0.6539
vn 0.6937 0.1939 0.6937
vn 0.7071 -0.0000 0.7071
vn 0.6937 -0.1939 0.6937
vn 0.6539 -0.3805 0.6539
vn 0.5893 -0.5528 0.5893
vn 0.5021 -0.7041 0.5021
vn 0.3958 -0.8286 0.3958
vn 0.2743 -0.9217 0.2743
vn 0.1421 -0.9796 0.1421
vn 0.1117 0.9796 0.1671
vn 0.2155 0.9217 0.3225
vn 0.3110 0.8286 0.4654
vn 0.3945 0.7041 0.5905
vn 0.4630 0.5528 0.6929
vn 0.5138 0.3805 0.7689
vn 0.5450 0.1939 0.8157
vn 0.5556 -0.0000 0.8315
vn 0.5450 -0.1939 0.8157
vn 0.5138 -0.3805 0.7689
vn 0.4630 -0.5528 0.6929
vn 0.3945 -0.7041 0.5905
vn 0.3110 -0.8286 0.4654
vn 0.2155 -0.9217 0.3225
vn 0.1117 -0.9796 0.1671
vn 0.0769 0.9796 0.1857
vn 0.1484 0.9217 0.3584
vn 0.2142 0.8286 0.5172
vn 0.2718 0.7041 0.6561
vn 0.3189 0.5528 0.7699
vn 0.3539 0.3805 0.8544
vn 0.3754 0.1939 0.9063
vn 0.3827 -0.0000 0.9239
vn 0.3754 -0.1939 0.9063
vn 0.3539 -0.3805 0.8544
vn 0.3189 -0.5528 0.7699
vn 0.2718 -0.7041 0.6561
vn 0.2142 -0.8286 0.5172
vn 0.1484 -0.9217 0.3584
vn 0.0769 -0.9796 0.1857
vn 0.0392 0.9796 0.1971
vn 0.0757 0.9217 0.3804
vn 0.1092 0.8286 0.5490
vn 0.1385 0.7041 0.6965
vn 0.1626 0.5528 0.8173
vn 0.1804 0.3805 0.9070
vn 0.1914 0.1939 0.9622
vn 0.1951 -0.0000 0.9808
vn 0.1914 -0.1939 0.9622
vn 0.1804 -0.3805 0.9070
vn 0.1626 -0.5528 0.8173
vn 0.1385 -0.7041 0.6965
vn 0.1092 -0.8286 0.5490
vn 0.0757 -0.9217 0.3804
vn 0.0392 -0.9796 0.1971
vn -0.0000 0.9796 0.2010
vn -0.0000 0.9217 0.3879
vn -0.0000 0.8286 0.5598
vn -0.0000 0.7041 0.7101
vn -0.0000 0.5528 0.8333
vn -0.0000 0.3805 0.9248
vn -0.0000 0.1939 0.9810
vn -0.0000 -0.0000 1.0000
vn -0.0000 -0.1939 0.9810
vn -0.0000 -0.3805 0.9248
vn -0.0000 -0.5528 0.8333
vn -0.0000 -0.7041 0.7101
vn -0.0000 -0.8286 0.5598
vn -0.0000 -0.9217 0.3879
vn -0.0000 -0.9796 0.2010
vn -0.0392 0.9796 0.1971
vn -0.0757 0.9217 0.3804
vn -0.1092 0.8286 0.5490
vn -0.1385 0.7041 0.6965
vn -0.1626 0.5528 0.8173
vn -0.1804 0.3805 0.9070
vn -0.1914 0.1939 0.9622
vn -0.1951 -0.0000 0.9808
vn -0.1914 -0.1939 0.9622
vn -0.1804 -0.3805 0.9070
vn -0.1626 -0.5528 0.8173
vn -0.1385 -0.7041 0.6965
vn -0.1092 -0.8286 0.5490
vn -0.0757 -0.9217 0.3804
vn -0.0392 -0.9796 0.1971
vn -0.0769 0.9796 0.1857
vn -0.1484 0.9217 0.3584
vn -0.2142 0.8286 0.5172
vn -0.2718 0.7041 0.6561
vn -0.3189 0.5528 0.7699
vn -0.3539 0.3805 0.8544
vn -0.3754 0.1939 0.9063
vn -0.3827 -0.0000 0.9239
vn -0.3754 -0.1939 0.9063
vn -0.3539 -0.3805 0.8544
vn -0.3189 -0.5528 0.7699
vn -0.2718 -0.7041 0.6561
vn -0.2142 -0.8286 0.5172
vn -0.1484 -0.9217 0.3584
vn -0.0769 -0.9796 0.1857
vn -0.1117 0.9796 0.1671
vn -0.2155 0.9217 0.3225
vn -0.3110 0.8286 0.4654
vn -0.3945 0.7041 0.5905
vn -0.4630 0.5528 0.6929
vn -0.5138 0.3805 0.7689
vn -0.5450 0.1939 0.8157
vn -0.5556 -0.0000 0.8315
vn -0.5450 -0.1939 0.8157
vn -0.5138 -0.3805 0.7689
vn -0.4630 -0.5528 0.6929
vn -0.3945 -0.7041 0.5905
vn -0.3110 -0.8286 0.4654
vn -0.2155 -0.9217 0.3225
vn -0.1117 -0.9796 0.1671
vn -0.1421 0.9796 0.1421
vn -0.2743 0.9217 0.2743
vn -0.3958 0.8286 0.3958
vn -0.5021 0.7041 0.5021
vn -0.5893 0.5528 0.5893
vn -0.6539 0.3805 0.6539
vn -0.6937 0.1939 0.6937
vn -0.7071 -0.0000 0.7071
vn -0.6937 -0.1939 0.6937
vn -0.6539 -0.3805 0.6539
vn -0.5893 -0.5528 0.5893
vn -0.5021 -0.7041 0.5021
vn -0.3958 -0.8286 0.3958
vn -0.2743 -0.9217 0.2743
vn -0.1421 -0.9796 0.1421
vn -0.1671 0.9796 0.1117
vn -0.3225 0.9217 0.2155
vn -0.4654 0.8286 0.3110
vn -0.5905 0.7041 0.3945
vn -0.6929 0.5528 0.4630
vn -0.7689 0.3805 0.5138
vn -0.8157 0.1939 0.5450
vn -0.8315 -0.0000 0.5556
vn -0.8157 -0.1939 0.5450
vn -0.7689 -0.3805 0.5138
vn -0.6929 -0.5528 0.4630
vn -0.5905 -0.7041 0.3945
vn -0.4654 -0.8286 0.3110
vn -0.3225 -0.9217 0.2155
vn -0.1671 -0.9796 0.1117
vn -0.1857 0.9796 0.0769
vn -0.3584 0.9217 0.1484
vn -0.5172 0.8286 0.2142
vn -0.6561 0.7041 0.2718
vn -0.7699 0.5528 0.3189
vn -0.8544 0.3805 0.3539
vn -0.9063 0.1939 0.3754
vn -0.9239 -0.0000 0.3827
vn -0.9063 -0.1939 0.3754
vn -0.8544 -0.3805 0.3539
vn -0.7699 -0.5528 0.3189
vn -0.6561 -0.7041 0.2718
vn -0.5172 -0.8286 0.2142
vn -0.3584 -0.9217 0.1484
vn -0.1857 -0.9796 0.0769
vn -0.1971 0.9796 0.0392
vn -0.3804 0.9217 0.0757
vn -0.5490 0.8286 0.1092
vn -0.6965 0.7041 0.1385
vn -0.8173 0.5528 0.1626
vn -0.9070 0.3805 0.1804
vn -0.9622 0.1939 0.1914
vn -0.9808 -0.0000 0.1951
vn -0.9622 -0.1939 0.1914
vn -0.9070 -0.3805 0.1804
vn -0.8173 -0.5528 0.1626
vn -0.6965 -0.7041 0.1385
vn -0.5490 -0.8286 0.1092
vn -0.3804 -0.9217 0.0757
vn -0.1971 -0.9796 0.0392
vn -0.2010 0.9796 -0.0000
vn -0.3879 0.9217 -0.0000
vn -0.5598 0.8286 -0.0000
vn -0.7101 0.7041 -0.0000
vn -0.8333 0.5528 -0.0000
vn -0.9248 0.3805 -0.0000
vn -0.9810 0.1939 -0.0000
vn -1.0000 -0.0000 -0.0000
vn -0.9810 -0.1939 -0.0000
vn -0.9248 -0.3805 -0.0000
vn -0.8333 -0.5528 -0.0000
vn -0.7101 -0.7041 -0.0000
vn -0.5598 -0.8286 -0.0000
vn -0.3879 -0.9217 -0.0000
vn -0.2010 -0.9796 -0.0000
vn -0.1971 0.9796 -0.0392
vn -0.3804 0.9217 -0.0757
vn -0.5490 0.8286 -0.1092
vn -0.6965 0.7041 -0.1385
vn -0.8173 0.5528 -0.1626
vn -0.9070 0.3805 -0.1804
vn -0.9622 0.1939 -0.1914
vn -0.9808 -0.0000 -0.1951
vn -0.9622 -0.1939 -0.1914
vn -0.9070 -0.3805 -0.1804
vn -0.8173 -0.5528 -0.1626
vn -0.6965 -0.7041 -0.1385
vn -0.5490 -0.8286 -0.1092
vn -0.3804 -0.9217 -0.0757
vn -0.1971 -0.9796 -0.0392
vn -0.1857 0.9796 -0.0769
vn -0.3584 0.9217 -0.1484
vn -0.5172 0.8286 -0.2142
vn -0.6561 0.7041 -0.2718
vn -0.7699 0.5528 -0.3189
vn -0.8544 0.3805 -0.3539
vn -0.9063 0.1939 -0.3754
vn -0.9239 -0.0000 -0.3827
vn -0.9063 -0.1939 -0.3754
vn -0.8544 -0.3805 -0.3539
vn -0.7699 -0.5528 -0.3189
vn -0.6561 -0.7041 -0.2718
vn -0.5172 -0.8286 -0.2142
vn -0.3584 -0.9217 -0.1484
vn -0.1857 -0.9796 -0.0769
vn -0.1671 0.9796 -0.1117
vn -0.3225 0.9217 -0.2155
vn -0.4654 0.8286 -0.3110
vn -0.5905 0.7041 -0.3945
vn -0.6929 0.5528 -0.4630
vn -0.7689 0.3805 -0.5138
vn -0.8157 0.1939 -0.5450
vn -0.8315 -0.0000 -0.5556
vn -0.8157 -0.1939 -0.5450
vn -0.7689 -0.3805 -0.5138
vn -0.6929 -0.5528 -0.4630
vn -0.5905 -0.7041 -0.3945
vn -0.4654 -0.8286 -0.3110
vn -0.3225 -0.9217 -0.2155
vn -0.1671 -0.9796 -0.1117
vn -0.1421 0.9796 -0.1421
vn -0.2743 0.9217 -0.2743
vn -0.3958 0.8286 -0.3958
vn -0.5021 0.7041 -0.5021
vn -0.5893 0.5528 -0.5893
vn -0.6539 0.3805 -0.6539
vn -0.6937 0.1939 -0.6937
vn -0.7071 -0.0000 -0.7071
vn -0.6937 -0.1939 -0.6937
vn -0.6539 -0.3805 -0.6539
vn -0.5893 -0.5528 -0.5893
vn -0.5021 -0.7041 -0.5021
vn -0.3958 -0.8286 -0.3958
vn -0.2743 -0.9217 -0.2743
vn -0.1421 -0.9796 -0.1421
vn -0.1117 0.9796 -0.1671
vn -0.2155 0.9217 -0.3225
vn -0.3110 0.8286 -0.4654
vn -0.3945 0.7041 -0.5905
vn -0.4630 0.5528 -0.6929
vn -0.5138 0.3805 -0.7689
vn -0.5450 0.1939 -0.8157
vn -0.5556 -0.0000 -0.8315
vn -0.5450 -0.1939 -0.8157
vn -0.5138 -0.3805 -0.7689
vn -0.4630 -0.5528 -0.6929
vn -0.3945 -0.7041 -0.5905
vn -0.3110 -0.8286 -0.4654
vn -0.2155 -0.9217 -0.3225
vn -0.1117 -0.9796 -0.1671
vn -0.0769 0.9796 -0.1857
vn -0.1484 0.9217 -0.3584
vn -0.2142 0.8286 -0.5172
vn -0.2718 0.7041 -0.6561
vn -0.3189 0.5528 -0.7699
vn -0.3539 0.3805 -0.8544
vn -0.3754 0.1939 -0.9063
vn -0.3827 -0.0000 -0.9239
vn -0.3754 -0.1939 -0.9063
vn -0.3539 -0.3805 -0.8544
vn -0.3189 -0.5528 -0.7699
vn -0.2718 -0.7041 -0.6561
vn -0.2142 -0.8286 -0.5172
vn -0.1484 -0.9217 -0.3584
vn -0.0769 -0.9796 -0.1857
vn -0.0392 0.9796 -0.1971
vn -0.0757 0.9217 -0.3804
vn -0.1092 0.8286 -0.5490
vn -0.1385 0.7041 -0.6965
vn -0.1626 0.5528 -0.8173
vn -0.1804 0.3805 -0.9070
vn -0.1914 0.1939 -0.9622
vn -0.1951 -0.0000 -0.9808
vn -0.1914 -0.1939 -0.9622
vn -0.1804 -0.3805 -0.9070
vn -0.1626 -0.5528 -0.8173
vn -0.1385 -0.7041 -0.6965
vn -0.1092 -0.8286 -0.5490
vn -0.0757 -0.9217 -0.3804
vn -0.0392 -0.9796 -0.1971
vn -0.0000 0.9796 -0.2010
vn -0.0000 0.9217 -0.3879
vn -0.0000 0.7041 -0.7101
vn -0.0000 0.3805 -0.9248
vn -0.0000 -0.3805 -0.9248
vn -0.0000 -0.7041 -0.7101
vn -0.0000 -0.8286 -0.5598
vn -0.0000 -0.9217 -0.3879
vn -0.0000 -0.9796 -0.2010
vt 0.750000 0.062500
vt 0.750000 0.125000
vt 0.718750 0.125000
vt 0.718750 0.062500
vt 0.750000 0.500000
vt 0.750000 0.562500
vt 0.718750 0.562500
vt 0.718750 0.500000
vt 0.750000 0.937500
vt 0.734375 1.000000
vt 0.718750 0.937500
vt 0.734375 0.000000
vt 0.750000 0.437500
vt 0.718750 0.437500
vt 0.750000 0.875000
vt 0.718750 0.875000
vt 0.750000 0.375000
vt 0.718750 0.375000
vt 0.750000 0.812500
vt 0.718750 0.812500
vt 0.750000 0.312500
vt 0.718750 0.312500
vt 0.750000 0.750000
vt 0.718750 0.750000
vt 0.750000 0.250000
vt 0.718750 0.250000
vt 0.750000 0.687500
vt 0.718750 0.687500
vt 0.750000 0.187500
vt 0.718750 0.187500
vt 0.750000 0.625000
vt 0.718750 0.625000
vt 0.687500 0.687500
vt 0.687500 0.625000
vt 0.687500 0.187500
vt 0.687500 0.125000
vt 0.687500 0.562500
vt 0.687500 0.062500
vt 0.687500 0.500000
vt 0.703125 1.000000
vt 0.687500 0.937500
vt 0.703125 0.000000
vt 0.687500 0.437500
vt 0.687500 0.875000
vt 0.687500 0.375000
vt 0.687500 0.812500
vt 0.687500 0.312500
vt 0.687500 0.750000
vt 0.687500 0.250000
vt 0.656250 0.437500
vt 0.656250 0.375000
vt 0.656250 0.875000
vt 0.656250 0.812500
vt 0.656250 0.312500
vt 0.656250 0.750000
vt 0.656250 0.250000
vt 0.656250 0.687500
vt 0.656250 0.187500
vt 0.656250 0.625000
vt 0.656250 0.125000
vt 0.656250 0.562500
vt 0.656250 0.062500
vt 0.656250 0.500000
vt 0.671875 1.000000
vt 0.656250 0.937500
vt 0.671875 0.000000
vt 0.625000 0.187500
vt 0.625000 0.125000
vt 0.625000 0.625000
vt 0.625000 0.562500
vt 0.625000 0.062500
vt 0.625000 0.500000
vt 0.640625 1.000000
vt 0.625000 0.937500
vt 0.640625 0.000000
vt 0.625000 0.437500
vt 0.625000 0.875000
vt 0.625000 0.375000
vt 0.625000 0.812500
vt 0.625000 0.312500
vt 0.625000 0.750000
vt 0.625000 0.250000
vt 0.625000 0.687500
vt 0.593750 0.375000
vt 0.593750 0.312500
vt 0.593750 0.812500
vt 0.593750 0.750000
vt 0.593750 0.250000
vt 0.593750 0.687500
vt 0.593750 0.187500
vt 0.593750 0.625000
vt 0.593750 0.125000
vt 0.593750 0.562500
vt 0.593750 0.062500
vt 0.593750 0.500000
vt 0.609375 1.000000
vt 0.593750 0.937500
vt 0.609375 0.000000
vt 0.593750 0.437500
vt 0.593750 0.875000
vt 0.562500 0.125000
vt 0.562500 0.062500
vt 0.562500 0.562500
vt 0.562500 0.500000
vt 0.578125 1.000000
vt 0.562500 0.937500
vt 0.578125 0.000000
vt 0.562500 0.437500
vt 0.562500 0.875000
vt 0.562500 0.375000
vt 0.562500 0.812500
vt 0.562500 0.312500
vt 0.562500 0.750000
vt 0.562500 0.250000
vt 0.562500 0.687500
vt 0.562500 0.187500
vt 0.562500 0.625000
vt 0.531250 0.812500
vt 0.531250 0.750000
vt 0.531250 0.312500
vt 0.531250 0.250000
vt 0.531250 0.687500
vt 0.531250 0.187500
vt 0.531250 0.625000
vt 0.531250 0.125000
vt 0.531250 0.562500
vt 0.531250 0.062500
vt 0.531250 0.500000
vt 0.546875 1.000000
vt 0.531250 0.937500
vt 0.546875 0.000000
vt 0.531250 0.437500
vt 0.531250 0.875000
vt 0.531250 0.375000
vt 0.500000 0.562500
vt 0.500000 0.500000
vt 0.515625 1.000000
vt 0.500000 0.937500
vt 0.515625 0.000000
vt 0.500000 0.062500
vt 0.500000 0.437500
vt 0.500000 0.875000
vt 0.500000 0.375000
vt 0.500000 0.812500
vt 0.500000 0.312500
vt 0.500000 0.750000
vt 0.500000 0.250000
vt 0.500000 0.687500
vt 0.500000 0.187500
vt 0.500000 0.625000
vt 0.500000 0.125000
vt 0.468750 0.312500
vt 0.468750 0.250000
vt 0.468750 0.750000
vt 0.468750 0.687500
vt 0.468750 0.187500
vt 0.468750 0.625000
vt 0.468750 0.125000
vt 0.468750 0.562500
vt 0.468750 0.062500
vt 0.468750 0.500000
vt 0.484375 1.000000
vt 0.468750 0.937500
vt 0.484375 0.000000
vt 0.468750 0.437500
vt 0.468750 0.875000
vt 0.468750 0.375000
vt 0.468750 0.812500
vt 0.453125 1.000000
vt 0.437500 0.937500
vt 0.453125 0.000000
vt 0.437500 0.062500
vt 0.437500 0.500000
vt 0.437500 0.437500
vt 0.437500 0.875000
vt 0.437500 0.375000
vt 0.437500 0.812500
vt 0.437500 0.312500
vt 0.437500 0.750000
vt 0.437500 0.250000
vt 0.437500 0.687500
vt 0.437500 0.187500
vt 0.437500 0.625000
vt 0.437500 0.125000
vt 0.437500 0.562500
vt 0.406250 0.750000
vt 0.406250 0.687500
vt 0.406250 0.250000
vt 0.406250 0.187500
vt 0.406250 0.625000
vt 0.406250 0.125000
vt 0.406250 0.562500
vt 0.406250 0.062500
vt 0.406250 0.500000
vt 0.421875 1.000000
vt 0.406250 0.937500
vt 0.421875 0.000000
vt 0.406250 0.437500
vt 0.406250 0.875000
vt 0.406250 0.375000
vt 0.406250 0.812500
vt 0.406250 0.312500
vt 0.375000 0.500000
vt 0.375000 0.437500
vt 0.375000 0.937500
vt 0.375000 0.875000
vt 0.375000 0.375000
vt 0.375000 0.812500
vt 0.375000 0.312500
vt 0.375000 0.750000
vt 0.375000 0.250000
vt 0.375000 0.687500
vt 0.375000 0.187500
vt 0.375000 0.625000
vt 0.375000 0.125000
vt 0.375000 0.562500
vt 0.375000 0.062500
vt 0.390625 1.000000
vt 0.390625 0.000000
vt 0.343750 0.250000
vt 0.343750 0.187500
vt 0.343750 0.687500
vt 0.343750 0.625000
vt 0.343750 0.125000
vt 0.343750 0.562500
vt 0.343750 0.062500
vt 0.343750 0.500000
vt 0.359375 1.000000
vt 0.343750 0.937500
vt 0.359375 0.000000
vt 0.343750 0.437500
vt 0.343750 0.875000
vt 0.343750 0.375000
vt 0.343750 0.812500
vt 0.343750 0.312500
vt 0.343750 0.750000
vt 0.312500 0.437500
vt 0.312500 0.375000
vt 0.312500 0.875000
vt 0.312500 0.812500
vt 0.312500 0.312500
vt 0.312500 0.750000
vt 0.312500 0.250000
vt 0.312500 0.687500
vt 0.312500 0.187500
vt 0.312500 0.625000
vt 0.312500 0.125000
vt 0.312500 0.562500
vt 0.312500 0.062500
vt 0.312500 0.500000
vt 0.328125 1.000000
vt 0.312500 0.937500
vt 0.328125 0.000000
vt 0.281250 0.187500
vt 0.281250 0.125000
vt 0.281250 0.625000
vt 0.281250 0.562500
vt 0.281250 0.062500
vt 0.281250 0.500000
vt 0.296875 1.000000
vt 0.281250 0.937500
vt 0.296875 0.000000
vt 0.281250 0.437500
vt 0.281250 0.875000
vt 0.281250 0.375000
vt 0.281250 0.812500
vt 0.281250 0.312500
vt 0.281250 0.750000
vt 0.281250 0.250000
vt 0.281250 0.687500
vt 0.250000 0.875000
vt 0.250000 0.812500
vt 0.250000 0.375000
vt 0.250000 0.312500
vt 0.250000 0.750000
vt 0.250000 0.250000
vt 0.250000 0.687500
vt 0.250000 0.187500
vt 0.250000 0.625000
vt 0.250000 0.125000
vt 0.250000 0.562500
vt 0.250000 0.062500
vt 0.250000 0.500000
vt 0.265625 1.000000
vt 0.250000 0.937500
vt 0.265625 0.000000
vt 0.250000 0.437500
vt 0.218750 0.625000
vt 0.218750 0.562500
vt 0.218750 0.125000
vt 0.218750 0.062500
vt 0.218750 0.500000
vt 0.234375 1.000000
vt 0.218750 0.937500
vt 0.234375 0.000000
vt 0.218750 0.437500
vt 0.218750 0.875000
vt 0.218750 0.375000
vt 0.218750 0.812500
vt 0.218750 0.312500
vt 0.218750 0.750000
vt 0.218750 0.250000
vt 0.218750 0.687500
vt 0.218750 0.187500
vt 0.187500 0.375000
vt 0.187500 0.312500
vt 0.187500 0.812500
vt 0.187500 0.750000
vt 0.187500 0.250000
vt 0.187500 0.687500
vt 0.187500 0.187500
vt 0.187500 0.625000
vt 0.187500 0.125000
vt 0.187500 0.562500
vt 0.187500 0.062500
vt 0.187500 0.500000
vt 0.203125 1.000000
vt 0.187500 0.937500
vt 0.203125 0.000000
vt 0.187500 0.437500
vt 0.187500 0.875000
vt 0.156250 0.125000
vt 0.156250 0.062500
vt 0.156250 0.562500
vt 0.156250 0.500000
vt 0.171875 1.000000
vt 0.156250 0.937500
vt 0.171875 0.000000
vt 0.156250 0.437500
vt 0.156250 0.875000
vt 0.156250 0.375000
vt 0.156250 0.812500
vt 0.156250 0.312500
vt 0.156250 0.750000
vt 0.156250 0.250000
vt 0.156250 0.687500
vt 0.156250 0.187500
vt 0.156250 0.625000
vt 0.125000 0.812500
vt 0.125000 0.750000
vt 0.125000 0.312500
vt 0.125000 0.250000
vt 0.125000 0.687500
vt 0.125000 0.187500
vt 0.125000 0.625000
vt 0.125000 0.125000
vt 0.125000 0.562500
vt 0.125000 0.062500
vt 0.125000 0.500000
vt 0.140625 1.000000
vt 0.125000 0.937500
vt 0.140625 0.000000
vt 0.125000 0.437500
vt 0.125000 0.875000
vt 0.125000 0.375000
vt 0.093750 0.562500
vt 0.093750 0.500000
vt 0.109375 1.000000
vt 0.093750 0.937500
vt 0.109375 0.000000
vt 0.093750 0.062500
vt 0.093750 0.437500
vt 0.093750 0.875000
vt 0.093750 0.375000
vt 0.093750 0.812500
vt 0.093750 0.312500
vt 0.093750 0.750000
vt 0.093750 0.250000
vt 0.093750 0.687500
vt 0.093750 0.187500
vt 0.093750 0.625000
vt 0.093750 0.125000
vt 0.062500 0.312500
vt 0.062500 0.250000
vt 0.062500 0.750000
vt 0.062500 0.687500
vt 0.062500 0.187500
vt 0.062500 0.625000
vt 0.062500 0.125000
vt 0.062500 0.562500
vt 0.062500 0.062500
vt 0.062500 0.500000
vt 0.078125 1.000000
vt 0.062500 0.937500
vt 0.078125 0.000000
vt 0.062500 0.437500
vt 0.062500 0.875000
vt 0.062500 0.375000
vt 0.062500 0.812500
vt 0.046875 0.000000
vt 0.031250 0.062500
vt 0.031250 0.500000
vt 0.031250 0.437500
vt 0.031250 0.937500
vt 0.031250 0.875000
vt 0.031250 0.375000
vt 0.031250 0.812500
vt 0.031250 0.312500
vt 0.031250 0.750000
vt 0.031250 0.250000
vt 0.031250 0.687500
vt 0.031250 0.187500
vt 0.031250 0.625000
vt 0.031250 0.125000
vt 0.031250 0.562500
vt 0.046875 1.000000
vt 0.000000 0.250000
vt 0.000000 0.187500
vt 0.000000 0.687500
vt 0.000000 0.625000
vt 0.000000 0.125000
vt 0.000000 0.562500
vt 0.000000 0.062500
vt 0.000000 0.500000
vt 0.015625 1.000000
vt 0.000000 0.937500
vt 0.015625 0.000000
vt 0.000000 0.437500
vt 0.000000 0.875000
vt 0.000000 0.375000
vt 0.000000 0.812500
vt 0.000000 0.312500
vt 0.000000 0.750000
vt 1.000000 0.875000
vt 1.000000 0.937500
vt 0.968750 0.937500
vt 0.968750 0.875000
vt 1.000000 0.375000
vt 1.000000 0.437500
vt 0.968750 0.437500
vt 0.968750 0.375000
vt 1.000000 0.812500
vt 0.968750 0.812500
vt 1.000000 0.312500
vt 0.968750 0.312500
vt 1.000000 0.750000
vt 0.968750 0.750000
vt 1.000000 0.250000
vt 0.968750 0.250000
vt 1.000000 0.687500
vt 0.968750 0.687500
vt 1.000000 0.187500
vt 0.968750 0.187500
vt 1.000000 0.625000
vt 0.968750 0.625000
vt 1.000000 0.125000
vt 0.968750 0.125000
vt 1.000000 0.562500
vt 0.968750 0.562500
vt 1.000000 0.062500
vt 0.968750 0.062500
vt 1.000000 0.500000
vt 0.968750 0.500000
vt 0.984375 1.000000
vt 0.984375 0.000000
vt 0.937500 0.687500
vt 0.937500 0.625000
vt 0.937500 0.187500
vt 0.937500 0.125000
vt 0.937500 0.562500
vt 0.937500 0.062500
vt 0.937500 0.500000
vt 0.953125 1.000000
vt 0.937500 0.937500
vt 0.953125 0.000000
vt 0.937500 0.437500
vt 0.937500 0.875000
vt 0.937500 0.375000
vt 0.937500 0.812500
vt 0.937500 0.312500
vt 0.937500 0.750000
vt 0.937500 0.250000
vt 0.906250 0.437500
vt 0.906250 0.375000
vt 0.906250 0.875000
vt 0.906250 0.812500
vt 0.906250 0.312500
vt 0.906250 0.750000
vt 0.906250 0.250000
vt 0.906250 0.687500
vt 0.906250 0.187500
vt 0.906250 0.625000
vt 0.906250 0.125000
vt 0.906250 0.562500
vt 0.906250 0.062500
vt 0.906250 0.500000
vt 0.921875 1.000000
vt 0.906250 0.937500
vt 0.921875 0.000000
vt 0.875000 0.187500
vt 0.875000 0.125000
vt 0.875000 0.625000
vt 0.875000 0.562500
vt 0.875000 0.062500
vt 0.875000 0.500000
vt 0.890625 1.000000
vt 0.875000 0.937500
vt 0.890625 0.000000
vt 0.875000 0.437500
vt 0.875000 0.875000
vt 0.875000 0.375000
vt 0.875000 0.812500
vt 0.875000 0.312500
vt 0.875000 0.750000
vt 0.875000 0.250000
vt 0.875000 0.687500
vt 0.843750 0.875000
vt 0.843750 0.812500
vt 0.843750 0.375000
vt 0.843750 0.312500
vt 0.843750 0.750000
vt 0.843750 0.250000
vt 0.843750 0.687500
vt 0.843750 0.187500
vt 0.843750 0.625000
vt 0.843750 0.125000
vt 0.843750 0.562500
vt 0.843750 0.062500
vt 0.843750 0.500000
vt 0.859375 1.000000
vt 0.843750 0.937500
vt 0.859375 0.000000
vt 0.843750 0.437500
vt 0.812500 0.625000
vt 0.812500 0.562500
vt 0.812500 0.125000
vt 0.812500 0.062500
vt 0.812500 0.500000
vt 0.828125 1.000000
vt 0.812500 0.937500
vt 0.828125 0.000000
vt 0.812500 0.437500
vt 0.812500 0.875000
vt 0.812500 0.375000
vt 0.812500 0.812500
vt 0.812500 0.312500
vt 0.812500 0.750000
vt 0.812500 0.250000
vt 0.812500 0.687500
vt 0.812500 0.187500
vt 0.781250 0.375000
vt 0.781250 0.312500
vt 0.781250 0.812500
vt 0.781250 0.750000
vt 0.781250 0.250000
vt 0.781250 0.687500
vt 0.781250 0.187500
vt 0.781250 0.625000
vt 0.781250 0.125000
vt 0.781250 0.562500
vt 0.781250 0.062500
vt 0.781250 0.500000
vt 0.796875 1.000000
vt 0.781250 0.937500
vt 0.796875 0.000000
vt 0.781250 0.437500
vt 0.781250 0.875000
vt 0.765625 1.000000
vt 0.765625 0.000000
s 1
usemtl blank
f 490/9/484 489/10/483 30/11/24 31/12/25
f 13/13/7 12/14/6 23/15/17 24/16/18
f 482/17/476 9/18/3 17/19/11
f 16/20/10 490/9/484 31/12/25
f 14/21/8 13/13/7 24/16/18 25/22/19
f 483/23/477 482/17/476 17/19/11 18/24/12
f 486/25/480 14/21/8 25/22/19 26/26/20
f 10/27/4 483/23/477 18/24/12 19/28/13
f 15/29/9 486/25/480 26/26/20 27/30/21
f 484/31/478 10/27/4 19/28/13 20/32/14
f 487/33/481 15/29/9 27/30/21 28/34/22
f 11/35/5 484/31/478 20/32/14 21/36/15
f 488/37/482 487/33/481 28/34/22 29/38/23
f 485/39/479 11/35/5 21/36/15 22/40/16
f 489/10/483 488/37/482 29/38/23 30/11/24
f 12/14/6 485/39/479 22/40/16 23/15/17
f 22/40/16 21/36/15 36/41/30 37/42/31
f 30/11/24 29/38/23 44/43/38 45/44/39
f 23/15/17 22/40/16 37/42/31 38/45/32
f 31/12/25 30/11/24 45/44/39 46/46/40
f 24/16/18 23/15/17 38/45/32 39/47/33
f 17/19/11 9/48/3 32/49/26
f 16/50/10 31/12/25 46/46/40
f 25/22/19 24/16/18 39/47/33 40/51/34
f 18/24/12 17/19/11 32/49/26 33/52/27
f 26/26/20 25/22/19 40/51/34 41/53/35
f 19/28/13 18/24/12 33/52/27 34/54/28
f 27/30/21 26/26/20 41/53/35 42/55/36
f 20/32/14 19/28/13 34/54/28 35/56/29
f 28/34/22 27/30/21 42/55/36 43/57/37
f 21/36/15 20/32/14 35/56/29 36/41/30
f 29/38/23 28/34/22 43/57/37 44/43/38
f 41/53/35 40/51/34 55/58/49 56/59/50
f 34/54/28 33/52/27 48/60/42 49/61/43
f 42/55/36 41/53/35 56/59/50 57/62/51
f 35/56/29 34/54/28 49/61/43 50/63/44
f 43/57/37 42/55/36 57/62/51 58/64/52
f 36/41/30 35/56/29 50/63/44 51/65/45
f 44/43/38 43/57/37 58/64/52 59/66/53
f 37/42/31 36/41/30 51/65/45 52/67/46
f 45/44/39 44/43/38 59/66/53 60/68/54
f 38/45/32 37/42/31 52/67/46 53/69/47
f 46/46/40 45/44/39 60/68/54 61/70/55
f 39/47/33 38/45/32 53/69/47 54/71/48
f 32/49/26 9/72/3 47/73/41
f 16/74/10 46/46/40 61/70/55
f 40/51/34 39/47/33 54/71/48 55/58/49
f 33/52/27 32/49/26 47/73/41 48/60/42
f 60/68/54 59/66/53 74/75/68 75/76/69
f 53/69/47 52/67/46 67/77/61 68/78/62
f 61/70/55 60/68/54 75/76/69 76/79/70
f 54/71/48 53/69/47 68/78/62 69/80/63
f 47/73/41 9/81/3 62/82/56
f 16/83/10 61/70/55 76/79/70
f 55/58/49 54/71/48 69/80/63 70/84/64
f 48/60/42 47/73/41 62/82/56 63/85/57
f 56/59/50 55/58/49 70/84/64 71/86/65
f 49/61/43 48/60/42 63/85/57 64/87/58
f 57/62/51 56/59/50 71/86/65 72/88/66
f 50/63/44 49/61/43 64/87/58 65/89/59
f 58/64/52 57/62/51 72/88/66 73/90/67
f 51/65/45 50/63/44 65/89/59 66/91/60
f 59/66/53 58/64/52 73/90/67 74/75/68
f 52/67/46 51/65/45 66/91/60 67/77/61
f 72/88/66 71/86/65 86/92/80 87/93/81
f 65/89/59 64/87/58 79/94/73 80/95/74
f 73/90/67 72/88/66 87/93/81 88/96/82
f 66/91/60 65/89/59 80/95/74 81/97/75
f 74/75/68 73/90/67 88/96/82 89/98/83
f 67/77/61 66/91/60 81/97/75 82/99/76
f 75/76/69 74/75/68 89/98/83 90/100/84
f 68/78/62 67/77/61 82/99/76 83/101/77
f 76/79/70 75/76/69 90/100/84 91/102/85
f 69/80/63 68/78/62 83/101/77 84/103/78
f 62/82/56 9/104/3 77/105/71
f 16/106/10 76/79/70 91/102/85
f 70/84/64 69/80/63 84/103/78 85/107/79
f 63/85/57 62/82/56 77/105/71 78/108/72
f 71/86/65 70/84/64 85/107/79 86/92/80
f 64/87/58 63/85/57 78/108/72 79/94/73
f 91/102/85 90/100/84 105/109/99 106/110/100
f 84/103/78 83/101/77 98/111/92 99/112/93
f 77/105/71 9/113/3 92/114/86
f 16/115/10 91/102/85 106/110/100
f 85/107/79 84/103/78 99/112/93 100/116/94
f 78/108/72 77/105/71 92/114/86 93/117/87
f 86/92/80 85/107/79 100/116/94 101/118/95
f 79/94/73 78/108/72 93/117/87 94/119/88
f 87/93/81 86/92/80 101/118/95 102/120/96
f 80/95/74 79/94/73 94/119/88 95/121/89
f 88/96/82 87/93/81 102/120/96 103/122/97
f 81/97/75 80/95/74 95/121/89 96/123/90
f 89/98/83 88/96/82 103/122/97 104/124/98
f 82/99/76 81/97/75 96/123/90 97/125/91
f 90/100/84 89/98/83 104/124/98 105/109/99
f 83/101/77 82/99/76 97/125/91 98/111/92
f 95/121/89 94/119/88 109/126/103 110/127/104
f 103/122/97 102/120/96 117/128/111 118/129/112
f 96/123/90 95/121/89 110/127/104 111/130/105
f 104/124/98 103/122/97 118/129/112 119/131/113
f 97/125/91 96/123/90 111/130/105 112/132/106
f 105/109/99 104/124/98 119/131/113 120/133/114
f 98/111/92 97/125/91 112/132/106 113/134/107
f 106/110/100 105/109/99 120/133/114 121/135/115
f 99/112/93 98/111/92 113/134/107 114/136/108
f 92/114/86 9/137/3 107/138/101
f 16/139/10 106/110/100 121/135/115
f 100/116/94 99/112/93 114/136/108 115/140/109
f 93/117/87 92/114/86 107/138/101 108/141/102
f 101/118/95 100/116/94 115/140/109 116/142/110
f 94/119/88 93/117/87 108/141/102 109/126/103
f 102/120/96 101/118/95 116/142/110 117/128/111
f 114/136/108 113/134/107 128/143/122 129/144/123
f 107/138/101 9/145/3 122/146/116
f 16/147/10 121/135/115 136/148/130
f 115/140/109 114/136/108 129/144/123 130/149/124
f 108/141/102 107/138/101 122/146/116 123/150/117
f 116/142/110 115/140/109 130/149/124 131/151/125
f 109/126/103 108/141/102 123/150/117 124/152/118
f 117/128/111 116/142/110 131/151/125 132/153/126
f 110/127/104 109/126/103 124/152/118 125/154/119
f 118/129/112 117/128/111 132/153/126 133/155/127
f 111/130/105 110/127/104 125/154/119 126/156/120
f 119/131/113 118/129/112 133/155/127 134/157/128
f 112/132/106 111/130/105 126/156/120 127/158/121
f 120/133/114 119/131/113 134/157/128 135/159/129
f 113/134/107 112/132/106 127/158/121 128/143/122
f 121/135/115 120/133/114 135/159/129 136/148/130
f 133/155/127 132/153/126 147/160/141 148/161/142
f 126/156/120 125/154/119 140/162/134 141/163/135
f 134/157/128 133/155/127 148/161/142 149/164/143
f 127/158/121 126/156/120 141/163/135 142/165/136
f 135/159/129 134/157/128 149/164/143 150/166/144
f 128/143/122 127/158/121 142/165/136 143/167/137
f 136/148/130 135/159/129 150/166/144 151/168/145
f 129/144/123 128/143/122 143/167/137 144/169/138
f 122/146/116 9/170/3 137/171/131
f 16/172/10 136/148/130 151/168/145
f 130/149/124 129/144/123 144/169/138 145/173/139
f 123/150/117 122/146/116 137/171/131 138/174/132
f 131/151/125 130/149/124 145/173/139 146/175/140
f 124/152/118 123/150/117 138/174/132 139/176/133
f 132/153/126 131/151/125 146/175/140 147/160/141
f 125/154/119 124/152/118 139/176/133 140/162/134
f 137/171/131 9/177/3 152/178/146
f 16/179/10 151/168/145 166/180/160
f 145/173/139 144/169/138 159/181/153 160/182/154
f 138/174/132 137/171/131 152/178/146 153/183/147
f 146/175/140 145/173/139 160/182/154 161/184/155
f 139/176/133 138/174/132 153/183/147 154/185/148
f 147/160/141 146/175/140 161/184/155 162/186/156
f 140/162/134 139/176/133 154/185/148 155/187/149
f 148/161/142 147/160/141 162/186/156 163/188/157
f 141/163/135 140/162/134 155/187/149 156/189/150
f 149/164/143 148/161/142 163/188/157 164/190/158
f 142/165/136 141/163/135 156/189/150 157/191/151
f 150/166/144 149/164/143 164/190/158 165/192/159
f 143/167/137 142/165/136 157/191/151 158/193/152
f 151/168/145 150/166/144 165/192/159 166/180/160
f 144/169/138 143/167/137 158/193/152 159/181/153
f 156/189/150 155/187/149 170/194/164 171/195/165
f 164/190/158 163/188/157 178/196/172 179/197/173
f 157/191/151 156/189/150 171/195/165 172/198/166
f 165/192/159 164/190/158 179/197/173 180/199/174
f 158/193/152 157/191/151 172/198/166 173/200/167
f 166/180/160 165/192/159 180/199/174 181/201/175
f 159/181/153 158/193/152 173/200/167 174/202/168
f 152/178/146 9/203/3 167/204/161
f 16/205/10 166/180/160 181/201/175
f 160/182/154 159/181/153 174/202/168 175/206/169
f 153/183/147 152/178/146 167/204/161 168/207/162
f 161/184/155 160/182/154 175/206/169 176/208/170
f 154/185/148 153/183/147 168/207/162 169/209/163
f 162/186/156 161/184/155 176/208/170 177/210/171
f 155/187/149 154/185/148 169/209/163 170/194/164
f 163/188/157 162/186/156 177/210/171 178/196/172
f 175/206/169 174/202/168 189/211/183 190/212/184
f 168/207/162 167/204/161 182/213/176 183/214/177
f 176/208/170 175/206/169 190/212/184 191/215/185
f 169/209/163 168/207/162 183/214/177 184/216/178
f 177/210/171 176/208/170 191/215/185 192/217/186
f 170/194/164 169/209/163 184/216/178 185/218/179
f 178/196/172 177/210/171 192/217/186 193/219/187
f 171/195/165 170/194/164 185/218/179 186/220/180
f 179/197/173 178/196/172 193/219/187 194/221/188
f 172/198/166 171/195/165 186/220/180 187/222/181
f 180/199/174 179/197/173 194/221/188 195/223/189
f 173/200/167 172/198/166 187/222/181 188/224/182
f 181/201/175 180/199/174 195/223/189 196/225/190
f 174/202/168 173/200/167 188/224/182 189/211/183
f 167/204/161 9/226/3 182/213/176
f 16/227/10 181/201/175 196/225/190
f 194/221/188 193/219/187 208/228/202 209/229/203
f 187/222/181 186/220/180 201/230/195 202/231/196
f 195/223/189 194/221/188 209/229/203 210/232/204
f 188/224/182 187/222/181 202/231/196 203/233/197
f 196/225/190 195/223/189 210/232/204 211/234/205
f 189/211/183 188/224/182 203/233/197 204/235/198
f 182/213/176 9/236/3 197/237/191
f 16/238/10 196/225/190 211/234/205
f 190/212/184 189/211/183 204/235/198 205/239/199
f 183/214/177 182/213/176 197/237/191 198/240/192
f 191/215/185 190/212/184 205/239/199 206/241/200
f 184/216/178 183/214/177 198/240/192 199/242/193
f 192/217/186 191/215/185 206/241/200 207/243/201
f 185/218/179 184/216/178 199/242/193 200/244/194
f 193/219/187 192/217/186 207/243/201 208/228/202
f 186/220/180 185/218/179 200/244/194 201/230/195
f 206/241/200 205/239/199 220/245/214 221/246/215
f 199/242/193 198/240/192 213/247/207 214/248/208
f 207/243/201 206/241/200 221/246/215 222/249/216
f 200/244/194 199/242/193 214/248/208 215/250/209
f 208/228/202 207/243/201 222/249/216 223/251/217
f 201/230/195 200/244/194 215/250/209 216/252/210
f 209/229/203 208/228/202 223/251/217 224/253/218
f 202/231/196 201/230/195 216/252/210 217/254/211
f 210/232/204 209/229/203 224/253/218 225/255/219
f 203/233/197 202/231/196 217/254/211 218/256/212
f 211/234/205 210/232/204 225/255/219 226/257/220
f 204/235/198 203/233/197 218/256/212 219/258/213
f 197/237/191 9/259/3 212/260/206
f 16/261/10 211/234/205 226/257/220
f 205/239/199 204/235/198 219/258/213 220/245/214
f 198/240/192 197/237/191 212/260/206 213/247/207
f 225/255/219 224/253/218 239/262/233 240/263/234
f 218/256/212 217/254/211 232/264/226 233/265/227
f 226/257/220 225/255/219 240/263/234 241/266/235
f 219/258/213 218/256/212 233/265/227 234/267/228
f 212/260/206 9/268/3 227/269/221
f 16/270/10 226/257/220 241/266/235
f 220/245/214 219/258/213 234/267/228 235/271/229
f 213/247/207 212/260/206 227/269/221 228/272/222
f 221/246/215 220/245/214 235/271/229 236/273/230
f 214/248/208 213/247/207 228/272/222 229/274/223
f 222/249/216 221/246/215 236/273/230 237/275/231
f 215/250/209 214/248/208 229/274/223 230/276/224
f 223/251/217 222/249/216 237/275/231 238/277/232
f 216/252/210 215/250/209 230/276/224 231/278/225
f 224/253/218 223/251/217 238/277/232 239/262/233
f 217/254/211 216/252/210 231/278/225 232/264/226
f 229/274/223 228/272/222 243/279/237 244/280/238
f 237/275/231 236/273/230 251/281/245 252/282/246
f 230/276/224 229/274/223 244/280/238 245/283/239
f 238/277/232 237/275/231 252/282/246 253/284/247
f 231/278/225 230/276/224 245/283/239 246/285/240
f 239/262/233 238/277/232 253/284/247 254/286/248
f 232/264/226 231/278/225 246/285/240 247/287/241
f 240/263/234 239/262/233 254/286/248 255/288/249
f 233/265/227 232/264/226 247/287/241 248/289/242
f 241/266/235 240/263/234 255/288/249 256/290/250
f 234/267/228 233/265/227 248/289/242 249/291/243
f 227/269/221 9/292/3 242/293/236
f 16/294/10 241/266/235 256/290/250
f 235/271/229 234/267/228 249/291/243 250/295/244
f 228/272/222 227/269/221 242/293/236 243/279/237
f 236/273/230 235/271/229 250/295/244 251/281/245
f 248/289/242 247/287/241 262/296/256 263/297/257
f 256/290/250 255/288/249 270/298/264 271/299/265
f 249/291/243 248/289/242 263/297/257 264/300/258
f 242/293/236 9/301/3 257/302/251
f 16/303/10 256/290/250 271/299/265
f 250/295/244 249/291/243 264/300/258 265/304/259
f 243/279/237 242/293/236 257/302/251 258/305/252
f 251/281/245 250/295/244 265/304/259 266/306/260
f 244/280/238 243/279/237 258/305/252 259/307/253
f 252/282/246 251/281/245 266/306/260 267/308/261
f 245/283/239 244/280/238 259/307/253 260/309/254
f 253/284/247 252/282/246 267/308/261 268/310/262
f 246/285/240 245/283/239 260/309/254 261/311/255
f 254/286/248 253/284/247 268/310/262 269/312/263
f 247/287/241 246/285/240 261/311/255 262/296/256
f 255/288/249 254/286/248 269/312/263 270/298/264
f 267/308/261 266/306/260 281/313/275 282/314/276
f 260/309/254 259/307/253 274/315/268 275/316/269
f 268/310/262 267/308/261 282/314/276 283/317/277
f 261/311/255 260/309/254 275/316/269 276/318/270
f 269/312/263 268/310/262 283/317/277 284/319/278
f 262/296/256 261/311/255 276/318/270 277/320/271
f 270/298/264 269/312/263 284/319/278 285/321/279
f 263/297/257 262/296/256 277/320/271 278/322/272
f 271/299/265 270/298/264 285/321/279 286/323/280
f 264/300/258 263/297/257 278/322/272 279/324/273
f 257/302/251 9/325/3 272/326/266
f 16/327/10 271/299/265 286/323/280
f 265/304/259 264/300/258 279/324/273 280/328/274
f 258/305/252 257/302/251 272/326/266 273/329/267
f 266/306/260 265/304/259 280/328/274 281/313/275
f 259/307/253 258/305/252 273/329/267 274/315/268
f 286/323/280 285/321/279 300/330/294 301/331/295
f 279/324/273 278/322/272 293/332/287 294/333/288
f 272/326/266 9/334/3 287/335/281
f 16/336/10 286/323/280 301/331/295
f 280/328/274 279/324/273 294/333/288 295/337/289
f 273/329/267 272/326/266 287/335/281 288/338/282
f 281/313/275 280/328/274 295/337/289 296/339/290
f 274/315/268 273/329/267 288/338/282 289/340/283
f 282/314/276 281/313/275 296/339/290 297/341/291
f 275/316/269 274/315/268 289/340/283 290/342/284
f 283/317/277 282/314/276 297/341/291 298/343/292
f 276/318/270 275/316/269 290/342/284 291/344/285
f 284/319/278 283/317/277 298/343/292 299/345/293
f 277/320/271 276/318/270 291/344/285 292/346/286
f 285/321/279 284/319/278 299/345/293 300/330/294
f 278/322/272 277/320/271 292/346/286 293/332/287
f 290/342/284 289/340/283 304/347/298 305/348/299
f 298/343/292 297/341/291 312/349/306 313/350/307
f 291/344/285 290/342/284 305/348/299 306/351/300
f 299/345/293 298/343/292 313/350/307 314/352/308
f 292/346/286 291/344/285 306/351/300 307/353/301
f 300/330/294 299/345/293 314/352/308 315/354/309
f 293/332/287 292/346/286 307/353/301 308/355/302
f 301/331/295 300/330/294 315/354/309 316/356/310
f 294/333/288 293/332/287 308/355/302 309/357/303
f 287/335/281 9/358/3 302/359/296
f 16/360/10 301/331/295 316/356/310
f 295/337/289 294/333/288 309/357/303 310/361/304
f 288/338/282 287/335/281 302/359/296 303/362/297
f 296/339/290 295/337/289 310/361/304 311/363/305
f 289/340/283 288/338/282 303/362/297 304/347/298
f 297/341/291 296/339/290 311/363/305 312/349/306
f 309/357/303 308/355/302 323/364/317 324/365/318
f 302/359/296 9/366/3 317/367/311
f 16/368/10 316/356/310 331/369/325
f 310/361/304 309/357/303 324/365/318 325/370/319
f 303/362/297 302/359/296 317/367/311 318/371/312
f 311/363/305 310/361/304 325/370/319 326/372/320
f 304/347/298 303/362/297 318/371/312 319/373/313
f 312/349/306 311/363/305 326/372/320 327/374/321
f 305/348/299 304/347/298 319/373/313 320/375/314
f 313/350/307 312/349/306 327/374/321 328/376/322
f 306/351/300 305/348/299 320/375/314 321/377/315
f 314/352/308 313/350/307 328/376/322 329/378/323
f 307/353/301 306/351/300 321/377/315 322/379/316
f 315/354/309 314/352/308 329/378/323 330/380/324
f 308/355/302 307/353/301 322/379/316 323/364/317
f 316/356/310 315/354/309 330/380/324 331/369/325
f 328/376/322 327/374/321 342/381/336 343/382/337
f 321/377/315 320/375/314 335/383/329 336/384/330
f 329/378/323 328/376/322 343/382/337 344/385/338
f 322/379/316 321/377/315 336/384/330 337/386/331
f 330/380/324 329/378/323 344/385/338 345/387/339
f 323/364/317 322/379/316 337/386/331 338/388/332
f 331/369/325 330/380/324 345/387/339 346/389/340
f 324/365/318 323/364/317 338/388/332 339/390/333
f 317/367/311 9/391/3 332/392/326
f 16/393/10 331/369/325 346/389/340
f 325/370/319 324/365/318 339/390/333 340/394/334
f 318/371/312 317/367/311 332/392/326 333/395/327
f 326/372/320 325/370/319 340/394/334 341/396/335
f 319/373/313 318/371/312 333/395/327 334/397/328
f 327/374/321 326/372/320 341/396/335 342/381/336
f 320/375/314 319/373/313 334/397/328 335/383/329
f 16/398/10 346/389/340 361/399/355
f 340/394/334 339/390/333 354/400/348 355/401/349
f 333/395/327 332/392/326 347/402/341 348/403/342
f 341/396/335 340/394/334 355/401/349 356/404/350
f 334/397/328 333/395/327 348/403/342 349/405/343
f 342/381/336 341/396/335 356/404/350 357/406/351
f 335/383/329 334/397/328 349/405/343 350/407/344
f 343/382/337 342/381/336 357/406/351 358/408/352
f 336/384/330 335/383/329 350/407/344 351/409/345
f 344/385/338 343/382/337 358/408/352 359/410/353
f 337/386/331 336/384/330 351/409/345 352/411/346
f 345/387/339 344/385/338 359/410/353 360/412/354
f 338/388/332 337/386/331 352/411/346 353/413/347
f 346/389/340 345/387/339 360/412/354 361/399/355
f 339/390/333 338/388/332 353/413/347 354/400/348
f 332/392/326 9/414/3 347/402/341
f 359/410/353 358/408/352 373/415/367 374/416/368
f 352/411/346 351/409/345 366/417/360 367/418/361
f 360/412/354 359/410/353 374/416/368 375/419/369
f 353/413/347 352/411/346 367/418/361 368/420/362
f 361/399/355 360/412/354 375/419/369 376/421/370
f 354/400/348 353/413/347 368/420/362 369/422/363
f 347/402/341 9/423/3 362/424/356
f 16/425/10 361/399/355 376/421/370
f 355/401/349 354/400/348 369/422/363 370/426/364
f 348/403/342 347/402/341 362/424/356 363/427/357
f 356/404/350 355/401/349 370/426/364 371/428/365
f 349/405/343 348/403/342 363/427/357 364/429/358
f 357/406/351 356/404/350 371/428/365 372/430/366
f 350/407/344 349/405/343 364/429/358 365/431/359
f 358/408/352 357/406/351 372/430/366 373/415/367
f 351/409/345 350/407/344 365/431/359 366/417/360
f 363/432/357 362/433/356 377/434/371 378/435/372
f 371/436/365 370/437/364 385/438/379 386/439/380
f 364/440/358 363/432/357 378/435/372 379/441/373
f 372/442/366 371/436/365 386/439/380 387/443/381
f 365/444/359 364/440/358 379/441/373 380/445/374
f 373/446/367 372/442/366 387/443/381 388/447/382
f 366/448/360 365/444/359 380/445/374 381/449/375
f 374/450/368 373/446/367 388/447/382 389/451/383
f 367/452/361 366/448/360 381/449/375 382/453/376
f 375/454/369 374/450/368 389/451/383 390/455/384
f 368/456/362 367/452/361 382/453/376 383/457/377
f 376/458/370 375/454/369 390/455/384 391/459/385
f 369/460/363 368/456/362 383/457/377 384/461/378
f 362/433/356 9/462/3 377/434/371
f 16/463/10 376/458/370 391/459/385
f 370/437/364 369/460/363 384/461/378 385/438/379
f 382/453/376 381/449/375 396/464/390 397/465/391
f 390/455/384 389/451/383 404/466/398 405/467/399
f 383/457/377 382/453/376 397/465/391 398/468/392
f 391/459/385 390/455/384 405/467/399 406/469/400
f 384/461/378 383/457/377 398/468/392 399/470/393
f 377/434/371 9/471/3 392/472/386
f 16/473/10 391/459/385 406/469/400
f 385/438/379 384/461/378 399/470/393 400/474/394
f 378/435/372 377/434/371 392/472/386 393/475/387
f 386/439/380 385/438/379 400/474/394 401/476/395
f 379/441/373 378/435/372 393/475/387 394/477/388
f 387/443/381 386/439/380 401/476/395 402/478/396
f 380/445/374 379/441/373 394/477/388 395/479/389
f 388/447/382 387/443/381 402/478/396 403/480/397
f 381/449/375 380/445/374 395/479/389 396/464/390
f 389/451/383 388/447/382 403/480/397 404/466/398
f 401/476/395 400/474/394 415/481/409 416/482/410
f 394/477/388 393/475/387 408/483/402 409/484/403
f 402/478/396 401/476/395 416/482/410 417/485/411
f 395/479/389 394/477/388 409/484/403 410/486/404
f 403/480/397 402/478/396 417/485/411 418/487/412
f 396/464/390 395/479/389 410/486/404 411/488/405
f 404/466/398 403/480/397 418/487/412 419/489/413
f 397/465/391 396/464/390 411/488/405 412/490/406
f 405/467/399 404/466/398 419/489/413 420/491/414
f 398/468/392 397/465/391 412/490/406 413/492/407
f 406/469/400 405/467/399 420/491/414 421/493/415
f 399/470/393 398/468/392 413/492/407 414/494/408
f 392/472/386 9/495/3 407/496/401
f 16/497/10 406/469/400 421/493/415
f 400/474/394 399/470/393 414/494/408 415/481/409
f 393/475/387 392/472/386 407/496/401 408/483/402
f 420/491/414 419/489/413 434/498/428 435/499/429
f 413/492/407 412/490/406 427/500/421 428/501/422
f 421/493/415 420/491/414 435/499/429 436/502/430
f 414/494/408 413/492/407 428/501/422 429/503/423
f 407/496/401 9/504/3 422/505/416
f 16/506/10 421/493/415 436/502/430
f 415/481/409 414/494/408 429/503/423 430/507/424
f 408/483/402 407/496/401 422/505/416 423/508/417
f 416/482/410 415/481/409 430/507/424 431/509/425
f 409/484/403 408/483/402 423/508/417 424/510/418
f 417/485/411 416/482/410 431/509/425 432/511/426
f 410/486/404 409/484/403 424/510/418 425/512/419
f 418/487/412 417/485/411 432/511/426 433/513/427
f 411/488/405 410/486/404 425/512/419 426/514/420
f 419/489/413 418/487/412 433/513/427 434/498/428
f 412/490/406 411/488/405 426/514/420 427/500/421
f 424/510/418 423/508/417 438/515/432 439/516/433
f 432/511/426 431/509/425 446/517/440 447/518/441
f 425/512/419 424/510/418 439/516/433 440/519/434
f 433/513/427 432/511/426 447/518/441 448/520/442
f 426/514/420 425/512/419 440/519/434 441/521/435
f 434/498/428 433/513/427 448/520/442 449/522/443
f 427/500/421 426/514/420 441/521/435 442/523/436
f 435/499/429 434/498/428 449/522/443 450/524/444
f 428/501/422 427/500/421 442/523/436 443/525/437
f 436/502/430 435/499/429 450/524/444 451/526/445
f 429/503/423 428/501/422 443/525/437 444/527/438
f 422/505/416 9/528/3 437/529/431
f 16/530/10 436/502/430 451/526/445
f 430/507/424 429/503/423 444/527/438 445/531/439
f 423/508/417 422/505/416 437/529/431 438/515/432
f 431/509/425 430/507/424 445/531/439 446/517/440
f 443/525/437 442/523/436 457/532/451 458/533/452
f 451/526/445 450/524/444 465/534/459 466/535/460
f 444/527/438 443/525/437 458/533/452 459/536/453
f 437/529/431 9/537/3 452/538/446
f 16/539/10 451/526/445 466/535/460
f 445/531/439 444/527/438 459/536/453 460/540/454
f 438/515/432 437/529/431 452/538/446 453/541/447
f 446/517/440 445/531/439 460/540/454 461/542/455
f 439/516/433 438/515/432 453/541/447 454/543/448
f 447/518/441 446/517/440 461/542/455 462/544/456
f 440/519/434 439/516/433 454/543/448 455/545/449
f 448/520/442 447/518/441 462/544/456 463/546/457
f 441/521/435 440/519/434 455/545/449 456/547/450
f 449/522/443 448/520/442 463/546/457 464/548/458
f 442/523/436 441/521/435 456/547/450 457/532/451
f 450/524/444 449/522/443 464/548/458 465/534/459
f 462/544/456 461/542/455 476/549/470 477/550/471
f 455/545/449 454/543/448 469/551/463 470/552/464
f 463/546/457 462/544/456 477/550/471 478/553/472
f 456/547/450 455/545/449 470/552/464 471/554/465
f 464/548/458 463/546/457 478/553/472 479/555/473
f 457/532/451 456/547/450 471/554/465 472/556/466
f 465/534/459 464/548/458 479/555/473 480/557/474
f 458/533/452 457/532/451 472/556/466 473/558/467
f 466/535/460 465/534/459 480/557/474 481/559/475
f 459/536/453 458/533/452 473/558/467 474/560/468
f 452/538/446 9/561/3 467/562/461
f 16/563/10 466/535/460 481/559/475
f 460/540/454 459/536/453 474/560/468 475/564/469
f 453/541/447 452/538/446 467/562/461 468/565/462
f 461/542/455 460/540/454 475/564/469 476/549/470
f 454/543/448 453/541/447 468/565/462 469/551/463
f 481/559/475 480/557/474 489/10/483 490/9/484
f 474/560/468 473/558/467 12/14/6 13/13/7
f 467/562/461 9/566/3 482/17/476
f 16/567/10 481/559/475 490/9/484
f 475/564/469 474/560/468 13/13/7 14/21/8
f 468/565/462 467/562/461 482/17/476 483/23/477
f 476/549/470 475/564/469 14/21/8 486/25/480
f 469/551/463 468/565/462 483/23/477 10/27/4
f 477/550/471 476/549/470 486/25/480 15/29/9
f 470/552/464 469/551/463 10/27/4 484/31/478
f 478/553/472 477/550/471 15/29/9 487/33/481
f 471/554/465 470/552/464 484/31/478 11/35/5
f 479/555/473 478/553/472 487/33/481 488/37/482
f 472/556/466 471/554/465 11/35/5 485/39/479
f 480/557/474 479/555/473 488/37/482 489/10/483
f 473/558/467 472/556/466 485/39/479 12/14/6
o 03_box
v 0.000000 0.000000 0.000000 1.0000 1.0000 1.0000
v 0.000000 1.000000 0.000000 1.0000 1.0000 1.0000
v 0.000000 0.000000 -1.000000 1.0000 1.0000 1.0000
v 0.000000 1.000000 -1.000000 1.0000 1.0000 1.0000
v 1.000000 0.000000 0.000000 1.0000 1.0000 1.0000
v 1.000000 1.000000 0.000000 1.0000 1.0000 1.0000
v 1.000000 0.000000 -1.000000 1.0000 1.0000 1.0000
v 1.000000 1.000000 -1.000000 1.0000 1.0000 1.0000
vn -1.0000 -0.0000 -0.0000
vn -0.0000 -0.0000 -1.0000
vn 1.0000 -0.0000 -0.0000
vn -0.0000 -0.0000 1.0000
vn -0.0000 -1.0000 -0.0000
vn -0.0000 1.0000 -0.0000
vt 0.375000 0.000000
vt 0.625000 0.000000
vt 0.625000 0.250000
vt 0.375000 0.250000
vt 0.625000 0.500000
vt 0.375000 0.500000
vt 0.625000 0.750000
vt 0.375000 0.750000
vt 0.625000 1.000000
vt 0.375000 1.000000
vt 0.125000 0.500000
vt 0.125000 0.750000
vt 0.875000 0.500000
vt 0.875000 0.750000
s 0
usemtl blank
f 491/568/485 492/569/485 494/570/485 493/571/485
f 493/571/486 494/570/486 498/572/486 497/573/486
f 497/573/487 498/572/487 496/574/487 495/575/487
f 495/575/488 496/574/488 492/576/488 491/577/488
f 493/578/489 497/573/489 495/575/489 491/579/489
f 498/572/490 494/580/490 492/581/490 496/574/490
