{
	"asset":{
		"generator":"Khronos glTF Blender I/O v3.5.30",
		"version":"2.0"
	},
	"extensionsUsed":[
		"KHR_materials_specular",
		"KHR_materials_ior"
	],
	"scene":0,
	"scenes":[
		{
			"name":"Scene",
			"nodes":[
				0,
				1,
				2
			]
		}
	],
	"nodes":[
		{
			"mesh":0,
			"name":"intro",
			"translation":[
				11.11803150177002,
				10.028274536132812,
				-3.4150257110595703
			]
		},
		{
			"mesh":1,
			"name":"pyramid",
			"rotation":[
				0.70710688829422,
				0,
				0,
				0.7071066498756409
			],
			"translation":[
				11.9434175491333,
				13.4619140625,
				-11.857622146606445
			]
		},
		{
			"mesh":2,
			"name":"hallway",
			"rotation":[
				0.70710688829422,
				0,
				0,
				0.7071066498756409
			],
			"translation":[
				12.113720893859863,
				10.875457763671875,
				-13.41307258605957
			]
		}
	],
	"materials":[
		{
			"doubleSided":true,
			"extensions":{
				"KHR_materials_specular":{
					"specularColorFactor":[
						0,
						0,
						0
					]
				},
				"KHR_materials_ior":{
					"ior":1.4500000476837158
				}
			},
			"name":"floor",
			"pbrMetallicRoughness":{
				"baseColorTexture":{
					"index":0
				},
				"metallicFactor":0
			}
		},
		{
			"doubleSided":true,
			"name":"platform",
			"pbrMetallicRoughness":{
				"baseColorTexture":{
					"index":1
				},
				"metallicFactor":0,
				"roughnessFactor":0.5
			}
		},
		{
			"doubleSided":true,
			"name":"slanted_walls",
			"pbrMetallicRoughness":{
				"baseColorTexture":{
					"index":2
				},
				"metallicFactor":0,
				"roughnessFactor":0.5
			}
		},
		{
			"doubleSided":true,
			"name":"pattern_walls",
			"pbrMetallicRoughness":{
				"baseColorTexture":{
					"index":3
				},
				"metallicFactor":0,
				"roughnessFactor":0.5
			}
		},
		{
			"doubleSided":true,
			"name":"regular_walls",
			"pbrMetallicRoughness":{
				"baseColorTexture":{
					"index":4
				},
				"metallicFactor":0,
				"roughnessFactor":0.5
			}
		},
		{
			"doubleSided":true,
			"name":"yellow wall",
			"pbrMetallicRoughness":{
				"baseColorTexture":{
					"index":5
				},
				"metallicFactor":0,
				"roughnessFactor":0.5
			}
		},
		{
			"doubleSided":true,
			"name":"snow",
			"pbrMetallicRoughness":{
				"baseColorTexture":{
					"index":6
				},
				"metallicFactor":0,
				"roughnessFactor":0.5
			}
		},
		{
			"doubleSided":true,
			"name":"plank",
			"pbrMetallicRoughness":{
				"baseColorTexture":{
					"index":7
				},
				"metallicFactor":0,
				"roughnessFactor":0.5
			}
		},
		{
			"doubleSided":true,
			"name":"yellow_board",
			"pbrMetallicRoughness":{
				"baseColorTexture":{
					"index":8
				},
				"metallicFactor":0,
				"roughnessFactor":0.5
			}
		},
		{
			"doubleSided":true,
			"name":"green_wall",
			"pbrMetallicRoughness":{
				"baseColorTexture":{
					"index":9
				},
				"metallicFactor":0,
				"roughnessFactor":0.5
			}
		}
	],
	"meshes":[
		{
			"name":"Cube.002",
			"primitives":[
				{
					"attributes":{
						"COLOR_0":0,
						"POSITION":1,
						"TEXCOORD_0":2,
						"NORMAL":3
					},
					"indices":4,
					"material":0
				},
				{
					"attributes":{
						"COLOR_0":5,
						"POSITION":6,
						"TEXCOORD_0":7,
						"NORMAL":8
					},
					"indices":9,
					"material":1
				},
				{
					"attributes":{
						"COLOR_0":10,
						"POSITION":11,
						"TEXCOORD_0":12,
						"NORMAL":13
					},
					"indices":14,
					"material":2
				},
				{
					"attributes":{
						"COLOR_0":15,
						"POSITION":16,
						"TEXCOORD_0":17,
						"NORMAL":18
					},
					"indices":19,
					"material":3
				},
				{
					"attributes":{
						"COLOR_0":20,
						"POSITION":21,
						"TEXCOORD_0":22,
						"NORMAL":23
					},
					"indices":24,
					"material":4
				},
				{
					"attributes":{
						"COLOR_0":25,
						"POSITION":26,
						"TEXCOORD_0":27,
						"NORMAL":28
					},
					"indices":29,
					"material":5
				}
			]
		},
		{
			"name":"entity0_brush858",
			"primitives":[
				{
					"attributes":{
						"COLOR_0":30,
						"POSITION":31,
						"TEXCOORD_0":32,
						"NORMAL":33,
						"TANGENT":34
					},
					"indices":35,
					"material":4
				},
				{
					"attributes":{
						"COLOR_0":36,
						"POSITION":37,
						"TEXCOORD_0":38,
						"NORMAL":39,
						"TANGENT":40
					},
					"indices":41,
					"material":6
				}
			]
		},
		{
			"name":"entity0_brush1281.001",
			"primitives":[
				{
					"attributes":{
						"COLOR_0":42,
						"POSITION":43,
						"TEXCOORD_0":44,
						"NORMAL":45
					},
					"indices":46,
					"material":1
				},
				{
					"attributes":{
						"COLOR_0":47,
						"POSITION":48,
						"TEXCOORD_0":49,
						"NORMAL":50
					},
					"indices":51,
					"material":4
				},
				{
					"attributes":{
						"COLOR_0":52,
						"POSITION":53,
						"TEXCOORD_0":54,
						"NORMAL":55
					},
					"indices":56,
					"material":7
				},
				{
					"attributes":{
						"COLOR_0":57,
						"POSITION":58,
						"TEXCOORD_0":59,
						"NORMAL":60
					},
					"indices":61,
					"material":8
				},
				{
					"attributes":{
						"COLOR_0":62,
						"POSITION":63,
						"TEXCOORD_0":64,
						"NORMAL":65
					},
					"indices":66,
					"material":9
				}
			]
		}
	],
	"textures":[
		{
			"sampler":0,
			"source":0
		},
		{
			"sampler":0,
			"source":1
		},
		{
			"sampler":0,
			"source":2
		},
		{
			"sampler":0,
			"source":3
		},
		{
			"sampler":0,
			"source":4
		},
		{
			"sampler":1,
			"source":5
		},
		{
			"sampler":0,
			"source":6
		},
		{
			"sampler":0,
			"source":7
		},
		{
			"sampler":1,
			"source":8
		},
		{
			"sampler":0,
			"source":9
		}
	],
	"images":[
		{
			"bufferView":5,
			"mimeType":"image/png",
			"name":"techflat1_blk1"
		},
		{
			"bufferView":11,
			"mimeType":"image/png",
			"name":"techflat1_grey2"
		},
		{
			"bufferView":17,
			"mimeType":"image/png",
			"name":"techlzr_grey1"
		},
		{
			"bufferView":23,
			"mimeType":"image/png",
			"name":"pattern_walls"
		},
		{
			"bufferView":29,
			"mimeType":"image/png",
			"name":"wall"
		},
		{
			"bufferView":35,
			"mimeType":"image/png",
			"name":"techtrim3_ylw2"
		},
		{
			"bufferView":48,
			"mimeType":"image/png",
			"name":"snow"
		},
		{
			"bufferView":64,
			"mimeType":"image/png",
			"name":"board"
		},
		{
			"bufferView":70,
			"mimeType":"image/png",
			"name":"yellow_board"
		},
		{
			"bufferView":76,
			"mimeType":"image/png",
			"name":"green_wall"
		}
	],
	"accessors":[
		{
			"bufferView":0,
			"componentType":5126,
			"count":497,
			"type":"VEC4"
		},
		{
			"bufferView":1,
			"componentType":5126,
			"count":497,
			"max":[
				1.939745545387268,
				1.7812247276306152,
				1.9099128246307373
			],
			"min":[
				-1.939745545387268,
				0.006675541400909424,
				-7.241307258605957
			],
			"type":"VEC3"
		},
		{
			"bufferView":2,
			"componentType":5126,
			"count":497,
			"type":"VEC2"
		},
		{
			"bufferView":3,
			"componentType":5126,
			"count":497,
			"type":"VEC3"
		},
		{
			"bufferView":4,
			"componentType":5123,
			"count":822,
			"type":"SCALAR"
		},
		{
			"bufferView":6,
			"componentType":5126,
			"count":32,
			"type":"VEC4"
		},
		{
			"bufferView":7,
			"componentType":5126,
			"count":32,
			"max":[
				0.26472869515419006,
				0.020049072802066803,
				-1.9478083848953247
			],
			"min":[
				-0.26472869515419006,
				0.020049072802066803,
				-3.5405914783477783
			],
			"type":"VEC3"
		},
		{
			"bufferView":8,
			"componentType":5126,
			"count":32,
			"type":"VEC2"
		},
		{
			"bufferView":9,
			"componentType":5126,
			"count":32,
			"type":"VEC3"
		},
		{
			"bufferView":10,
			"componentType":5123,
			"count":48,
			"type":"SCALAR"
		},
		{
			"bufferView":12,
			"componentType":5126,
			"count":48,
			"type":"VEC4"
		},
		{
			"bufferView":13,
			"componentType":5126,
			"count":48,
			"max":[
				1.7328696250915527,
				1.2067608833312988,
				1.0823216438293457
			],
			"min":[
				-1.7328696250915527,
				0.7333431243896484,
				-6.214087963104248
			],
			"type":"VEC3"
		},
		{
			"bufferView":14,
			"componentType":5126,
			"count":48,
			"type":"VEC2"
		},
		{
			"bufferView":15,
			"componentType":5126,
			"count":48,
			"type":"VEC3"
		},
		{
			"bufferView":16,
			"componentType":5123,
			"count":72,
			"type":"SCALAR"
		},
		{
			"bufferView":18,
			"componentType":5126,
			"count":192,
			"type":"VEC4"
		},
		{
			"bufferView":19,
			"componentType":5126,
			"count":192,
			"max":[
				1.939745545387268,
				1.7812259197235107,
				1.9099128246307373
			],
			"min":[
				-1.939745545387268,
				0.006675541400909424,
				-7.168374061584473
			],
			"type":"VEC3"
		},
		{
			"bufferView":20,
			"componentType":5126,
			"count":192,
			"type":"VEC2"
		},
		{
			"bufferView":21,
			"componentType":5126,
			"count":192,
			"type":"VEC3"
		},
		{
			"bufferView":22,
			"componentType":5123,
			"count":294,
			"type":"SCALAR"
		},
		{
			"bufferView":24,
			"componentType":5126,
			"count":970,
			"type":"VEC4"
		},
		{
			"bufferView":25,
			"componentType":5126,
			"count":970,
			"max":[
				1.74284827709198,
				3.190934658050537,
				1.7323004007339478
			],
			"min":[
				-1.74284827709198,
				-0.9940366744995117,
				-7.241307258605957
			],
			"type":"VEC3"
		},
		{
			"bufferView":26,
			"componentType":5126,
			"count":970,
			"type":"VEC2"
		},
		{
			"bufferView":27,
			"componentType":5126,
			"count":970,
			"type":"VEC3"
		},
		{
			"bufferView":28,
			"componentType":5123,
			"count":1548,
			"type":"SCALAR"
		},
		{
			"bufferView":30,
			"componentType":5126,
			"count":224,
			"type":"VEC4"
		},
		{
			"bufferView":31,
			"componentType":5126,
			"count":224,
			"max":[
				0.4845867156982422,
				3.190934658050537,
				-7.107421875
			],
			"min":[
				-0.4845867156982422,
				2.190934658050537,
				-7.232421875
			],
			"type":"VEC3"
		},
		{
			"bufferView":32,
			"componentType":5126,
			"count":224,
			"type":"VEC2"
		},
		{
			"bufferView":33,
			"componentType":5126,
			"count":224,
			"type":"VEC3"
		},
		{
			"bufferView":34,
			"componentType":5123,
			"count":468,
			"type":"SCALAR"
		},
		{
			"bufferView":36,
			"componentType":5126,
			"count":72,
			"type":"VEC4"
		},
		{
			"bufferView":37,
			"componentType":5126,
			"count":72,
			"max":[
				5.135651588439941,
				0.8322778344154358,
				1.6471123695373535
			],
			"min":[
				-6.396531105041504,
				-2.7103638648986816,
				-5.589203357696533
			],
			"type":"VEC3"
		},
		{
			"bufferView":38,
			"componentType":5126,
			"count":72,
			"type":"VEC2"
		},
		{
			"bufferView":39,
			"componentType":5126,
			"count":72,
			"type":"VEC3"
		},
		{
			"bufferView":40,
			"componentType":5126,
			"count":72,
			"type":"VEC4"
		},
		{
			"bufferView":41,
			"componentType":5123,
			"count":108,
			"type":"SCALAR"
		},
		{
			"bufferView":42,
			"componentType":5126,
			"count":12,
			"type":"VEC4"
		},
		{
			"bufferView":43,
			"componentType":5126,
			"count":12,
			"max":[
				1.4062929153442383,
				-2.2140510082244873,
				-4.577550411224365
			],
			"min":[
				-2.6036577224731445,
				-3.8210625648498535,
				-8.007303237915039
			],
			"type":"VEC3"
		},
		{
			"bufferView":44,
			"componentType":5126,
			"count":12,
			"type":"VEC2"
		},
		{
			"bufferView":45,
			"componentType":5126,
			"count":12,
			"type":"VEC3"
		},
		{
			"bufferView":46,
			"componentType":5126,
			"count":12,
			"type":"VEC4"
		},
		{
			"bufferView":47,
			"componentType":5123,
			"count":12,
			"type":"SCALAR"
		},
		{
			"bufferView":49,
			"componentType":5126,
			"count":104,
			"type":"VEC4"
		},
		{
			"bufferView":50,
			"componentType":5126,
			"count":104,
			"max":[
				0.01957869529724121,
				2.756739616394043,
				0.15625816583633423
			],
			"min":[
				-1.85546875,
				-0.1718273162841797,
				0.15625
			],
			"type":"VEC3"
		},
		{
			"bufferView":51,
			"componentType":5126,
			"count":104,
			"type":"VEC2"
		},
		{
			"bufferView":52,
			"componentType":5126,
			"count":104,
			"type":"VEC3"
		},
		{
			"bufferView":53,
			"componentType":5123,
			"count":189,
			"type":"SCALAR"
		},
		{
			"bufferView":54,
			"componentType":5126,
			"count":258,
			"type":"VEC4"
		},
		{
			"bufferView":55,
			"componentType":5126,
			"count":258,
			"max":[
				0.01957869529724121,
				2.756739616394043,
				0.15625816583633423
			],
			"min":[
				-1.730320930480957,
				-0.1718273162841797,
				-0.9062427878379822
			],
			"type":"VEC3"
		},
		{
			"bufferView":56,
			"componentType":5126,
			"count":258,
			"type":"VEC2"
		},
		{
			"bufferView":57,
			"componentType":5126,
			"count":258,
			"type":"VEC3"
		},
		{
			"bufferView":58,
			"componentType":5123,
			"count":441,
			"type":"SCALAR"
		},
		{
			"bufferView":59,
			"componentType":5126,
			"count":37,
			"type":"VEC4"
		},
		{
			"bufferView":60,
			"componentType":5126,
			"count":37,
			"max":[
				0.01957869529724121,
				0.4531726837158203,
				0.15625789761543274
			],
			"min":[
				-0.2610206604003906,
				-0.04694175720214844,
				-0.15676084160804749
			],
			"type":"VEC3"
		},
		{
			"bufferView":61,
			"componentType":5126,
			"count":37,
			"type":"VEC2"
		},
		{
			"bufferView":62,
			"componentType":5126,
			"count":37,
			"type":"VEC3"
		},
		{
			"bufferView":63,
			"componentType":5123,
			"count":51,
			"type":"SCALAR"
		},
		{
			"bufferView":65,
			"componentType":5126,
			"count":147,
			"type":"VEC4"
		},
		{
			"bufferView":66,
			"componentType":5126,
			"count":147,
			"max":[
				-1.6679210662841797,
				0.390625,
				0.1562509536743164
			],
			"min":[
				-1.85546875,
				-0.109375,
				-0.21874764561653137
			],
			"type":"VEC3"
		},
		{
			"bufferView":67,
			"componentType":5126,
			"count":147,
			"type":"VEC2"
		},
		{
			"bufferView":68,
			"componentType":5126,
			"count":147,
			"type":"VEC3"
		},
		{
			"bufferView":69,
			"componentType":5123,
			"count":252,
			"type":"SCALAR"
		},
		{
			"bufferView":71,
			"componentType":5126,
			"count":48,
			"type":"VEC4"
		},
		{
			"bufferView":72,
			"componentType":5126,
			"count":48,
			"max":[
				-1.730269432067871,
				0.4531726837158203,
				0.15625792741775513
			],
			"min":[
				-1.7304372787475586,
				-0.1718273162841797,
				-0.5937421917915344
			],
			"type":"VEC3"
		},
		{
			"bufferView":73,
			"componentType":5126,
			"count":48,
			"type":"VEC2"
		},
		{
			"bufferView":74,
			"componentType":5126,
			"count":48,
			"type":"VEC3"
		},
		{
			"bufferView":75,
			"componentType":5123,
			"count":72,
			"type":"SCALAR"
		}
	],
	"bufferViews":[
		{
			"buffer":0,
			"byteLength":7952,
			"byteOffset":0,
			"target":34962
		},
		{
			"buffer":0,
			"byteLength":5964,
			"byteOffset":7952,
			"target":34962
		},
		{
			"buffer":0,
			"byteLength":3976,
			"byteOffset":13916,
			"target":34962
		},
		{
			"buffer":0,
			"byteLength":5964,
			"byteOffset":17892,
			"target":34962
		},
		{
			"buffer":0,
			"byteLength":1644,
			"byteOffset":23856,
			"target":34963
		},
		{
			"buffer":0,
			"byteLength":6282,
			"byteOffset":25500
		},
		{
			"buffer":0,
			"byteLength":512,
			"byteOffset":31784,
			"target":34962
		},
		{
			"buffer":0,
			"byteLength":384,
			"byteOffset":32296,
			"target":34962
		},
		{
			"buffer":0,
			"byteLength":256,
			"byteOffset":32680,
			"target":34962
		},
		{
			"buffer":0,
			"byteLength":384,
			"byteOffset":32936,
			"target":34962
		},
		{
			"buffer":0,
			"byteLength":96,
			"byteOffset":33320,
			"target":34963
		},
		{
			"buffer":0,
			"byteLength":3065,
			"byteOffset":33416
		},
		{
			"buffer":0,
			"byteLength":768,
			"byteOffset":36484,
			"target":34962
		},
		{
			"buffer":0,
			"byteLength":576,
			"byteOffset":37252,
			"target":34962
		},
		{
			"buffer":0,
			"byteLength":384,
			"byteOffset":37828,
			"target":34962
		},
		{
			"buffer":0,
			"byteLength":576,
			"byteOffset":38212,
			"target":34962
		},
		{
			"buffer":0,
			"byteLength":144,
			"byteOffset":38788,
			"target":34963
		},
		{
			"buffer":0,
			"byteLength":7222,
			"byteOffset":38932
		},
		{
			"buffer":0,
			"byteLength":3072,
			"byteOffset":46156,
			"target":34962
		},
		{
			"buffer":0,
			"byteLength":2304,
			"byteOffset":49228,
			"target":34962
		},
		{
			"buffer":0,
			"byteLength":1536,
			"byteOffset":51532,
			"target":34962
		},
		{
			"buffer":0,
			"byteLength":2304,
			"byteOffset":53068,
			"target":34962
		},
		{
			"buffer":0,
			"byteLength":588,
			"byteOffset":55372,
			"target":34963
		},
		{
			"buffer":0,
			"byteLength":3710,
			"byteOffset":55960
		},
		{
			"buffer":0,
			"byteLength":15520,
			"byteOffset":59672,
			"target":34962
		},
		{
			"buffer":0,
			"byteLength":11640,
			"byteOffset":75192,
			"target":34962
		},
		{
			"buffer":0,
			"byteLength":7760,
			"byteOffset":86832,
			"target":34962
		},
		{
			"buffer":0,
			"byteLength":11640,
			"byteOffset":94592,
			"target":34962
		},
		{
			"buffer":0,
			"byteLength":3096,
			"byteOffset":106232,
			"target":34963
		},
		{
			"buffer":0,
			"byteLength":6739,
			"byteOffset":109328
		},
		{
			"buffer":0,
			"byteLength":3584,
			"byteOffset":116068,
			"target":34962
		},
		{
			"buffer":0,
			"byteLength":2688,
			"byteOffset":119652,
			"target":34962
		},
		{
			"buffer":0,
			"byteLength":1792,
			"byteOffset":122340,
			"target":34962
		},
		{
			"buffer":0,
			"byteLength":2688,
			"byteOffset":124132,
			"target":34962
		},
		{
			"buffer":0,
			"byteLength":936,
			"byteOffset":126820,
			"target":34963
		},
		{
			"buffer":0,
			"byteLength":8552,
			"byteOffset":127756
		},
		{
			"buffer":0,
			"byteLength":1152,
			"byteOffset":136308,
			"target":34962
		},
		{
			"buffer":0,
			"byteLength":864,
			"byteOffset":137460,
			"target":34962
		},
		{
			"buffer":0,
			"byteLength":576,
			"byteOffset":138324,
			"target":34962
		},
		{
			"buffer":0,
			"byteLength":864,
			"byteOffset":138900,
			"target":34962
		},
		{
			"buffer":0,
			"byteLength":1152,
			"byteOffset":139764,
			"target":34962
		},
		{
			"buffer":0,
			"byteLength":216,
			"byteOffset":140916,
			"target":34963
		},
		{
			"buffer":0,
			"byteLength":192,
			"byteOffset":141132,
			"target":34962
		},
		{
			"buffer":0,
			"byteLength":144,
			"byteOffset":141324,
			"target":34962
		},
		{
			"buffer":0,
			"byteLength":96,
			"byteOffset":141468,
			"target":34962
		},
		{
			"buffer":0,
			"byteLength":144,
			"byteOffset":141564,
			"target":34962
		},
		{
			"buffer":0,
			"byteLength":192,
			"byteOffset":141708,
			"target":34962
		},
		{
			"buffer":0,
			"byteLength":24,
			"byteOffset":141900,
			"target":34963
		},
		{
			"buffer":0,
			"byteLength":10243,
			"byteOffset":141924
		},
		{
			"buffer":0,
			"byteLength":1664,
			"byteOffset":152168,
			"target":34962
		},
		{
			"buffer":0,
			"byteLength":1248,
			"byteOffset":153832,
			"target":34962
		},
		{
			"buffer":0,
			"byteLength":832,
			"byteOffset":155080,
			"target":34962
		},
		{
			"buffer":0,
			"byteLength":1248,
			"byteOffset":155912,
			"target":34962
		},
		{
			"buffer":0,
			"byteLength":378,
			"byteOffset":157160,
			"target":34963
		},
		{
			"buffer":0,
			"byteLength":4128,
			"byteOffset":157540,
			"target":34962
		},
		{
			"buffer":0,
			"byteLength":3096,
			"byteOffset":161668,
			"target":34962
		},
		{
			"buffer":0,
			"byteLength":2064,
			"byteOffset":164764,
			"target":34962
		},
		{
			"buffer":0,
			"byteLength":3096,
			"byteOffset":166828,
			"target":34962
		},
		{
			"buffer":0,
			"byteLength":882,
			"byteOffset":169924,
			"target":34963
		},
		{
			"buffer":0,
			"byteLength":592,
			"byteOffset":170808,
			"target":34962
		},
		{
			"buffer":0,
			"byteLength":444,
			"byteOffset":171400,
			"target":34962
		},
		{
			"buffer":0,
			"byteLength":296,
			"byteOffset":171844,
			"target":34962
		},
		{
			"buffer":0,
			"byteLength":444,
			"byteOffset":172140,
			"target":34962
		},
		{
			"buffer":0,
			"byteLength":102,
			"byteOffset":172584,
			"target":34963
		},
		{
			"buffer":0,
			"byteLength":4580,
			"byteOffset":172688
		},
		{
			"buffer":0,
			"byteLength":2352,
			"byteOffset":177268,
			"target":34962
		},
		{
			"buffer":0,
			"byteLength":1764,
			"byteOffset":179620,
			"target":34962
		},
		{
			"buffer":0,
			"byteLength":1176,
			"byteOffset":181384,
			"target":34962
		},
		{
			"buffer":0,
			"byteLength":1764,
			"byteOffset":182560,
			"target":34962
		},
		{
			"buffer":0,
			"byteLength":504,
			"byteOffset":184324,
			"target":34963
		},
		{
			"buffer":0,
			"byteLength":4528,
			"byteOffset":184828
		},
		{
			"buffer":0,
			"byteLength":768,
			"byteOffset":189356,
			"target":34962
		},
		{
			"buffer":0,
			"byteLength":576,
			"byteOffset":190124,
			"target":34962
		},
		{
			"buffer":0,
			"byteLength":384,
			"byteOffset":190700,
			"target":34962
		},
		{
			"buffer":0,
			"byteLength":576,
			"byteOffset":191084,
			"target":34962
		},
		{
			"buffer":0,
			"byteLength":144,
			"byteOffset":191660,
			"target":34963
		},
		{
			"buffer":0,
			"byteLength":4420,
			"byteOffset":191804
		}
	],
	"samplers":[
		{
			"magFilter":9728,
			"minFilter":9984
		},
		{
			"magFilter":9729,
			"minFilter":9987
		}
	],
	"buffers":[
		{
			"byteLength":196224,
			"uri":"data:application/octet-stream;base64,"
		}
	]
}
