{
	"asset":{
		"generator":"Khronos glTF Blender I/O v3.5.30",
		"version":"2.0"
	},
	"extensionsUsed":[
		"KHR_materials_specular",
		"KHR_materials_ior"
	],
	"scene":0,
	"scenes":[
		{
			"name":"Scene",
			"nodes":[
				0,
				1
			]
		}
	],
	"nodes":[
		{
			"mesh":0,
			"name":"Ground.001",
			"translation":[
				11.11803150177002,
				10.028274536132812,
				-3.4150257110595703
			]
		},
		{
			"mesh":1,
			"name":"entity0_brush1281.001",
			"rotation":[
				0.70710688829422,
				0,
				0,
				0.7071066498756409
			],
			"translation":[
				12.113720893859863,
				10.875457763671875,
				-13.41307258605957
			]
		}
	],
	"materials":[
		{
			"doubleSided":true,
			"extensions":{
				"KHR_materials_specular":{
					"specularColorFactor":[
						0,
						0,
						0
					]
				},
				"KHR_materials_ior":{
					"ior":1.4500000476837158
				}
			},
			"name":"floor",
			"pbrMetallicRoughness":{
				"baseColorTexture":{
					"index":0
				},
				"metallicFactor":0
			}
		},
		{
			"doubleSided":true,
			"name":"platform",
			"pbrMetallicRoughness":{
				"baseColorTexture":{
					"index":1
				},
				"metallicFactor":0,
				"roughnessFactor":0.5
			}
		},
		{
			"doubleSided":true,
			"name":"slanted_walls",
			"pbrMetallicRoughness":{
				"baseColorTexture":{
					"index":2
				},
				"metallicFactor":0,
				"roughnessFactor":0.5
			}
		},
		{
			"doubleSided":true,
			"name":"pattern_walls",
			"pbrMetallicRoughness":{
				"baseColorTexture":{
					"index":3
				},
				"metallicFactor":0,
				"roughnessFactor":0.5
			}
		},
		{
			"doubleSided":true,
			"name":"regular_walls",
			"pbrMetallicRoughness":{
				"baseColorTexture":{
					"index":4
				},
				"metallicFactor":0,
				"roughnessFactor":0.5
			}
		},
		{
			"doubleSided":true,
			"name":"yellow wall",
			"pbrMetallicRoughness":{
				"baseColorTexture":{
					"index":5
				},
				"metallicFactor":0,
				"roughnessFactor":0.5
			}
		},
		{
			"doubleSided":true,
			"name":"plank",
			"pbrMetallicRoughness":{
				"baseColorTexture":{
					"index":6
				},
				"metallicFactor":0,
				"roughnessFactor":0.5
			}
		},
		{
			"doubleSided":true,
			"name":"yellow_board",
			"pbrMetallicRoughness":{
				"baseColorTexture":{
					"index":7
				},
				"metallicFactor":0,
				"roughnessFactor":0.5
			}
		},
		{
			"doubleSided":true,
			"name":"green_wall",
			"pbrMetallicRoughness":{
				"baseColorTexture":{
					"index":8
				},
				"metallicFactor":0,
				"roughnessFactor":0.5
			}
		}
	],
	"meshes":[
		{
			"name":"Cube.002",
			"primitives":[
				{
					"attributes":{
						"COLOR_0":0,
						"POSITION":1,
						"TEXCOORD_0":2,
						"NORMAL":3
					},
					"indices":4,
					"material":0
				},
				{
					"attributes":{
						"COLOR_0":5,
						"POSITION":6,
						"TEXCOORD_0":7,
						"NORMAL":8
					},
					"indices":9,
					"material":1
				},
				{
					"attributes":{
						"COLOR_0":10,
						"POSITION":11,
						"TEXCOORD_0":12,
						"NORMAL":13
					},
					"indices":14,
					"material":2
				},
				{
					"attributes":{
						"COLOR_0":15,
						"POSITION":16,
						"TEXCOORD_0":17,
						"NORMAL":18
					},
					"indices":19,
					"material":3
				},
				{
					"attributes":{
						"COLOR_0":20,
						"POSITION":21,
						"TEXCOORD_0":22,
						"NORMAL":23
					},
					"indices":24,
					"material":4
				},
				{
					"attributes":{
						"COLOR_0":25,
						"POSITION":26,
						"TEXCOORD_0":27,
						"NORMAL":28
					},
					"indices":29,
					"material":5
				}
			]
		},
		{
			"name":"entity0_brush1281.001",
			"primitives":[
				{
					"attributes":{
						"COLOR_0":30,
						"POSITION":31,
						"TEXCOORD_0":32,
						"NORMAL":33
					},
					"indices":34,
					"material":1
				},
				{
					"attributes":{
						"COLOR_0":35,
						"POSITION":36,
						"TEXCOORD_0":37,
						"NORMAL":38
					},
					"indices":39,
					"material":4
				},
				{
					"attributes":{
						"COLOR_0":40,
						"POSITION":41,
						"TEXCOORD_0":42,
						"NORMAL":43
					},
					"indices":44,
					"material":6
				},
				{
					"attributes":{
						"COLOR_0":45,
						"POSITION":46,
						"TEXCOORD_0":47,
						"NORMAL":48
					},
					"indices":49,
					"material":7
				},
				{
					"attributes":{
						"COLOR_0":50,
						"POSITION":51,
						"TEXCOORD_0":52,
						"NORMAL":53
					},
					"indices":54,
					"material":8
				}
			]
		}
	],
	"textures":[
		{
			"sampler":0,
			"source":0
		},
		{
			"sampler":1,
			"source":1
		},
		{
			"sampler":1,
			"source":2
		},
		{
			"sampler":1,
			"source":3
		},
		{
			"sampler":1,
			"source":4
		},
		{
			"sampler":0,
			"source":5
		},
		{
			"sampler":1,
			"source":6
		},
		{
			"sampler":0,
			"source":7
		},
		{
			"sampler":1,
			"source":8
		}
	],
	"images":[
		{
			"bufferView":5,
			"mimeType":"image/png",
			"name":"techflat1_blk1"
		},
		{
			"bufferView":11,
			"mimeType":"image/png",
			"name":"techflat1_grey2"
		},
		{
			"bufferView":17,
			"mimeType":"image/png",
			"name":"techlzr_grey1"
		},
		{
			"bufferView":23,
			"mimeType":"image/png",
			"name":"pattern_walls"
		},
		{
			"bufferView":29,
			"mimeType":"image/png",
			"name":"wall"
		},
		{
			"bufferView":35,
			"mimeType":"image/png",
			"name":"techtrim3_ylw2"
		},
		{
			"bufferView":51,
			"mimeType":"image/png",
			"name":"board"
		},
		{
			"bufferView":57,
			"mimeType":"image/png",
			"name":"yellow_board"
		},
		{
			"bufferView":63,
			"mimeType":"image/png",
			"name":"green_wall"
		}
	],
	"accessors":[
		{
			"bufferView":0,
			"componentType":5126,
			"count":497,
			"type":"VEC4"
		},
		{
			"bufferView":1,
			"componentType":5126,
			"count":497,
			"max":[
				1.939745545387268,
				1.7812247276306152,
				1.9099128246307373
			],
			"min":[
				-1.939745545387268,
				0.006675541400909424,
				-7.241307258605957
			],
			"type":"VEC3"
		},
		{
			"bufferView":2,
			"componentType":5126,
			"count":497,
			"type":"VEC2"
		},
		{
			"bufferView":3,
			"componentType":5126,
			"count":497,
			"type":"VEC3"
		},
		{
			"bufferView":4,
			"componentType":5123,
			"count":822,
			"type":"SCALAR"
		},
		{
			"bufferView":6,
			"componentType":5126,
			"count":32,
			"type":"VEC4"
		},
		{
			"bufferView":7,
			"componentType":5126,
			"count":32,
			"max":[
				0.26472869515419006,
				0.020049072802066803,
				-1.9478083848953247
			],
			"min":[
				-0.26472869515419006,
				0.020049072802066803,
				-3.5405914783477783
			],
			"type":"VEC3"
		},
		{
			"bufferView":8,
			"componentType":5126,
			"count":32,
			"type":"VEC2"
		},
		{
			"bufferView":9,
			"componentType":5126,
			"count":32,
			"type":"VEC3"
		},
		{
			"bufferView":10,
			"componentType":5123,
			"count":48,
			"type":"SCALAR"
		},
		{
			"bufferView":12,
			"componentType":5126,
			"count":48,
			"type":"VEC4"
		},
		{
			"bufferView":13,
			"componentType":5126,
			"count":48,
			"max":[
				1.7328696250915527,
				1.2067608833312988,
				1.0823216438293457
			],
			"min":[
				-1.7328696250915527,
				0.7333431243896484,
				-6.214087963104248
			],
			"type":"VEC3"
		},
		{
			"bufferView":14,
			"componentType":5126,
			"count":48,
			"type":"VEC2"
		},
		{
			"bufferView":15,
			"componentType":5126,
			"count":48,
			"type":"VEC3"
		},
		{
			"bufferView":16,
			"componentType":5123,
			"count":72,
			"type":"SCALAR"
		},
		{
			"bufferView":18,
			"componentType":5126,
			"count":192,
			"type":"VEC4"
		},
		{
			"bufferView":19,
			"componentType":5126,
			"count":192,
			"max":[
				1.939745545387268,
				1.7812259197235107,
				1.9099128246307373
			],
			"min":[
				-1.939745545387268,
				0.006675541400909424,
				-7.168374061584473
			],
			"type":"VEC3"
		},
		{
			"bufferView":20,
			"componentType":5126,
			"count":192,
			"type":"VEC2"
		},
		{
			"bufferView":21,
			"componentType":5126,
			"count":192,
			"type":"VEC3"
		},
		{
			"bufferView":22,
			"componentType":5123,
			"count":294,
			"type":"SCALAR"
		},
		{
			"bufferView":24,
			"componentType":5126,
			"count":976,
			"type":"VEC4"
		},
		{
			"bufferView":25,
			"componentType":5126,
			"count":976,
			"max":[
				1.74284827709198,
				3.190934658050537,
				1.7323004007339478
			],
			"min":[
				-1.74284827709198,
				-0.9940366744995117,
				-7.241307258605957
			],
			"type":"VEC3"
		},
		{
			"bufferView":26,
			"componentType":5126,
			"count":976,
			"type":"VEC2"
		},
		{
			"bufferView":27,
			"componentType":5126,
			"count":976,
			"type":"VEC3"
		},
		{
			"bufferView":28,
			"componentType":5123,
			"count":1554,
			"type":"SCALAR"
		},
		{
			"bufferView":30,
			"componentType":5126,
			"count":224,
			"type":"VEC4"
		},
		{
			"bufferView":31,
			"componentType":5126,
			"count":224,
			"max":[
				0.4845867156982422,
				3.190934658050537,
				-7.107421875
			],
			"min":[
				-0.4845867156982422,
				2.190934658050537,
				-7.232421875
			],
			"type":"VEC3"
		},
		{
			"bufferView":32,
			"componentType":5126,
			"count":224,
			"type":"VEC2"
		},
		{
			"bufferView":33,
			"componentType":5126,
			"count":224,
			"type":"VEC3"
		},
		{
			"bufferView":34,
			"componentType":5123,
			"count":468,
			"type":"SCALAR"
		},
		{
			"bufferView":36,
			"componentType":5126,
			"count":104,
			"type":"VEC4"
		},
		{
			"bufferView":37,
			"componentType":5126,
			"count":104,
			"max":[
				0.01957869529724121,
				2.756739616394043,
				0.15625816583633423
			],
			"min":[
				-1.85546875,
				-0.1718273162841797,
				0.15625
			],
			"type":"VEC3"
		},
		{
			"bufferView":38,
			"componentType":5126,
			"count":104,
			"type":"VEC2"
		},
		{
			"bufferView":39,
			"componentType":5126,
			"count":104,
			"type":"VEC3"
		},
		{
			"bufferView":40,
			"componentType":5123,
			"count":189,
			"type":"SCALAR"
		},
		{
			"bufferView":41,
			"componentType":5126,
			"count":258,
			"type":"VEC4"
		},
		{
			"bufferView":42,
			"componentType":5126,
			"count":258,
			"max":[
				0.01957869529724121,
				2.756739616394043,
				0.15625816583633423
			],
			"min":[
				-1.730320930480957,
				-0.1718273162841797,
				-0.9062427878379822
			],
			"type":"VEC3"
		},
		{
			"bufferView":43,
			"componentType":5126,
			"count":258,
			"type":"VEC2"
		},
		{
			"bufferView":44,
			"componentType":5126,
			"count":258,
			"type":"VEC3"
		},
		{
			"bufferView":45,
			"componentType":5123,
			"count":441,
			"type":"SCALAR"
		},
		{
			"bufferView":46,
			"componentType":5126,
			"count":37,
			"type":"VEC4"
		},
		{
			"bufferView":47,
			"componentType":5126,
			"count":37,
			"max":[
				0.01957869529724121,
				0.4531726837158203,
				0.15625789761543274
			],
			"min":[
				-0.2610206604003906,
				-0.04694175720214844,
				-0.15676084160804749
			],
			"type":"VEC3"
		},
		{
			"bufferView":48,
			"componentType":5126,
			"count":37,
			"type":"VEC2"
		},
		{
			"bufferView":49,
			"componentType":5126,
			"count":37,
			"type":"VEC3"
		},
		{
			"bufferView":50,
			"componentType":5123,
			"count":51,
			"type":"SCALAR"
		},
		{
			"bufferView":52,
			"componentType":5126,
			"count":147,
			"type":"VEC4"
		},
		{
			"bufferView":53,
			"componentType":5126,
			"count":147,
			"max":[
				-1.6679210662841797,
				0.390625,
				0.1562509536743164
			],
			"min":[
				-1.85546875,
				-0.109375,
				-0.21874764561653137
			],
			"type":"VEC3"
		},
		{
			"bufferView":54,
			"componentType":5126,
			"count":147,
			"type":"VEC2"
		},
		{
			"bufferView":55,
			"componentType":5126,
			"count":147,
			"type":"VEC3"
		},
		{
			"bufferView":56,
			"componentType":5123,
			"count":252,
			"type":"SCALAR"
		},
		{
			"bufferView":58,
			"componentType":5126,
			"count":48,
			"type":"VEC4"
		},
		{
			"bufferView":59,
			"componentType":5126,
			"count":48,
			"max":[
				-1.730269432067871,
				0.4531726837158203,
				0.15625792741775513
			],
			"min":[
				-1.7304372787475586,
				-0.1718273162841797,
				-0.5937421917915344
			],
			"type":"VEC3"
		},
		{
			"bufferView":60,
			"componentType":5126,
			"count":48,
			"type":"VEC2"
		},
		{
			"bufferView":61,
			"componentType":5126,
			"count":48,
			"type":"VEC3"
		},
		{
			"bufferView":62,
			"componentType":5123,
			"count":72,
			"type":"SCALAR"
		}
	],
	"bufferViews":[
		{
			"buffer":0,
			"byteLength":7952,
			"byteOffset":0,
			"target":34962
		},
		{
			"buffer":0,
			"byteLength":5964,
			"byteOffset":7952,
			"target":34962
		},
		{
			"buffer":0,
			"byteLength":3976,
			"byteOffset":13916,
			"target":34962
		},
		{
			"buffer":0,
			"byteLength":5964,
			"byteOffset":17892,
			"target":34962
		},
		{
			"buffer":0,
			"byteLength":1644,
			"byteOffset":23856,
			"target":34963
		},
		{
			"buffer":0,
			"byteLength":6282,
			"byteOffset":25500
		},
		{
			"buffer":0,
			"byteLength":512,
			"byteOffset":31784,
			"target":34962
		},
		{
			"buffer":0,
			"byteLength":384,
			"byteOffset":32296,
			"target":34962
		},
		{
			"buffer":0,
			"byteLength":256,
			"byteOffset":32680,
			"target":34962
		},
		{
			"buffer":0,
			"byteLength":384,
			"byteOffset":32936,
			"target":34962
		},
		{
			"buffer":0,
			"byteLength":96,
			"byteOffset":33320,
			"target":34963
		},
		{
			"buffer":0,
			"byteLength":3065,
			"byteOffset":33416
		},
		{
			"buffer":0,
			"byteLength":768,
			"byteOffset":36484,
			"target":34962
		},
		{
			"buffer":0,
			"byteLength":576,
			"byteOffset":37252,
			"target":34962
		},
		{
			"buffer":0,
			"byteLength":384,
			"byteOffset":37828,
			"target":34962
		},
		{
			"buffer":0,
			"byteLength":576,
			"byteOffset":38212,
			"target":34962
		},
		{
			"buffer":0,
			"byteLength":144,
			"byteOffset":38788,
			"target":34963
		},
		{
			"buffer":0,
			"byteLength":7222,
			"byteOffset":38932
		},
		{
			"buffer":0,
			"byteLength":3072,
			"byteOffset":46156,
			"target":34962
		},
		{
			"buffer":0,
			"byteLength":2304,
			"byteOffset":49228,
			"target":34962
		},
		{
			"buffer":0,
			"byteLength":1536,
			"byteOffset":51532,
			"target":34962
		},
		{
			"buffer":0,
			"byteLength":2304,
			"byteOffset":53068,
			"target":34962
		},
		{
			"buffer":0,
			"byteLength":588,
			"byteOffset":55372,
			"target":34963
		},
		{
			"buffer":0,
			"byteLength":3710,
			"byteOffset":55960
		},
		{
			"buffer":0,
			"byteLength":15616,
			"byteOffset":59672,
			"target":34962
		},
		{
			"buffer":0,
			"byteLength":11712,
			"byteOffset":75288,
			"target":34962
		},
		{
			"buffer":0,
			"byteLength":7808,
			"byteOffset":87000,
			"target":34962
		},
		{
			"buffer":0,
			"byteLength":11712,
			"byteOffset":94808,
			"target":34962
		},
		{
			"buffer":0,
			"byteLength":3108,
			"byteOffset":106520,
			"target":34963
		},
		{
			"buffer":0,
			"byteLength":6739,
			"byteOffset":109628
		},
		{
			"buffer":0,
			"byteLength":3584,
			"byteOffset":116368,
			"target":34962
		},
		{
			"buffer":0,
			"byteLength":2688,
			"byteOffset":119952,
			"target":34962
		},
		{
			"buffer":0,
			"byteLength":1792,
			"byteOffset":122640,
			"target":34962
		},
		{
			"buffer":0,
			"byteLength":2688,
			"byteOffset":124432,
			"target":34962
		},
		{
			"buffer":0,
			"byteLength":936,
			"byteOffset":127120,
			"target":34963
		},
		{
			"buffer":0,
			"byteLength":8552,
			"byteOffset":128056
		},
		{
			"buffer":0,
			"byteLength":1664,
			"byteOffset":136608,
			"target":34962
		},
		{
			"buffer":0,
			"byteLength":1248,
			"byteOffset":138272,
			"target":34962
		},
		{
			"buffer":0,
			"byteLength":832,
			"byteOffset":139520,
			"target":34962
		},
		{
			"buffer":0,
			"byteLength":1248,
			"byteOffset":140352,
			"target":34962
		},
		{
			"buffer":0,
			"byteLength":378,
			"byteOffset":141600,
			"target":34963
		},
		{
			"buffer":0,
			"byteLength":4128,
			"byteOffset":141980,
			"target":34962
		},
		{
			"buffer":0,
			"byteLength":3096,
			"byteOffset":146108,
			"target":34962
		},
		{
			"buffer":0,
			"byteLength":2064,
			"byteOffset":149204,
			"target":34962
		},
		{
			"buffer":0,
			"byteLength":3096,
			"byteOffset":151268,
			"target":34962
		},
		{
			"buffer":0,
			"byteLength":882,
			"byteOffset":154364,
			"target":34963
		},
		{
			"buffer":0,
			"byteLength":592,
			"byteOffset":155248,
			"target":34962
		},
		{
			"buffer":0,
			"byteLength":444,
			"byteOffset":155840,
			"target":34962
		},
		{
			"buffer":0,
			"byteLength":296,
			"byteOffset":156284,
			"target":34962
		},
		{
			"buffer":0,
			"byteLength":444,
			"byteOffset":156580,
			"target":34962
		},
		{
			"buffer":0,
			"byteLength":102,
			"byteOffset":157024,
			"target":34963
		},
		{
			"buffer":0,
			"byteLength":4580,
			"byteOffset":157128
		},
		{
			"buffer":0,
			"byteLength":2352,
			"byteOffset":161708,
			"target":34962
		},
		{
			"buffer":0,
			"byteLength":1764,
			"byteOffset":164060,
			"target":34962
		},
		{
			"buffer":0,
			"byteLength":1176,
			"byteOffset":165824,
			"target":34962
		},
		{
			"buffer":0,
			"byteLength":1764,
			"byteOffset":167000,
			"target":34962
		},
		{
			"buffer":0,
			"byteLength":504,
			"byteOffset":168764,
			"target":34963
		},
		{
			"buffer":0,
			"byteLength":4528,
			"byteOffset":169268
		},
		{
			"buffer":0,
			"byteLength":768,
			"byteOffset":173796,
			"target":34962
		},
		{
			"buffer":0,
			"byteLength":576,
			"byteOffset":174564,
			"target":34962
		},
		{
			"buffer":0,
			"byteLength":384,
			"byteOffset":175140,
			"target":34962
		},
		{
			"buffer":0,
			"byteLength":576,
			"byteOffset":175524,
			"target":34962
		},
		{
			"buffer":0,
			"byteLength":144,
			"byteOffset":176100,
			"target":34963
		},
		{
			"buffer":0,
			"byteLength":4420,
			"byteOffset":176244
		}
	],
	"samplers":[
		{
			"magFilter":9729,
			"minFilter":9987
		},
		{
			"magFilter":9728,
			"minFilter":9984
		}
	],
	"buffers":[
		{
			"byteLength":180664,
			"uri":"data:application/octet-stream;base64,"
		}
	]
}
