{
    "asset" : {
        "generator" : "Khronos glTF Blender I/O v3.4.50",
        "version" : "2.0"
    },
    "scene" : 0,
    "scenes" : [
        {
            "name" : "Scene",
            "nodes" : [
                0
            ]
        }
    ],
    "nodes" : [
        {
            "mesh" : 0,
            "name" : "Ground.001",
            "translation" : [
                11.11803150177002,
                3.4150257110595703,
                10.028274536132812
            ]
        }
    ],
    "meshes" : [
        {
            "name" : "Cube.002",
            "primitives" : [
                {
                    "attributes" : {
                        "COLOR_0" : 0,
                        "POSITION" : 1,
                        "TEXCOORD_0" : 2,
                        "NORMAL" : 3
                    },
                    "indices" : 4
                }
            ]
        }
    ],
    "accessors" : [
        {
            "bufferView" : 0,
            "componentType" : 5126,
            "count" : 2127,
            "type" : "VEC4"
        },
        {
            "bufferView" : 1,
            "componentType" : 5126,
            "count" : 2127,
            "max" : [
                1.939745545387268,
                7.241307258605957,
                1.7812259197235107
            ],
            "min" : [
                -1.939745545387268,
                -1.9099128246307373,
                -1.2894116640090942
            ],
            "type" : "VEC3"
        },
        {
            "bufferView" : 2,
            "componentType" : 5126,
            "count" : 2127,
            "type" : "VEC2"
        },
        {
            "bufferView" : 3,
            "componentType" : 5126,
            "count" : 2127,
            "type" : "VEC3"
        },
        {
            "bufferView" : 4,
            "componentType" : 5123,
            "count" : 3198,
            "type" : "SCALAR"
        }
    ],
    "bufferViews" : [
        {
            "buffer" : 0,
            "byteLength" : 34032,
            "byteOffset" : 0,
            "target" : 34962
        },
        {
            "buffer" : 0,
            "byteLength" : 25524,
            "byteOffset" : 34032,
            "target" : 34962
        },
        {
            "buffer" : 0,
            "byteLength" : 17016,
            "byteOffset" : 59556,
            "target" : 34962
        },
        {
            "buffer" : 0,
            "byteLength" : 25524,
            "byteOffset" : 76572,
            "target" : 34962
        },
        {
            "buffer" : 0,
            "byteLength" : 6396,
            "byteOffset" : 102096,
            "target" : 34963
        }
    ],
    "buffers" : [
        {
            "byteLength" : 108492,
            "uri" : "data:application/octet-stream;base64,"
        }
    ]
}
