{
    "asset" : {
        "generator" : "Khronos glTF Blender I/O v3.4.50",
        "version" : "2.0"
    },
    "scene" : 0,
    "scenes" : [
        {
            "name" : "Scene",
            "nodes" : [
                0
            ]
        }
    ],
    "nodes" : [
        {
            "mesh" : 0,
            "name" : "Ground.001",
            "translation" : [
                11.11803150177002,
                10.028274536132812,
                -3.4150257110595703
            ]
        }
    ],
    "materials" : [
        {
            "doubleSided" : true,
            "name" : "floor",
            "pbrMetallicRoughness" : {
                "baseColorTexture" : {
                    "index" : 0
                },
                "metallicFactor" : 0,
                "roughnessFactor" : 0
            }
        }
    ],
    "meshes" : [
        {
            "name" : "Cube.002",
            "primitives" : [
                {
                    "attributes" : {
                        "COLOR_0" : 0,
                        "POSITION" : 1,
                        "TEXCOORD_0" : 2,
                        "NORMAL" : 3
                    },
                    "indices" : 4,
                    "material" : 0
                }
            ]
        }
    ],
    "textures" : [
        {
            "sampler" : 0,
            "source" : 0
        }
    ],
    "images" : [
        {
            "bufferView" : 5,
            "mimeType" : "image/png",
            "name" : "techflat1_blk1"
        }
    ],
    "accessors" : [
        {
            "bufferView" : 0,
            "componentType" : 5126,
            "count" : 1523,
            "type" : "VEC4"
        },
        {
            "bufferView" : 1,
            "componentType" : 5126,
            "count" : 1523,
            "max" : [
                1.939745545387268,
                1.7812259197235107,
                1.9099128246307373
            ],
            "min" : [
                -1.939745545387268,
                -1.282739520072937,
                -7.241307258605957
            ],
            "type" : "VEC3"
        },
        {
            "bufferView" : 2,
            "componentType" : 5126,
            "count" : 1523,
            "type" : "VEC2"
        },
        {
            "bufferView" : 3,
            "componentType" : 5126,
            "count" : 1523,
            "type" : "VEC3"
        },
        {
            "bufferView" : 4,
            "componentType" : 5123,
            "count" : 2286,
            "type" : "SCALAR"
        }
    ],
    "bufferViews" : [
        {
            "buffer" : 0,
            "byteLength" : 24368,
            "byteOffset" : 0,
            "target" : 34962
        },
        {
            "buffer" : 0,
            "byteLength" : 18276,
            "byteOffset" : 24368,
            "target" : 34962
        },
        {
            "buffer" : 0,
            "byteLength" : 12184,
            "byteOffset" : 42644,
            "target" : 34962
        },
        {
            "buffer" : 0,
            "byteLength" : 18276,
            "byteOffset" : 54828,
            "target" : 34962
        },
        {
            "buffer" : 0,
            "byteLength" : 4572,
            "byteOffset" : 73104,
            "target" : 34963
        },
        {
            "buffer" : 0,
            "byteLength" : 6282,
            "byteOffset" : 77676
        }
    ],
    "samplers" : [
        {
            "magFilter" : 9729,
            "minFilter" : 9987
        }
    ],
    "buffers" : [
        {
            "byteLength" : 83960,
            "uri" : "data:application/octet-stream;base64,"
        }
    ]
}
