{
    "asset" : {
        "generator" : "Khronos glTF Blender I/O v3.4.50",
        "version" : "2.0"
    },
    "scene" : 0,
    "scenes" : [
        {
            "name" : "Scene",
            "nodes" : [
                4
            ]
        }
    ],
    "nodes" : [
        {
            "mesh" : 0,
            "name" : "rat1_pCylinder24_lambert1_0"
        },
        {
            "children" : [
                0
            ],
            "name" : "rat1_pCylinder24",
            "scale" : [
                0.009999999776482582,
                0.009999999776482582,
                0.009999999776482582
            ]
        },
        {
            "children" : [
                1
            ],
            "name" : "RootNode"
        },
        {
            "children" : [
                2
            ],
            "name" : "7ddf5450236c4a9c8d3be0c71ac40229.fbx",
            "rotation" : [
                0.70710688829422,
                0,
                0,
                0.7071066498756409
            ]
        },
        {
            "children" : [
                3
            ],
            "name" : "Sketchfab_model",
            "rotation" : [
                -0.70710688829422,
                0,
                0,
                0.7071066498756409
            ]
        }
    ],
    "materials" : [
        {
            "doubleSided" : true,
            "emissiveFactor" : [
                1,
                1,
                1
            ],
            "emissiveTexture" : {
                "index" : 0
            },
            "name" : "lambert1",
            "normalTexture" : {
                "index" : 1
            },
            "pbrMetallicRoughness" : {
                "baseColorTexture" : {
                    "index" : 2
                },
                "metallicRoughnessTexture" : {
                    "index" : 3
                },
                "roughnessFactor" : 0.5287635326385498
            }
        }
    ],
    "meshes" : [
        {
            "name" : "rat1_pCylinder24_lambert1_0",
            "primitives" : [
                {
                    "attributes" : {
                        "COLOR_0" : 0,
                        "POSITION" : 1,
                        "TEXCOORD_0" : 2,
                        "NORMAL" : 3
                    },
                    "indices" : 4,
                    "material" : 0
                }
            ]
        }
    ],
    "textures" : [
        {
            "sampler" : 0,
            "source" : 0
        },
        {
            "sampler" : 0,
            "source" : 1
        },
        {
            "sampler" : 0,
            "source" : 0
        },
        {
            "sampler" : 0,
            "source" : 2
        }
    ],
    "images" : [
        {
            "bufferView" : 5,
            "mimeType" : "image/png",
            "name" : "lambert1_baseColor"
        },
        {
            "bufferView" : 6,
            "mimeType" : "image/png",
            "name" : "lambert1_normal"
        },
        {
            "bufferView" : 7,
            "mimeType" : "image/png",
            "name" : "lambert1_metallicRoughness"
        }
    ],
    "accessors" : [
        {
            "bufferView" : 0,
            "componentType" : 5126,
            "count" : 613,
            "type" : "VEC4"
        },
        {
            "bufferView" : 1,
            "componentType" : 5126,
            "count" : 613,
            "max" : [
                1.7625007629394531,
                0.09124696254730225,
                0.3321371078491211
            ],
            "min" : [
                -0.8648338317871094,
                -0.5337948799133301,
                -0.3472013473510742
            ],
            "type" : "VEC3"
        },
        {
            "bufferView" : 2,
            "componentType" : 5126,
            "count" : 613,
            "type" : "VEC2"
        },
        {
            "bufferView" : 3,
            "componentType" : 5126,
            "count" : 613,
            "type" : "VEC3"
        },
        {
            "bufferView" : 4,
            "componentType" : 5123,
            "count" : 2274,
            "type" : "SCALAR"
        }
    ],
    "bufferViews" : [
        {
            "buffer" : 0,
            "byteLength" : 9808,
            "byteOffset" : 0,
            "target" : 34962
        },
        {
            "buffer" : 0,
            "byteLength" : 7356,
            "byteOffset" : 9808,
            "target" : 34962
        },
        {
            "buffer" : 0,
            "byteLength" : 4904,
            "byteOffset" : 17164,
            "target" : 34962
        },
        {
            "buffer" : 0,
            "byteLength" : 7356,
            "byteOffset" : 22068,
            "target" : 34962
        },
        {
            "buffer" : 0,
            "byteLength" : 4548,
            "byteOffset" : 29424,
            "target" : 34963
        },
        {
            "buffer" : 0,
            "byteLength" : 1185891,
            "byteOffset" : 33972
        },
        {
            "buffer" : 0,
            "byteLength" : 1257473,
            "byteOffset" : 1219864
        },
        {
            "buffer" : 0,
            "byteLength" : 222,
            "byteOffset" : 2477340
        }
    ],
    "samplers" : [
        {
            "magFilter" : 9729,
            "minFilter" : 9987
        }
    ],
    "buffers" : [
        {
            "byteLength" : 2477564,
            "uri" : "data:application/octet-stream;base64,"
        }
    ]
}
