# Blender 4.5.3 LTS
# www.blender.org
mtllib entity.mtl
o 00_door_small_locked
v -0.031250 0.312500 0.187500 1.0000 1.0000 1.0000
v -0.031250 0.312500 -0.187500 1.0000 1.0000 1.0000
v 0.031250 0.312500 0.187500 1.0000 1.0000 1.0000
v 0.031250 0.312500 -0.187500 1.0000 1.0000 1.0000
v -0.031250 0.000000 0.187500 1.0000 1.0000 1.0000
v -0.031250 0.000000 -0.187500 1.0000 1.0000 1.0000
v 0.031250 0.000000 -0.187500 1.0000 1.0000 1.0000
v 0.031250 0.000000 0.187500 1.0000 1.0000 1.0000
vn -0.0000 -0.0000 1.0000
vn 1.0000 -0.0000 -0.0000
vn -0.0000 1.0000 -0.0000
vn -0.0000 -0.0000 -1.0000
vn -1.0000 -0.0000 -0.0000
vn -0.0000 -1.0000 -0.0000
vt 0.000000 1.000000
vt 0.000000 0.000000
vt 0.250000 0.000000
vt 0.250000 1.000000
vt 1.000000 0.000000
vt 1.000000 1.000000
vt 0.000000 0.000000
vt 0.250000 0.000000
vt 0.500000 0.000000
vt 0.500000 1.000000
s 0
usemtl door_locked
f 7/5/2 4/6/2 3/1/2 8/7/2
f 5/5/5 1/6/5 2/1/5 6/7/5
usemtl door_sides
f 8/1/1 3/2/1 1/3/1 5/4/1
f 4/8/3 2/9/3 1/10/3 3/4/3
f 6/1/4 2/2/4 4/3/4 7/4/4
f 8/8/6 5/9/6 6/10/6 7/4/6
o 01_door_small_locked_rotated
v 0.187500 0.312500 0.031250 1.0000 1.0000 1.0000
v -0.187500 0.312500 0.031250 1.0000 1.0000 1.0000
v 0.187500 0.312500 -0.031250 1.0000 1.0000 1.0000
v -0.187500 0.312500 -0.031250 1.0000 1.0000 1.0000
v 0.187500 0.000000 0.031250 1.0000 1.0000 1.0000
v -0.187500 0.000000 0.031250 1.0000 1.0000 1.0000
v -0.187500 0.000000 -0.031250 1.0000 1.0000 1.0000
v 0.187500 0.000000 -0.031250 1.0000 1.0000 1.0000
vn 1.0000 -0.0000 -0.0000
vn -0.0000 -0.0000 -1.0000
vn -0.0000 1.0000 -0.0000
vn -1.0000 -0.0000 -0.0000
vn -0.0000 -0.0000 1.0000
vn -0.0000 -1.0000 -0.0000
vt 0.000000 1.000000
vt 0.000000 0.000000
vt 0.250000 0.000000
vt 0.250000 1.000000
vt 1.000000 0.000000
vt 1.000000 1.000000
vt 0.000000 0.000000
vt 0.250000 0.000000
vt 0.500000 0.000000
vt 0.500000 1.000000
s 0
usemtl door_locked
f 15/15/8 12/16/8 11/11/8 16/17/8
f 13/15/11 9/16/11 10/11/11 14/17/11
usemtl door_sides
f 16/11/7 11/12/7 9/13/7 13/14/7
f 12/18/9 10/19/9 9/20/9 11/14/9
f 14/11/10 10/12/10 12/13/10 15/14/10
f 16/18/12 13/19/12 14/20/12 15/14/12
o 02_door_small_unlocked
v -0.031250 0.312500 0.187500 1.0000 1.0000 1.0000
v -0.031250 0.312500 -0.187500 1.0000 1.0000 1.0000
v 0.031250 0.312500 0.187500 1.0000 1.0000 1.0000
v 0.031250 0.312500 -0.187500 1.0000 1.0000 1.0000
v -0.031250 0.000000 0.187500 1.0000 1.0000 1.0000
v -0.031250 0.000000 -0.187500 1.0000 1.0000 1.0000
v 0.031250 0.000000 -0.187500 1.0000 1.0000 1.0000
v 0.031250 0.000000 0.187500 1.0000 1.0000 1.0000
vn -0.0000 -0.0000 1.0000
vn 1.0000 -0.0000 -0.0000
vn -0.0000 1.0000 -0.0000
vn -0.0000 -0.0000 -1.0000
vn -1.0000 -0.0000 -0.0000
vn -0.0000 -1.0000 -0.0000
vt 0.000000 1.000000
vt 0.000000 0.000000
vt 0.250000 0.000000
vt 0.250000 1.000000
vt 1.000000 0.000000
vt 1.000000 1.000000
vt 0.000000 0.000000
vt 0.250000 0.000000
vt 0.500000 0.000000
vt 0.500000 1.000000
s 0
usemtl door_unlocked
f 23/25/14 20/26/14 19/21/14 24/27/14
f 21/25/17 17/26/17 18/21/17 22/27/17
usemtl door_sides
f 24/21/13 19/22/13 17/23/13 21/24/13
f 20/28/15 18/29/15 17/30/15 19/24/15
f 22/21/16 18/22/16 20/23/16 23/24/16
f 24/28/18 21/29/18 22/30/18 23/24/18
o 03_door_small_unlocked_rotated
v 0.187500 0.312500 0.031250 1.0000 1.0000 1.0000
v -0.187500 0.312500 0.031250 1.0000 1.0000 1.0000
v 0.187500 0.312500 -0.031250 1.0000 1.0000 1.0000
v -0.187500 0.312500 -0.031250 1.0000 1.0000 1.0000
v 0.187500 0.000000 0.031250 1.0000 1.0000 1.0000
v -0.187500 0.000000 0.031250 1.0000 1.0000 1.0000
v -0.187500 0.000000 -0.031250 1.0000 1.0000 1.0000
v 0.187500 0.000000 -0.031250 1.0000 1.0000 1.0000
vn 1.0000 -0.0000 -0.0000
vn -0.0000 -0.0000 -1.0000
vn -0.0000 1.0000 -0.0000
vn -1.0000 -0.0000 -0.0000
vn -0.0000 -0.0000 1.0000
vn -0.0000 -1.0000 -0.0000
vt 0.000000 1.000000
vt 0.000000 0.000000
vt 0.250000 0.000000
vt 0.250000 1.000000
vt 1.000000 0.000000
vt 1.000000 1.000000
vt 0.000000 0.000000
vt 0.250000 0.000000
vt 0.500000 0.000000
vt 0.500000 1.000000
s 0
usemtl door_unlocked
f 31/35/20 28/36/20 27/31/20 32/37/20
f 29/35/23 25/36/23 26/31/23 30/37/23
usemtl door_sides
f 32/31/19 27/32/19 25/33/19 29/34/19
f 28/38/21 26/39/21 25/40/21 27/34/21
f 30/31/22 26/32/22 28/33/22 31/34/22
f 32/38/24 29/39/24 30/40/24 31/34/24
o 04_door_big_locked
v -0.031250 0.312500 0.437500 1.0000 1.0000 1.0000
v -0.031250 0.312500 -0.437500 1.0000 1.0000 1.0000
v 0.031250 0.312500 0.437500 1.0000 1.0000 1.0000
v 0.031250 0.312500 -0.437500 1.0000 1.0000 1.0000
v -0.031250 0.000000 0.437500 1.0000 1.0000 1.0000
v -0.031250 0.000000 -0.437500 1.0000 1.0000 1.0000
v 0.031250 0.000000 -0.437500 1.0000 1.0000 1.0000
v 0.031250 0.000000 0.437500 1.0000 1.0000 1.0000
v -0.031250 0.312500 0.000000 1.0000 1.0000 1.0000
v 0.031250 0.312500 0.000000 1.0000 1.0000 1.0000
v 0.031250 0.000000 0.000000 1.0000 1.0000 1.0000
v -0.031250 0.000000 0.000000 1.0000 1.0000 1.0000
vn -0.0000 -0.0000 1.0000
vn -0.0000 -0.0000 -1.0000
vn 1.0000 -0.0000 -0.0000
vn -0.0000 1.0000 -0.0000
vn -0.0000 -1.0000 -0.0000
vn -1.0000 -0.0000 -0.0000
vt 0.000000 1.000000
vt 0.000000 0.000000
vt 0.250000 0.000000
vt 0.250000 1.000000
vt 0.000000 0.000000
vt 0.000000 1.000000
vt 1.000000 1.000000
vt 1.000000 0.000000
vt 0.250000 0.000000
vt 0.500000 0.000000
vt 0.500000 1.000000
vt 1.000000 1.000000
s 0
usemtl door_sides
f 40/41/25 35/42/25 33/43/25 37/44/25
f 38/41/26 34/42/26 36/43/26 39/44/26
f 42/49/28 41/50/28 33/51/28 35/44/28
f 43/49/29 44/50/29 38/51/29 39/44/29
f 40/49/29 37/50/29 44/51/29 43/44/29
f 36/49/28 34/50/28 41/51/28 42/44/28
usemtl door_big_locked
f 39/45/27 36/46/27 42/47/27 43/48/27
f 43/48/27 42/52/27 35/41/27 40/45/27
f 44/48/30 41/52/30 34/41/30 38/45/30
f 33/46/30 41/47/30 44/48/30 37/45/30
o 05_door_big_locked_rotated
v 0.437500 0.312500 0.031250 1.0000 1.0000 1.0000
v -0.437500 0.312500 0.031250 1.0000 1.0000 1.0000
v 0.437500 0.312500 -0.031250 1.0000 1.0000 1.0000
v -0.437500 0.312500 -0.031250 1.0000 1.0000 1.0000
v 0.437500 0.000000 0.031250 1.0000 1.0000 1.0000
v -0.437500 0.000000 0.031250 1.0000 1.0000 1.0000
v -0.437500 0.000000 -0.031250 1.0000 1.0000 1.0000
v 0.437500 0.000000 -0.031250 1.0000 1.0000 1.0000
v 0.000000 0.312500 0.031250 1.0000 1.0000 1.0000
v -0.000000 0.312500 -0.031250 1.0000 1.0000 1.0000
v -0.000000 0.000000 -0.031250 1.0000 1.0000 1.0000
v 0.000000 0.000000 0.031250 1.0000 1.0000 1.0000
vn -0.0000 -0.0000 -1.0000
vn -0.0000 -0.0000 1.0000
vn -1.0000 -0.0000 -0.0000
vn -0.0000 1.0000 -0.0000
vn -0.0000 -1.0000 -0.0000
vn 1.0000 -0.0000 -0.0000
vt 0.000000 0.000000
vt 0.000000 1.000000
vt 1.000000 1.000000
vt 1.000000 0.000000
vt 1.000000 1.000000
vt 0.000000 1.000000
vt 0.000000 0.000000
vt 0.250000 0.000000
vt 0.250000 1.000000
vt 0.250000 0.000000
vt 0.500000 0.000000
vt 0.500000 1.000000
s 0
usemtl door_sides
f 50/58/33 46/59/33 48/60/33 51/61/33
f 54/62/34 53/63/34 45/64/34 47/61/34
f 55/62/35 56/63/35 50/64/35 51/61/35
f 52/62/35 49/63/35 56/64/35 55/61/35
f 48/62/34 46/63/34 53/64/34 54/61/34
f 52/58/36 47/59/36 45/60/36 49/61/36
usemtl door_big_locked
f 51/53/31 48/54/31 54/55/31 55/56/31
f 56/56/32 53/57/32 46/58/32 50/53/32
f 55/56/31 54/57/31 47/58/31 52/53/31
f 45/54/32 53/55/32 56/56/32 49/53/32
o 06_door_big_unlocked
v -0.031250 0.312500 0.437500 1.0000 1.0000 1.0000
v -0.031250 0.312500 -0.437500 1.0000 1.0000 1.0000
v 0.031250 0.312500 0.437500 1.0000 1.0000 1.0000
v 0.031250 0.312500 -0.437500 1.0000 1.0000 1.0000
v -0.031250 0.000000 0.437500 1.0000 1.0000 1.0000
v -0.031250 0.000000 -0.437500 1.0000 1.0000 1.0000
v 0.031250 0.000000 -0.437500 1.0000 1.0000 1.0000
v 0.031250 0.000000 0.437500 1.0000 1.0000 1.0000
v -0.031250 0.312500 0.000000 1.0000 1.0000 1.0000
v 0.031250 0.312500 0.000000 1.0000 1.0000 1.0000
v 0.031250 0.000000 0.000000 1.0000 1.0000 1.0000
v -0.031250 0.000000 0.000000 1.0000 1.0000 1.0000
vn 1.0000 -0.0000 -0.0000
vn -1.0000 -0.0000 -0.0000
vn -0.0000 -0.0000 -1.0000
vn -0.0000 1.0000 -0.0000
vn -0.0000 -1.0000 -0.0000
vn -0.0000 -0.0000 1.0000
vt 0.000000 0.000000
vt 0.000000 1.000000
vt 1.000000 1.000000
vt 1.000000 0.000000
vt 1.000000 1.000000
vt 0.000000 1.000000
vt 0.000000 0.000000
vt 0.250000 0.000000
vt 0.250000 1.000000
vt 0.250000 0.000000
vt 0.500000 0.000000
vt 0.500000 1.000000
s 0
usemtl door_sides
f 62/70/39 58/71/39 60/72/39 63/73/39
f 66/74/40 65/75/40 57/76/40 59/73/40
f 67/74/41 68/75/41 62/76/41 63/73/41
f 64/74/41 61/75/41 68/76/41 67/73/41
f 60/74/40 58/75/40 65/76/40 66/73/40
f 64/70/42 59/71/42 57/72/42 61/73/42
usemtl door_big_unlocked
f 63/65/37 60/66/37 66/67/37 67/68/37
f 68/68/38 65/69/38 58/70/38 62/65/38
f 67/68/37 66/69/37 59/70/37 64/65/37
f 57/66/38 65/67/38 68/68/38 61/65/38
o 07_door_big_unlocked_rotated
v 0.437500 0.312500 0.031250 1.0000 1.0000 1.0000
v -0.437500 0.312500 0.031250 1.0000 1.0000 1.0000
v 0.437500 0.312500 -0.031250 1.0000 1.0000 1.0000
v -0.437500 0.312500 -0.031250 1.0000 1.0000 1.0000
v 0.437500 0.000000 0.031250 1.0000 1.0000 1.0000
v -0.437500 0.000000 0.031250 1.0000 1.0000 1.0000
v -0.437500 0.000000 -0.031250 1.0000 1.0000 1.0000
v 0.437500 0.000000 -0.031250 1.0000 1.0000 1.0000
v 0.000000 0.312500 0.031250 1.0000 1.0000 1.0000
v -0.000000 0.312500 -0.031250 1.0000 1.0000 1.0000
v -0.000000 0.000000 -0.031250 1.0000 1.0000 1.0000
v 0.000000 0.000000 0.031250 1.0000 1.0000 1.0000
vn -0.0000 -0.0000 -1.0000
vn -0.0000 -0.0000 1.0000
vn -1.0000 -0.0000 -0.0000
vn -0.0000 1.0000 -0.0000
vn -0.0000 -1.0000 -0.0000
vn 1.0000 -0.0000 -0.0000
vt 0.000000 0.000000
vt 0.000000 1.000000
vt 1.000000 1.000000
vt 1.000000 0.000000
vt 1.000000 1.000000
vt 0.000000 1.000000
vt 0.000000 0.000000
vt 0.250000 0.000000
vt 0.250000 1.000000
vt 0.250000 0.000000
vt 0.500000 0.000000
vt 0.500000 1.000000
s 0
usemtl door_sides
f 74/82/45 70/83/45 72/84/45 75/85/45
f 78/86/46 77/87/46 69/88/46 71/85/46
f 79/86/47 80/87/47 74/88/47 75/85/47
f 76/86/47 73/87/47 80/88/47 79/85/47
f 72/86/46 70/87/46 77/88/46 78/85/46
f 76/82/48 71/83/48 69/84/48 73/85/48
usemtl door_big_unlocked
f 75/77/43 72/78/43 78/79/43 79/80/43
f 80/80/44 77/81/44 70/82/44 74/77/44
f 79/80/43 78/81/43 71/82/43 76/77/43
f 69/78/44 77/79/44 80/80/44 73/77/44
o 08_pickup_ammo_small
v 0.039664 -0.009004 0.018489 1.0000 1.0000 1.0000
v -0.066246 -0.002496 -0.031084 1.0000 1.0000 1.0000
v 0.050343 0.005060 -0.003007 1.0000 1.0000 1.0000
v -0.057638 0.008841 -0.048413 1.0000 1.0000 1.0000
v 0.050389 0.032878 -0.002786 1.0000 1.0000 1.0000
v -0.057600 0.031265 -0.048235 1.0000 1.0000 1.0000
v 0.039756 0.046633 0.018932 1.0000 1.0000 1.0000
v -0.066171 0.042353 -0.030728 1.0000 1.0000 1.0000
v 0.029077 0.032570 0.040428 1.0000 1.0000 1.0000
v -0.074780 0.031017 -0.013400 1.0000 1.0000 1.0000
v 0.029031 0.004752 0.040207 1.0000 1.0000 1.0000
v -0.074817 0.008592 -0.013578 1.0000 1.0000 1.0000
v 0.035070 0.007800 -0.005311 1.0000 1.0000 1.0000
v 0.035107 0.030225 -0.005133 1.0000 1.0000 1.0000
v 0.026536 0.041313 0.012374 1.0000 1.0000 1.0000
v 0.017928 0.029977 0.029702 1.0000 1.0000 1.0000
v 0.017890 0.007552 0.029524 1.0000 1.0000 1.0000
v 0.026461 -0.003536 0.012017 1.0000 1.0000 1.0000
vn -0.0256 -0.9997 0.0062
vn -0.3590 -0.9155 -0.1815
vn -0.7092 -0.4606 0.5338
vn -0.3372 -0.4914 0.8030
vn 0.8969 -0.0050 0.4423
vn 0.3160 -0.4990 -0.8069
vn -0.0062 -0.4521 -0.8920
vn -0.3822 0.4944 0.7807
vn 0.0016 1.0000 0.0079
vn -0.3551 0.9195 -0.1686
vn -0.7073 0.4557 0.5404
vn -0.8969 0.0050 -0.4423
vn -0.0048 0.4669 -0.8843
vn 0.3316 0.5193 -0.7876
vn 0.0081 0.9993 0.0366
vn -0.3188 0.4870 0.8131
vn 0.3839 0.5055 -0.7727
vn 0.3822 -0.4944 -0.7807
vn -0.3838 -0.5055 0.7727
vn -0.0016 -1.0000 -0.0079
vt 0.500000 1.000000
vt 0.500000 0.562500
vt 0.583333 0.562500
vt 0.583333 1.000000
vt 0.875000 0.010000
vt 0.771077 0.370000
vt 0.978923 0.370000
vt 0.978923 0.130000
vt 1.000000 0.562500
vt 1.000000 1.000000
vt 0.916667 1.000000
vt 0.916667 0.562500
vt 0.666667 0.500000
vt 0.750000 0.500000
vt 0.750000 0.562500
vt 0.666667 0.562500
vt 0.708909 0.344360
vt 0.628896 0.436751
vt 0.548883 0.344360
vt 0.833333 0.562500
vt 0.833333 1.000000
vt 0.750000 1.000000
vt 0.666667 1.000000
vt 0.708909 0.159577
vt 0.628896 0.067186
vt 0.548883 0.159577
vt 0.833333 0.500000
vt 0.875000 0.490000
vt 0.771077 0.130000
vt 0.916667 0.500000
vt 0.583333 0.500000
vt 1.000000 0.500000
vt 0.500000 0.500000
s 1
usemtl shotgun_shells
f 82/89/49 98/90/50 97/91/51 92/92/52
f 87/93/53 91/94/53 83/95/53 85/96/53
f 98/97/50 82/98/49 84/99/54 93/100/55
f 89/101/56 87/102/57 95/103/58 96/104/59
f 88/105/60 86/106/60 84/107/60
f 95/103/58 94/108/61 86/109/62 88/110/63
f 96/104/59 90/111/64 92/92/52 97/91/51
f 90/112/60 88/105/60 84/107/60 92/113/60
f 96/104/59 95/103/58 88/110/63 90/111/64
f 84/107/60 82/114/60 92/113/60
f 95/103/58 87/102/57 85/115/65 94/108/61
f 91/94/53 81/116/53 83/95/53
f 87/93/53 89/117/53 91/94/53
f 83/118/66 93/100/55 94/108/61 85/115/65
f 84/99/54 86/109/62 94/108/61 93/100/55
f 91/119/67 89/101/56 96/104/59 97/91/51
f 83/118/66 81/120/68 98/97/50 93/100/55
f 81/121/68 91/119/67 97/91/51 98/90/50
o 09_pickup_ammo_big
v 0.031986 0.001131 -0.002165 1.0000 1.0000 1.0000
v 0.036369 0.045831 -0.002165 1.0000 1.0000 1.0000
v 0.038456 0.000861 -0.013381 1.0000 1.0000 1.0000
v 0.041585 0.045612 -0.011207 1.0000 1.0000 1.0000
v 0.051396 0.000320 -0.013381 1.0000 1.0000 1.0000
v 0.052016 0.045176 -0.011207 1.0000 1.0000 1.0000
v 0.057867 0.000049 -0.002165 1.0000 1.0000 1.0000
v 0.057231 0.044958 -0.002165 1.0000 1.0000 1.0000
v 0.051396 0.000320 0.009051 1.0000 1.0000 1.0000
v 0.052016 0.045176 0.006876 1.0000 1.0000 1.0000
v 0.038456 0.000861 0.009051 1.0000 1.0000 1.0000
v 0.041585 0.045612 0.006876 1.0000 1.0000 1.0000
v 0.039997 0.007660 -0.011207 1.0000 1.0000 1.0000
v 0.050429 0.007224 -0.011207 1.0000 1.0000 1.0000
v 0.055644 0.007006 -0.002165 1.0000 1.0000 1.0000
v 0.050429 0.007224 0.006876 1.0000 1.0000 1.0000
v 0.039997 0.007660 0.006876 1.0000 1.0000 1.0000
v 0.034782 0.007878 -0.002165 1.0000 1.0000 1.0000
v -0.016185 0.004599 0.038984 1.0000 1.0000 1.0000
v -0.012589 0.078138 0.038984 1.0000 1.0000 1.0000
v -0.006912 0.004599 0.022922 1.0000 1.0000 1.0000
v -0.005114 0.078138 0.026036 1.0000 1.0000 1.0000
v 0.011634 0.004599 0.022922 1.0000 1.0000 1.0000
v 0.009836 0.078138 0.026036 1.0000 1.0000 1.0000
v 0.020907 0.004599 0.038984 1.0000 1.0000 1.0000
v 0.017311 0.078138 0.038984 1.0000 1.0000 1.0000
v 0.011634 0.004599 0.055045 1.0000 1.0000 1.0000
v 0.009836 0.078138 0.051931 1.0000 1.0000 1.0000
v -0.006912 0.004599 0.055045 1.0000 1.0000 1.0000
v -0.005114 0.078138 0.051931 1.0000 1.0000 1.0000
v -0.005114 0.014419 0.026036 1.0000 1.0000 1.0000
v 0.009836 0.014419 0.026036 1.0000 1.0000 1.0000
v 0.017311 0.014419 0.038984 1.0000 1.0000 1.0000
v 0.009836 0.014419 0.051931 1.0000 1.0000 1.0000
v -0.005114 0.014419 0.051931 1.0000 1.0000 1.0000
v -0.012589 0.014419 0.038984 1.0000 1.0000 1.0000
v 0.033532 -0.003623 -0.048355 1.0000 1.0000 1.0000
v -0.037074 0.000715 -0.081404 1.0000 1.0000 1.0000
v 0.040651 0.005752 -0.062686 1.0000 1.0000 1.0000
v -0.031335 0.008273 -0.092956 1.0000 1.0000 1.0000
v 0.040682 0.024298 -0.062538 1.0000 1.0000 1.0000
v -0.031311 0.023222 -0.092837 1.0000 1.0000 1.0000
v 0.033594 0.033468 -0.048060 1.0000 1.0000 1.0000
v -0.037025 0.030614 -0.081166 1.0000 1.0000 1.0000
v 0.026474 0.024092 -0.033729 1.0000 1.0000 1.0000
v -0.042764 0.023057 -0.069614 1.0000 1.0000 1.0000
v 0.026444 0.005547 -0.033876 1.0000 1.0000 1.0000
v -0.042788 0.008107 -0.069733 1.0000 1.0000 1.0000
v 0.030469 0.007579 -0.064222 1.0000 1.0000 1.0000
v 0.030494 0.022529 -0.064103 1.0000 1.0000 1.0000
v 0.024780 0.029921 -0.052432 1.0000 1.0000 1.0000
v 0.019041 0.022363 -0.040879 1.0000 1.0000 1.0000
v 0.019016 0.007414 -0.040998 1.0000 1.0000 1.0000
v 0.024730 0.000022 -0.052669 1.0000 1.0000 1.0000
v -0.014472 -0.000454 -0.003289 1.0000 1.0000 1.0000
v -0.012755 0.044426 -0.002996 1.0000 1.0000 1.0000
v -0.007652 -0.000280 -0.014298 1.0000 1.0000 1.0000
v -0.007258 0.044566 -0.011870 1.0000 1.0000 1.0000
v 0.005291 -0.000054 -0.013895 1.0000 1.0000 1.0000
v 0.003176 0.044749 -0.011546 1.0000 1.0000 1.0000
v 0.011414 -0.000000 -0.002483 1.0000 1.0000 1.0000
v 0.008112 0.044792 -0.002346 1.0000 1.0000 1.0000
v 0.004595 -0.000173 0.008526 1.0000 1.0000 1.0000
v 0.002615 0.044652 0.006528 1.0000 1.0000 1.0000
v -0.008348 -0.000400 0.008123 1.0000 1.0000 1.0000
v -0.007819 0.044469 0.006203 1.0000 1.0000 1.0000
v -0.006586 0.006587 -0.012052 1.0000 1.0000 1.0000
v 0.003847 0.006770 -0.011728 1.0000 1.0000 1.0000
v 0.008783 0.006813 -0.002528 1.0000 1.0000 1.0000
v 0.003286 0.006673 0.006346 1.0000 1.0000 1.0000
v -0.007147 0.006490 0.006022 1.0000 1.0000 1.0000
v -0.012084 0.006447 -0.003178 1.0000 1.0000 1.0000
vn -0.5266 -0.0134 0.8500
vn 0.4728 0.0042 0.8812
vn 0.4268 0.4014 0.8104
vn -0.4902 0.3853 0.7818
vn 1.0000 -0.0000 -0.0000
vn 0.5000 -0.0000 0.8660
vn 0.4588 0.3977 0.7946
vn 0.9175 0.3977 -0.0000
vn -0.0256 -0.9997 0.0062
vn -0.3590 -0.9155 -0.1815
vn -0.7092 -0.4606 0.5338
vn -0.3372 -0.4914 0.8030
vn 0.4523 0.2618 0.8526
vn 0.9610 0.2749 0.0313
vn -0.4614 0.2538 -0.8501
vn -0.5133 0.2450 0.8225
vn 0.5042 0.2708 -0.8201
vn 0.9099 0.4137 0.0305
vn 0.4761 0.4099 -0.7780
vn 0.8969 -0.0050 0.4423
vn 0.3160 -0.4990 -0.8069
vn -0.0062 -0.4521 -0.8920
vn -0.4408 0.3938 -0.8066
vn -0.3822 0.4944 0.7807
vn 0.0016 1.0000 0.0079
vn -0.3551 0.9195 -0.1686
vn -0.7073 0.4557 0.5404
vn -0.4417 0.4165 -0.7946
vn -0.4719 0.2778 -0.8367
vn 0.4934 0.2375 -0.8367
vn 0.4750 0.3782 -0.7946
vn -0.4719 0.2778 0.8367
vn -0.9546 0.2980 -0.0000
vn -0.9001 0.4357 -0.0000
vn -0.4417 0.4165 0.7946
vn -0.0000 1.0000 -0.0000
vn -0.9701 0.2409 -0.0288
vn -0.9240 0.3815 -0.0266
vn -0.4996 0.0209 -0.8660
vn -0.9991 0.0418 -0.0000
vn -0.5000 -0.0000 0.8660
vn 0.5001 -0.0000 0.8660
vn -0.4589 0.3977 0.7945
vn 0.5000 -0.0000 -0.8660
vn 0.4588 0.3977 -0.7946
vn -0.8969 0.0050 -0.4423
vn -0.0048 0.4669 -0.8843
vn 0.3316 0.5193 -0.7876
vn 0.0081 0.9993 0.0366
vn 0.4934 0.2376 0.8367
vn 0.4750 0.3782 0.7946
vn -0.3188 0.4870 0.8131
vn -1.0000 -0.0000 -0.0000
vn -0.9175 0.3977 -0.0000
vn -0.5001 -0.0000 -0.8660
vn -0.4588 0.3977 -0.7946
vn -0.5000 -0.0000 -0.8660
vn 0.3839 0.5055 -0.7727
vn 0.9761 0.2173 -0.0000
vn 0.9994 0.0175 0.0311
vn 0.5265 0.0134 -0.8501
vn 0.4995 -0.0209 -0.8660
vn 0.3822 -0.4944 -0.7807
vn -0.4996 0.0209 0.8660
vn 0.9333 0.3590 -0.0000
vn 0.4996 -0.0209 0.8660
vn 0.9991 -0.0418 -0.0000
vn -0.3838 -0.5055 0.7727
vn -0.0016 -1.0000 -0.0079
vn -0.9994 -0.0175 -0.0311
vn -0.4728 -0.0042 -0.8812
vt 0.083333 0.500000
vt 0.166667 0.500000
vt 0.166667 0.562500
vt 0.083333 0.562500
vt 0.750000 1.000000
vt 0.666667 1.000000
vt 0.666667 0.562500
vt 0.750000 0.562500
vt 0.500000 1.000000
vt 0.500000 0.562500
vt 0.583333 0.562500
vt 0.583333 1.000000
vt 0.249988 0.916429
vt 0.175754 0.916429
vt 0.472691 0.916429
vt 0.324223 0.916429
vt 0.333333 1.000000
vt 0.250000 1.000000
vt 0.250000 0.562500
vt 0.333333 0.562500
vt 0.875000 0.010000
vt 0.771077 0.370000
vt 0.978923 0.370000
vt 0.978923 0.130000
vt 1.000000 0.562500
vt 1.000000 1.000000
vt 0.916667 1.000000
vt 0.916667 0.562500
vt 0.416667 0.562500
vt 0.416667 1.000000
vt 0.666667 0.500000
vt 0.750000 0.500000
vt 0.083333 1.000000
vt 0.000000 1.000000
vt -0.000000 0.562500
vt 0.546448 0.345860
vt 0.546449 0.151876
vt 0.630446 0.054884
vt 0.166667 1.000000
vt 0.416667 0.500000
vt 0.500000 0.500000
vt 0.583333 0.500000
vt 0.833333 0.500000
vt 0.833333 0.562500
vt 0.708909 0.344360
vt 0.628896 0.436751
vt 0.548883 0.344360
vt 0.833333 1.000000
vt 0.714444 0.151876
vt 0.714444 0.345860
vt 0.916667 0.500000
vt 1.000000 0.500000
vt 0.708909 0.159577
vt 0.628896 0.067186
vt 0.630446 0.442852
vt 0.398457 0.916429
vt 0.548883 0.159577
vt 0.875000 0.490000
vt 0.771077 0.130000
vt 0.101520 0.916429
vt 0.250000 0.500000
vt 0.333333 0.500000
vt -0.000000 0.500000
s 1
usemtl shotgun_shells
f 163/122/69 161/123/70 168/124/71 169/125/72
f 124/126/73 126/127/74 132/128/75 131/129/76
f 136/130/77 152/131/78 151/132/79 146/133/80
f 162/134/81 160/135/82 156/136/83 164/137/84
f 158/138/85 160/139/82 167/140/86 166/141/87
f 141/142/88 145/143/88 137/144/88 139/145/88
f 152/146/78 136/147/77 138/148/89 147/149/90
f 158/138/85 166/141/87 165/150/91 156/151/83
f 143/152/92 141/153/93 149/129/94 150/128/95
f 111/150/96 102/151/97 104/138/98 112/141/99
f 110/154/100 100/155/101 116/156/102 115/125/103
f 120/157/104 118/158/104 128/159/104
f 164/154/84 154/155/105 170/156/106 169/125/72
f 168/124/71 162/160/81 164/154/84 169/125/72
f 101/161/107 99/162/108 116/131/102 111/150/96
f 127/163/109 125/152/110 132/128/75 133/132/111
f 131/129/76 123/153/73 121/164/112 130/165/113
f 142/166/114 140/167/114 138/168/114
f 149/129/94 148/165/115 140/169/116 142/126/117
f 108/160/118 110/154/100 115/125/103 114/124/119
f 126/170/104 124/171/104 120/157/104 128/159/104
f 150/128/95 144/127/120 146/133/80 151/132/79
f 128/133/109 118/130/121 134/131/122 133/132/111
f 119/172/123 117/173/121 134/146/122 129/149/124
f 120/148/125 122/169/112 130/165/113 129/149/124
f 144/174/114 142/166/114 138/168/114 146/175/114
f 124/171/104 122/176/104 120/157/104
f 150/128/95 149/129/94 142/126/117 144/127/120
f 156/136/83 154/177/105 164/137/84
f 160/139/82 162/160/81 168/124/71 167/140/86
f 138/168/114 136/178/114 146/175/114
f 149/129/94 141/153/93 139/164/126 148/165/115
f 125/152/110 123/153/73 131/129/76 132/128/75
f 145/143/88 135/179/88 137/144/88
f 141/142/88 143/180/88 145/143/88
f 156/151/83 165/150/91 170/131/106 154/130/105
f 106/135/127 104/181/98 102/136/97
f 126/127/74 128/133/109 133/132/111 132/128/75
f 100/177/101 110/137/100 106/135/127 102/136/97
f 160/135/82 158/181/85 156/136/83
f 167/140/86 159/182/128 157/183/129 166/141/87
f 101/161/107 111/150/96 112/141/99 103/183/130
f 137/172/131 147/149/90 148/165/115 139/164/126
f 116/156/102 99/184/108 109/122/132 115/125/103
f 119/172/123 129/149/124 130/165/113 121/164/112
f 138/148/89 140/169/116 148/165/115 147/149/90
f 106/139/127 108/160/118 114/124/119 113/140/133
f 112/141/99 104/138/98 106/139/127 113/140/133
f 116/131/102 100/130/101 102/151/97 111/150/96
f 107/123/134 105/182/135 113/140/133 114/124/119
f 145/163/136 143/152/92 150/128/95 151/132/79
f 109/122/132 107/123/134 114/124/119 115/125/103
f 137/172/131 135/173/137 152/146/78 147/149/90
f 163/122/69 169/125/72 170/156/106 153/184/138
f 135/162/137 145/163/136 151/132/79 152/131/78
f 155/161/139 165/150/91 166/141/87 157/183/129
f 127/163/109 133/132/111 134/131/122 117/162/121
f 161/123/70 159/182/128 167/140/86 168/124/71
f 155/161/139 153/162/138 170/131/106 165/150/91
f 113/140/133 105/182/135 103/183/130 112/141/99
f 122/169/112 124/126/73 131/129/76 130/165/113
f 110/137/100 108/134/118 106/135/127
f 118/147/121 120/148/125 129/149/124 134/146/122
o 10_pickup_armor_small
v 0.021013 0.066481 0.037212 0.7361 0.7361 0.7361
v 0.000000 0.069321 0.039592 0.7412 0.7412 0.7412
v -0.021013 0.066481 0.037212 0.7466 0.7466 0.7466
v -0.040583 0.066481 0.019268 0.7466 0.7466 0.7466
v 0.040583 0.066481 0.019268 0.7453 0.7453 0.7453
v 0.023329 -0.002436 0.055053 0.6383 0.6383 0.6383
v 0.023725 0.022054 0.051419 0.6949 0.6949 0.6949
v 0.022522 0.046564 0.047987 0.7074 0.7074 0.7074
v 0.000397 -0.001397 0.058990 0.5331 0.5331 0.5331
v 0.000127 0.022054 0.055165 0.5269 0.5269 0.5269
v 0.000127 0.047881 0.051419 0.7446 0.7446 0.7446
v -0.021856 0.027354 0.051419 0.5280 0.5280 0.5280
v -0.022394 0.046573 0.047348 0.7421 0.7421 0.7421
v -0.064304 0.035655 0.027304 0.5890 0.5890 0.5890
v -0.051637 0.046573 0.020535 0.6605 0.6605 0.6605
v 0.054271 -0.000134 0.021514 0.5404 0.5404 0.5404
v 0.055355 0.021388 0.021638 0.7378 0.7378 0.7378
v 0.051637 0.046573 0.020535 0.7466 0.7466 0.7466
v -0.022394 0.078579 0.020535 0.7464 0.7464 0.7464
v 0.000000 0.082676 0.021638 0.6977 0.6977 0.6977
v 0.022394 0.078579 0.020535 0.7466 0.7466 0.7466
v 0.021013 0.066481 -0.037212 0.7461 0.7461 0.7461
v 0.000000 0.069321 -0.039592 0.6619 0.6619 0.6619
v -0.021013 0.066481 -0.037212 0.7309 0.7309 0.7309
v -0.040583 0.066481 -0.019268 0.7457 0.7457 0.7457
v 0.040583 0.066481 -0.019268 0.7466 0.7466 0.7466
v 0.023329 -0.002436 -0.055053 0.8193 0.8193 0.8193
v 0.023725 0.022054 -0.051419 0.5021 0.5021 0.5021
v 0.022522 0.046564 -0.047987 0.7441 0.7441 0.7441
v 0.000397 -0.001397 -0.058990 0.5595 0.5595 0.5595
v 0.000127 0.022054 -0.055165 0.7186 0.7186 0.7186
v 0.000127 0.047881 -0.051419 0.7464 0.7464 0.7464
v -0.021856 0.027354 -0.051419 0.5290 0.5290 0.5290
v -0.022394 0.046573 -0.047348 0.5273 0.5273 0.5273
v -0.064304 0.035655 -0.027304 0.5554 0.5554 0.5554
v -0.051637 0.046573 -0.020535 0.5932 0.5932 0.5932
v 0.054271 -0.000134 -0.021514 0.5267 0.5267 0.5267
v 0.055355 0.021388 -0.021638 0.6529 0.6529 0.6529
v 0.051637 0.046573 -0.020535 0.7466 0.7466 0.7466
v -0.022394 0.078579 -0.020535 0.7466 0.7466 0.7466
v 0.000000 0.082676 -0.021638 0.7466 0.7466 0.7466
v 0.022394 0.078579 -0.020535 0.7466 0.7466 0.7466
v 0.018990 -0.001122 0.043386 0.0000 0.0000 0.0000
v 0.000326 -0.000000 0.046502 0.0000 0.0000 0.0000
v -0.017886 0.025744 0.040731 0.0000 0.0000 0.0000
v -0.054036 0.029627 0.022903 0.0000 0.0000 0.0000
v 0.043186 -0.000176 0.017099 0.0000 0.0000 0.0000
v 0.018990 -0.001122 -0.043386 0.0000 0.0000 0.0000
v 0.000326 -0.000000 -0.046502 0.0000 0.0000 0.0000
v -0.017886 0.025744 -0.040731 0.0000 0.0000 0.0000
v -0.054036 0.029627 -0.022903 0.0000 0.0000 0.0000
v 0.043186 -0.000176 -0.017099 0.0000 0.0000 0.0000
vn 0.2762 -0.6641 0.6947
vn 0.3652 0.1172 0.9235
vn 0.0098 0.1564 0.9877
vn -0.3274 -0.6603 0.6759
vn 0.3252 0.3043 0.8954
vn -0.0023 0.3228 0.9465
vn -0.5103 -0.3484 0.7863
vn 0.9247 0.0437 -0.3783
vn 0.3652 0.1172 -0.9235
vn 0.3252 0.3043 -0.8954
vn 0.8804 0.3086 -0.3600
vn 0.8804 0.3086 0.3600
vn 0.6874 0.6352 0.3521
vn 0.3175 0.6249 0.7132
vn 0.6752 -0.6841 -0.2759
vn 0.2762 -0.6641 -0.6947
vn -0.0032 0.6586 0.7525
vn -0.3180 0.6193 0.7178
vn -0.2770 0.3573 0.8920
vn -0.8924 -0.1073 -0.4383
vn -0.5103 -0.3484 -0.7863
vn -0.5827 -0.8127 -0.0009
vn -0.2580 -0.9590 -0.1177
vn -0.7107 0.6243 -0.3243
vn -0.2770 0.3573 -0.8920
vn 0.6752 -0.6841 0.2759
vn 0.9247 0.0437 0.3783
vn 0.6874 0.6352 -0.3521
vn -0.3538 0.8534 0.3829
vn -0.3538 0.8534 -0.3829
vn -0.6874 0.6352 -0.3521
vn -0.6874 0.6352 0.3522
vn -0.0000 0.9136 0.4065
vn -0.0000 0.9136 -0.4065
vn 0.3538 0.8534 0.3829
vn 0.3538 0.8534 -0.3829
vn -0.0159 -0.9998 -0.0140
vn -0.0159 -0.9998 0.0140
vn -0.8924 -0.1073 0.4383
vn -0.2580 -0.9590 0.1177
vn -0.3274 -0.6603 -0.6759
vn 0.0098 0.1564 -0.9877
vn -0.0023 0.3228 -0.9465
vn -0.0305 -0.9977 -0.0604
vn -0.0304 -0.9977 0.0604
vn 0.3176 0.6249 -0.7132
vn -0.0032 0.6586 -0.7525
vn -0.3180 0.6194 -0.7178
vn -0.5827 -0.8127 0.0009
vn -0.4715 -0.8791 -0.0702
vn -0.7107 0.6243 0.3243
vn -0.4715 -0.8791 0.0702
vt 0.734375 0.859375
vt 0.765625 0.859375
vt 0.765625 0.890625
vt 0.734375 0.890625
vt 0.500000 0.500000
vt 1.000000 0.500000
vt 1.000000 1.000000
vt 0.500000 1.000000
s 1
usemtl helmet
f 176/185/140 177/186/141 180/187/142 179/188/143
f 177/185/141 178/186/144 181/187/145 180/188/142
f 180/185/142 182/186/146 179/187/143
f 208/185/147 198/186/148 199/187/149 209/188/150
f 188/185/151 175/186/152 171/187/153 178/188/144
f 207/185/154 197/186/155 198/187/148 208/188/147
f 178/185/144 171/186/153 172/187/156 181/188/145
f 181/185/145 172/186/156 173/187/157 183/188/158
f 205/185/159 203/186/160 220/187/161 221/188/162
f 205/185/159 206/186/163 204/187/164 203/188/160
f 186/185/165 207/186/154 208/187/147 187/188/166
f 188/185/151 209/186/150 196/187/167 175/188/152
f 189/185/168 210/186/169 195/187/170 174/188/171
f 190/185/172 211/186/173 210/187/169 189/188/168
f 191/185/174 212/186/175 211/187/173 190/188/172
f 207/185/154 186/186/165 217/187/176 222/188/177
f 175/185/152 196/186/167 212/187/175 191/188/174
f 174/185/171 173/186/157 189/187/168
f 189/185/168 173/186/157 172/187/156 190/188/172
f 190/185/172 172/186/156 171/187/153 191/188/174
f 191/185/174 171/186/153 175/187/152
f 184/185/178 205/186/159 221/187/162 216/188/179
f 181/185/145 183/186/158 182/187/146 180/188/142
f 197/185/155 200/186/180 201/187/181 198/188/148
f 198/185/148 201/186/181 202/187/182 199/188/149
f 201/185/181 200/186/180 203/187/160
f 217/185/176 213/186/183 218/187/184 222/188/177
f 209/185/150 199/186/149 192/187/185 196/188/167
f 186/185/165 176/186/140 213/187/183 217/188/176
f 199/185/149 202/186/182 193/187/186 192/188/185
f 202/185/182 204/186/164 194/187/187 193/188/186
f 216/185/179 221/186/162 220/187/161 215/188/188
f 184/185/178 216/186/179 215/187/188 182/188/146
f 195/185/170 210/186/169 194/187/187
f 210/185/169 211/186/173 193/187/186 194/188/187
f 211/185/173 212/186/175 192/187/185 193/188/186
f 212/185/175 196/186/167 192/187/185
f 202/185/182 201/186/181 203/187/160 204/188/164
f 176/185/140 179/186/143 214/187/189 213/188/183
f 179/185/143 182/186/146 215/187/188 214/188/189
f 197/185/155 207/186/154 222/187/177 218/188/184
f 173/185/157 174/186/171 185/187/190 183/188/158
f 206/189/163 185/190/190 174/191/171 195/192/170
f 187/185/166 208/186/147 209/187/150 188/188/151
f 200/185/180 197/186/155 218/187/184 219/188/191
f 203/185/160 200/186/180 219/187/191 220/188/161
f 187/185/166 188/186/151 178/187/144 177/188/141
f 204/185/164 206/186/163 195/187/170 194/188/187
f 213/185/183 214/186/189 219/187/191 218/188/184
f 215/185/188 220/186/161 219/187/191 214/188/189
f 186/185/165 187/186/166 177/187/141 176/188/140
f 205/185/159 184/186/178 185/187/190 206/188/163
f 183/185/158 185/186/190 184/187/178 182/188/146
o 11_pickup_armor_big
v 0.023954 0.080317 0.042422 1.0000 1.0000 1.0000
v 0.037360 0.079373 0.024984 1.0000 1.0000 1.0000
v 0.027516 0.111893 0.026867 0.6738 0.6738 0.6738
v -0.039077 0.081224 0.035335 1.0000 1.0000 1.0000
v -0.032742 0.080317 0.051430 1.0000 1.0000 1.0000
v -0.034744 0.110690 0.027792 0.6738 0.6738 0.6738
v -0.026918 0.110094 0.039972 0.6738 0.6738 0.6738
v -0.036379 -0.000167 0.035112 0.6738 0.6738 0.6738
v -0.028420 0.000000 0.048756 0.6738 0.6738 0.6738
v 0.027516 0.111893 0.026867 1.0000 1.0000 1.0000
v 0.027516 0.111817 0.016404 1.0000 1.0000 1.0000
v 0.034609 0.000000 0.028544 0.6738 0.6738 0.6738
v 0.021204 0.000000 0.048193 0.6738 0.6738 0.6738
v -0.037728 0.043863 0.035324 1.0000 1.0000 1.0000
v -0.030657 0.044289 0.051226 1.0000 1.0000 1.0000
v 0.038475 0.043608 0.026875 1.0000 1.0000 1.0000
v 0.025069 0.044289 0.045770 1.0000 1.0000 1.0000
v -0.034744 0.110690 0.027792 1.0000 1.0000 1.0000
v -0.034744 0.110820 0.013670 1.0000 1.0000 1.0000
v -0.013231 0.122501 0.018711 1.0000 1.0000 1.0000
v -0.013333 0.122249 0.031303 1.0000 1.0000 1.0000
v 0.009022 0.123966 0.018711 1.0000 1.0000 1.0000
v 0.008101 0.123966 0.031303 1.0000 1.0000 1.0000
v 0.023954 0.080317 -0.042422 1.0000 1.0000 1.0000
v 0.037360 0.079373 -0.024984 1.0000 1.0000 1.0000
v 0.027516 0.111893 -0.026867 0.6738 0.6738 0.6738
v -0.039077 0.081224 -0.035335 1.0000 1.0000 1.0000
v -0.032742 0.080317 -0.051430 1.0000 1.0000 1.0000
v -0.034744 0.110690 -0.027792 0.6738 0.6738 0.6738
v -0.026918 0.110094 -0.039972 0.6738 0.6738 0.6738
v -0.036379 -0.000167 -0.035112 0.6738 0.6738 0.6738
v -0.028420 0.000000 -0.048756 0.6738 0.6738 0.6738
v 0.027516 0.111893 -0.026867 1.0000 1.0000 1.0000
v 0.027516 0.111817 -0.016404 1.0000 1.0000 1.0000
v 0.034609 0.000000 -0.028544 0.6738 0.6738 0.6738
v 0.021204 0.000000 -0.048193 0.6738 0.6738 0.6738
v -0.037728 0.043863 -0.035324 1.0000 1.0000 1.0000
v -0.030657 0.044289 -0.051226 1.0000 1.0000 1.0000
v 0.038475 0.043608 -0.026875 1.0000 1.0000 1.0000
v 0.025069 0.044289 -0.045770 1.0000 1.0000 1.0000
v -0.034744 0.110690 -0.027792 1.0000 1.0000 1.0000
v -0.034744 0.110820 -0.013670 1.0000 1.0000 1.0000
v -0.013231 0.122501 -0.018711 1.0000 1.0000 1.0000
v -0.013333 0.122249 -0.031303 1.0000 1.0000 1.0000
v 0.009022 0.123966 -0.018711 1.0000 1.0000 1.0000
v 0.008101 0.123966 -0.031303 1.0000 1.0000 1.0000
v 0.027516 0.111893 0.026867 1.0000 1.0000 1.0000
v 0.027516 0.111817 0.016404 1.0000 1.0000 1.0000
v -0.034744 0.110690 0.027792 1.0000 1.0000 1.0000
v -0.034744 0.110820 0.013670 1.0000 1.0000 1.0000
v -0.013231 0.122501 0.018711 1.0000 1.0000 1.0000
v -0.013333 0.122249 0.031303 1.0000 1.0000 1.0000
v 0.009022 0.123966 0.018711 1.0000 1.0000 1.0000
v 0.008101 0.123966 0.031303 1.0000 1.0000 1.0000
v 0.027516 0.111893 -0.026867 1.0000 1.0000 1.0000
v 0.027516 0.111817 -0.016404 1.0000 1.0000 1.0000
v -0.034744 0.110690 -0.027792 1.0000 1.0000 1.0000
v -0.034744 0.110820 -0.013670 1.0000 1.0000 1.0000
v -0.013231 0.122501 -0.018711 1.0000 1.0000 1.0000
v -0.013333 0.122249 -0.031303 1.0000 1.0000 1.0000
v 0.009022 0.123966 -0.018711 1.0000 1.0000 1.0000
v 0.008101 0.123966 -0.031303 1.0000 1.0000 1.0000
vn 0.9062 -0.0062 0.4228
vn 0.8950 0.1487 0.4205
vn 0.7963 0.1260 0.5916
vn 0.6259 0.0066 0.7799
vn -0.4941 -0.0306 0.8688
vn -0.6947 -0.0378 0.7183
vn -0.9566 -0.0310 0.2898
vn -0.9476 -0.0319 0.3178
vn -0.9039 0.1010 0.4157
vn -0.9541 0.1161 0.2762
vn 0.4058 0.9131 0.0403
vn 0.3868 0.9211 0.0449
vn 0.6814 0.7299 0.0546
vn 0.7292 0.6813 0.0635
vn -0.9476 -0.0319 -0.3178
vn -0.9566 -0.0310 -0.2898
vn 0.4628 -0.0248 0.8861
vn 0.9044 -0.0635 0.4220
vn 0.8964 0.2574 0.3607
vn -0.8502 0.2872 0.4411
vn -0.9398 0.2468 0.2362
vn 0.9062 -0.0062 -0.4228
vn 0.8950 0.1487 -0.4205
vn -0.7367 0.6756 0.0286
vn -0.7125 0.7009 0.0330
vn -0.4335 0.9010 0.0128
vn -0.4433 0.8963 0.0094
vn -0.9541 0.1161 -0.2762
vn 0.6259 0.0066 -0.7799
vn 0.7963 0.1260 -0.5916
vn -0.4941 -0.0306 -0.8688
vn -0.6947 -0.0378 -0.7183
vn -0.9039 0.1010 -0.4157
vn 0.4058 0.9131 -0.0403
vn 0.7292 0.6813 -0.0635
vn 0.6814 0.7299 -0.0546
vn 0.3868 0.9211 -0.0449
vn 0.9044 -0.0635 -0.4220
vn 0.4628 -0.0248 -0.8861
vn 0.8964 0.2575 -0.3607
vn -0.8502 0.2872 -0.4411
vn -0.9398 0.2468 -0.2362
vn -0.7367 0.6756 -0.0286
vn -0.4433 0.8963 -0.0094
vn -0.4335 0.9010 -0.0128
vn -0.7125 0.7009 -0.0330
vn 0.1275 0.0489 0.9906
vn 0.1546 0.2222 0.9627
vn 0.1520 0.2043 0.9670
vn 0.2183 0.9169 0.3342
vn 0.0916 0.8168 0.5696
vn 0.1275 0.0489 -0.9906
vn 0.1520 0.2043 -0.9670
vn 0.1546 0.2222 -0.9627
vn 0.2183 0.9169 -0.3342
vn 0.0916 0.8168 -0.5696
vn -0.0536 0.9985 0.0097
vn -0.0536 0.9985 -0.0097
vn -0.4058 -0.9131 -0.0403
vn -0.7292 -0.6813 -0.0636
vn -0.6814 -0.7299 -0.0546
vn -0.3868 -0.9211 -0.0449
vn 0.7367 -0.6756 -0.0286
vn 0.4433 -0.8963 -0.0087
vn 0.4335 -0.9011 -0.0128
vn 0.7125 -0.7009 -0.0330
vn -0.4058 -0.9131 0.0403
vn -0.3868 -0.9211 0.0449
vn -0.6814 -0.7299 0.0546
vn -0.7292 -0.6813 0.0636
vn 0.7367 -0.6756 0.0286
vn 0.7125 -0.7009 0.0330
vn 0.4335 -0.9011 0.0128
vn 0.4433 -0.8963 0.0094
vt 0.322973 0.125750
vt 0.158789 0.136419
vt 0.145662 0.034326
vt 0.318237 0.017087
vt 0.000689 0.511544
vt 0.207972 0.504723
vt 0.205935 0.586012
vt 0.000504 0.585313
vt 0.376970 0.508262
vt 0.379222 0.588603
vt 0.898794 0.133448
vt 0.844241 0.139163
vt 0.864013 0.064236
vt 0.916142 0.052587
vt 0.000624 0.919320
vt 0.205992 0.918542
vt 0.529570 0.000191
vt 0.527958 0.113442
vt 0.000191 0.121814
vt 0.522118 0.554027
vt 0.517908 0.622083
vt 0.736173 0.521223
vt 0.529951 0.510610
vt 0.530043 0.279880
vt 0.736173 0.260898
vt 0.323420 0.379667
vt 0.159659 0.369898
vt 0.916142 0.432260
vt 0.851826 0.427353
vt 0.838955 0.349694
vt 0.901860 0.350776
vt 0.379245 0.915922
vt 0.319108 0.487954
vt 0.147295 0.471682
vt 0.000835 0.993064
vt 0.208050 0.999809
vt 0.377002 0.996247
vt 0.808809 0.354208
vt 0.826157 0.435069
vt 0.774028 0.423420
vt 0.754256 0.348493
vt 0.527731 0.391578
vt 0.529570 0.504342
vt 0.001848 0.385866
vt 0.522118 0.950484
vt 0.517906 0.882442
vt 0.736173 0.000191
vt 0.736173 0.260516
vt 0.530043 0.241534
vt 0.529951 0.010805
vt 0.826157 0.055396
vt 0.811875 0.136880
vt 0.748971 0.137962
vt 0.761842 0.060303
vt 0.896051 0.280432
vt 0.884408 0.526051
vt 0.996492 0.287811
vt 1.000542 0.537844
vt 0.901986 0.007081
vt 0.872613 0.217544
vt 1.000398 0.208212
vt 0.986871 0.005053
vt 0.126701 0.301417
vt 0.189201 0.301417
vt 0.189201 0.363917
vt 0.126701 0.363917
s 1
usemtl vest
f 238/193/192 224/194/193 223/195/194 239/196/195
f 231/197/196 237/198/197 236/199/198 230/200/199
f 236/199/198 237/198/197 227/201/200 226/202/201
f 244/203/202 245/204/203 232/205/204 233/206/205
f 253/207/206 230/200/199 236/199/198 259/208/207
f 238/193/192 239/196/195 235/209/208 234/210/209
f 225/211/210 223/195/194 224/194/193
f 229/212/211 228/213/212 226/202/201 227/201/200
f 237/214/197 231/215/196 235/216/208 239/217/195
f 238/193/192 261/218/213 247/219/214 224/194/193
f 241/220/215 240/221/216 243/222/217 242/223/218
f 226/202/201 249/224/219 259/208/207 236/199/198
f 261/218/213 262/225/220 246/226/221 247/219/214
f 254/227/222 253/207/206 259/208/207 260/228/223
f 259/208/207 249/224/219 250/229/224 260/228/223
f 267/230/225 256/231/226 255/232/227 268/233/228
f 261/218/213 257/234/229 258/235/230 262/225/220
f 248/236/231 247/219/214 246/226/221
f 252/237/232 250/229/224 249/224/219 251/238/233
f 260/239/223 262/240/220 258/241/230 254/242/222
f 264/243/234 265/244/235 266/245/236 263/246/237
f 244/203/202 242/223/218 243/222/217 245/204/203
f 249/224/219 226/202/201 228/213/212 251/238/233
f 234/210/209 257/234/229 261/218/213 238/193/192
f 224/194/193 247/219/214 248/236/231 225/211/210
f 239/217/238 223/247/239 227/248/240 237/214/238
f 225/249/241 229/250/242 227/248/240 223/247/239
f 262/240/243 260/239/243 250/251/244 246/252/245
f 248/253/246 246/252/245 250/251/244 252/254/247
f 251/255/248 228/256/249 225/257/241 248/258/246
f 252/255/247 251/256/248 248/257/246
f 229/255/242 225/256/241 228/257/249
f 267/230/225 268/233/228 266/245/236 265/244/235
f 275/203/250 270/206/251 269/205/252 276/204/253
f 272/220/254 273/223/255 274/222/256 271/221/257
f 283/230/258 284/233/259 277/232/260 278/231/261
f 280/243/262 279/246/263 282/245/264 281/244/265
f 275/203/250 276/204/253 274/222/256 273/223/255
f 283/230/258 281/244/265 282/245/264 284/233/259
o 12_pickup_health_small
v -0.021464 0.000000 0.000000 0.7466 0.7466 0.7466
v 0.000000 -0.000000 -0.021464 0.7466 0.7466 0.7466
v 0.021464 -0.000000 0.000000 0.7466 0.7466 0.7466
v -0.008264 0.069116 0.000000 1.0000 1.0000 1.0000
v 0.000000 0.069116 0.008264 0.9982 0.9982 0.9982
v 0.008264 0.069116 0.000000 0.9996 0.9996 0.9996
v 0.015178 -0.000000 0.015178 0.7466 0.7466 0.7466
v 0.000000 -0.000000 0.021464 0.7466 0.7466 0.7466
v -0.015178 -0.000000 0.015178 0.7466 0.7466 0.7466
v -0.015178 -0.000000 -0.015178 0.7466 0.7466 0.7466
v 0.015178 -0.000000 -0.015178 0.7466 0.7466 0.7466
v 0.005843 0.069116 -0.005843 1.0000 1.0000 1.0000
v 0.000000 0.069116 -0.008264 0.9931 0.9931 0.9931
v -0.005843 0.069116 -0.005843 1.0000 1.0000 1.0000
v -0.005843 0.069116 0.005843 1.0000 1.0000 1.0000
v 0.005843 0.069116 0.005843 0.9899 0.9899 0.9899
v -0.021464 0.048724 0.000000 0.9952 0.9952 0.9952
v -0.012331 0.056451 -0.011687 1.0000 1.0000 1.0000
v -0.015178 0.048724 -0.015178 0.9926 0.9926 0.9926
v 0.021464 0.048724 0.000000 0.9930 0.9930 0.9930
v 0.015178 0.048724 0.015178 0.9917 0.9917 0.9917
v -0.015178 0.048724 0.015178 0.9995 0.9995 0.9995
v 0.005843 0.059886 -0.005843 0.7503 0.7503 0.7503
v 0.015884 0.056451 0.000000 1.0000 1.0000 1.0000
v 0.011043 0.056451 -0.011687 1.0000 1.0000 1.0000
v -0.000644 0.056451 0.016528 0.9992 0.9992 0.9992
v 0.000000 0.048724 0.021464 0.9972 0.9972 0.9972
v 0.000000 0.059886 -0.008264 0.7466 0.7466 0.7466
v -0.000644 0.056451 -0.016528 1.0000 1.0000 1.0000
v 0.015178 0.048724 -0.015178 0.9983 0.9983 0.9983
v -0.008264 0.059886 0.000000 0.7466 0.7466 0.7466
v -0.012331 0.056451 0.011687 0.9999 0.9999 0.9999
v -0.005843 0.059886 0.005843 0.7466 0.7466 0.7466
v 0.000000 0.048724 -0.021464 0.9969 0.9969 0.9969
v -0.005843 0.059886 -0.005843 0.7467 0.7467 0.7467
v 0.005843 0.059886 0.005843 0.7466 0.7466 0.7466
v 0.000000 0.059886 0.008264 0.7466 0.7466 0.7466
v 0.011043 0.056451 0.011687 1.0000 1.0000 1.0000
v 0.008264 0.059886 0.000000 0.7466 0.7466 0.7466
v -0.017172 0.056451 0.000000 1.0000 1.0000 1.0000
vn -0.6823 0.2453 0.6886
vn -0.9715 0.2371 -0.0000
vn -0.7764 -0.6303 -0.0000
vn -0.5490 -0.6303 0.5489
vn -0.0001 0.6303 -0.7764
vn 0.0069 0.6276 -0.7785
vn -0.5418 0.6371 -0.5482
vn -0.5488 0.6303 -0.5491
vn -0.0000 -1.0000 -0.0000
vn -0.0000 1.0000 -0.0000
vn -0.4977 0.7196 0.4842
vn -0.6993 0.7148 -0.0000
vn -0.7763 0.6303 -0.0006
vn -0.7676 0.6409 -0.0000
vn -0.6823 0.2453 -0.6886
vn -0.5489 -0.6303 -0.5490
vn -0.0131 0.7306 -0.6827
vn 0.0059 0.2640 -0.9645
vn -0.4977 0.7196 -0.4842
vn 0.5599 0.6175 0.5525
vn 0.4686 0.7407 0.4815
vn 0.6676 0.7445 -0.0000
vn 0.7900 0.6131 -0.0000
vn -0.5491 0.6303 0.5489
vn -0.5418 0.6371 0.5482
vn -0.0131 0.7306 0.6827
vn 0.0069 0.6276 0.7785
vn 0.0059 0.2640 0.9645
vn -0.0005 0.6303 0.7764
vn 0.5488 0.6303 0.5492
vn 0.6814 0.2810 0.6758
vn 0.9577 0.2877 -0.0000
vn 0.5488 -0.6303 0.5491
vn 0.7763 -0.6303 -0.0004
vn 0.5599 0.6175 -0.5525
vn 0.5490 0.6303 -0.5489
vn 0.7764 0.6303 0.0002
vn 0.5491 -0.6303 -0.5488
vn 0.6814 0.2810 -0.6758
vn 0.0004 -0.6303 0.7763
vn 0.4686 0.7407 -0.4815
vn -0.0005 -0.6303 -0.7763
vt 0.252338 0.368398
vt 0.127339 0.368398
vt 0.127339 -0.002339
vt 0.252339 -0.002339
vt 0.875000 1.000205
vt 0.875000 0.817795
vt 1.000000 0.817795
vt 1.000000 1.000205
vt 0.253135 0.594856
vt 0.253135 0.694267
vt 0.182841 0.764561
vt 0.083430 0.764561
vt 0.013135 0.694267
vt 0.013135 0.594856
vt 0.083430 0.524561
vt 0.182841 0.524561
vt 0.367887 0.533392
vt 0.460352 0.533392
vt 0.525734 0.598774
vt 0.525734 0.691238
vt 0.460352 0.756620
vt 0.367888 0.756620
vt 0.302505 0.691238
vt 0.302505 0.598774
vt 0.236088 0.434486
vt 0.139838 0.434486
vt 0.125000 1.000205
vt 0.000000 1.000205
vt 0.000000 0.817795
vt 0.125000 0.817795
vt 0.002339 0.368398
vt 0.002339 -0.002339
vt 0.896240 0.435739
vt 0.877338 0.368399
vt 1.002338 0.368399
vt 0.992490 0.435739
vt 0.540776 0.498680
vt 0.514838 0.439081
vt 0.611088 0.439081
vt 0.588901 0.498680
vt 0.250000 1.000205
vt 0.250000 0.817795
vt 0.290776 0.501152
vt 0.262187 0.435738
vt 0.358437 0.435738
vt 0.338901 0.501152
vt 0.377338 0.368399
vt 0.375000 1.000205
vt 0.375000 0.817795
vt 0.500000 0.817795
vt 0.500000 1.000205
vt 0.502338 0.368399
vt 0.627338 0.368399
vt 0.502339 -0.002338
vt 0.627339 -0.002338
vt 0.483437 0.437644
vt 0.387187 0.437644
vt 0.625000 0.817795
vt 0.750000 0.817795
vt 0.750000 1.000205
vt 0.625000 1.000205
vt 0.752339 -0.002338
vt 0.752338 0.368399
vt 0.114839 0.434486
vt 0.018589 0.434486
vt 0.088901 0.502338
vt 0.040776 0.502338
vt 0.377339 -0.002339
vt 0.963901 0.501152
vt 0.915776 0.501152
vt 0.771240 0.437644
vt 0.867490 0.437644
vt 0.415776 0.499638
vt 0.463901 0.499638
vt 0.877339 -0.002338
vt 1.002339 -0.002338
vt 0.165776 0.502339
vt 0.213901 0.502339
vt 0.713901 0.498680
vt 0.665776 0.498680
vt 0.643588 0.439081
vt 0.739838 0.439081
vt 0.838901 0.499638
vt 0.790776 0.499638
s 1
usemtl health_small
f 306/259/266 301/260/267 285/261/268 293/262/269
f 297/263/270 312/264/271 319/265/272 298/266/273
s 0
f 287/267/274 291/268/274 292/269/274
f 292/269/274 293/270/274 285/271/274
f 285/271/274 294/272/274 286/273/274
f 286/273/274 295/274/274 287/267/274
f 290/275/275 296/276/275 297/277/275
f 297/277/275 298/278/275 288/279/275
f 288/279/275 299/280/275 289/281/275
f 289/281/275 300/282/275 290/275/275
s 1
f 316/283/276 324/284/277 301/260/267 306/259/266
f 288/285/278 298/286/273 319/287/272 315/288/279
f 301/260/267 303/289/280 294/290/281 285/261/268
f 313/291/282 318/292/283 303/293/280 302/294/284
f 320/295/285 322/296/286 308/297/287 323/298/288
f 299/299/289 288/285/278 315/288/279 317/300/290
s 0
f 287/267/274 292/269/274 285/271/274 286/273/274
s 1
f 317/301/290 316/302/276 310/303/291 321/304/292
f 310/303/291 316/302/276 306/259/266 311/305/293
f 289/306/294 321/307/292 320/308/285 300/309/295
f 305/310/296 304/311/297 308/297/287 322/296/286
f 291/312/298 287/313/299 304/311/297 305/310/296
f 299/299/289 317/300/290 321/307/292 289/306/294
f 322/314/286 310/315/291 311/305/293 305/310/296
f 323/316/288 307/317/300 296/318/301 290/319/302
f 296/318/301 307/317/300 312/264/271 297/263/270
s 0
f 290/275/275 297/277/275 288/279/275 289/281/275
s 1
f 320/308/285 323/316/288 290/319/302 300/309/295
f 287/313/299 295/320/303 314/321/304 304/311/297
f 301/260/267 324/322/277 302/323/284 303/289/280
f 302/323/284 324/322/277 315/324/279 319/325/272
f 306/259/266 293/262/269 292/326/305 311/305/293
f 313/291/282 302/294/284 319/327/272 312/328/271
f 309/329/306 314/321/304 318/292/283 313/330/282
f 321/331/292 310/315/291 322/314/286 320/332/285
f 318/292/283 286/333/307 294/334/281 303/293/280
f 315/335/279 324/284/277 316/283/276 317/336/290
f 307/337/300 323/338/288 308/339/287 309/340/306
f 312/341/271 307/342/300 309/329/306 313/330/282
f 308/339/287 304/311/297 314/321/304 309/340/306
f 314/321/304 295/320/303 286/333/307 318/292/283
f 311/305/293 292/326/305 291/312/298 305/310/296
o 13_pickup_health_big
v 0.049288 0.053669 0.022170 0.7445 0.7445 0.7445
v -0.047736 0.062878 0.000000 0.7134 0.7134 0.7134
v -0.049288 0.053669 0.022170 0.9144 0.9144 0.9144
v -0.023868 0.062878 0.000000 0.3607 0.3607 0.3607
v 0.023868 0.062878 0.000000 0.2667 0.2667 0.2667
v 0.047736 0.062878 0.000000 0.8062 0.8062 0.8062
v 0.049288 0.053669 -0.022170 0.8265 0.8265 0.8265
v -0.049288 0.053669 -0.022170 0.7322 0.7322 0.7322
v 0.058333 0.000000 -0.031354 0.2667 0.2667 0.2667
v -0.058333 0.000000 0.031354 0.3350 0.3350 0.3350
v -0.058333 0.000000 -0.031354 0.2667 0.2667 0.2667
v 0.058333 0.000000 0.031354 0.2667 0.2667 0.2667
v 0.023868 0.079544 0.000000 0.8265 0.8265 0.8265
v -0.023868 0.079544 0.000000 0.8265 0.8265 0.8265
v 0.053035 0.031439 -0.031354 0.8899 0.8899 0.8899
v 0.053035 0.031439 0.031354 0.7556 0.7556 0.7556
v -0.053035 0.031439 -0.031354 0.8265 0.8265 0.8265
v -0.053035 0.031439 0.031354 0.8532 0.8532 0.8532
v -0.023868 0.062878 0.000000 0.4904 0.4904 0.4904
v 0.023868 0.062878 0.000000 0.2667 0.2667 0.2667
v 0.023868 0.079544 0.000000 0.2667 0.2667 0.2667
v -0.023868 0.079544 0.000000 0.8165 0.8165 0.8165
vn -0.9861 0.1662 -0.0000
vn 0.9861 0.1662 -0.0000
vn -0.0000 -0.0000 1.0000
vn -0.0000 -1.0000 -0.0000
vn -0.0000 0.3818 -0.9242
vn -0.0000 0.9235 -0.3836
vn -0.0000 0.9235 0.3836
vn -0.0000 0.3818 0.9242
vn -0.0000 -0.0000 -1.0000
vt 0.620246 0.622694
vt 0.923076 0.622694
vt 0.985794 0.776662
vt 0.557527 0.776662
vt 0.621203 0.619222
vt 0.774269 0.554751
vt 0.927335 0.619222
vt 0.594781 0.410430
vt 0.568049 0.569034
vt 0.032947 0.569034
vt 0.006216 0.410430
vt 0.979070 0.013538
vt 0.979070 0.533804
vt 0.699432 0.533804
vt 0.699432 0.013538
vt 0.033023 0.159605
vt 0.560938 0.159605
vt 0.542289 0.279317
vt 0.051671 0.279318
vt 0.990737 0.774868
vt 0.557801 0.774868
vt 0.415773 0.398800
vt 0.178188 0.398800
vt 0.549147 0.690376
vt 0.541318 0.811485
vt 0.420908 0.811485
vt 0.180088 0.811485
vt 0.059678 0.811485
vt 0.051849 0.690376
vt 0.771661 0.558918
vt 0.990737 0.994986
vt 0.557801 0.994986
vt 0.059395 0.398800
vt 0.534565 0.398800
vt 0.006651 0.003132
vt 0.587310 0.003132
vt 0.985794 0.994405
vt 0.557527 0.994405
vt 0.001260 0.998964
vt 0.501201 0.998964
vt 0.501201 0.824413
vt 0.001260 0.824413
s 0
usemtl health_big
f 327/343/308 332/344/308 341/345/308 342/346/308
f 331/347/309 330/348/309 325/349/309
f 336/350/310 340/351/310 342/352/310 334/353/310
f 335/354/311 333/355/311 336/356/311 334/357/311
f 339/358/312 341/359/312 332/360/312 331/361/312
f 331/347/309 325/349/309 340/362/309 339/363/309
f 328/364/313 329/365/313 331/361/313 332/360/313
f 325/366/314 330/367/314 329/368/314
f 328/369/314 326/370/314 327/371/314
f 340/351/315 325/366/315 327/371/315 342/352/315
f 329/368/314 328/369/314 327/371/314 325/366/314
f 327/343/308 326/372/308 332/344/308
f 340/362/309 336/373/309 333/374/309 339/363/309
f 329/365/313 330/375/313 331/361/313
f 332/360/313 326/376/313 328/364/313
f 333/377/316 335/378/316 341/359/316 339/358/316
f 342/346/308 341/345/308 335/379/308 334/380/308
f 338/381/316 337/382/316 329/383/316 328/384/316
f 344/383/310 345/382/310 346/381/310 343/384/310
o 14_pickup_key_blue
v 0.024999 -0.000000 0.000000 1.0000 1.0000 1.0000
v -0.025001 -0.000000 0.000000 1.0000 1.0000 1.0000
v 0.024999 0.083333 0.000000 1.0000 1.0000 1.0000
v -0.025001 0.083333 0.000000 1.0000 1.0000 1.0000
v 0.024999 -0.000000 0.000000 1.0000 1.0000 1.0000
v -0.025001 -0.000000 0.000000 1.0000 1.0000 1.0000
v 0.024999 0.083333 0.000000 1.0000 1.0000 1.0000
v -0.025001 0.083333 0.000000 1.0000 1.0000 1.0000
vn -0.0000 -0.0000 -1.0000
vn -0.0000 -0.0000 1.0000
vt 1.000000 1.000000
vt 0.000000 1.000000
vt 0.000000 0.000000
vt 1.000000 0.000000
vt 0.000000 1.000000
vt 0.000000 0.000000
vt 1.000000 0.000000
vt 1.000000 1.000000
s 1
usemtl key_blue
f 350/385/317 349/386/317 347/387/317 348/388/317
f 354/389/318 352/390/318 351/391/318 353/392/318
o 15_pickup_key_yellow
v 0.024999 -0.000000 0.000000 1.0000 1.0000 1.0000
v -0.025001 -0.000000 0.000000 1.0000 1.0000 1.0000
v 0.024999 0.083333 0.000000 1.0000 1.0000 1.0000
v -0.025001 0.083333 0.000000 1.0000 1.0000 1.0000
v 0.024999 -0.000000 0.000000 1.0000 1.0000 1.0000
v -0.025001 -0.000000 0.000000 1.0000 1.0000 1.0000
v 0.024999 0.083333 0.000000 1.0000 1.0000 1.0000
v -0.025001 0.083333 0.000000 1.0000 1.0000 1.0000
vn -0.0000 -0.0000 -1.0000
vn -0.0000 -0.0000 1.0000
vt 1.000000 1.000000
vt 0.000000 1.000000
vt 0.000000 0.000000
vt 1.000000 0.000000
vt 0.000000 1.000000
vt 0.000000 0.000000
vt 1.000000 0.000000
vt 1.000000 1.000000
s 1
usemtl key_yellow
f 358/393/319 357/394/319 355/395/319 356/396/319
f 362/397/320 360/398/320 359/399/320 361/400/320
o 16_pickup_damage
v -0.031250 0.000000 0.000000 0.3970 0.3970 0.3970
v -0.022097 0.000000 0.015812 0.4040 0.4040 0.4040
v 0.000000 0.000000 0.020642 0.4058 0.4058 0.4058
v 0.022097 0.000000 0.015812 0.4012 0.4012 0.4012
v 0.031250 0.000000 0.000000 0.3948 0.3948 0.3948
v 0.022097 0.000000 -0.015812 0.4015 0.4015 0.4015
v 0.000000 0.000000 -0.020642 0.4051 0.4051 0.4051
v -0.022097 0.000000 -0.015812 0.4002 0.4002 0.4002
v -0.031250 0.065082 0.000000 0.7645 0.7645 0.7645
v -0.022097 0.065082 0.015812 0.7666 0.7666 0.7666
v 0.000000 0.065082 0.020642 0.7678 0.7678 0.7678
v 0.022097 0.065082 0.015812 0.7690 0.7690 0.7690
v 0.031250 0.065082 0.000000 0.7645 0.7645 0.7645
v 0.022097 0.065082 -0.015812 0.7654 0.7654 0.7654
v 0.000000 0.065082 -0.020642 0.7672 0.7672 0.7672
v -0.022097 0.065082 -0.015812 0.7683 0.7683 0.7683
v -0.006427 0.065082 0.000000 0.8882 0.8882 0.8882
v 0.000000 0.065082 0.006105 0.8933 0.8933 0.8933
v 0.006427 0.065082 0.000000 0.8865 0.8865 0.8865
v 0.000000 0.065082 -0.006105 0.8794 0.8794 0.8794
v -0.006427 0.073188 0.000000 0.7621 0.7621 0.7621
v 0.000000 0.073188 0.006105 0.7438 0.7438 0.7438
v 0.006427 0.073188 0.000000 0.7644 0.7644 0.7644
v 0.000000 0.073188 -0.006105 0.7405 0.7405 0.7405
v -0.028346 0.003030 0.000000 0.0000 0.0004 0.0004
v -0.020043 0.003030 0.014342 0.0000 0.0003 0.0003
v 0.000000 0.003030 0.018723 0.0000 0.0006 0.0006
v 0.020043 0.003030 0.014342 0.0000 0.0008 0.0008
v 0.028346 0.003030 0.000000 0.0000 0.0004 0.0004
v 0.020043 0.003030 -0.014342 0.0000 0.0005 0.0005
v 0.000000 0.003030 -0.018723 0.0000 0.0005 0.0005
v -0.020043 0.003030 -0.014342 0.0000 0.0001 0.0001
v -0.020043 0.048241 0.014342 0.0000 0.0009 0.0009
v -0.028346 0.048241 0.000000 0.0000 0.0001 0.0001
v 0.000000 0.048241 0.018723 0.0000 0.0004 0.0004
v 0.020043 0.048241 0.014342 0.0000 0.0013 0.0013
v 0.028346 0.048241 0.000000 0.0000 0.0004 0.0004
v 0.020043 0.048241 -0.014342 0.0000 0.0003 0.0003
v 0.000000 0.048241 -0.018723 0.0000 0.0001 0.0001
v -0.020043 0.048241 -0.014342 0.0000 0.0011 0.0011
vn -1.0000 -0.0000 -0.0000
vn -0.5897 -0.0000 0.8077
vn -0.5897 -0.0000 -0.8077
vn 0.5897 -0.0000 -0.8077
vn -0.0000 -0.0000 -1.0000
vn 0.5897 -0.0000 0.8077
vn 1.0000 -0.0000 -0.0000
vn -0.0000 -0.0000 1.0000
vn -0.0000 1.0000 -0.0000
vn -0.0000 -1.0000 -0.0000
vt 0.938721 0.003313
vt 0.945768 0.003313
vt 0.945768 0.345627
vt 0.938721 0.345627
vt 0.931675 0.003313
vt 0.931675 0.345627
vt 0.978761 0.003313
vt 0.988211 0.003313
vt 0.988211 0.345627
vt 0.978761 0.345627
vt 0.964668 0.003313
vt 0.971714 0.003313
vt 0.971714 0.345627
vt 0.964668 0.345627
vt 0.779835 0.000000
vt 0.866720 0.000000
vt 0.866720 0.345546
vt 0.779835 0.345546
vt 0.922225 0.003313
vt 0.922225 0.345627
vt 0.953606 0.000000
vt 0.953606 0.345546
vt 0.936069 0.367394
vt 0.946529 0.367394
vt 0.946529 0.410025
vt 0.936069 0.410025
vt 0.939154 0.476270
vt 0.939433 0.422143
vt 0.956173 0.420258
vt 0.955894 0.474385
vt 0.956989 0.367394
vt 0.956989 0.410025
vt 0.792020 0.400375
vt 0.792020 0.349949
vt 0.820531 0.367623
vt 0.800313 0.425476
vt 0.763509 0.483330
vt 0.751700 0.425476
vt 0.783727 0.425476
vt 0.763509 0.367623
vt 0.820531 0.483330
vt 0.792020 0.501004
vt 0.792020 0.450578
vt 0.832340 0.425476
vt 0.987914 0.444648
vt 0.987914 0.474452
vt 0.983708 0.474452
vt 0.983708 0.444648
vt 0.977101 0.444648
vt 0.977101 0.474452
vt 0.979501 0.444648
vt 0.979501 0.474452
vt 0.990314 0.474452
vt 0.990314 0.444648
vt 0.989199 0.459550
vt 0.987914 0.472763
vt 0.979501 0.472763
vt 0.978216 0.459550
vt 0.910830 0.483330
vt 0.922639 0.425476
vt 0.910830 0.367623
vt 0.882319 0.349949
vt 0.882319 0.501004
vt 0.853808 0.367623
vt 0.841999 0.425476
vt 0.853808 0.483330
vt 0.987914 0.446337
vt 0.979501 0.446337
vt 0.983708 0.478236
vt 0.983708 0.440864
s 1
usemtl door_sides
f 363/401/321 364/402/322 372/403/322 371/404/321
f 370/405/323 363/401/321 371/404/321 378/406/323
f 368/407/324 369/408/325 377/409/325 376/410/324
f 366/411/326 367/412/327 375/413/327 374/414/326
f 364/415/322 365/416/328 373/417/328 372/418/322
f 369/419/325 370/405/323 378/406/323 377/420/325
f 367/412/327 368/407/324 376/410/324 375/413/327
f 365/416/328 366/421/326 374/422/326 373/417/328
f 381/423/327 382/424/325 386/425/325 385/426/327
f 383/427/329 384/428/329 385/429/329 386/430/329
f 380/424/328 381/423/327 385/426/327 384/425/328
f 379/431/321 380/424/328 384/425/328 383/432/321
f 382/424/325 379/431/321 383/432/321 386/425/325
f 382/433/329 377/434/329 378/435/329 379/436/329
f 374/437/329 375/438/329 381/439/329
f 375/438/329 376/440/329 382/433/329 381/439/329
f 372/441/329 373/442/329 380/443/329
f 380/443/329 373/442/329 374/437/329 381/439/329
f 378/435/329 371/444/329 379/436/329
f 382/433/329 376/440/329 377/434/329
f 392/445/324 400/446/324 399/447/327 391/448/327
f 390/449/326 398/450/326 397/447/328 389/448/328
f 388/451/322 395/452/322 396/447/321 387/448/321
f 387/448/321 396/447/321 402/446/323 394/445/323
f 393/448/325 401/447/325 400/450/324 392/449/324
f 391/448/327 399/447/327 398/452/326 390/451/326
f 389/448/328 397/447/328 395/453/322 388/454/322
f 394/454/323 402/453/323 401/447/325 393/448/325
f 379/436/329 371/444/329 372/441/329 380/443/329
f 401/455/329 402/456/329 395/457/329 397/458/329
f 364/459/330 363/460/330 370/461/330
f 370/461/330 369/462/330 365/463/330 364/459/330
f 368/464/330 367/465/330 366/466/330
f 400/467/329 401/455/329 397/458/329 398/468/329
f 388/457/330 387/469/330 394/456/330
f 392/467/330 391/470/330 390/468/330
f 396/469/329 395/457/329 402/456/329
f 394/456/330 393/455/330 389/458/330 388/457/330
f 390/468/330 389/458/330 393/455/330 392/467/330
f 398/468/329 399/470/329 400/467/329
f 366/466/330 365/463/330 369/462/330 368/464/330
o 17_pickup_fire_rate
v -0.031250 0.000000 0.000000 0.3970 0.3970 0.3970
v -0.022097 0.000000 0.015812 0.4040 0.4040 0.4040
v 0.000000 0.000000 0.020642 0.4058 0.4058 0.4058
v 0.022097 0.000000 0.015812 0.4012 0.4012 0.4012
v 0.031250 0.000000 0.000000 0.3948 0.3948 0.3948
v 0.022097 0.000000 -0.015812 0.4015 0.4015 0.4015
v 0.000000 0.000000 -0.020642 0.4051 0.4051 0.4051
v -0.022097 0.000000 -0.015812 0.4002 0.4002 0.4002
v -0.031250 0.065082 0.000000 0.7645 0.7645 0.7645
v -0.022097 0.065082 0.015812 0.7666 0.7666 0.7666
v 0.000000 0.065082 0.020642 0.7678 0.7678 0.7678
v 0.022097 0.065082 0.015812 0.7690 0.7690 0.7690
v 0.031250 0.065082 0.000000 0.7645 0.7645 0.7645
v 0.022097 0.065082 -0.015812 0.7654 0.7654 0.7654
v 0.000000 0.065082 -0.020642 0.7672 0.7672 0.7672
v -0.022097 0.065082 -0.015812 0.7683 0.7683 0.7683
v -0.006427 0.065082 0.000000 0.8882 0.8882 0.8882
v 0.000000 0.065082 0.006105 0.8933 0.8933 0.8933
v 0.006427 0.065082 0.000000 0.8865 0.8865 0.8865
v 0.000000 0.065082 -0.006105 0.8794 0.8794 0.8794
v -0.006427 0.073188 0.000000 0.7621 0.7621 0.7621
v 0.000000 0.073188 0.006105 0.7438 0.7438 0.7438
v 0.006427 0.073188 0.000000 0.7644 0.7644 0.7644
v 0.000000 0.073188 -0.006105 0.7405 0.7405 0.7405
v -0.028346 0.003030 0.000000 0.0000 0.0004 0.0004
v -0.020043 0.003030 0.014342 0.0000 0.0003 0.0003
v 0.000000 0.003030 0.018723 0.0000 0.0006 0.0006
v 0.020043 0.003030 0.014342 0.0000 0.0008 0.0008
v 0.028346 0.003030 0.000000 0.0000 0.0004 0.0004
v 0.020043 0.003030 -0.014342 0.0000 0.0005 0.0005
v 0.000000 0.003030 -0.018723 0.0000 0.0005 0.0005
v -0.020043 0.003030 -0.014342 0.0000 0.0001 0.0001
v -0.020043 0.048241 0.014342 0.0000 0.0009 0.0009
v -0.028346 0.048241 0.000000 0.0000 0.0001 0.0001
v 0.000000 0.048241 0.018723 0.0000 0.0004 0.0004
v 0.020043 0.048241 0.014342 0.0000 0.0013 0.0013
v 0.028346 0.048241 0.000000 0.0000 0.0004 0.0004
v 0.020043 0.048241 -0.014342 0.0000 0.0003 0.0003
v 0.000000 0.048241 -0.018723 0.0000 0.0001 0.0001
v -0.020043 0.048241 -0.014342 0.0000 0.0011 0.0011
vn -1.0000 -0.0000 -0.0000
vn -0.5897 -0.0000 0.8077
vn -0.5897 -0.0000 -0.8077
vn 0.5897 -0.0000 -0.8077
vn -0.0000 -0.0000 -1.0000
vn 0.5897 -0.0000 0.8077
vn 1.0000 -0.0000 -0.0000
vn -0.0000 -0.0000 1.0000
vn -0.0000 1.0000 -0.0000
vn -0.0000 -1.0000 -0.0000
vt 0.688721 0.003313
vt 0.695768 0.003313
vt 0.695768 0.345627
vt 0.688721 0.345627
vt 0.681675 0.003313
vt 0.681675 0.345627
vt 0.728761 0.003313
vt 0.738211 0.003313
vt 0.738211 0.345627
vt 0.728761 0.345627
vt 0.714668 0.003313
vt 0.721714 0.003313
vt 0.721714 0.345627
vt 0.714668 0.345627
vt 0.529835 0.000000
vt 0.616720 0.000000
vt 0.616720 0.345546
vt 0.529835 0.345546
vt 0.672225 0.003313
vt 0.672225 0.345627
vt 0.703606 0.000000
vt 0.703606 0.345546
vt 0.686069 0.367394
vt 0.696529 0.367394
vt 0.696529 0.410025
vt 0.686069 0.410025
vt 0.689154 0.476270
vt 0.689433 0.422143
vt 0.706173 0.420258
vt 0.705894 0.474385
vt 0.706989 0.367394
vt 0.706989 0.410025
vt 0.542020 0.400375
vt 0.542020 0.349949
vt 0.570531 0.367623
vt 0.550313 0.425476
vt 0.513509 0.483330
vt 0.501700 0.425476
vt 0.533727 0.425476
vt 0.513509 0.367623
vt 0.570531 0.483330
vt 0.542020 0.501004
vt 0.542020 0.450578
vt 0.582340 0.425476
vt 0.737914 0.444648
vt 0.737914 0.474452
vt 0.733708 0.474452
vt 0.733708 0.444648
vt 0.727101 0.444648
vt 0.727101 0.474452
vt 0.729501 0.444648
vt 0.729501 0.474452
vt 0.740314 0.474452
vt 0.740314 0.444648
vt 0.739199 0.459550
vt 0.737914 0.472763
vt 0.729501 0.472763
vt 0.728216 0.459550
vt 0.660830 0.483330
vt 0.672639 0.425476
vt 0.660830 0.367623
vt 0.632319 0.349949
vt 0.632319 0.501004
vt 0.603808 0.367623
vt 0.591999 0.425476
vt 0.603808 0.483330
vt 0.737914 0.446337
vt 0.729501 0.446337
vt 0.733708 0.478236
vt 0.733708 0.440864
s 1
usemtl door_sides
f 403/471/331 404/472/332 412/473/332 411/474/331
f 410/475/333 403/471/331 411/474/331 418/476/333
f 408/477/334 409/478/335 417/479/335 416/480/334
f 406/481/336 407/482/337 415/483/337 414/484/336
f 404/485/332 405/486/338 413/487/338 412/488/332
f 409/489/335 410/475/333 418/476/333 417/490/335
f 407/482/337 408/477/334 416/480/334 415/483/337
f 405/486/338 406/491/336 414/492/336 413/487/338
f 421/493/337 422/494/335 426/495/335 425/496/337
f 423/497/339 424/498/339 425/499/339 426/500/339
f 420/494/338 421/493/337 425/496/337 424/495/338
f 419/501/331 420/494/338 424/495/338 423/502/331
f 422/494/335 419/501/331 423/502/331 426/495/335
f 422/503/339 417/504/339 418/505/339 419/506/339
f 414/507/339 415/508/339 421/509/339
f 415/508/339 416/510/339 422/503/339 421/509/339
f 412/511/339 413/512/339 420/513/339
f 420/513/339 413/512/339 414/507/339 421/509/339
f 418/505/339 411/514/339 419/506/339
f 422/503/339 416/510/339 417/504/339
f 432/515/334 440/516/334 439/517/337 431/518/337
f 430/519/336 438/520/336 437/517/338 429/518/338
f 428/521/332 435/522/332 436/517/331 427/518/331
f 427/518/331 436/517/331 442/516/333 434/515/333
f 433/518/335 441/517/335 440/520/334 432/519/334
f 431/518/337 439/517/337 438/522/336 430/521/336
f 429/518/338 437/517/338 435/523/332 428/524/332
f 434/524/333 442/523/333 441/517/335 433/518/335
f 419/506/339 411/514/339 412/511/339 420/513/339
f 441/525/339 442/526/339 435/527/339 437/528/339
f 404/529/340 403/530/340 410/531/340
f 410/531/340 409/532/340 405/533/340 404/529/340
f 408/534/340 407/535/340 406/536/340
f 440/537/339 441/525/339 437/528/339 438/538/339
f 428/527/340 427/539/340 434/526/340
f 432/537/340 431/540/340 430/538/340
f 436/539/339 435/527/339 442/526/339
f 434/526/340 433/525/340 429/528/340 428/527/340
f 430/538/340 429/528/340 433/525/340 432/537/340
f 438/538/339 439/540/339 440/537/339
f 406/536/340 405/533/340 409/532/340 408/534/340
o 18_pickup_invincibility
v -0.008246 0.087444 0.046875 0.4688 0.4688 0.4688
v -0.008246 0.090069 0.007500 0.4749 0.4749 0.4749
v 0.004254 0.090069 0.007500 0.4335 0.4335 0.4335
v 0.004254 0.087444 0.046875 0.6935 0.6935 0.6935
v -0.008246 0.105069 0.007500 0.5852 0.5852 0.5852
v -0.008246 0.107694 0.046875 0.5149 0.5149 0.5149
v 0.004254 0.107694 0.046875 0.6573 0.6573 0.6573
v 0.004254 0.105069 0.007500 0.5893 0.5893 0.5893
v -0.008246 0.006442 -0.010125 0.4843 0.4843 0.4843
v -0.008246 0.006442 0.010125 0.4843 0.4843 0.4843
v -0.008246 0.144444 0.010125 0.4827 0.4827 0.4827
v -0.008246 0.144444 -0.010125 0.5002 0.5002 0.5002
v -0.008246 0.105069 -0.007500 0.5097 0.5097 0.5097
v -0.008246 0.107694 -0.046875 0.4227 0.4227 0.4227
v -0.008246 0.087444 -0.046875 0.4442 0.4442 0.4442
v -0.008246 0.090069 -0.007500 0.4900 0.4900 0.4900
v 0.004254 0.006442 -0.010125 0.6764 0.6764 0.6764
v 0.004254 0.090069 -0.007500 0.5206 0.5206 0.5206
v 0.004254 0.006442 0.010125 0.6516 0.6516 0.6516
v 0.004254 0.144444 -0.010125 0.4663 0.4663 0.4663
v 0.004254 0.105069 -0.007500 0.5497 0.5497 0.5497
v 0.004254 0.107694 -0.046875 0.6064 0.6064 0.6064
v 0.004254 0.144444 0.010125 0.4630 0.4630 0.4630
v 0.004254 0.087444 -0.046875 0.5427 0.5427 0.5427
v 0.003414 0.126159 0.000000 0.5154 0.5154 0.5154
v 0.003414 0.135435 0.009276 0.5052 0.5052 0.5052
v 0.008562 0.135435 0.000000 0.4763 0.4763 0.4763
v 0.008562 0.135435 0.000000 0.5392 0.5392 0.5392
v 0.003414 0.135435 -0.009276 0.4961 0.4961 0.4961
v 0.003414 0.144711 0.000000 0.4454 0.4455 0.4455
v 0.008562 0.135435 0.000000 0.4763 0.4763 0.4763
v 0.008562 0.135435 0.000000 0.5392 0.5392 0.5392
v 0.003414 0.088294 -0.034375 0.6158 0.6158 0.6158
v 0.003414 0.097569 -0.025099 0.5755 0.5755 0.5755
v 0.008562 0.097569 -0.034375 0.5502 0.5502 0.5502
v 0.008562 0.097569 -0.034375 0.5959 0.5959 0.5959
v 0.003414 0.097569 -0.043651 0.5935 0.5935 0.5935
v 0.003414 0.106845 -0.034375 0.5558 0.5558 0.5558
v 0.008562 0.097569 -0.034375 0.5502 0.5502 0.5502
v 0.008562 0.097569 -0.034375 0.5959 0.5959 0.5959
v 0.003414 0.088294 0.034375 0.6305 0.6305 0.6305
v 0.003414 0.097569 0.043651 0.6610 0.6610 0.6610
v 0.008562 0.097569 0.034375 0.5871 0.5871 0.5871
v 0.008562 0.097569 0.034375 0.5976 0.5976 0.5976
v 0.003414 0.097569 0.025099 0.6295 0.6295 0.6295
v 0.003414 0.106845 0.034375 0.6138 0.6138 0.6138
v 0.008562 0.097569 0.034375 0.5871 0.5871 0.5871
v 0.008562 0.097569 0.034375 0.5976 0.5976 0.5976
v 0.003414 0.008526 0.000000 0.6440 0.6440 0.6440
v 0.003414 0.017802 0.009276 0.6246 0.6246 0.6246
v 0.008562 0.017802 0.000000 0.5704 0.5704 0.5704
v 0.008562 0.017802 0.000000 0.5704 0.5704 0.5704
v 0.003414 0.017802 -0.009276 0.6592 0.6592 0.6592
v 0.003414 0.027078 0.000000 0.5866 0.5866 0.5866
v 0.008562 0.017802 0.000000 0.5871 0.5871 0.5871
v 0.008562 0.017802 0.000000 0.5704 0.5704 0.5704
v 0.001894 0.099892 0.027165 0.6489 0.6489 0.6489
v 0.001894 0.110985 0.026236 0.6527 0.6527 0.6527
v 0.001894 0.115297 0.036454 0.6688 0.6688 0.6688
v 0.001894 0.106869 0.043699 0.6394 0.6394 0.6394
v 0.001894 0.097348 0.037958 0.5886 0.5886 0.5886
v -0.006539 0.110985 0.026236 0.5605 0.5605 0.5605
v -0.006539 0.099892 0.027165 0.4730 0.4730 0.4730
v -0.006539 0.115297 0.036454 0.5453 0.5453 0.5453
v -0.006539 0.106869 0.043699 0.4679 0.4679 0.4679
v -0.006539 0.097348 0.037958 0.3811 0.3811 0.3811
v 0.001894 0.093245 0.035710 0.5785 0.5785 0.5785
v 0.001894 0.104338 0.034781 0.6044 0.6044 0.6044
v 0.001894 0.108650 0.045000 0.6537 0.6537 0.6537
v 0.001894 0.100223 0.052245 0.7113 0.7113 0.7113
v 0.001894 0.090702 0.046503 0.6843 0.6843 0.6843
v -0.006539 0.104338 0.034781 0.4078 0.4078 0.4078
v -0.006539 0.093245 0.035710 0.3871 0.3871 0.3871
v -0.006539 0.108650 0.045000 0.4431 0.4431 0.4431
v -0.006539 0.100223 0.052245 0.5222 0.5222 0.5222
v -0.006539 0.090702 0.046503 0.4250 0.4250 0.4250
v 0.001894 0.086242 0.027639 0.6602 0.6602 0.6602
v 0.001894 0.097335 0.026710 0.6518 0.6518 0.6518
v 0.001894 0.101648 0.036929 0.5970 0.5970 0.5970
v 0.001894 0.093220 0.044174 0.6649 0.6649 0.6649
v 0.001894 0.083699 0.038432 0.6540 0.6540 0.6540
v -0.006539 0.097335 0.026710 0.4706 0.4706 0.4706
v -0.006539 0.086242 0.027639 0.5565 0.5565 0.5565
v -0.006539 0.101648 0.036929 0.3903 0.3903 0.3903
v -0.006539 0.093220 0.044174 0.4219 0.4219 0.4219
v -0.006539 0.083699 0.038432 0.4608 0.4608 0.4608
v 0.001894 0.099892 -0.026371 0.5676 0.5676 0.5676
v 0.001894 0.110985 -0.025441 0.6263 0.6263 0.6263
v 0.001894 0.115297 -0.035660 0.6238 0.6238 0.6238
v 0.001894 0.106869 -0.042905 0.5885 0.5885 0.5885
v 0.001894 0.097348 -0.037164 0.5537 0.5537 0.5537
v -0.006539 0.110985 -0.025441 0.5185 0.5185 0.5185
v -0.006539 0.099892 -0.026371 0.3957 0.3957 0.3957
v -0.006539 0.115297 -0.035660 0.4972 0.4972 0.4972
v -0.006539 0.106869 -0.042905 0.4073 0.4073 0.4073
v -0.006539 0.097348 -0.037164 0.3721 0.3721 0.3721
v 0.001894 0.093245 -0.034916 0.5738 0.5738 0.5738
v 0.001894 0.104338 -0.033987 0.5491 0.5491 0.5491
v 0.001894 0.108650 -0.044206 0.6007 0.6007 0.6007
v 0.001894 0.100223 -0.051451 0.6186 0.6186 0.6186
v 0.001894 0.090702 -0.045709 0.6234 0.6234 0.6234
v -0.006539 0.104338 -0.033987 0.3536 0.3536 0.3536
v -0.006539 0.093245 -0.034916 0.3779 0.3779 0.3779
v -0.006539 0.108650 -0.044206 0.4146 0.4146 0.4146
v -0.006539 0.100223 -0.051451 0.4432 0.4432 0.4432
v -0.006539 0.090702 -0.045709 0.4207 0.4207 0.4207
v 0.001894 0.086242 -0.026845 0.6309 0.6309 0.6309
v 0.001894 0.097335 -0.025916 0.5741 0.5741 0.5741
v 0.001894 0.101648 -0.036135 0.5449 0.5449 0.5449
v 0.001894 0.093220 -0.043380 0.6107 0.6107 0.6107
v 0.001894 0.083699 -0.037638 0.5460 0.5460 0.5460
v -0.006539 0.097335 -0.025916 0.4030 0.4030 0.4030
v -0.006539 0.086242 -0.026845 0.4989 0.4989 0.4989
v -0.006539 0.101648 -0.036135 0.3609 0.3609 0.3609
v -0.006539 0.093220 -0.043380 0.4002 0.4002 0.4002
v -0.006539 0.083699 -0.037638 0.4541 0.4541 0.4541
v 0.001894 0.125769 0.002208 0.5216 0.5216 0.5216
v 0.001894 0.125810 0.013340 0.5980 0.5980 0.5980
v 0.001894 0.136366 0.016745 0.5383 0.5383 0.5383
v 0.001894 0.142848 0.007718 0.4594 0.4594 0.4594
v 0.001894 0.136299 -0.001266 0.4774 0.4774 0.4774
v -0.006539 0.125810 0.013340 0.4868 0.4868 0.4868
v -0.006539 0.125769 0.002208 0.4481 0.4481 0.4481
v -0.006539 0.136366 0.016745 0.5214 0.5214 0.5214
v -0.006539 0.142848 0.007718 0.4612 0.4612 0.4612
v -0.006539 0.136299 -0.001266 0.4389 0.4389 0.4389
v 0.001894 0.133703 -0.005158 0.4870 0.4870 0.4870
v 0.001894 0.133744 0.005974 0.4942 0.4942 0.4942
v 0.001894 0.144300 0.009379 0.4648 0.4648 0.4648
v 0.001894 0.150782 0.000352 0.4754 0.4754 0.4754
v 0.001894 0.144233 -0.008632 0.4630 0.4630 0.4630
v -0.006539 0.133744 0.005974 0.4597 0.4597 0.4597
v -0.006539 0.133703 -0.005158 0.4418 0.4418 0.4418
v -0.006539 0.144300 0.009379 0.4809 0.4809 0.4809
v -0.006539 0.150782 0.000352 0.5264 0.5264 0.5264
v -0.006539 0.144233 -0.008632 0.4797 0.4797 0.4797
v 0.001894 0.125052 -0.011430 0.5479 0.5479 0.5479
v 0.001894 0.125093 -0.000299 0.5260 0.5260 0.5260
v 0.001894 0.135649 0.003107 0.4806 0.4806 0.4806
v 0.001894 0.142132 -0.005920 0.4571 0.4571 0.4571
v 0.001894 0.135582 -0.014905 0.5445 0.5445 0.5445
v -0.006539 0.125093 -0.000299 0.4481 0.4481 0.4481
v -0.006539 0.125052 -0.011430 0.5388 0.5388 0.5388
v -0.006539 0.135649 0.003107 0.4535 0.4535 0.4535
v -0.006539 0.142132 -0.005920 0.4374 0.4374 0.4374
v -0.006539 0.135583 -0.014905 0.4922 0.4922 0.4922
v 0.001894 0.025013 -0.000713 0.5830 0.5830 0.5830
v 0.001894 0.024972 -0.011845 0.6061 0.6061 0.6061
v 0.001894 0.014416 -0.015250 0.6864 0.6864 0.6864
v 0.001894 0.007934 -0.006223 0.6564 0.6564 0.6564
v 0.001894 0.014483 0.002761 0.6227 0.6227 0.6227
v -0.006539 0.024972 -0.011845 0.4843 0.4843 0.4843
v -0.006539 0.025013 -0.000713 0.4843 0.4843 0.4843
v -0.006539 0.014416 -0.015250 0.4843 0.4843 0.4843
v -0.006539 0.007934 -0.006223 0.4843 0.4843 0.4843
v -0.006539 0.014483 0.002761 0.4843 0.4843 0.4843
v 0.001894 0.017080 0.006653 0.6208 0.6208 0.6208
v 0.001894 0.017038 -0.004479 0.6330 0.6330 0.6330
v 0.001894 0.006483 -0.007884 0.6664 0.6664 0.6664
v 0.001894 0.000000 0.001143 0.6541 0.6541 0.6541
v 0.001894 0.006549 0.010127 0.6517 0.6517 0.6517
v -0.006539 0.017038 -0.004479 0.4843 0.4843 0.4843
v -0.006539 0.017080 0.006653 0.4843 0.4843 0.4843
v -0.006539 0.006483 -0.007884 0.4843 0.4843 0.4843
v -0.006539 0.000000 0.001143 0.5249 0.5249 0.5249
v -0.006539 0.006549 0.010127 0.4843 0.4843 0.4843
v 0.001894 0.025730 0.012925 0.6011 0.6011 0.6011
v 0.001894 0.025689 0.001794 0.5795 0.5795 0.5795
v 0.001894 0.015133 -0.001612 0.6245 0.6245 0.6245
v 0.001894 0.008650 0.007416 0.6465 0.6465 0.6465
v 0.001894 0.015200 0.016400 0.6591 0.6591 0.6591
v -0.006539 0.025689 0.001794 0.4843 0.4843 0.4843
v -0.006539 0.025730 0.012925 0.5084 0.5084 0.5084
v -0.006539 0.015133 -0.001612 0.4843 0.4843 0.4843
v -0.006539 0.008650 0.007416 0.4843 0.4843 0.4843
v -0.006539 0.015200 0.016400 0.5177 0.5177 0.5177
vn 1.0000 -0.0000 -0.0000
vn -1.0000 -0.0000 -0.0000
vn -0.0000 0.6519 -0.7583
vn -0.0000 -0.0000 -1.0000
vn -0.0000 -0.0000 1.0000
vn -0.0000 -0.0835 -0.9965
vn -0.0000 -0.8081 0.5891
vn -0.0000 -0.5164 0.8563
vn -0.0000 0.9213 0.3888
vn -0.0000 1.0000 -0.0000
vn -0.0000 -0.8123 -0.5833
vn -0.0000 -0.9978 0.0665
vn -0.0000 0.9213 -0.3888
vn -0.0000 -0.9978 -0.0665
vn -0.0000 -0.0835 0.9965
vn -0.0000 0.6519 0.7583
vn -0.0000 -0.5164 -0.8563
vn -0.0000 0.8123 0.5833
vn -0.0000 1.0000 -0.0037
vn -0.0000 0.9978 -0.0665
vn 0.9985 0.0382 0.0399
vn 0.9984 -0.0396 0.0396
vn 0.9984 -0.0396 -0.0396
vn 0.9985 0.0382 -0.0399
vn -0.0000 -0.3070 0.9517
vn -0.0000 0.8081 -0.5891
vn -0.0000 -0.9733 -0.2294
vn -0.0000 -0.3133 -0.9496
vn -0.0000 0.3070 -0.9517
vn -0.0000 -1.0000 0.0037
vn -0.0000 0.3133 0.9496
vn -0.0000 -0.9733 0.2294
vn -0.0000 -1.0000 -0.0000
vn -0.0000 0.9978 0.0665
vn -0.0000 -0.0665 0.9978
vn -0.0000 0.0314 -0.9995
vn -0.0000 0.0314 0.9995
vn -0.0000 -0.0665 -0.9978
vn 0.7868 -0.4361 0.4367
vn 0.6746 0.6361 0.3744
vn 0.7864 0.4370 0.4365
vn 0.4255 0.8736 0.2362
vn 0.7866 0.4366 0.4366
vn 0.7864 0.4370 -0.4365
vn 0.4255 0.8736 -0.2362
vn 0.7868 -0.4361 -0.4367
vn 0.6746 0.6361 -0.3744
vn 0.7866 -0.4366 -0.4366
vn 0.7866 -0.4366 0.4366
vn 0.7865 0.4369 -0.4365
vn 0.7868 -0.4363 -0.4367
vn 0.7868 -0.4363 0.4367
vn 0.7865 0.4369 0.4365
vn 0.7866 0.4366 -0.4366
vn 1.0000 0.0043 -0.0000
vn 1.0000 -0.0091 -0.0000
vn 1.0000 -0.0000 0.0091
vn 1.0000 -0.0000 -0.0091
vt 0.754883 0.363563
vt 0.763842 0.256587
vt 0.867927 0.232058
vt 0.923295 0.323875
vt 0.759264 0.388214
vt 0.750304 0.495191
vt 0.918717 0.455502
vt 0.863349 0.363685
vt 0.459340 0.536777
vt 0.459340 0.455502
vt 0.540660 0.455502
vt 0.540660 0.536777
vt 0.628457 0.568922
vt 0.548104 0.570432
vt 0.548348 0.511414
vt 0.628702 0.509904
vt 0.055095 0.559079
vt 0.055340 0.500061
vt -0.025014 0.501570
vt -0.025259 0.560589
vt 0.160580 0.324117
vt 0.056495 0.299589
vt 0.001127 0.391405
vt 0.169539 0.431094
vt 0.507834 0.631252
vt 0.615185 0.630853
vt 0.648692 0.732404
vt 0.562050 0.795564
vt 0.459340 0.363563
vt 0.459340 0.256587
vt 0.540660 0.256587
vt 0.540660 0.363563
vt 0.501560 0.459340
vt 0.588202 0.459340
vt 0.588202 0.540660
vt 0.501560 0.540660
vt 0.459340 0.391405
vt 0.540660 0.391405
vt 0.540660 0.299589
vt 0.459340 0.299589
vt 0.483659 0.637765
vt 0.376309 0.638163
vt 0.430524 0.802475
vt 0.517166 0.739315
vt 0.247371 0.363563
vt 0.078959 0.323875
vt 0.134327 0.232058
vt 0.238412 0.256587
vt 0.848852 0.459340
vt 0.848852 0.540660
vt 0.750304 0.540660
vt 0.750304 0.459340
vt 0.459340 0.232058
vt 0.459340 0.323875
vt 0.540660 0.323875
vt 0.540660 0.232058
vt 0.607337 0.570263
vt 0.607582 0.511244
vt 0.527228 0.512754
vt 0.526983 0.571773
vt 0.242990 0.388214
vt 0.138905 0.363685
vt 0.083537 0.455502
vt 0.251949 0.495191
vt 0.414505 0.459340
vt 0.414505 0.540660
vt 0.265834 0.576679
vt 0.266079 0.517661
vt 0.153402 0.459340
vt 0.251949 0.459340
vt 0.251949 0.540660
vt 0.153402 0.540660
vt 0.841674 0.324117
vt 0.832715 0.431094
vt 1.001127 0.391405
vt 0.945759 0.299589
vt 0.540660 0.472680
vt 0.459340 0.472680
vt 0.868731 0.506338
vt 0.868487 0.565356
vt 0.459340 0.495191
vt 0.540660 0.495191
vt 0.540660 0.388214
vt 0.459340 0.388214
vt 0.430524 0.459340
vt 0.430524 0.540660
vt 0.343470 0.540660
vt 0.343470 0.459340
vt 0.507834 0.459340
vt 0.507834 0.540660
vt 0.615185 0.540660
vt 0.615185 0.459340
vt 0.527232 0.511810
vt 0.526987 0.570829
vt 0.607341 0.569319
vt 0.607586 0.510300
vt 0.483659 0.459340
vt 0.376309 0.459340
vt 0.376309 0.540660
vt 0.483659 0.540660
vt 0.554695 0.714275
vt 0.447344 0.714673
vt 0.501560 0.878985
vt 0.588202 0.815826
vt 0.588202 0.815825
vt 0.459340 0.739959
vt 0.540660 0.739959
vt 0.540660 0.638163
vt 0.459340 0.638163
vt 0.562050 0.459340
vt 0.648692 0.459340
vt 0.648692 0.540660
vt 0.562050 0.540660
vt 0.134327 0.459340
vt 0.134327 0.540660
vt 0.238412 0.540660
vt 0.238412 0.459340
vt 0.070992 0.459340
vt 0.169539 0.459340
vt 0.169539 0.540660
vt 0.070992 0.540660
vt 0.459340 0.732404
vt 0.459340 0.630853
vt 0.540660 0.630853
vt 0.540660 0.732404
vt 0.608994 0.170944
vt 0.528640 0.172453
vt 0.459340 0.815825
vt 0.459340 0.714275
vt 0.540660 0.714275
vt 0.540660 0.815826
vt 0.153402 0.536777
vt 0.070992 0.472680
vt 0.148824 0.405149
vt 0.848852 0.536777
vt 0.931262 0.472680
vt 0.853430 0.405149
vt 0.343470 0.739959
vt 0.414505 0.816470
vt 0.474996 0.733048
vt 0.867927 0.459340
vt 0.763842 0.459340
vt 0.763842 0.540660
vt 0.867927 0.540660
vt 0.547308 0.762242
vt 0.627661 0.760733
vt 0.549756 0.172057
vt 0.630110 0.170547
vt 0.931262 0.459340
vt 0.931262 0.540660
vt 0.832715 0.540660
vt 0.832715 0.459340
vt 0.086165 0.119650
vt 0.066438 0.090791
vt 0.066446 0.090809
vt 0.067162 0.090734
vt 0.086165 0.064947
vt 0.045489 0.065731
vt 0.066439 0.090791
vt 0.039117 0.109086
vt 0.606545 0.761129
vt 0.526192 0.762639
vt 0.265838 0.575736
vt 0.266083 0.516717
vt 0.868491 0.564413
vt 0.868735 0.505394
s 0
usemtl invincible
f 550/541/341 549/542/341 553/543/341 552/544/341
f 535/545/342 534/546/342 537/547/342 538/548/342
f 531/549/343 532/550/343 537/551/343 536/552/343
s 1
f 456/553/344 464/554/344 466/555/344 457/556/344
f 448/557/345 443/558/345 446/559/345 449/560/345
s 0
f 515/561/342 518/562/342 517/563/342 514/564/342
f 580/565/341 579/566/341 583/567/341 582/568/341
f 520/569/346 519/570/346 525/571/346 524/572/346
f 602/573/347 603/574/347 608/575/347 607/576/347
f 512/577/348 517/578/348 518/579/348 513/580/348
f 595/581/342 594/582/342 597/583/342 598/584/342
f 520/585/341 522/586/341 523/587/341 519/588/341
f 531/589/349 536/590/349 534/591/349 530/592/349
f 523/593/348 522/594/348 527/595/348 528/596/348
s 1
f 453/597/350 465/598/350 462/599/350 454/600/350
s 0
f 505/601/342 508/602/342 507/603/342 504/604/342
f 500/604/341 502/603/341 503/602/341 499/601/341
f 601/605/351 602/573/351 607/576/351 606/606/351
s 1
f 458/600/352 457/607/352 466/608/352 460/599/352
s 0
f 501/609/353 500/610/353 504/611/353 506/612/353
f 545/613/342 544/614/342 547/615/342 548/616/342
f 525/588/342 528/587/342 527/586/342 524/585/342
f 542/577/343 547/578/343 546/617/343 541/618/343
s 1
f 444/597/354 445/598/354 446/619/354 443/620/354
s 0
f 530/621/355 534/622/355 535/623/355 529/624/355
f 555/542/342 554/541/342 557/544/342 558/543/342
f 510/564/341 512/563/341 513/562/341 509/561/341
f 500/621/346 499/624/346 505/623/346 504/622/346
f 501/549/356 506/552/356 507/551/356 502/550/356
f 542/577/357 543/580/357 548/579/357 547/578/357
f 585/566/342 584/565/342 587/568/342 588/567/342
f 560/582/341 559/581/341 563/584/341 562/583/341
f 562/625/358 567/626/358 566/627/358 561/628/358
f 610/629/359 614/630/359 615/631/359 609/632/359
s 1
f 448/620/360 449/619/360 450/598/360 447/597/360
s 0
f 530/546/341 529/545/341 533/548/341 532/547/341
f 590/582/341 589/581/341 593/584/341 592/583/341
s 1
f 460/633/361 463/634/362 450/635/363 445/636/364
s 0
f 589/637/359 590/638/359 594/639/359 595/640/359
f 575/641/342 574/642/342 577/643/342 578/644/342
f 600/642/341 599/641/341 603/645/341 602/643/341
f 561/646/365 566/647/365 564/648/365 560/649/365
f 582/650/366 583/651/366 588/652/366 587/653/366
f 550/569/355 554/572/355 555/571/355 549/570/355
f 540/614/341 539/613/341 543/616/341 542/615/341
f 605/641/342 604/642/342 607/643/342 608/644/342
f 523/654/367 528/655/367 525/656/367 519/657/367
f 511/658/353 510/659/353 514/660/353 516/661/353
f 583/662/368 579/663/368 585/664/368 588/665/368
f 570/642/341 569/641/341 573/645/341 572/643/341
f 615/566/342 614/565/342 617/568/342 618/567/342
f 590/649/369 591/646/369 596/647/369 594/648/369
s 1
f 452/666/342 444/636/342 458/633/342 451/667/342
s 0
f 580/629/370 584/630/370 585/631/370 579/632/370
f 565/581/342 564/582/342 567/583/342 568/584/342
s 1
f 458/633/342 444/636/342 447/635/342 455/634/342
s 0
f 603/668/371 599/669/371 605/670/371 608/671/371
f 613/662/371 609/663/371 615/664/371 618/665/371
f 501/672/341 502/603/341 500/604/341
f 504/604/342 507/603/342 506/672/342
f 511/673/341 512/563/341 510/564/341
f 514/564/342 517/563/342 516/673/342
f 521/674/341 522/586/341 520/585/341
f 524/585/342 527/586/342 526/674/342
f 531/675/341 530/546/341 532/547/341
f 534/546/342 536/675/342 537/547/342
f 541/676/341 540/614/341 542/615/341
f 544/614/342 546/676/342 547/615/342
f 551/677/341 550/541/341 552/544/341
f 554/541/342 556/677/342 557/544/342
f 561/678/341 560/582/341 562/583/341
f 564/582/342 566/678/342 567/583/342
f 571/679/341 570/642/341 572/643/341
f 574/642/342 576/679/342 577/643/342
f 581/680/341 580/565/341 582/568/341
f 584/565/342 586/680/342 587/568/342
f 591/678/341 590/582/341 592/583/341
f 594/582/342 596/678/342 597/583/342
f 601/679/341 600/642/341 602/643/341
f 604/642/342 606/679/342 607/643/342
f 611/680/341 610/565/341 612/568/341
f 614/565/342 616/680/342 617/568/342
f 560/638/370 564/639/370 565/640/370 559/637/370
f 553/681/372 549/682/372 555/683/372 558/684/372
s 1
f 451/600/373 459/599/373 461/598/373 452/597/373
s 0
f 572/573/366 573/574/366 578/575/366 577/576/366
f 512/577/356 511/618/356 516/617/356 517/578/356
s 1
f 455/600/374 463/599/374 464/608/374 456/607/374
s 0
f 572/573/358 577/576/358 576/606/358 571/605/358
s 1
f 447/553/375 450/554/375 465/685/375 453/686/375
f 458/556/376 460/555/376 459/687/376 451/688/376
s 0
f 553/593/357 558/596/357 557/595/357 552/594/357
s 1
f 452/688/377 461/687/377 445/555/377 444/556/377
s 0
f 592/625/351 597/626/351 596/627/351 591/628/351
f 541/689/349 546/690/349 544/691/349 540/692/349
s 1
f 454/686/378 462/685/378 463/554/378 455/553/378
f 468/693/379 469/694/380 470/695/350
f 468/693/381 473/696/382 472/697/383
f 471/698/384 473/696/385 474/699/350
f 471/698/386 469/694/387 467/700/388
f 476/693/389 477/694/380 478/695/350
f 476/693/383 481/696/382 480/697/383
f 479/698/390 481/696/385 482/699/350
f 479/698/391 477/694/387 475/700/388
f 484/693/392 485/694/380 486/695/350
f 484/693/393 489/696/382 488/697/383
f 487/698/394 489/696/385 490/699/350
f 487/698/388 485/694/387 483/700/388
f 492/693/379 493/694/380 494/695/350
f 496/697/393 494/695/382 497/696/350
f 496/697/390 498/699/385 495/698/394
f 495/698/386 493/694/387 491/700/388
f 445/636/364 461/666/395 459/667/395 460/633/361
f 465/701/396 450/635/363 463/634/362 462/702/396
f 464/703/397 463/634/362 460/633/361 466/704/397
s 0
f 610/565/341 609/566/341 613/567/341 612/568/341
s 1
f 448/705/342 447/635/342 444/636/342 443/706/342
f 454/702/342 455/634/342 447/635/342 453/701/342
f 450/635/363 449/705/398 446/706/398 445/636/364
f 455/634/342 456/703/342 457/704/342 458/633/342
f 468/693/379 467/700/389 469/694/380
f 468/693/381 470/695/350 473/696/382
f 471/698/384 472/697/394 473/696/385
f 471/698/386 474/699/350 469/694/387
f 476/693/389 475/700/389 477/694/380
f 476/693/383 478/695/350 481/696/382
f 479/698/390 480/697/394 481/696/385
f 479/698/391 482/699/350 477/694/387
f 484/693/392 483/700/389 485/694/380
f 484/693/393 486/695/350 489/696/382
f 487/698/394 488/697/394 489/696/385
f 487/698/388 490/699/350 485/694/387
f 492/693/379 491/700/389 493/694/380
f 496/697/393 492/693/383 494/695/382
f 496/697/390 497/696/350 498/699/385
f 495/698/386 498/699/350 493/694/387
s 0
f 612/650/347 613/651/347 618/652/347 617/653/347
o 19_enemy_chaser_idle
v -0.078150 0.118406 0.000000 1.0000 1.0000 1.0000
v 0.078150 0.118406 0.000000 1.0000 1.0000 1.0000
v -0.078150 0.241326 0.000000 1.0000 1.0000 1.0000
v 0.078150 0.241326 0.000000 1.0000 1.0000 1.0000
v -0.051559 0.002965 0.000000 1.0000 1.0000 1.0000
v 0.029033 0.002965 0.000000 1.0000 1.0000 1.0000
v -0.051559 0.125885 0.000000 1.0000 1.0000 1.0000
v 0.029033 0.125885 0.000000 1.0000 1.0000 1.0000
v 0.013052 0.000175 0.000000 1.0000 1.0000 1.0000
v 0.054569 0.000175 0.000000 1.0000 1.0000 1.0000
v 0.013052 0.143968 0.000000 1.0000 1.0000 1.0000
v 0.054569 0.143968 0.000000 1.0000 1.0000 1.0000
v -0.096774 0.122369 0.000000 1.0000 1.0000 1.0000
v -0.062584 0.122369 0.000000 1.0000 1.0000 1.0000
v -0.096774 0.219777 0.000000 1.0000 1.0000 1.0000
v -0.062584 0.219777 0.000000 1.0000 1.0000 1.0000
v -0.038667 0.231575 0.000000 1.0000 1.0000 1.0000
v 0.039483 0.231575 0.000000 1.0000 1.0000 1.0000
v -0.038667 0.335941 0.000000 1.0000 1.0000 1.0000
v 0.039483 0.335941 0.000000 1.0000 1.0000 1.0000
v 0.063233 0.091032 0.000000 1.0000 1.0000 1.0000
v 0.124288 0.091032 0.000000 1.0000 1.0000 1.0000
v 0.063233 0.223229 0.000000 1.0000 1.0000 1.0000
v 0.124288 0.223229 0.000000 1.0000 1.0000 1.0000
vn -0.0000 -0.0000 1.0000
vt 0.000000 0.171875
vt 1.000000 0.171875
vt 1.000000 1.000000
vt 0.000000 1.000000
vt 0.515625 0.171875
vt 0.515625 1.000000
vt 0.515625 0.031250
vt 0.781250 0.031250
vt 0.781250 1.000000
vt 0.781250 0.343750
vt 1.000000 0.343750
vt 0.000000 0.296875
vt 0.515625 0.296875
vt -0.000000 0.109375
vt 0.390625 0.109375
vt 0.390625 1.000000
s 0
usemtl enemy_chaser_parts1
f 623/707/399 624/711/399 626/712/399 625/710/399
f 627/713/399 628/714/399 630/715/399 629/712/399
f 631/716/399 632/717/399 634/709/399 633/715/399
usemtl enemy_chaser_parts2
f 635/718/399 636/719/399 638/712/399 637/710/399
usemtl enemy_chaser_parts3
f 619/707/399 620/708/399 622/709/399 621/710/399
usemtl enemy_chaser_parts4
f 639/720/399 640/721/399 642/722/399 641/710/399
o 20_enemy_chaser_aim
v -0.078150 0.118406 0.000000 1.0000 1.0000 1.0000
v 0.078150 0.118406 0.000000 1.0000 1.0000 1.0000
v -0.078150 0.241326 0.000000 1.0000 1.0000 1.0000
v 0.078150 0.241326 0.000000 1.0000 1.0000 1.0000
v -0.051559 0.002965 0.000000 1.0000 1.0000 1.0000
v 0.029033 0.002965 0.000000 1.0000 1.0000 1.0000
v -0.051559 0.125885 0.000000 1.0000 1.0000 1.0000
v 0.029033 0.125885 0.000000 1.0000 1.0000 1.0000
v 0.013052 0.000175 0.000000 1.0000 1.0000 1.0000
v 0.054569 0.000175 0.000000 1.0000 1.0000 1.0000
v 0.013052 0.143968 0.000000 1.0000 1.0000 1.0000
v 0.054569 0.143968 0.000000 1.0000 1.0000 1.0000
v -0.096774 0.122369 0.000000 1.0000 1.0000 1.0000
v -0.062584 0.122369 0.000000 1.0000 1.0000 1.0000
v -0.096774 0.219777 0.000000 1.0000 1.0000 1.0000
v -0.062584 0.219777 0.000000 1.0000 1.0000 1.0000
v -0.038667 0.231575 0.000000 1.0000 1.0000 1.0000
v 0.039483 0.231575 0.000000 1.0000 1.0000 1.0000
v -0.038667 0.335941 0.000000 1.0000 1.0000 1.0000
v 0.039483 0.335941 0.000000 1.0000 1.0000 1.0000
v 0.063233 0.091032 0.000000 1.0000 1.0000 1.0000
v 0.124288 0.091032 0.000000 1.0000 1.0000 1.0000
v 0.063233 0.223229 0.000000 1.0000 1.0000 1.0000
v 0.124288 0.223229 0.000000 1.0000 1.0000 1.0000
vn -0.0000 -0.0000 1.0000
vt 0.000000 0.171875
vt 1.000000 0.171875
vt 1.000000 1.000000
vt 0.000000 1.000000
vt 0.515625 0.171875
vt 0.515625 1.000000
vt 0.515625 0.031250
vt 0.781250 0.031250
vt 0.781250 1.000000
vt 0.781250 0.343750
vt 1.000000 0.343750
vt 0.000000 0.296875
vt 0.515625 0.296875
vt 0.390625 0.109375
vt 0.781250 0.109375
vt 0.390625 1.000000
s 0
usemtl enemy_chaser_parts1
f 647/723/400 648/727/400 650/728/400 649/726/400
f 651/729/400 652/730/400 654/731/400 653/728/400
f 655/732/400 656/733/400 658/725/400 657/731/400
usemtl enemy_chaser_parts2
f 659/734/400 660/735/400 662/728/400 661/726/400
usemtl enemy_chaser_parts3
f 643/723/400 644/724/400 646/725/400 645/726/400
usemtl enemy_chaser_parts4
f 663/736/400 664/737/400 666/731/400 665/738/400
o 22_enemy_chaser_head_normal
v -0.038667 0.231575 0.000000 1.0000 1.0000 1.0000
v 0.039483 0.231575 0.000000 1.0000 1.0000 1.0000
v -0.038667 0.335941 0.000000 1.0000 1.0000 1.0000
v 0.039483 0.335941 0.000000 1.0000 1.0000 1.0000
vn -0.0000 -0.0000 1.0000
vt 0.000000 0.296875
vt 0.515625 0.296875
vt 0.515625 1.000000
vt 0.000000 1.000000
s 0
usemtl enemy_chaser_parts2
f 667/739/401 668/740/401 670/741/401 669/742/401
o 23_enemy_chaser_body
v -0.078150 0.118406 0.000000 1.0000 1.0000 1.0000
v 0.078150 0.118406 0.000000 1.0000 1.0000 1.0000
v -0.078150 0.241326 0.000000 1.0000 1.0000 1.0000
v 0.078150 0.241326 0.000000 1.0000 1.0000 1.0000
vn -0.0000 -0.0000 1.0000
vt 0.000000 0.171875
vt 1.000000 0.171875
vt 1.000000 1.000000
vt 0.000000 1.000000
s 0
usemtl enemy_chaser_parts3
f 671/743/402 672/744/402 674/745/402 673/746/402
o 24_enemy_chaser_arm
v -0.096774 0.122369 0.000000 1.0000 1.0000 1.0000
v -0.062584 0.122369 0.000000 1.0000 1.0000 1.0000
v -0.096774 0.219777 0.000000 1.0000 1.0000 1.0000
v -0.062584 0.219777 0.000000 1.0000 1.0000 1.0000
vn -0.0000 -0.0000 1.0000
vt 0.781250 0.343750
vt 1.000000 0.343750
vt 1.000000 1.000000
vt 0.781250 1.000000
s 0
usemtl enemy_chaser_parts1
f 675/747/403 676/748/403 678/749/403 677/750/403
o 27_enemy_chaser_gun
v 0.063233 0.091032 0.000000 1.0000 1.0000 1.0000
v 0.124288 0.091032 0.000000 1.0000 1.0000 1.0000
v 0.063233 0.223229 0.000000 1.0000 1.0000 1.0000
v 0.124288 0.223229 0.000000 1.0000 1.0000 1.0000
vn -0.0000 -0.0000 1.0000
vt 0.000000 0.109375
vt 0.390625 0.109375
vt 0.390625 1.000000
vt 0.000000 1.000000
s 0
usemtl enemy_chaser_parts4
f 679/751/404 680/752/404 682/753/404 681/754/404
o 25_enemy_chaser_bottom1
v -0.051559 0.002965 0.000000 1.0000 1.0000 1.0000
v 0.029033 0.002965 0.000000 1.0000 1.0000 1.0000
v -0.051559 0.125885 0.000000 1.0000 1.0000 1.0000
v 0.029033 0.125885 0.000000 1.0000 1.0000 1.0000
vn -0.0000 -0.0000 1.0000
vt 0.000000 0.171875
vt 0.515625 0.171875
vt 0.515625 1.000000
vt 0.000000 1.000000
s 0
usemtl enemy_chaser_parts1
f 683/755/405 684/756/405 686/757/405 685/758/405
o 26_enemy_chaser_bottom2
v 0.013052 0.000175 0.000000 1.0000 1.0000 1.0000
v 0.054569 0.000175 0.000000 1.0000 1.0000 1.0000
v 0.013052 0.143968 0.000000 1.0000 1.0000 1.0000
v 0.054569 0.143968 0.000000 1.0000 1.0000 1.0000
vn -0.0000 -0.0000 1.0000
vt 0.515625 0.031250
vt 0.781250 0.031250
vt 0.781250 1.000000
vt 0.515625 1.000000
s 0
usemtl enemy_chaser_parts1
f 687/759/406 688/760/406 690/761/406 689/762/406
o 21_enemy_chaser_head_broken
v -0.038667 0.231575 0.000000 1.0000 1.0000 1.0000
v 0.039483 0.231575 0.000000 1.0000 1.0000 1.0000
v -0.038667 0.335941 0.000000 1.0000 1.0000 1.0000
v 0.039483 0.335941 0.000000 1.0000 1.0000 1.0000
vn -0.0000 -0.0000 1.0000
vt 0.500000 0.296875
vt 1.015625 0.296875
vt 1.015625 1.000000
vt 0.500000 1.000000
s 0
usemtl enemy_chaser_parts2
f 691/763/407 692/764/407 694/765/407 693/766/407
o 28_crate
v -0.078125 0.000000 0.078125 1.0000 1.0000 1.0000
v -0.078125 0.156250 0.078125 1.0000 1.0000 1.0000
v -0.078125 0.000000 -0.078125 1.0000 1.0000 1.0000
v -0.078125 0.156250 -0.078125 1.0000 1.0000 1.0000
v 0.078125 0.000000 0.078125 1.0000 1.0000 1.0000
v 0.078125 0.156250 0.078125 1.0000 1.0000 1.0000
v 0.078125 0.000000 -0.078125 1.0000 1.0000 1.0000
v 0.078125 0.156250 -0.078125 1.0000 1.0000 1.0000
vn -1.0000 -0.0000 -0.0000
vn -0.0000 -0.0000 -1.0000
vn 1.0000 -0.0000 -0.0000
vn -0.0000 -0.0000 1.0000
vn -0.0000 -1.0000 -0.0000
vn -0.0000 1.0000 -0.0000
vt 0.000000 0.000000
vt 1.000000 0.000000
vt 1.000000 1.000000
vt 0.000000 1.000000
s 0
usemtl wooden_crate
f 695/767/408 696/768/408 698/769/408 697/770/408
f 697/767/409 698/768/409 702/769/409 701/770/409
f 701/767/410 702/768/410 700/769/410 699/770/410
f 699/767/411 700/768/411 696/769/411 695/770/411
f 697/767/412 701/768/412 699/769/412 695/770/412
f 702/767/413 698/768/413 696/769/413 700/770/413
o 29_platform_test_horizontal
v -0.156250 0.000000 0.156250 1.0000 1.0000 1.0000
v -0.156250 0.039062 0.156250 1.0000 1.0000 1.0000
v -0.156250 0.000000 -0.156250 1.0000 1.0000 1.0000
v -0.156250 0.039062 -0.156250 1.0000 1.0000 1.0000
v 0.156250 0.000000 0.156250 1.0000 1.0000 1.0000
v 0.156250 0.039062 0.156250 1.0000 1.0000 1.0000
v 0.156250 0.000000 -0.156250 1.0000 1.0000 1.0000
v 0.156250 0.039062 -0.156250 1.0000 1.0000 1.0000
vn -1.0000 -0.0000 -0.0000
vn -0.0000 -0.0000 -1.0000
vn 1.0000 -0.0000 -0.0000
vn -0.0000 -0.0000 1.0000
vn -0.0000 -1.0000 -0.0000
vn -0.0000 1.0000 -0.0000
vt 0.000000 0.000000
vt 1.000000 0.000000
vt 1.000000 1.000000
vt 0.000000 1.000000
s 0
usemtl wooden_crate
f 703/771/414 704/772/414 706/773/414 705/774/414
f 705/771/415 706/772/415 710/773/415 709/774/415
f 709/771/416 710/772/416 708/773/416 707/774/416
f 707/771/417 708/772/417 704/773/417 703/774/417
f 705/771/418 709/772/418 707/773/418 703/774/418
f 710/771/419 706/772/419 704/773/419 708/774/419
