# Blender 3.6.2
# www.blender.org
mtllib gun.mtl
o gun
v -0.000000 0.065166 -0.010680 0.7933 0.7933 0.7933
v -0.000000 0.071513 -0.000818 0.7933 0.7933 0.7933
v -0.000000 0.056884 -0.004871 0.7933 0.7933 0.7933
v -0.000000 0.063230 0.004990 0.7933 0.7933 0.7933
v 0.023294 0.053647 -0.142173 0.9870 0.9870 0.9870
v 0.023145 0.026089 -0.094264 0.9458 0.9458 0.9458
v 0.023145 0.026089 -0.142173 0.9814 0.9814 0.9814
v 0.023294 0.053647 -0.094264 0.9619 0.9619 0.9619
v 0.000000 0.067506 -0.142173 0.1718 0.1718 0.1718
v 0.000000 0.012231 -0.094264 0.0000 0.0000 0.0000
v 0.000000 0.012231 -0.142173 0.0000 0.0000 0.0000
v 0.000000 0.067506 -0.094264 0.0885 0.0885 0.0885
v -0.023294 0.053647 -0.142173 0.9795 0.9795 0.9795
v -0.023145 0.026089 -0.094264 0.9473 0.9473 0.9473
v -0.023145 0.026089 -0.142173 0.9852 0.9852 0.9852
v -0.023294 0.053647 -0.094264 0.9734 0.9734 0.9734
v 0.000000 0.027062 -0.225766 1.0000 1.0000 1.0000
v 0.000000 0.052470 -0.225766 0.9739 0.9739 0.9739
v -0.009791 0.046195 -0.225766 1.0000 1.0000 1.0000
v -0.009791 0.033338 -0.225766 1.0000 1.0000 1.0000
v 0.009791 0.046195 -0.225766 1.0000 1.0000 1.0000
v 0.009791 0.033338 -0.225766 1.0000 1.0000 1.0000
v 0.000000 0.027062 -0.156813 0.0000 0.0000 0.0000
v 0.009791 0.033338 -0.156813 0.5182 0.5182 0.5182
v 0.000000 0.052470 -0.156813 0.0000 0.0000 0.0000
v -0.009791 0.046195 -0.156813 0.0000 0.0000 0.0000
v 0.009791 0.046195 -0.156813 0.0000 0.0000 0.0000
v -0.009791 0.033338 -0.156813 0.5182 0.5182 0.5182
v 0.000000 0.066408 -0.220753 0.9981 0.9981 0.9981
v 0.000000 0.052553 -0.220753 0.5875 0.5875 0.5875
v 0.006582 0.055890 -0.220753 0.9488 0.9488 0.9488
v 0.006582 0.063072 -0.220753 0.9986 0.9986 0.9986
v -0.006582 0.063072 -0.220753 0.9958 0.9958 0.9958
v -0.006582 0.055890 -0.220753 0.9503 0.9503 0.9503
v 0.000000 0.059481 -0.220753 0.9777 0.9777 0.9777
v 0.006582 0.063072 -0.157173 0.6605 0.6605 0.6605
v 0.000000 0.066408 -0.157173 0.5073 0.5073 0.5073
v -0.006582 0.055890 -0.157173 0.0000 0.0000 0.0000
v 0.000000 0.052553 -0.157173 0.0000 0.0000 0.0000
v 0.006582 0.055890 -0.157173 0.0000 0.0000 0.0000
v -0.006582 0.063072 -0.157173 0.6881 0.6881 0.6881
v 0.000000 0.059481 -0.157173 0.0000 0.0000 0.0000
v 0.012863 0.002185 -0.151430 0.9819 0.9819 0.9819
v 0.012863 0.012371 -0.145913 0.8475 0.8475 0.8475
v 0.011198 0.002185 -0.127717 0.0404 0.0404 0.0404
v 0.011198 0.012371 -0.127717 0.7634 0.7634 0.7634
v 0.011198 0.008747 -0.117018 0.8301 0.8301 0.8301
v 0.011198 0.012371 -0.117018 0.7556 0.7556 0.7556
v 0.011198 0.008747 -0.088343 0.8440 0.8440 0.8440
v 0.011198 0.012371 -0.090055 0.8308 0.8308 0.8308
v 0.011198 0.021528 -0.090055 0.7374 0.7374 0.7374
v 0.011198 0.021528 -0.080783 0.8543 0.8543 0.8543
v 0.015776 0.041152 -0.145913 0.6510 0.6510 0.6510
v 0.015776 0.041152 -0.158297 0.9218 0.9218 0.9218
v 0.012863 0.035453 -0.155755 0.8937 0.8937 0.8937
v 0.012863 0.035453 -0.145913 0.6212 0.6212 0.6212
v 0.006944 0.063573 -0.145913 0.6437 0.6437 0.6437
v 0.006944 0.063573 -0.156298 0.8177 0.8177 0.8177
v 0.015776 0.058441 -0.145913 0.8105 0.8105 0.8105
v 0.015776 0.058441 -0.158297 0.9294 0.9294 0.9294
v 0.012863 0.022733 -0.145913 0.7207 0.7207 0.7207
v 0.012863 0.022733 -0.158380 0.9503 0.9503 0.9503
v 0.011572 0.070400 -0.145913 0.8266 0.8266 0.8266
v 0.011572 0.070400 -0.156298 0.9309 0.9309 0.9309
v 0.012863 0.012723 -0.157891 0.9819 0.9819 0.9819
v 0.011198 0.033625 -0.090055 0.6339 0.6339 0.6339
v 0.011198 0.033625 -0.074788 0.8583 0.8583 0.8583
v 0.011198 0.021528 -0.068294 0.8231 0.8231 0.8231
v 0.011198 0.023346 -0.068294 0.8458 0.8458 0.8458
v 0.011198 0.022030 -0.042066 0.7312 0.7312 0.7312
v 0.011198 0.023346 -0.043165 0.8141 0.8141 0.8141
v 0.011198 0.032971 -0.037146 0.8423 0.8423 0.8423
v 0.011198 0.032971 -0.034518 0.8452 0.8452 0.8452
v 0.011198 0.044109 -0.090055 0.6388 0.6388 0.6388
v 0.011198 0.044109 -0.067853 0.8743 0.8743 0.8743
v 0.011198 0.044109 -0.042095 0.9072 0.9072 0.9072
v 0.011198 0.066796 -0.090055 0.8597 0.8597 0.8597
v 0.011198 0.066796 -0.067853 0.9931 0.9931 0.9931
v 0.011198 0.066796 -0.042095 0.9958 0.9958 0.9958
v 0.011198 0.079635 -0.090055 0.9972 0.9972 0.9972
v 0.011198 0.079635 -0.067853 0.9972 0.9972 0.9972
v 0.011198 0.079635 -0.042095 0.9986 0.9986 0.9986
v 0.011198 0.070400 -0.094506 0.8266 0.8266 0.8266
v 0.011198 0.079635 -0.094506 0.9972 0.9972 0.9972
v 0.011572 0.079635 -0.145913 0.9958 0.9958 0.9958
v 0.011572 0.079635 -0.156298 0.9795 0.9795 0.9795
v 0.011198 0.044109 0.004054 0.9075 0.9075 0.9075
v 0.011198 0.049954 0.011781 0.9268 0.9268 0.9268
v 0.011198 0.048964 0.000586 0.9593 0.9593 0.9593
v 0.011198 0.066388 -0.011722 0.9734 0.9734 0.9734
v 0.011198 0.079377 -0.022496 0.9963 0.9963 0.9963
v 0.011198 0.032971 0.003168 0.8889 0.8889 0.8889
v 0.011198 -0.017791 -0.007413 0.7933 0.7933 0.7933
v 0.011198 -0.034910 0.005902 0.9889 0.9889 0.9889
v 0.011198 -0.017791 0.035503 0.8937 0.8937 0.8937
v 0.011198 -0.034910 0.036454 0.9833 0.9833 0.9833
v -0.012863 0.002185 -0.151430 0.9833 0.9833 0.9833
v -0.012863 0.012371 -0.145913 0.8336 0.8336 0.8336
v -0.011198 0.002185 -0.127717 0.0000 0.0000 0.0000
v -0.011198 0.012371 -0.127717 0.7615 0.7615 0.7615
v -0.011198 0.008747 -0.117018 0.8231 0.8231 0.8231
v -0.011198 0.012371 -0.117018 0.7595 0.7595 0.7595
v -0.011198 0.008747 -0.088343 0.8354 0.8354 0.8354
v -0.011198 0.012371 -0.090055 0.8266 0.8266 0.8266
v -0.011198 0.021528 -0.090055 0.7394 0.7394 0.7394
v -0.011198 0.021528 -0.080783 0.8529 0.8529 0.8529
v -0.015776 0.041152 -0.145913 0.6534 0.6534 0.6534
v -0.015776 0.041152 -0.158297 0.9172 0.9172 0.9172
v -0.012863 0.035453 -0.155755 0.8905 0.8905 0.8905
v -0.012863 0.035453 -0.145913 0.6160 0.6160 0.6160
v -0.006944 0.063573 -0.145913 0.6558 0.6558 0.6558
v -0.006944 0.063573 -0.156298 0.8336 0.8336 0.8336
v -0.015776 0.058441 -0.145913 0.8159 0.8159 0.8159
v -0.015776 0.058441 -0.158297 0.9324 0.9324 0.9324
v -0.012863 0.022733 -0.145913 0.7353 0.7353 0.7353
v -0.012863 0.022733 -0.158380 0.9517 0.9517 0.9517
v -0.011572 0.070400 -0.145913 0.8195 0.8195 0.8195
v -0.011572 0.070400 -0.156298 0.9399 0.9399 0.9399
v -0.012863 0.012723 -0.157891 0.9791 0.9791 0.9791
v -0.011198 0.033625 -0.090055 0.6339 0.6339 0.6339
v -0.011198 0.033625 -0.074788 0.8610 0.8610 0.8610
v -0.011198 0.021528 -0.068294 0.8231 0.8231 0.8231
v -0.011198 0.023346 -0.068294 0.8371 0.8371 0.8371
v -0.011198 0.022030 -0.042066 0.7353 0.7353 0.7353
v -0.011198 0.023346 -0.043165 0.8123 0.8123 0.8123
v -0.011198 0.032971 -0.037146 0.8284 0.8284 0.8284
v -0.011198 0.032971 -0.034518 0.8475 0.8475 0.8475
v -0.011198 0.044109 -0.090055 0.6314 0.6314 0.6314
v -0.011198 0.044109 -0.067853 0.8690 0.8690 0.8690
v -0.011198 0.044109 -0.042095 0.8991 0.8991 0.8991
v -0.011198 0.066796 -0.090055 0.8475 0.8475 0.8475
v -0.011198 0.066796 -0.067853 0.9931 0.9931 0.9931
v -0.011198 0.066796 -0.042095 0.9986 0.9986 0.9986
v -0.011198 0.079635 -0.090055 0.9972 0.9972 0.9972
v -0.011198 0.079635 -0.067853 0.9986 0.9986 0.9986
v -0.011198 0.079635 -0.042095 0.9958 0.9958 0.9958
v -0.011198 0.070400 -0.094506 0.8231 0.8231 0.8231
v -0.011198 0.079635 -0.094506 0.9945 0.9945 0.9945
v -0.011572 0.079635 -0.145913 0.9958 0.9958 0.9958
v -0.011572 0.079635 -0.156298 0.9795 0.9795 0.9795
v -0.011198 0.044109 0.004054 0.9125 0.9125 0.9125
v -0.011198 0.049954 0.011781 0.9329 0.9329 0.9329
v -0.011198 0.048964 0.000586 0.9570 0.9570 0.9570
v -0.011198 0.066388 -0.011722 0.9805 0.9805 0.9805
v -0.011198 0.079377 -0.022496 0.9981 0.9981 0.9981
v -0.011198 0.032971 0.003168 0.8984 0.8984 0.8984
v -0.011198 -0.017791 -0.007413 0.7933 0.7933 0.7933
v -0.011198 -0.034910 0.005902 0.9852 0.9852 0.9852
v -0.011198 -0.017791 0.035503 0.9016 0.9016 0.9016
v -0.011198 -0.034910 0.036454 0.9814 0.9814 0.9814
v 0.000000 0.032971 -0.037146 0.7933 0.7933 0.7933
v 0.000000 0.044109 -0.042095 0.7933 0.7933 0.7933
v -0.000000 0.023636 -0.048681 0.7933 0.7933 0.7933
v 0.000000 0.041341 -0.054888 0.7933 0.7933 0.7933
v -0.000000 0.065166 -0.010680 0.7933 0.7933 0.7933
v -0.000000 0.071513 -0.000818 0.7933 0.7933 0.7933
v -0.000000 0.056884 -0.004871 0.7933 0.7933 0.7933
v -0.000000 0.063230 0.004990 0.7933 0.7933 0.7933
v 0.000000 0.032971 -0.037146 0.7933 0.7933 0.7933
v 0.000000 0.044109 -0.042095 0.7933 0.7933 0.7933
v -0.000000 0.023636 -0.048681 0.7933 0.7933 0.7933
v 0.000000 0.041341 -0.054888 0.7933 0.7933 0.7933
vn 1.0000 -0.0000 -0.0000
vn 0.6895 0.3896 0.6106
vn 0.6895 0.3896 -0.6106
vn -0.0000 0.7938 -0.6081
vn -0.0000 0.7938 0.6081
vn 0.6873 -0.3920 -0.6115
vn 0.6873 -0.3920 0.6115
vn -0.0000 -0.7942 0.6077
vn -0.0000 -0.7942 -0.6077
vn -0.6895 0.3896 0.6106
vn -0.6895 0.3896 -0.6106
vn -0.6873 -0.3920 -0.6115
vn -0.6873 -0.3920 0.6115
vn -0.6929 0.3789 -0.6134
vn -0.0000 0.7974 -0.6035
vn 0.6929 0.3789 -0.6134
vn -0.6929 -0.3789 -0.6134
vn -0.0000 -0.7974 -0.6035
vn -0.0000 -0.7974 0.6035
vn -0.6929 -0.3789 0.6134
vn 0.6929 -0.3789 -0.6134
vn -0.6929 0.3789 0.6134
vn -0.0000 0.7974 0.6035
vn 0.6929 0.3789 0.6134
vn 0.6929 -0.3789 0.6134
vn -0.0000 -0.0000 -1.0000
vn -0.6777 0.4163 -0.6061
vn -0.0000 0.7861 -0.6181
vn 0.6777 0.4163 -0.6061
vn -0.6777 -0.4163 -0.6061
vn -0.0000 -0.7861 -0.6181
vn 0.6777 -0.4163 -0.6061
vn -0.0000 -0.0000 1.0000
vn 0.6777 0.4163 0.6061
vn -0.0000 0.7861 0.6181
vn -0.6777 0.4163 0.6061
vn -0.6777 -0.4163 0.6061
vn -0.0000 -0.7861 0.6181
vn 0.6777 -0.4163 0.6061
vn 1.0000 -0.0001 -0.0020
vn 1.0000 -0.0013 -0.0010
vn 0.9988 0.0068 0.0486
vn 0.9988 -0.0188 -0.0453
vn 0.8904 -0.4551 -0.0000
vn 0.8277 -0.5611 -0.0000
vn 0.8252 -0.5594 -0.0790
vn 0.8668 -0.4980 0.0271
vn 0.5691 0.8223 -0.0000
vn 0.4626 0.8864 -0.0188
vn 0.4594 0.8882 0.0024
vn 0.5270 0.8467 0.0730
vn 1.0000 0.0006 -0.0015
vn 1.0000 -0.0001 -0.0095
vn 0.9998 -0.0170 -0.0035
vn -0.0000 0.5302 -0.8479
vn 0.9998 -0.0063 -0.0162
vn 0.9999 -0.0098 -0.0025
vn 1.0000 -0.0095 -0.0000
vn 1.0000 0.0012 0.0010
vn 0.9999 -0.0032 -0.0095
vn 1.0000 -0.0000 0.0073
vn -1.0000 -0.0000 -0.0000
vn -0.9999 -0.0057 0.0083
vn -0.0000 0.3736 0.9276
vn -0.0000 0.6375 0.7704
vn -0.9999 -0.0095 -0.0032
vn -0.0000 -0.4156 -0.9095
vn 0.0082 -0.3348 -0.9422
vn 0.0031 -0.3495 -0.9369
vn -1.0000 0.0013 0.0015
vn -1.0000 -0.0000 -0.0016
vn -0.9988 -0.0000 -0.0491
vn -0.9988 0.0475 0.0123
vn -0.8904 -0.4551 -0.0000
vn -0.8277 -0.5611 -0.0000
vn -0.8250 -0.5429 0.1569
vn -0.8799 -0.4620 -0.1113
vn -0.5924 0.7979 -0.1113
vn -0.6316 0.7751 -0.0152
vn -0.4856 0.8730 -0.0453
vn -0.4594 0.8882 -0.0000
vn -1.0000 0.0014 0.0007
vn -1.0000 -0.0066 0.0069
vn -0.9998 0.0138 0.0106
vn -0.0000 1.0000 -0.0000
vn -0.9998 -0.0048 0.0167
vn -0.9999 0.0066 -0.0076
vn -1.0000 -0.0000 0.0016
vn -1.0000 0.0067 0.0067
vn -0.9999 0.0091 0.0044
vn -1.0000 -0.0000 0.0073
vn -0.0000 -0.6664 0.7456
vn -0.0000 0.5219 0.8530
vn -0.0000 0.9992 0.0407
vn -0.0000 0.1912 0.9815
vn -0.0000 0.8222 0.5692
vn -0.0000 0.0316 -0.9995
vn -0.0000 -0.9200 -0.3920
vn -0.0000 0.7739 0.6333
vn -0.0000 1.0000 0.0001
vn -0.0700 0.0366 -0.9969
vn -0.0723 0.1399 -0.9875
vn 0.0095 -0.9998 0.0191
vn -0.0067 -0.9994 0.0352
vn -0.0161 -0.9998 0.0125
vn 0.0067 -0.9999 0.0124
vn -0.0000 0.5341 0.8454
vn 0.0161 -0.5623 0.8268
vn -0.0096 -0.5653 0.8248
vn -0.0059 -0.5745 0.8185
vn 0.0067 -0.5810 0.8139
vn -0.0000 -0.4061 -0.9138
vn -0.0000 -1.0000 -0.0000
vn -0.0000 -0.5517 0.8341
vn -0.0000 -1.0000 0.0095
vn -0.0067 -1.0000 -0.0067
vn 0.0016 -1.0000 -0.0000
vn -0.0005 -1.0000 0.0015
vn -0.0000 -0.4148 0.9099
vn -0.0015 -0.4166 0.9091
vn -0.0000 -0.4176 0.9086
vn 0.0019 -0.4168 0.9090
vn -0.0000 -0.8524 0.5228
vn -0.0000 -0.5227 -0.8525
vn -0.0000 -0.7771 -0.6294
vn 0.0443 0.0654 0.9969
vn 0.0738 0.1391 0.9875
vn -0.0486 0.0064 0.9988
vn -0.0790 -0.0000 0.9969
vn 0.0410 -0.1520 0.9875
vn 0.0491 -0.0000 0.9988
vn -0.0188 -0.0453 0.9988
vn -0.0000 -0.0491 0.9988
vn -0.0484 0.3548 -0.9337
vn -0.0015 0.3168 -0.9485
vn 0.1559 0.3377 -0.9282
vn 0.0335 0.2952 -0.9549
vn 0.0068 -0.0486 -0.9988
vn -0.0475 -0.0123 -0.9988
vn -0.0000 0.5647 0.8253
vn -0.0000 -0.7583 0.6519
vn -0.0003 -0.7583 0.6519
vn -0.0000 -0.4074 -0.9133
vn -0.0000 -0.0488 -0.9988
vn -0.0000 0.2021 -0.9794
vn -0.0000 -0.7975 0.6033
vn -0.0000 0.9961 -0.0882
vn 0.9999 0.0088 -0.0049
vn 0.9999 0.0033 0.0095
vt 0.200894 0.785232
vt 0.207187 0.871144
vt 0.162421 0.887158
vt 0.156128 0.801245
vt 0.508598 0.720335
vt 0.691303 0.720335
vt 0.691303 0.824511
vt 0.508598 0.824512
vt 0.682690 0.513175
vt 0.682690 0.720335
vt 0.508598 0.513175
vt 0.691303 0.513175
vt 0.508598 0.408999
vt 0.691303 0.408999
vt 0.931537 0.985333
vt 0.931537 0.925444
vt 0.931537 0.806350
vt 0.931537 0.746461
vt 0.676538 0.513175
vt 0.676538 0.720335
vt 0.476866 0.854089
vt 0.211788 0.851372
vt 0.279408 0.743164
vt 0.411573 0.743818
vt 0.293503 0.923578
vt 0.268004 0.836673
vt 0.293503 0.749769
vt 0.974789 0.570757
vt 0.974789 0.528682
vt 0.765925 0.528682
vt 0.765925 0.570757
vt 0.371248 0.836673
vt 0.345748 0.923578
vt 0.345748 0.749769
vt 0.974789 0.656964
vt 0.765925 0.656964
vt 0.974789 0.699039
vt 0.765925 0.699039
vt 0.324631 0.837845
vt 0.294931 0.802448
vt 0.324631 0.769566
vt 0.354330 0.802448
vt 0.294931 0.873241
vt 0.324631 0.906128
vt 0.354330 0.873241
vt 0.754654 0.769941
vt 0.754654 0.792143
vt 0.754654 0.812768
vt 0.754654 0.747739
vt 0.754654 0.727111
vt 0.970147 0.792143
vt 0.970147 0.747739
vt 0.970147 0.727111
vt 0.970147 0.812768
vt 0.690887 0.295785
vt 0.690887 0.384715
vt 0.641678 0.388723
vt 0.641678 0.299793
vt 0.600875 0.388723
vt 0.600875 0.357083
vt 0.498052 0.388723
vt 0.498052 0.357083
vt 0.469399 0.381131
vt 0.499508 0.403470
vt 0.482456 0.492713
vt 0.467246 0.497364
vt 0.742701 0.664037
vt 0.742701 0.814973
vt 0.695474 0.814973
vt 0.695474 0.664037
vt 0.695474 0.614284
vt 0.733007 0.614284
vt 0.706483 0.504956
vt 0.727521 0.416026
vt 0.738401 0.483979
vt 0.743018 0.503229
vt 0.695474 0.503229
vt 0.735078 0.919377
vt 0.695474 0.919377
vt 0.695474 0.859776
vt 0.735078 0.859776
vt 0.695474 0.412771
vt 0.741154 0.415843
vt 0.482456 0.598318
vt 0.452135 0.579715
vt 0.398091 0.454637
vt 0.398091 0.473512
vt 0.323820 0.477520
vt 0.321464 0.460018
vt 0.435687 0.895743
vt 0.406760 0.895743
vt 0.406760 0.778385
vt 0.435687 0.778385
vt 0.295359 0.539510
vt 0.297953 0.501676
vt 0.482456 0.648769
vt 0.441191 0.636367
vt 0.434782 0.538198
vt 0.434249 0.481691
vt 0.287521 0.605919
vt 0.301737 0.592616
vt 0.322951 0.648769
vt 0.402436 0.672022
vt 0.399336 0.849153
vt 0.301107 0.849153
vt 0.327601 0.672022
vt 0.468504 0.672022
vt 0.465403 0.849153
vt 0.397785 0.819772
vt 0.397785 0.931861
vt 0.299556 0.931861
vt 0.299556 0.819772
vt 0.482456 0.819772
vt 0.482456 0.931861
vt 0.499429 0.851241
vt 0.499429 0.931864
vt 0.695474 0.871281
vt 0.735078 0.871281
vt 0.735078 0.931864
vt 0.695474 0.931864
vt 0.166159 0.580570
vt 0.148333 0.642757
vt 0.301106 0.648769
vt 0.256210 0.559792
vt 0.118864 0.693785
vt 0.188059 0.694263
vt 0.299556 0.929857
vt 0.299556 0.817768
vt 0.215374 0.817214
vt 0.224814 0.927608
vt 0.198254 0.733232
vt 0.215374 0.887355
vt 0.299556 0.887908
vt 0.174183 0.644347
vt 0.289455 0.647974
vt 0.161845 0.659270
vt 0.158318 0.166056
vt 0.248968 0.571988
vt 0.180829 0.644592
vt 0.090179 0.238660
vt 0.187680 0.149451
vt 0.133991 0.020678
vt 0.017476 0.020678
vt 0.038579 0.154223
vt 0.080339 0.232646
vt 0.170572 0.202361
vt 0.234301 0.486559
vt 0.144067 0.516844
vt 0.686299 0.323841
vt 0.626081 0.323841
vt 0.626081 0.390727
vt 0.686299 0.390727
vt 0.585279 0.359087
vt 0.585279 0.390727
vt 0.482456 0.359087
vt 0.482456 0.390727
vt 0.473460 0.498572
vt 0.482456 0.412771
vt 0.703731 0.664037
vt 0.703731 0.814973
vt 0.703731 0.614284
vt 0.638593 0.370687
vt 0.684273 0.373758
vt 0.643180 0.297789
vt 0.703731 0.503229
vt 0.703731 0.859776
vt 0.703731 0.919377
vt 0.744823 0.423859
vt 0.707400 0.398743
vt 0.465348 0.495099
vt 0.451259 0.599546
vt 0.412210 0.451358
vt 0.317286 0.455738
vt 0.321477 0.467227
vt 0.412210 0.467227
vt 0.346479 0.895743
vt 0.346479 0.778386
vt 0.551661 0.498706
vt 0.524445 0.583674
vt 0.530287 0.597411
vt 0.555852 0.510195
vt 0.436611 0.601499
vt 0.423271 0.664675
vt 0.432704 0.540952
vt 0.443034 0.454036
vt 0.556234 0.710029
vt 0.321859 0.667061
vt 0.310299 0.853729
vt 0.410481 0.815643
vt 0.397785 0.817768
vt 0.468504 0.817768
vt 0.465403 0.695275
vt 0.397785 0.929857
vt 0.482456 0.929857
vt 0.482456 0.817768
vt 0.499429 0.929860
vt 0.499429 0.849237
vt 0.695474 0.929860
vt 0.735078 0.929860
vt 0.695474 0.849237
vt 0.268462 0.703503
vt 0.204693 0.680672
vt 0.115952 0.671516
vt 0.195341 0.710964
vt 0.466459 0.843284
vt 0.428099 0.843284
vt 0.428099 0.747541
vt 0.466459 0.747541
vt 0.056367 0.125745
vt 0.146601 0.095460
vt 0.224814 0.997748
vt 0.164030 0.659270
vt 0.293096 0.651155
vt 0.207365 0.874630
vt 0.377689 0.843284
vt 0.377689 0.747541
vt 0.334237 0.843283
vt 0.334237 0.747541
vt 0.325526 0.843283
vt 0.325526 0.747541
vt 0.224919 0.844883
vt 0.224919 0.745942
vt 0.204595 0.844883
vt 0.204595 0.745942
vt 0.294509 0.920020
vt 0.294509 0.837485
vt 0.389202 0.837485
vt 0.389202 0.920020
vt 0.313445 0.776471
vt 0.370266 0.776471
vt 0.399467 0.492713
vt 0.299446 0.497093
vt 0.317551 0.895743
vt 0.317551 0.778386
vt 0.618786 0.537398
vt 0.575551 0.600097
vt 0.464297 0.778385
vt 0.464297 0.895743
vt 0.290491 0.778386
vt 0.290491 0.895743
vt 0.230028 0.895743
vt 0.230029 0.778386
vt 0.447093 0.492713
vt 0.488109 0.492713
vt 0.493968 0.445838
vt 0.654389 0.385623
vt 0.598705 0.385623
vt 0.598705 0.262118
vt 0.654389 0.262118
vt 0.471493 0.385623
vt 0.471493 0.262118
vt 0.735116 0.394805
vt 0.735116 0.252936
vt 0.732830 0.844899
vt 0.705190 0.844899
vt 0.705190 0.766784
vt 0.732830 0.766784
vt 0.626081 0.412771
vt 0.585279 0.412771
vt 0.482456 0.887908
vt 0.482456 0.729379
vt 0.499429 0.919377
vt 0.735960 0.472692
vt 0.702061 0.472692
vt 0.711550 0.437889
vt 0.726471 0.437889
vt 0.735960 0.581944
vt 0.702061 0.581944
vt 0.064733 0.124714
vt 0.132872 0.052111
vt 0.732830 0.621377
vt 0.705190 0.621377
vt 0.705190 0.703456
vt 0.732830 0.703456
vt 0.208096 0.716442
vt 0.233023 0.673278
vt 0.164255 0.812066
vt 0.084865 0.772619
vt 0.288727 0.640816
vt 0.171270 0.622079
vt 0.224814 0.929612
vt 0.215374 0.819218
vt 0.307475 0.557098
vt 0.320095 0.640262
vt 0.359634 0.618410
vt 0.340151 0.494689
vt 0.950308 0.965183
vt 0.950308 0.758023
s 1
usemtl gun1
f 15/19/12 14/11/13 16/5/10 13/20/11
s 0
f 43/55/1 44/56/1 46/57/1 45/58/1
f 45/58/1 46/57/1 48/59/1 47/60/1
f 47/60/1 48/59/1 50/61/1 49/62/1
f 49/63/40 50/64/1 51/65/1 52/66/41
f 54/67/1 60/68/42 59/69/43 53/70/1
f 56/71/44 55/72/44 54/67/44 53/70/44
f 44/73/1 43/74/1 65/75/1
f 62/76/1 55/72/1 56/71/1 61/77/1
f 64/78/45 63/79/45 57/80/46 58/81/47
f 61/77/1 44/82/1 65/83/1 62/76/1
f 52/66/52 51/65/1 66/84/1 67/85/1
f 68/86/53 69/87/1 71/88/1 70/89/54
f 70/89/56 71/88/1 72/94/1 73/95/57
f 67/85/1 66/84/1 74/96/1 75/97/1
f 67/98/1 69/87/1 68/86/58 52/99/59
f 73/100/60 72/101/1 76/102/1
f 75/103/1 78/104/1 79/105/1 76/106/1
f 75/103/1 74/107/1 77/108/1 78/104/1
f 78/109/1 81/110/1 82/111/1 79/112/1
f 78/109/1 77/113/1 80/114/1 81/110/1
f 80/114/1 77/113/1 83/115/1 84/116/1
f 63/117/1 64/118/1 86/119/1 85/120/1
f 83/115/61 63/117/61 85/120/61 84/116/61
f 88/125/1 87/122/1 89/126/1
f 87/134/1 76/135/1 89/136/1
f 89/212/1 76/213/1 79/133/1 90/214/1
f 46/258/85 44/82/85 98/82/85 100/258/85
f 48/259/85 46/258/85 100/258/85 102/259/85
f 50/158/85 48/259/85 102/259/85 104/158/85
f 51/65/26 50/158/26 104/158/26 105/65/26
f 66/84/26 51/65/26 105/65/26 120/84/26
f 74/96/26 66/84/26 120/84/26 128/96/26
f 77/260/26 74/261/26 128/261/26 131/260/26
f 83/262/125 77/260/125 131/260/125 137/262/125
f 63/79/113 83/262/113 137/262/113 117/79/113
f 93/141/1 95/144/1 96/143/1 94/142/1
f 92/121/1 73/100/148 76/279/1 87/280/1
f 82/111/1 91/281/1 90/282/1 79/112/1
f 92/121/1 95/144/1 93/141/1 73/124/149
s 1
usemtl gun2
f 29/54/28 33/51/27 41/47/36 37/48/35
f 32/51/29 29/54/28 37/48/35 36/47/34
s 0
f 146/121/62 141/122/62 130/123/62 127/124/63
f 136/127/62 133/128/62 144/129/62 145/130/62
f 143/131/62 144/132/62 133/133/62 130/123/62
f 147/141/62 148/142/62 150/143/62 149/144/62
f 127/124/66 147/141/62 149/144/62 146/121/62
f 97/149/62 99/150/62 100/151/62 98/152/62
f 99/150/62 101/153/62 102/154/62 100/151/62
f 101/153/62 103/155/62 104/156/62 102/154/62
f 103/63/70 106/157/71 105/65/62 104/158/62
f 108/67/62 107/159/62 113/160/72 114/68/73
f 110/161/74 107/159/74 108/67/74 109/72/74
f 98/162/62 119/163/62 97/164/62
f 116/76/62 115/165/62 110/161/62 109/72/62
f 118/78/75 112/81/76 111/166/77 117/167/75
f 115/165/62 116/76/62 119/168/62 98/169/62
f 106/170/82 121/171/62 120/84/62 105/65/62
f 122/172/83 124/173/84 125/174/62 123/175/62
f 71/91/85 69/176/85 123/177/85 125/92/85
f 121/182/62 129/183/62 128/96/62 120/84/62
f 121/184/62 106/185/88 122/172/89 123/175/62
f 129/183/62 130/187/62 133/188/62 132/189/62
f 129/183/62 132/190/62 131/191/62 128/192/62
f 132/190/62 133/128/62 136/127/62 135/193/62
f 132/190/62 135/193/62 134/194/62 131/195/62
f 134/194/62 138/196/62 137/197/62 131/195/62
f 117/117/62 139/198/62 140/199/62 118/118/62
f 137/197/91 138/196/91 139/198/91 117/200/91
f 142/203/62 143/204/62 141/122/62
f 90/132/95 144/132/95 143/131/96 89/131/96
f 141/122/62 143/131/62 130/123/62
f 91/211/99 145/211/99 144/132/99 90/132/99
f 68/231/103 70/232/104 124/232/105 122/231/106
f 69/176/107 67/233/107 121/234/107 123/177/107
f 129/239/113 75/240/113 76/241/113 130/242/113
f 129/239/114 121/234/114 67/233/114 75/240/114
f 68/231/115 122/231/116 106/243/117 52/243/118
f 49/63/119 52/244/120 106/245/121 103/63/122
f 45/246/123 47/247/123 101/248/123 99/249/123
f 47/247/113 49/250/113 103/251/113 101/248/113
f 43/252/113 45/246/113 99/249/113 97/253/113
f 96/143/113 150/143/113 148/142/113 94/142/113
s 1
usemtl gun3
f 8/5/2 5/6/3 9/7/4 12/8/5
f 7/12/6 6/11/7 10/13/8 11/14/9
f 9/15/4 5/16/3 7/17/6 11/18/9
f 16/5/10 12/8/5 9/7/4 13/6/11
f 15/12/12 11/14/9 10/13/8 14/11/13
f 9/21/4 11/22/9 15/23/12 13/24/11
f 20/28/17 17/29/18 23/30/19 28/31/20
f 18/37/15 19/35/14 26/36/22 25/38/23
f 21/35/16 18/37/15 25/38/23 27/36/24
f 17/29/18 22/28/21 24/31/25 23/30/19
f 33/51/27 34/52/30 38/49/37 41/47/36
s 0
f 57/80/48 59/69/49 60/68/50 58/81/51
f 95/137/64 92/138/65 146/139/65 149/140/64
f 93/145/67 147/146/67 127/147/68 73/148/69
f 111/166/78 112/81/79 114/68/80 113/160/81
f 87/201/92 141/202/92 146/139/93 92/138/93
f 91/205/85 82/206/94 136/207/94 145/208/85
f 147/146/97 93/145/97 94/209/98 148/210/98
f 82/206/85 81/215/85 135/216/85 136/207/85
f 81/215/85 80/217/85 134/218/85 135/216/85
f 80/217/100 84/219/100 138/220/100 134/218/100
f 85/221/85 139/222/85 138/220/85 84/219/85
f 86/223/85 140/224/85 139/222/85 85/221/85
f 95/137/140 149/140/140 150/269/141 96/270/142
f 88/275/146 142/275/146 141/276/146 87/276/146
s 1
f 12/8/5 16/5/10 8/5/2
f 8/287/2 16/287/10 14/288/13 6/288/7
f 10/13/8 6/11/7 14/11/13
s 0
usemtl gun4
f 3/1/1 1/2/1 2/3/1 4/4/1
s 1
f 7/9/6 5/10/3 8/5/2 6/11/7
f 19/25/14 18/26/15 21/27/16
f 17/32/18 20/33/17 22/34/21
f 19/35/14 20/28/17 28/31/20 26/36/22
f 23/30/19 24/31/25 28/31/20
f 22/28/21 21/35/16 27/36/24 24/31/25
f 27/36/24 26/36/22 28/31/20 24/31/25
f 26/36/22 27/36/24 25/38/23
f 21/27/16 22/34/21 20/33/17 19/25/14
f 35/39/26 33/40/27 29/41/28 32/42/29
f 34/43/30 33/40/27 35/39/26
f 30/44/31 34/43/30 35/39/26 31/45/32
f 31/45/32 35/39/26 32/42/29
f 42/46/33 36/47/34 37/48/35 41/47/36
f 38/49/37 42/46/33 41/47/36
f 39/50/38 40/49/39 42/46/33 38/49/37
f 40/49/39 36/47/34 42/46/33
f 31/52/32 32/51/29 36/47/34 40/49/39
f 34/52/30 30/53/31 39/50/38 38/49/37
f 30/53/31 31/52/32 40/49/39 39/50/38
s 0
f 72/90/55 71/91/55 125/92/55 126/93/55
f 124/178/86 127/179/87 126/180/62 125/181/62
f 127/179/90 130/186/62 126/180/62
f 86/225/26 64/226/26 118/227/26 140/228/26
f 58/229/101 112/230/102 118/227/26 64/226/26
f 70/235/108 73/236/109 127/236/110 124/235/111
f 130/237/112 76/238/112 72/90/112 126/93/112
f 43/254/124 97/255/124 119/256/124 65/257/124
f 57/80/126 63/79/33 117/79/33 111/80/127
f 59/69/128 57/80/129 111/80/130 113/69/131
f 59/69/132 113/69/133 107/70/33 53/70/33
f 53/70/33 107/70/33 110/71/33 56/71/33
f 61/77/33 56/71/33 110/71/33 115/77/33
f 44/82/33 61/77/33 115/77/33 98/82/33
f 60/263/134 114/264/135 112/265/136 58/266/137
f 60/263/138 54/267/26 108/268/26 114/264/139
f 54/267/143 55/271/143 109/272/143 108/268/143
f 65/257/144 119/256/144 116/273/144 62/274/144
f 62/274/145 116/273/145 109/272/145 55/271/145
f 89/277/147 143/277/147 142/278/147 88/278/147
f 151/283/62 152/284/62 154/285/62 153/286/62
f 157/1/62 158/4/62 156/3/62 155/2/62
f 159/283/1 161/286/1 162/285/1 160/284/1
