# Blender 3.6.0
# www.blender.org
mtllib test.mtl
o Plane
v -2.000000 0.000000 2.000000 0.2000 0.2000 0.2000
v 2.000000 0.000000 2.000000 0.2000 0.2000 0.2000
v -2.000000 -0.000000 -2.000000 0.2000 0.2000 0.2000
v 2.000000 -0.000000 -2.000000 0.2000 0.2000 0.2000
v -2.000000 -0.000000 -1.555556 0.2000 0.2000 0.2000
v -2.000000 -0.000000 -1.111111 0.2000 0.2000 0.2000
v -2.000000 -0.000000 -0.666667 0.2000 0.2000 0.2000
v -2.000000 -0.000000 -0.222222 0.2000 0.2000 0.2000
v -2.000000 0.000000 0.222222 0.2000 0.2000 0.2000
v -2.000000 0.000000 0.666667 0.2000 0.2000 0.2000
v -2.000000 0.000000 1.111111 0.2000 0.2000 0.2000
v -2.000000 0.000000 1.555556 0.2000 0.2000 0.2000
v -1.555556 0.000000 2.000000 0.2000 0.2000 0.2000
v -1.111111 0.000000 2.000000 0.2000 0.2000 0.2000
v -0.666667 0.000000 2.000000 0.2000 0.2000 0.2000
v -0.222222 0.000000 2.000000 0.2000 0.2000 0.2000
v 0.222222 0.000000 2.000000 0.2000 0.2000 0.2000
v 0.666667 0.000000 2.000000 0.2000 0.2000 0.2000
v 1.111111 0.000000 2.000000 0.2000 0.2000 0.2000
v 1.555556 0.000000 2.000000 0.2000 0.2000 0.2000
v 2.000000 0.000000 1.555556 0.2000 0.2000 0.2000
v 2.000000 0.000000 1.111111 0.2000 0.2000 0.2000
v 2.000000 0.000000 0.666667 0.2000 0.2000 0.2000
v 2.000000 0.000000 0.222222 0.2000 0.2000 0.2000
v 2.000000 -0.000000 -0.222222 0.2000 0.2000 0.2000
v 2.000000 -0.000000 -0.666667 0.2000 0.2000 0.2000
v 2.000000 -0.000000 -1.111111 0.2000 0.2000 0.2000
v 2.000000 -0.000000 -1.555556 0.2000 0.2000 0.2000
v 1.555556 -0.000000 -2.000000 0.2000 0.2000 0.2000
v 1.111111 -0.000000 -2.000000 0.2000 0.2000 0.2000
v 0.666667 -0.000000 -2.000000 0.2000 0.2000 0.2000
v 0.222222 -0.000000 -2.000000 0.2000 0.2000 0.2000
v -0.222222 -0.000000 -2.000000 0.2000 0.2000 0.2000
v -0.666667 -0.000000 -2.000000 0.2000 0.2000 0.2000
v -1.111111 -0.000000 -2.000000 0.2000 0.2000 0.2000
v -1.555556 -0.000000 -2.000000 0.2000 0.2000 0.2000
v -1.555556 0.000000 1.555556 0.2000 0.2000 0.2000
v -1.555556 0.000000 1.111111 0.2000 0.2000 0.2000
v -1.555556 0.000000 0.666667 0.2000 0.2000 0.2000
v -1.555556 0.000000 0.222222 0.2000 0.2000 0.2000
v -1.555556 -0.000000 -0.222222 0.2000 0.2000 0.2000
v -1.555556 -0.000000 -0.666667 0.2000 0.2000 0.2000
v -1.555556 -0.000000 -1.111111 0.2000 0.2000 0.2000
v -1.555556 -0.000000 -1.555556 0.2000 0.2000 0.2000
v -1.111111 0.000000 1.555556 0.2000 0.2000 0.2000
v -1.111111 0.000000 1.111111 0.2000 0.2000 0.2000
v -1.111111 0.000000 0.666667 0.2000 0.2000 0.2000
v -1.111111 0.000000 0.222222 0.2000 0.2000 0.2000
v -1.111111 -0.000000 -0.222222 0.2000 0.2000 0.2000
v -1.111111 -0.000000 -0.666667 0.2000 0.2000 0.2000
v -1.111111 -0.000000 -1.111111 0.2000 0.2000 0.2000
v -1.111111 -0.000000 -1.555556 0.2000 0.2000 0.2000
v -0.666667 0.000000 1.555556 0.2000 0.2000 0.2000
v -0.666667 0.000000 1.111111 0.2000 0.2000 0.2000
v -0.666667 0.000000 0.666667 0.2000 0.2000 0.2000
v -0.666667 0.000000 0.222222 0.2000 0.2000 0.2000
v -0.666667 -0.000000 -0.222222 0.2000 0.2000 0.2000
v -0.666667 -0.000000 -0.666667 0.2000 0.2000 0.2000
v -0.666667 -0.000000 -1.111111 0.2000 0.2000 0.2000
v -0.666667 -0.000000 -1.555556 0.2000 0.2000 0.2000
v -0.222222 0.000000 1.555556 0.2000 0.2000 0.2000
v -0.222222 0.000000 1.111111 0.2000 0.2000 0.2000
v -0.222222 0.000000 0.666667 0.2000 0.2000 0.2000
v -0.222222 0.000000 0.222222 0.2000 0.2000 0.2000
v -0.222222 -0.000000 -0.222222 0.2000 0.2000 0.2000
v -0.222222 -0.000000 -0.666667 0.2000 0.2000 0.2000
v -0.222222 -0.000000 -1.111111 0.2000 0.2000 0.2000
v -0.222222 -0.000000 -1.555556 0.2000 0.2000 0.2000
v 0.222222 0.000000 1.555556 0.2000 0.2000 0.2000
v 0.222222 0.000000 1.111111 0.2000 0.2000 0.2000
v 0.222222 0.000000 0.666667 0.2000 0.2000 0.2000
v 0.222222 0.000000 0.222222 0.2000 0.2000 0.2000
v 0.222222 -0.000000 -0.222222 0.2000 0.2000 0.2000
v 0.222222 -0.000000 -0.666667 0.2000 0.2000 0.2000
v 0.222222 -0.000000 -1.111111 0.2000 0.2000 0.2000
v 0.222222 -0.000000 -1.555556 0.2000 0.2000 0.2000
v 0.666667 0.000000 1.555556 0.2000 0.2000 0.2000
v 0.666667 0.000000 1.111111 0.2000 0.2000 0.2000
v 0.666667 0.000000 0.666667 0.2000 0.2000 0.2000
v 0.666667 0.000000 0.222222 0.2000 0.2000 0.2000
v 0.666667 -0.000000 -0.222222 0.2000 0.2000 0.2000
v 0.666667 -0.000000 -0.666667 0.2000 0.2000 0.2000
v 0.666667 -0.000000 -1.111111 0.2000 0.2000 0.2000
v 0.666667 -0.000000 -1.555556 0.2000 0.2000 0.2000
v 1.111111 0.000000 1.555556 0.2000 0.2000 0.2000
v 1.111111 0.000000 1.111111 0.2000 0.2000 0.2000
v 1.111111 0.000000 0.666667 0.2000 0.2000 0.2000
v 1.111111 0.000000 0.222222 0.2000 0.2000 0.2000
v 1.111111 -0.000000 -0.222222 0.2000 0.2000 0.2000
v 1.111111 -0.000000 -0.666667 0.2000 0.2000 0.2000
v 1.111111 -0.000000 -1.111111 0.2000 0.2000 0.2000
v 1.111111 -0.000000 -1.555556 0.2000 0.2000 0.2000
v 1.555556 0.000000 1.555556 0.2000 0.2000 0.2000
v 1.555556 0.000000 1.111111 0.2000 0.2000 0.2000
v 1.555556 0.000000 0.666667 0.2000 0.2000 0.2000
v 1.555556 0.000000 0.222222 0.2000 0.2000 0.2000
v 1.555556 -0.000000 -0.222222 0.2000 0.2000 0.2000
v 1.555556 -0.000000 -0.666667 0.2000 0.2000 0.2000
v 1.555556 -0.000000 -1.111111 0.2000 0.2000 0.2000
v 1.555556 -0.000000 -1.555556 0.2000 0.2000 0.2000
v -1.555556 0.000000 1.555556 0.5130 0.5130 0.5130
v -1.555556 0.000000 1.111111 0.0000 0.0000 0.0000
v -1.555556 0.000000 0.666667 0.7113 0.7113 0.7113
v -1.555556 0.000000 0.222222 0.0000 0.0000 0.0000
v -1.555556 -0.000000 -0.222222 0.5887 0.5887 0.5887
v -1.555556 -0.000000 -0.666667 0.0000 0.0000 0.0000
v -1.555556 -0.000000 -1.111111 0.6376 0.6376 0.6376
v -1.555556 -0.000000 -1.555556 0.3548 0.3548 0.3548
v -1.111111 0.000000 1.555556 0.5337 0.5337 0.5337
v -1.111111 0.000000 1.111111 0.4307 0.4307 0.4307
v -1.111111 0.000000 0.666667 0.7297 0.7297 0.7297
v -1.111111 0.000000 0.222222 0.7161 0.7161 0.7161
v -1.111111 -0.000000 -0.222222 0.4942 0.4942 0.4942
v -1.111111 -0.000000 -0.666667 0.7138 0.7138 0.7138
v -1.111111 -0.000000 -1.111111 0.5920 0.5920 0.5920
v -1.111111 -0.000000 -1.555556 0.6616 0.6616 0.6616
v -1.555556 0.500000 1.555556 0.8235 0.8235 0.8235
v -1.555556 0.500000 1.111111 0.7136 0.7136 0.7136
v -1.555556 0.500000 0.666667 0.8398 0.8398 0.8398
v -1.555556 0.500000 0.222222 0.8487 0.8487 0.8487
v -1.555556 0.500000 -0.222222 0.8275 0.8275 0.8275
v -1.555556 0.500000 -0.666667 0.8225 0.8225 0.8225
v -1.555556 0.500000 -1.111111 0.8154 0.8154 0.8154
v -1.555556 0.500000 -1.555556 0.8153 0.8153 0.8153
v -1.111111 0.500000 1.555556 0.9091 0.9091 0.9091
v -1.111111 0.500000 1.111111 0.8836 0.8836 0.8836
v -1.333333 0.500000 0.666667 0.8425 0.8425 0.8425
v -1.333333 0.500000 0.222222 0.8543 0.8543 0.8543
v -1.444444 0.500000 -0.222222 0.8275 0.8275 0.8275
v -1.444444 0.500000 -0.666667 0.8225 0.8225 0.8225
v -1.500000 0.500000 -1.111111 0.8189 0.8189 0.8189
v -1.500000 0.500000 -1.555556 0.8151 0.8151 0.8151
v -1.333333 0.000000 0.666667 0.6780 0.6780 0.6780
v -1.333333 0.000000 0.222222 0.6170 0.6170 0.6170
v -1.444444 -0.000000 -0.222222 0.5053 0.5053 0.5053
v -1.444444 -0.000000 -0.666667 0.0000 0.0000 0.0000
v -1.500000 -0.000000 -1.111111 0.6022 0.6022 0.6022
v -1.500000 -0.000000 -1.555556 0.3461 0.3461 0.3461
v -1.111111 1.631017 1.555556 0.5337 0.5337 0.5337
v -1.111111 1.631017 1.111111 0.4307 0.4307 0.4307
v -1.111111 2.131017 1.555556 0.9091 0.9091 0.9091
v -1.111111 1.940636 0.620989 0.5337 0.5337 0.5337
v -1.111111 1.500536 0.586177 0.4307 0.4307 0.4307
v -1.111111 1.951881 0.167848 0.9091 0.9091 0.9091
v -1.111111 1.969290 -0.680746 0.5337 0.5337 0.5337
v -1.111111 1.931983 -0.305925 0.4307 0.4307 0.4307
v -1.111111 1.491780 -0.638775 0.9091 0.9091 0.9091
v -1.111111 1.659672 -1.775869 0.5337 0.5337 0.5337
v -1.111111 2.062464 -1.810681 0.4307 0.4307 0.4307
v -1.111111 1.670916 -1.280757 0.9091 0.9091 0.9091
vn -0.0000 1.0000 -0.0000
vn -1.0000 -0.0000 -0.0000
vn -0.0000 -0.0000 1.0000
vn 0.9138 0.4061 -0.0000
vn -0.0000 -0.0000 -1.0000
vn 0.8321 0.5547 -0.0000
vn 0.7894 0.6139 -0.0000
vn 1.0000 -0.0000 -0.0000
vt 0.888889 0.888889
vt 1.000000 0.888889
vt 1.000000 1.000000
vt 0.888889 1.000000
vt 0.000000 0.888889
vt 0.111111 0.888889
vt 0.111111 1.000000
vt 0.000000 1.000000
vt 0.222222 0.888889
vt 0.222222 1.000000
vt 0.333333 0.888889
vt 0.333333 1.000000
vt 0.444444 0.888889
vt 0.444444 1.000000
vt 0.555556 0.888889
vt 0.555556 1.000000
vt 0.666667 0.888889
vt 0.666667 1.000000
vt 0.777778 0.888889
vt 0.777778 1.000000
vt 0.000000 0.000000
vt 0.111111 0.000000
vt 0.111111 0.111111
vt 0.000000 0.111111
vt 0.111111 0.222222
vt 0.000000 0.222222
vt 0.111111 0.333333
vt 0.000000 0.333333
vt 0.111111 0.444444
vt 0.000000 0.444444
vt 0.111111 0.555556
vt 0.000000 0.555556
vt 0.111111 0.666667
vt 0.000000 0.666667
vt 0.111111 0.777778
vt 0.000000 0.777778
vt 0.222222 0.000000
vt 0.222222 0.111111
vt 0.222222 0.222222
vt 0.222222 0.333333
vt 0.222222 0.444444
vt 0.222222 0.555556
vt 0.222222 0.666667
vt 0.222222 0.777778
vt 0.333333 0.000000
vt 0.333333 0.111111
vt 0.333333 0.222222
vt 0.333333 0.333333
vt 0.333333 0.444444
vt 0.333333 0.555556
vt 0.333333 0.666667
vt 0.333333 0.777778
vt 0.444444 0.000000
vt 0.444444 0.111111
vt 0.444444 0.222222
vt 0.444444 0.333333
vt 0.444444 0.444444
vt 0.444444 0.555556
vt 0.444444 0.666667
vt 0.444444 0.777778
vt 0.555556 0.000000
vt 0.555556 0.111111
vt 0.555556 0.222222
vt 0.555556 0.333333
vt 0.555556 0.444444
vt 0.555556 0.555556
vt 0.555556 0.666667
vt 0.555556 0.777778
vt 0.666667 0.000000
vt 0.666667 0.111111
vt 0.666667 0.222222
vt 0.666667 0.333333
vt 0.666667 0.444444
vt 0.666667 0.555556
vt 0.666667 0.666667
vt 0.666667 0.777778
vt 0.777778 0.000000
vt 0.777778 0.111111
vt 0.777778 0.222222
vt 0.777778 0.333333
vt 0.777778 0.444444
vt 0.777778 0.555556
vt 0.777778 0.666667
vt 0.777778 0.777778
vt 0.888889 0.000000
vt 0.888889 0.111111
vt 0.888889 0.222222
vt 0.888889 0.333333
vt 0.888889 0.444444
vt 0.888889 0.555556
vt 0.888889 0.666667
vt 0.888889 0.777778
vt 1.000000 0.000000
vt 1.000000 0.111111
vt 1.000000 0.222222
vt 1.000000 0.333333
vt 1.000000 0.444444
vt 1.000000 0.555556
vt 1.000000 0.666667
vt 1.000000 0.777778
vt 0.125000 0.888889
vt 0.166667 0.333333
vt 0.166667 0.444444
vt 0.138889 0.666667
vt 0.125000 0.777778
vt 0.138889 0.555556
s 0
usemtl Material.001
f 100/1/1 28/2/1 4/3/1 29/4/1
f 5/5/1 44/6/1 36/7/1 3/8/1
f 44/6/1 52/9/1 35/10/1 36/7/1
f 52/9/1 60/11/1 34/12/1 35/10/1
f 60/11/1 68/13/1 33/14/1 34/12/1
f 68/13/1 76/15/1 32/16/1 33/14/1
f 76/15/1 84/17/1 31/18/1 32/16/1
f 84/17/1 92/19/1 30/20/1 31/18/1
f 92/19/1 100/1/1 29/4/1 30/20/1
f 1/21/1 13/22/1 37/23/1 12/24/1
f 12/24/1 37/23/1 38/25/1 11/26/1
f 11/26/1 38/25/1 39/27/1 10/28/1
f 10/28/1 39/27/1 40/29/1 9/30/1
f 9/30/1 40/29/1 41/31/1 8/32/1
f 8/32/1 41/31/1 42/33/1 7/34/1
f 7/34/1 42/33/1 43/35/1 6/36/1
f 6/36/1 43/35/1 44/6/1 5/5/1
f 13/22/1 14/37/1 45/38/1 37/23/1
f 38/25/1 46/39/1 47/40/1 39/27/1
f 40/29/1 48/41/1 49/42/1 41/31/1
f 42/33/1 50/43/1 51/44/1 43/35/1
f 14/37/1 15/45/1 53/46/1 45/38/1
f 45/38/1 53/46/1 54/47/1 46/39/1
f 46/39/1 54/47/1 55/48/1 47/40/1
f 47/40/1 55/48/1 56/49/1 48/41/1
f 48/41/1 56/49/1 57/50/1 49/42/1
f 49/42/1 57/50/1 58/51/1 50/43/1
f 50/43/1 58/51/1 59/52/1 51/44/1
f 51/44/1 59/52/1 60/11/1 52/9/1
f 15/45/1 16/53/1 61/54/1 53/46/1
f 53/46/1 61/54/1 62/55/1 54/47/1
f 54/47/1 62/55/1 63/56/1 55/48/1
f 55/48/1 63/56/1 64/57/1 56/49/1
f 56/49/1 64/57/1 65/58/1 57/50/1
f 57/50/1 65/58/1 66/59/1 58/51/1
f 58/51/1 66/59/1 67/60/1 59/52/1
f 59/52/1 67/60/1 68/13/1 60/11/1
f 16/53/1 17/61/1 69/62/1 61/54/1
f 61/54/1 69/62/1 70/63/1 62/55/1
f 62/55/1 70/63/1 71/64/1 63/56/1
f 63/56/1 71/64/1 72/65/1 64/57/1
f 64/57/1 72/65/1 73/66/1 65/58/1
f 65/58/1 73/66/1 74/67/1 66/59/1
f 66/59/1 74/67/1 75/68/1 67/60/1
f 67/60/1 75/68/1 76/15/1 68/13/1
f 17/61/1 18/69/1 77/70/1 69/62/1
f 69/62/1 77/70/1 78/71/1 70/63/1
f 70/63/1 78/71/1 79/72/1 71/64/1
f 71/64/1 79/72/1 80/73/1 72/65/1
f 72/65/1 80/73/1 81/74/1 73/66/1
f 73/66/1 81/74/1 82/75/1 74/67/1
f 74/67/1 82/75/1 83/76/1 75/68/1
f 75/68/1 83/76/1 84/17/1 76/15/1
f 18/69/1 19/77/1 85/78/1 77/70/1
f 77/70/1 85/78/1 86/79/1 78/71/1
f 78/71/1 86/79/1 87/80/1 79/72/1
f 79/72/1 87/80/1 88/81/1 80/73/1
f 80/73/1 88/81/1 89/82/1 81/74/1
f 81/74/1 89/82/1 90/83/1 82/75/1
f 82/75/1 90/83/1 91/84/1 83/76/1
f 83/76/1 91/84/1 92/19/1 84/17/1
f 19/77/1 20/85/1 93/86/1 85/78/1
f 85/78/1 93/86/1 94/87/1 86/79/1
f 86/79/1 94/87/1 95/88/1 87/80/1
f 87/80/1 95/88/1 96/89/1 88/81/1
f 88/81/1 96/89/1 97/90/1 89/82/1
f 89/82/1 97/90/1 98/91/1 90/83/1
f 90/83/1 98/91/1 99/92/1 91/84/1
f 91/84/1 99/92/1 100/1/1 92/19/1
f 20/85/1 2/93/1 21/94/1 93/86/1
f 93/86/1 21/94/1 22/95/1 94/87/1
f 94/87/1 22/95/1 23/96/1 95/88/1
f 95/88/1 23/96/1 24/97/1 96/89/1
f 96/89/1 24/97/1 25/98/1 97/90/1
f 97/90/1 25/98/1 26/99/1 98/91/1
f 98/91/1 26/99/1 27/100/1 99/92/1
f 99/92/1 27/100/1 28/2/1 100/1/1
f 106/33/2 105/31/2 121/31/2 122/33/2
f 101/23/3 109/38/3 125/38/3 117/23/3
f 111/40/4 112/41/4 128/41/4 127/40/4
f 138/101/5 108/6/5 124/6/5 132/101/5
f 117/23/1 125/38/1 126/39/1 118/25/1
f 110/39/5 102/25/5 118/25/5 126/39/5
f 113/42/6 114/43/6 130/43/6 129/42/6
f 108/6/2 107/35/2 123/35/2 124/6/2
f 133/102/3 111/40/3 127/102/3
f 134/103/5 104/29/5 120/29/5 128/103/5
f 102/25/2 101/23/2 117/23/2 118/25/2
f 115/44/7 116/9/7 132/9/7 131/44/7
f 136/104/5 106/33/5 122/33/5 130/104/5
f 109/38/8 110/39/8 126/39/8 125/38/8
f 104/29/2 103/27/2 119/27/2 120/29/2
f 115/44/3 131/105/3 137/105/3
f 112/41/5 134/103/5 128/41/5
f 103/27/3 133/102/3 127/102/3 119/27/3
f 119/27/1 127/102/1 128/103/1 120/29/1
f 121/31/1 129/106/1 130/104/1 122/33/1
f 105/31/3 135/106/3 129/106/3 121/31/3
f 114/43/5 136/104/5 130/43/5
f 116/9/5 138/101/5 132/9/5
f 107/35/3 137/105/3 131/105/3 123/35/3
f 123/35/1 131/105/1 132/101/1 124/6/1
f 135/106/3 113/42/3 129/106/3
f 139/38/8 140/39/8 141/38/8
f 142/38/8 143/39/8 144/38/8
f 145/38/8 146/39/8 147/38/8
f 148/38/8 149/39/8 150/38/8
