# Blender 4.2.1 LTS
# www.blender.org
mtllib test2_col.mtl
o collision
v -0.500000 0.000000 0.500000 0.0000 0.0000 0.0000
v 0.500000 0.000000 0.500000 0.0000 0.0000 0.0000
v -0.500000 0.000000 -0.500000 0.0000 0.0000 0.0000
v 0.500000 0.000000 -0.500000 0.0000 0.0000 0.0000
v -0.500000 0.000000 -0.166667 0.0000 0.0000 0.0000
v -0.500000 0.000000 0.166667 0.0000 0.0000 0.0000
v -0.057983 0.000000 0.500000 0.0000 0.0000 0.0000
v 0.275350 0.000000 0.500000 0.0000 0.0000 0.0000
v 0.500000 0.000000 0.166667 0.0000 0.0000 0.0000
v 0.500000 0.000000 -0.166667 0.0000 0.0000 0.0000
v 0.166667 0.000000 -0.500000 0.0000 0.0000 0.0000
v -0.166667 0.000000 -0.500000 0.0000 0.0000 0.0000
v -0.292212 0.000000 0.166667 0.0000 0.0000 0.0000
v -0.292212 0.000000 -0.166667 0.0000 0.0000 0.0000
v 0.041121 0.000000 0.166667 0.0000 0.0000 0.0000
v 0.041121 0.000000 -0.166667 0.0000 0.0000 0.0000
v -0.292212 0.316069 0.166667 0.0000 0.0000 0.0000
v -0.292212 0.316069 -0.166667 0.0000 0.0000 0.0000
v 0.041121 0.316069 0.166667 0.0000 0.0000 0.0000
v 0.041121 0.316069 -0.166667 0.0000 0.0000 0.0000
v -0.500000 0.000000 0.833333 0.0000 0.0000 0.0000
v 0.500000 0.000000 0.833333 0.0000 0.0000 0.0000
v -0.057983 0.000000 0.833333 0.0000 0.0000 0.0000
v 0.275350 0.000000 0.833333 0.0000 0.0000 0.0000
v -0.500000 0.000000 1.166667 0.0000 0.0000 0.0000
v 0.500000 0.000000 1.166667 0.0000 0.0000 0.0000
v -0.166667 0.000000 1.166667 0.0000 0.0000 0.0000
v 0.166667 0.000000 1.166667 0.0000 0.0000 0.0000
v -0.057983 1.167961 0.500000 0.0000 0.0000 0.0000
v 0.275350 1.167961 0.500000 0.0000 0.0000 0.0000
v -0.057983 1.167961 0.833333 0.0000 0.0000 0.0000
v 0.275350 1.167961 0.833333 0.0000 0.0000 0.0000
v -0.057983 0.583980 0.500000 0.0000 0.0000 0.0000
v 0.275350 0.583980 0.500000 0.0000 0.0000 0.0000
v -0.057983 0.583980 0.833333 0.0000 0.0000 0.0000
v 0.275350 0.583980 0.833333 0.0000 0.0000 0.0000
v -0.057983 0.875971 0.500000 0.0000 0.0000 0.0000
v -0.057983 0.875971 0.833333 0.0000 0.0000 0.0000
v 0.275350 0.875971 0.833333 0.0000 0.0000 0.0000
v 0.275350 0.875971 0.500000 0.0000 0.0000 0.0000
v 0.275350 0.291990 0.500000 0.0000 0.0000 0.0000
v -0.057983 0.291990 0.500000 0.0000 0.0000 0.0000
v -0.057983 0.291990 0.833333 0.0000 0.0000 0.0000
v 0.275350 0.291990 0.833333 0.0000 0.0000 0.0000
v -0.601692 0.000000 -0.722740 0.0000 0.0000 0.0000
v -0.601692 0.000000 -1.056074 0.0000 0.0000 0.0000
v -0.268359 0.000000 -0.722740 0.0000 0.0000 0.0000
v -0.268359 0.000000 -1.056074 0.0000 0.0000 0.0000
v -0.603807 0.000000 -1.626166 0.0000 0.0000 0.0000
v -0.603807 0.000000 -2.376165 0.0000 0.0000 0.0000
v -1.353807 0.726426 -2.376165 0.0000 0.0000 0.0000
v -1.353807 0.726426 -1.626166 0.0000 0.0000 0.0000
v -1.353807 0.000000 -1.626166 0.0000 0.0000 0.0000
v -1.353807 0.000000 -2.376165 0.0000 0.0000 0.0000
v -0.902538 0.000000 -1.584110 0.0000 0.0000 0.0000
v -0.902538 0.000000 -1.084110 0.0000 0.0000 0.0000
v -0.601692 0.322856 -1.056074 0.0000 0.0000 0.0000
v -0.601692 0.322856 -0.722740 0.0000 0.0000 0.0000
v -0.902538 0.484284 -1.084110 0.0000 0.0000 0.0000
v -0.902538 0.484284 -1.584110 0.0000 0.0000 0.0000
v -0.402538 0.000000 -1.584110 0.0000 0.0000 0.0000
v -0.402538 0.000000 -1.084110 0.0000 0.0000 0.0000
v -0.905711 0.000000 -2.439249 0.0000 0.0000 0.0000
v -0.905711 0.000000 -3.564248 0.0000 0.0000 0.0000
v -2.030711 1.089639 -3.564248 0.0000 0.0000 0.0000
v -2.030711 1.089639 -2.439249 0.0000 0.0000 0.0000
v -2.030711 0.000000 -2.439249 0.0000 0.0000 0.0000
v -2.030711 0.000000 -3.564248 0.0000 0.0000 0.0000
v -1.358566 0.000000 -3.658873 0.0000 0.0000 0.0000
v -1.358566 0.000000 -5.346372 0.0000 0.0000 0.0000
v -3.046066 1.634459 -5.346372 0.0000 0.0000 0.0000
v -3.046066 1.634459 -3.658873 0.0000 0.0000 0.0000
v -3.046066 0.000000 -3.658873 0.0000 0.0000 0.0000
v -3.046066 0.000000 -5.346372 0.0000 0.0000 0.0000
v -2.037849 0.000000 -5.488309 0.0000 0.0000 0.0000
v -2.037849 0.000000 -8.019558 0.0000 0.0000 0.0000
v -4.569099 2.451689 -8.019558 0.0000 0.0000 0.0000
v -4.569099 2.451689 -5.488309 0.0000 0.0000 0.0000
v -4.569099 0.000000 -5.488309 0.0000 0.0000 0.0000
v -4.569099 0.000000 -8.019558 0.0000 0.0000 0.0000
v -1.391201 0.330923 1.605264 0.7940 0.7940 0.7940
v -1.362728 0.353207 1.273897 0.7865 0.7865 0.7865
v -1.260344 0.657995 1.303192 0.9547 0.9547 0.9547
v -1.288817 0.635710 1.634558 0.9063 0.9063 0.9063
v -0.057983 0.000000 0.500000 0.0000 0.0000 0.0000
v -0.057983 0.000000 0.500000 0.0000 0.0000 0.0000
v 0.275350 0.000000 0.500000 0.0000 0.0000 0.0000
v 0.275350 0.000000 0.500000 0.0000 0.0000 0.0000
v -0.292212 0.000000 0.166667 0.0000 0.0000 0.0000
v -0.292212 0.000000 0.166667 0.0000 0.0000 0.0000
v -0.292212 0.000000 -0.166667 0.0000 0.0000 0.0000
v -0.292212 0.000000 -0.166667 0.0000 0.0000 0.0000
v 0.041121 0.000000 0.166667 0.0000 0.0000 0.0000
v 0.041121 0.000000 0.166667 0.0000 0.0000 0.0000
v 0.041121 0.000000 -0.166667 0.0000 0.0000 0.0000
v 0.041121 0.000000 -0.166667 0.0000 0.0000 0.0000
v -0.292212 0.316069 0.166667 0.0000 0.0000 0.0000
v -0.292212 0.316069 0.166667 0.0000 0.0000 0.0000
v -0.292212 0.316069 -0.166667 0.0000 0.0000 0.0000
v -0.292212 0.316069 -0.166667 0.0000 0.0000 0.0000
v 0.041121 0.316069 0.166667 0.0000 0.0000 0.0000
v 0.041121 0.316069 0.166667 0.0000 0.0000 0.0000
v 0.041121 0.316069 -0.166667 0.0000 0.0000 0.0000
v 0.041121 0.316069 -0.166667 0.0000 0.0000 0.0000
v -0.057983 0.000000 0.833333 0.0000 0.0000 0.0000
v -0.057983 0.000000 0.833333 0.0000 0.0000 0.0000
v 0.275350 0.000000 0.833333 0.0000 0.0000 0.0000
v 0.275350 0.000000 0.833333 0.0000 0.0000 0.0000
v -0.057983 1.167961 0.500000 0.0000 0.0000 0.0000
v -0.057983 1.167961 0.500000 0.0000 0.0000 0.0000
v 0.275350 1.167961 0.500000 0.0000 0.0000 0.0000
v 0.275350 1.167961 0.500000 0.0000 0.0000 0.0000
v -0.057983 1.167961 0.833333 0.0000 0.0000 0.0000
v -0.057983 1.167961 0.833333 0.0000 0.0000 0.0000
v 0.275350 1.167961 0.833333 0.0000 0.0000 0.0000
v 0.275350 1.167961 0.833333 0.0000 0.0000 0.0000
v -0.057983 0.875971 0.500000 0.0000 0.0000 0.0000
v 0.275350 0.291990 0.500000 0.0000 0.0000 0.0000
v -0.057983 0.875971 0.833333 0.0000 0.0000 0.0000
v 0.275350 0.875971 0.833333 0.0000 0.0000 0.0000
v -0.057983 0.291990 0.500000 0.0000 0.0000 0.0000
v -0.057983 0.583980 0.500000 0.0000 0.0000 0.0000
v 0.275350 0.875971 0.500000 0.0000 0.0000 0.0000
v 0.275350 0.583980 0.500000 0.0000 0.0000 0.0000
v -0.057983 0.291990 0.833333 0.0000 0.0000 0.0000
v -0.057983 0.583980 0.833333 0.0000 0.0000 0.0000
v 0.275350 0.291990 0.833333 0.0000 0.0000 0.0000
v 0.275350 0.583980 0.833333 0.0000 0.0000 0.0000
v -0.601692 0.000000 -0.722740 0.0000 0.0000 0.0000
v -0.601692 0.000000 -1.056074 0.0000 0.0000 0.0000
v -1.353807 0.000000 -1.626166 0.0000 0.0000 0.0000
v -1.353807 0.000000 -2.376165 0.0000 0.0000 0.0000
v -0.902538 0.000000 -1.084110 0.0000 0.0000 0.0000
v -0.902538 0.000000 -1.584110 0.0000 0.0000 0.0000
v -2.030711 0.000000 -2.439249 0.0000 0.0000 0.0000
v -2.030711 0.000000 -3.564248 0.0000 0.0000 0.0000
v -3.046066 0.000000 -3.658873 0.0000 0.0000 0.0000
v -3.046066 0.000000 -5.346372 0.0000 0.0000 0.0000
v -4.569099 0.000000 -5.488309 0.0000 0.0000 0.0000
v -4.569099 0.000000 -8.019558 0.0000 0.0000 0.0000
vn -0.0000 1.0000 -0.0000
vn -0.0000 -0.0000 1.0000
vn -1.0000 -0.0000 -0.0000
vn -0.0000 -0.0000 -1.0000
vn 1.0000 -0.0000 -0.0000
vn 0.9445 -0.3230 0.0594
vt 1.000000 0.000000
vt 0.000000 1.000000
vt 0.000000 0.000000
vt 1.000000 1.000000
s 0
usemtl Material.001
f 10/1/1 11/2/1 95/3/1
f 91/1/1 3/2/1 5/3/1
f 95/1/1 12/2/1 91/3/1
f 1/3/1 89/4/1 6/2/1
f 89/1/1 5/2/1 6/3/1
f 85/3/1 93/4/1 89/2/1
f 94/1/2 98/2/2 90/3/2
f 87/3/1 9/4/1 93/2/1
f 9/1/1 95/2/1 93/3/1
f 101/1/1 99/2/1 97/3/1
f 13/1/3 100/2/3 92/3/3
f 14/1/4 104/2/4 96/3/4
f 16/1/5 19/2/5 15/3/5
f 117/1/4 111/2/4 40/3/4
f 1/1/1 105/2/1 85/3/1
f 87/1/1 22/2/1 2/3/1
f 105/1/1 28/2/1 107/3/1
f 21/1/1 27/2/1 105/3/1
f 107/1/1 26/2/1 22/3/1
f 110/1/1 115/2/1 112/3/1
f 119/1/3 29/2/3 37/3/3
f 120/1/2 31/2/2 38/3/2
f 123/1/5 32/2/5 39/3/5
f 41/1/5 128/2/5 127/3/5
f 44/1/2 126/2/2 125/3/2
f 43/1/3 122/2/3 121/3/3
f 42/1/4 34/2/4 118/3/4
f 124/1/5 39/2/5 128/3/5
f 36/1/2 38/2/2 126/3/2
f 35/1/3 37/2/3 122/3/3
f 33/1/4 40/2/4 34/3/4
f 86/1/4 118/2/4 88/3/4
f 106/1/3 121/2/3 7/3/3
f 108/1/2 125/2/2 23/3/2
f 8/1/5 127/2/5 24/3/5
f 47/1/1 130/2/1 129/3/1
f 54/2/5 52/3/5 53/3/5
f 134/2/5 59/3/5 133/3/5
f 46/2/5 58/3/5 45/3/5
f 62/1/1 55/2/1 56/3/1
f 49/1/1 132/2/1 131/3/1
f 68/2/5 66/3/5 67/3/5
f 63/1/1 136/2/1 135/3/1
f 74/2/5 72/3/5 73/3/5
f 69/1/1 138/2/1 137/3/1
f 80/2/5 78/3/5 79/3/5
f 75/1/1 140/2/1 139/3/1
f 82/1/6 84/2/6 81/3/6
f 10/1/1 4/4/1 11/2/1
f 91/1/1 12/4/1 3/2/1
f 95/1/1 11/4/1 12/2/1
f 1/3/1 85/1/1 89/4/1
f 89/1/1 91/4/1 5/2/1
f 85/3/1 87/1/1 93/4/1
f 94/1/2 102/4/2 98/2/2
f 87/3/1 2/1/1 9/4/1
f 9/1/1 10/4/1 95/2/1
f 101/1/1 103/4/1 99/2/1
f 13/1/3 17/4/3 100/2/3
f 14/1/4 18/4/4 104/2/4
f 16/1/5 20/4/5 19/2/5
f 117/1/4 109/4/4 111/2/4
f 1/1/1 21/4/1 105/2/1
f 87/1/1 107/4/1 22/2/1
f 105/1/1 27/4/1 28/2/1
f 21/1/1 25/4/1 27/2/1
f 107/1/1 28/4/1 26/2/1
f 110/1/1 113/4/1 115/2/1
f 119/1/3 114/4/3 29/2/3
f 120/1/2 116/4/2 31/2/2
f 123/1/5 30/4/5 32/2/5
f 41/1/5 124/4/5 128/2/5
f 44/1/2 36/4/2 126/2/2
f 43/1/3 35/4/3 122/2/3
f 42/1/4 33/4/4 34/2/4
f 124/1/5 123/4/5 39/2/5
f 36/1/2 120/4/2 38/2/2
f 35/1/3 119/4/3 37/2/3
f 33/1/4 117/4/4 40/2/4
f 86/1/4 42/4/4 118/2/4
f 106/1/3 43/4/3 121/2/3
f 108/1/2 44/4/2 125/2/2
f 8/1/5 41/4/5 127/2/5
f 47/1/1 48/4/1 130/2/1
f 54/2/5 51/2/5 52/3/5
f 134/2/5 60/2/5 59/3/5
f 46/2/5 57/2/5 58/3/5
f 62/1/1 61/4/1 55/2/1
f 49/1/1 50/4/1 132/2/1
f 68/2/5 65/2/5 66/3/5
f 63/1/1 64/4/1 136/2/1
f 74/2/5 71/2/5 72/3/5
f 69/1/1 70/4/1 138/2/1
f 80/2/5 77/2/5 78/3/5
f 75/1/1 76/4/1 140/2/1
f 82/1/6 83/4/6 84/2/6
