# Blender 3.6.0
# www.blender.org
mtllib test_col.mtl
o Plane
v -2.000000 0.000000 2.000000 0.2000 0.2000 0.2000
v 2.000000 0.000000 2.000000 0.2000 0.2000 0.2000
v -2.000000 -0.000000 -2.000000 0.2000 0.2000 0.2000
v 2.000000 -0.000000 -2.000000 0.2000 0.2000 0.2000
v -2.000000 -0.000000 -1.555556 0.2000 0.2000 0.2000
v -2.000000 -0.000000 -1.111111 0.2000 0.2000 0.2000
v -2.000000 -0.000000 -0.666667 0.2000 0.2000 0.2000
v -2.000000 -0.000000 -0.222222 0.2000 0.2000 0.2000
v -2.000000 0.000000 0.222222 0.2000 0.2000 0.2000
v -2.000000 0.000000 0.666667 0.2000 0.2000 0.2000
v -2.000000 0.000000 1.111111 0.2000 0.2000 0.2000
v -2.000000 0.000000 1.555556 0.2000 0.2000 0.2000
v -1.555556 0.000000 2.000000 0.2000 0.2000 0.2000
v -1.111111 0.000000 2.000000 0.2000 0.2000 0.2000
v -0.666667 0.000000 2.000000 0.2000 0.2000 0.2000
v -0.222222 0.000000 2.000000 0.2000 0.2000 0.2000
v 0.222222 0.000000 2.000000 0.2000 0.2000 0.2000
v 0.666667 0.000000 2.000000 0.2000 0.2000 0.2000
v 1.111111 0.000000 2.000000 0.2000 0.2000 0.2000
v 1.555556 0.000000 2.000000 0.2000 0.2000 0.2000
v 2.000000 0.000000 1.555556 0.2000 0.2000 0.2000
v 2.000000 0.000000 1.111111 0.2000 0.2000 0.2000
v 2.000000 0.000000 0.666667 0.2000 0.2000 0.2000
v 2.000000 0.000000 0.222222 0.2000 0.2000 0.2000
v 2.000000 -0.000000 -0.222222 0.2000 0.2000 0.2000
v 2.000000 -0.000000 -0.666667 0.2000 0.2000 0.2000
v 2.000000 -0.000000 -1.111111 0.2000 0.2000 0.2000
v 2.000000 -0.000000 -1.555556 0.2000 0.2000 0.2000
v 1.555556 -0.000000 -2.000000 0.2000 0.2000 0.2000
v 1.111111 -0.000000 -2.000000 0.2000 0.2000 0.2000
v 0.666667 -0.000000 -2.000000 0.2000 0.2000 0.2000
v 0.222222 -0.000000 -2.000000 0.2000 0.2000 0.2000
v -0.222222 -0.000000 -2.000000 0.2000 0.2000 0.2000
v -0.666667 -0.000000 -2.000000 0.2000 0.2000 0.2000
v -1.111111 -0.000000 -2.000000 0.2000 0.2000 0.2000
v -1.555556 -0.000000 -2.000000 0.2000 0.2000 0.2000
v -1.555556 0.000000 1.555556 0.2000 0.2000 0.2000
v -1.555556 0.000000 1.111111 0.2000 0.2000 0.2000
v -1.555556 0.000000 0.666667 0.2000 0.2000 0.2000
v -1.555556 0.000000 0.222222 0.2000 0.2000 0.2000
v -1.555556 -0.000000 -0.222222 0.2000 0.2000 0.2000
v -1.555556 -0.000000 -0.666667 0.2000 0.2000 0.2000
v -1.555556 -0.000000 -1.111111 0.2000 0.2000 0.2000
v -1.555556 -0.000000 -1.555556 0.2000 0.2000 0.2000
v -1.111111 0.000000 1.555556 0.2000 0.2000 0.2000
v -1.111111 0.000000 1.111111 0.2000 0.2000 0.2000
v -1.111111 0.000000 0.666667 0.2000 0.2000 0.2000
v -1.111111 0.000000 0.222222 0.2000 0.2000 0.2000
v -1.111111 -0.000000 -0.222222 0.2000 0.2000 0.2000
v -1.111111 -0.000000 -0.666667 0.2000 0.2000 0.2000
v -1.111111 -0.000000 -1.111111 0.2000 0.2000 0.2000
v -1.111111 -0.000000 -1.555556 0.2000 0.2000 0.2000
v -0.666667 0.000000 1.555556 0.2000 0.2000 0.2000
v -0.666667 0.000000 1.111111 0.2000 0.2000 0.2000
v -0.666667 0.000000 0.666667 0.2000 0.2000 0.2000
v -0.666667 0.000000 0.222222 0.2000 0.2000 0.2000
v -0.666667 -0.000000 -0.222222 0.2000 0.2000 0.2000
v -0.666667 -0.000000 -0.666667 0.2000 0.2000 0.2000
v -0.666667 -0.000000 -1.111111 0.2000 0.2000 0.2000
v -0.666667 -0.000000 -1.555556 0.2000 0.2000 0.2000
v -0.222222 0.000000 1.555556 0.2000 0.2000 0.2000
v -0.222222 0.000000 1.111111 0.2000 0.2000 0.2000
v -0.222222 0.000000 0.666667 0.2000 0.2000 0.2000
v -0.222222 0.000000 0.222222 0.2000 0.2000 0.2000
v -0.222222 -0.000000 -0.222222 0.2000 0.2000 0.2000
v -0.222222 -0.000000 -0.666667 0.2000 0.2000 0.2000
v -0.222222 -0.000000 -1.111111 0.2000 0.2000 0.2000
v -0.222222 -0.000000 -1.555556 0.2000 0.2000 0.2000
v 0.222222 0.000000 1.555556 0.2000 0.2000 0.2000
v 0.222222 0.000000 1.111111 0.2000 0.2000 0.2000
v 0.222222 0.000000 0.666667 0.2000 0.2000 0.2000
v 0.222222 0.000000 0.222222 0.2000 0.2000 0.2000
v 0.222222 -0.000000 -0.222222 0.2000 0.2000 0.2000
v 0.222222 -0.000000 -0.666667 0.2000 0.2000 0.2000
v 0.222222 -0.000000 -1.111111 0.2000 0.2000 0.2000
v 0.222222 -0.000000 -1.555556 0.2000 0.2000 0.2000
v 0.666667 0.000000 1.555556 0.2000 0.2000 0.2000
v 0.666667 0.000000 1.111111 0.2000 0.2000 0.2000
v 0.666667 0.000000 0.666667 0.2000 0.2000 0.2000
v 0.666667 0.000000 0.222222 0.2000 0.2000 0.2000
v 0.666667 -0.000000 -0.222222 0.2000 0.2000 0.2000
v 0.666667 -0.000000 -0.666667 0.2000 0.2000 0.2000
v 0.666667 -0.000000 -1.111111 0.2000 0.2000 0.2000
v 0.666667 -0.000000 -1.555556 0.2000 0.2000 0.2000
v 1.111111 0.000000 1.555556 0.2000 0.2000 0.2000
v 1.111111 0.000000 1.111111 0.2000 0.2000 0.2000
v 1.111111 0.000000 0.666667 0.2000 0.2000 0.2000
v 1.111111 0.000000 0.222222 0.2000 0.2000 0.2000
v 1.111111 -0.000000 -0.222222 0.2000 0.2000 0.2000
v 1.111111 -0.000000 -0.666667 0.2000 0.2000 0.2000
v 1.111111 -0.000000 -1.111111 0.2000 0.2000 0.2000
v 1.111111 -0.000000 -1.555556 0.2000 0.2000 0.2000
v 1.555556 0.000000 1.555556 0.2000 0.2000 0.2000
v 1.555556 0.000000 1.111111 0.2000 0.2000 0.2000
v 1.555556 0.000000 0.666667 0.2000 0.2000 0.2000
v 1.555556 0.000000 0.222222 0.2000 0.2000 0.2000
v 1.555556 -0.000000 -0.222222 0.2000 0.2000 0.2000
v 1.555556 -0.000000 -0.666667 0.2000 0.2000 0.2000
v 1.555556 -0.000000 -1.111111 0.2000 0.2000 0.2000
v 1.555556 -0.000000 -1.555556 0.2000 0.2000 0.2000
v -1.555556 0.000000 1.555556 0.5130 0.5130 0.5130
v -1.555556 0.000000 1.111111 0.0000 0.0000 0.0000
v -1.555556 0.000000 0.666667 0.7113 0.7113 0.7113
v -1.555556 0.000000 0.222222 0.0000 0.0000 0.0000
v -1.555556 -0.000000 -0.222222 0.5887 0.5887 0.5887
v -1.555556 -0.000000 -0.666667 0.0000 0.0000 0.0000
v -1.555556 -0.000000 -1.111111 0.6376 0.6376 0.6376
v -1.555556 -0.000000 -1.555556 0.3548 0.3548 0.3548
v -1.111111 0.000000 1.555556 0.5337 0.5337 0.5337
v -1.111111 0.000000 1.111111 0.4307 0.4307 0.4307
v -1.111111 0.000000 0.666667 0.7297 0.7297 0.7297
v -1.111111 0.000000 0.222222 0.7161 0.7161 0.7161
v -1.111111 -0.000000 -0.222222 0.4942 0.4942 0.4942
v -1.111111 -0.000000 -0.666667 0.7138 0.7138 0.7138
v -1.111111 -0.000000 -1.111111 0.5920 0.5920 0.5920
v -1.111111 -0.000000 -1.555556 0.6616 0.6616 0.6616
v -1.555556 0.500000 1.555556 0.8235 0.8235 0.8235
v -1.555556 0.500000 1.111111 0.7136 0.7136 0.7136
v -1.555556 0.500000 0.666667 0.8398 0.8398 0.8398
v -1.555556 0.500000 0.222222 0.8487 0.8487 0.8487
v -1.555556 0.500000 -0.222222 0.8275 0.8275 0.8275
v -1.555556 0.500000 -0.666667 0.8225 0.8225 0.8225
v -1.555556 0.500000 -1.111111 0.8154 0.8154 0.8154
v -1.555556 0.500000 -1.555556 0.8153 0.8153 0.8153
v -1.111111 0.500000 1.555556 0.9091 0.9091 0.9091
v -1.111111 0.500000 1.111111 0.8836 0.8836 0.8836
v -1.333333 0.500000 0.666667 0.8425 0.8425 0.8425
v -1.333333 0.500000 0.222222 0.8543 0.8543 0.8543
v -1.444444 0.500000 -0.222222 0.8275 0.8275 0.8275
v -1.444444 0.500000 -0.666667 0.8225 0.8225 0.8225
v -1.500000 0.500000 -1.111111 0.8189 0.8189 0.8189
v -1.500000 0.500000 -1.555556 0.8151 0.8151 0.8151
v -1.333333 0.000000 0.666667 0.6780 0.6780 0.6780
v -1.333333 0.000000 0.222222 0.6170 0.6170 0.6170
v -1.444444 -0.000000 -0.222222 0.5053 0.5053 0.5053
v -1.444444 -0.000000 -0.666667 0.0000 0.0000 0.0000
v -1.500000 -0.000000 -1.111111 0.6022 0.6022 0.6022
v -1.500000 -0.000000 -1.555556 0.3461 0.3461 0.3461
v -1.111111 1.631017 1.555556 0.5337 0.5337 0.5337
v -1.111111 1.631017 1.111111 0.4307 0.4307 0.4307
v -1.111111 2.131017 1.555556 0.9091 0.9091 0.9091
v -1.111111 1.940636 0.620989 0.5337 0.5337 0.5337
v -1.111111 1.500536 0.586177 0.4307 0.4307 0.4307
v -1.111111 1.951881 0.167848 0.9091 0.9091 0.9091
v -1.111111 1.969290 -0.680746 0.5337 0.5337 0.5337
v -1.111111 1.931983 -0.305925 0.4307 0.4307 0.4307
v -1.111111 1.491780 -0.638775 0.9091 0.9091 0.9091
v -1.111111 1.659672 -1.775869 0.5337 0.5337 0.5337
v -1.111111 2.062464 -1.810681 0.4307 0.4307 0.4307
v -1.111111 1.670916 -1.280757 0.9091 0.9091 0.9091
vn -0.0000 1.0000 -0.0000
vn -1.0000 -0.0000 -0.0000
vn -0.0000 -0.0000 1.0000
vn 0.9138 0.4061 -0.0000
vn -0.0000 -0.0000 -1.0000
vn 0.8321 0.5547 -0.0000
vn 0.7894 0.6139 -0.0000
vn 1.0000 -0.0000 -0.0000
vt 1.000000 0.888889
vt 0.888889 1.000000
vt 0.888889 0.888889
vt 0.111111 0.888889
vt 0.000000 1.000000
vt 0.000000 0.888889
vt 0.222222 0.888889
vt 0.111111 1.000000
vt 0.333333 0.888889
vt 0.222222 1.000000
vt 0.444444 0.888889
vt 0.333333 1.000000
vt 0.555556 0.888889
vt 0.444444 1.000000
vt 0.666667 0.888889
vt 0.555556 1.000000
vt 0.777778 0.888889
vt 0.666667 1.000000
vt 0.777778 1.000000
vt 0.111111 0.000000
vt 0.000000 0.111111
vt 0.000000 0.000000
vt 0.111111 0.111111
vt 0.000000 0.222222
vt 0.111111 0.222222
vt 0.000000 0.333333
vt 0.111111 0.333333
vt 0.000000 0.444444
vt 0.111111 0.444444
vt 0.000000 0.555556
vt 0.111111 0.555556
vt 0.000000 0.666667
vt 0.111111 0.666667
vt 0.000000 0.777778
vt 0.111111 0.777778
vt 0.222222 0.000000
vt 0.222222 0.222222
vt 0.222222 0.444444
vt 0.222222 0.666667
vt 0.333333 0.000000
vt 0.222222 0.111111
vt 0.333333 0.111111
vt 0.333333 0.222222
vt 0.222222 0.333333
vt 0.333333 0.333333
vt 0.333333 0.444444
vt 0.222222 0.555556
vt 0.333333 0.555556
vt 0.333333 0.666667
vt 0.222222 0.777778
vt 0.333333 0.777778
vt 0.444444 0.000000
vt 0.444444 0.111111
vt 0.444444 0.222222
vt 0.444444 0.333333
vt 0.444444 0.444444
vt 0.444444 0.555556
vt 0.444444 0.666667
vt 0.444444 0.777778
vt 0.555556 0.000000
vt 0.555556 0.111111
vt 0.555556 0.222222
vt 0.555556 0.333333
vt 0.555556 0.444444
vt 0.555556 0.555556
vt 0.555556 0.666667
vt 0.555556 0.777778
vt 0.666667 0.000000
vt 0.666667 0.111111
vt 0.666667 0.222222
vt 0.666667 0.333333
vt 0.666667 0.444444
vt 0.666667 0.555556
vt 0.666667 0.666667
vt 0.666667 0.777778
vt 0.777778 0.000000
vt 0.777778 0.111111
vt 0.777778 0.222222
vt 0.777778 0.333333
vt 0.777778 0.444444
vt 0.777778 0.555556
vt 0.777778 0.666667
vt 0.777778 0.777778
vt 0.888889 0.000000
vt 0.888889 0.111111
vt 0.888889 0.222222
vt 0.888889 0.333333
vt 0.888889 0.444444
vt 0.888889 0.555556
vt 0.888889 0.666667
vt 0.888889 0.777778
vt 1.000000 0.000000
vt 1.000000 0.111111
vt 1.000000 0.222222
vt 1.000000 0.333333
vt 1.000000 0.444444
vt 1.000000 0.555556
vt 1.000000 0.666667
vt 1.000000 0.777778
vt 0.125000 0.888889
vt 0.166667 0.333333
vt 0.166667 0.444444
vt 0.138889 0.666667
vt 0.125000 0.777778
vt 0.138889 0.555556
vt 1.000000 1.000000
s 0
usemtl Material.001
f 28/1/1 29/2/1 100/3/1
f 44/4/1 3/5/1 5/6/1
f 52/7/1 36/8/1 44/4/1
f 60/9/1 35/10/1 52/7/1
f 68/11/1 34/12/1 60/9/1
f 76/13/1 33/14/1 68/11/1
f 84/15/1 32/16/1 76/13/1
f 92/17/1 31/18/1 84/15/1
f 100/3/1 30/19/1 92/17/1
f 13/20/1 12/21/1 1/22/1
f 37/23/1 11/24/1 12/21/1
f 38/25/1 10/26/1 11/24/1
f 39/27/1 9/28/1 10/26/1
f 40/29/1 8/30/1 9/28/1
f 41/31/1 7/32/1 8/30/1
f 42/33/1 6/34/1 7/32/1
f 43/35/1 5/6/1 6/34/1
f 14/36/1 37/23/1 13/20/1
f 46/37/1 39/27/1 38/25/1
f 48/38/1 41/31/1 40/29/1
f 50/39/1 43/35/1 42/33/1
f 15/40/1 45/41/1 14/36/1
f 53/42/1 46/37/1 45/41/1
f 54/43/1 47/44/1 46/37/1
f 55/45/1 48/38/1 47/44/1
f 56/46/1 49/47/1 48/38/1
f 57/48/1 50/39/1 49/47/1
f 58/49/1 51/50/1 50/39/1
f 59/51/1 52/7/1 51/50/1
f 16/52/1 53/42/1 15/40/1
f 61/53/1 54/43/1 53/42/1
f 62/54/1 55/45/1 54/43/1
f 63/55/1 56/46/1 55/45/1
f 64/56/1 57/48/1 56/46/1
f 65/57/1 58/49/1 57/48/1
f 66/58/1 59/51/1 58/49/1
f 67/59/1 60/9/1 59/51/1
f 17/60/1 61/53/1 16/52/1
f 69/61/1 62/54/1 61/53/1
f 70/62/1 63/55/1 62/54/1
f 71/63/1 64/56/1 63/55/1
f 72/64/1 65/57/1 64/56/1
f 73/65/1 66/58/1 65/57/1
f 74/66/1 67/59/1 66/58/1
f 75/67/1 68/11/1 67/59/1
f 18/68/1 69/61/1 17/60/1
f 77/69/1 70/62/1 69/61/1
f 78/70/1 71/63/1 70/62/1
f 79/71/1 72/64/1 71/63/1
f 80/72/1 73/65/1 72/64/1
f 81/73/1 74/66/1 73/65/1
f 82/74/1 75/67/1 74/66/1
f 83/75/1 76/13/1 75/67/1
f 19/76/1 77/69/1 18/68/1
f 85/77/1 78/70/1 77/69/1
f 86/78/1 79/71/1 78/70/1
f 87/79/1 80/72/1 79/71/1
f 88/80/1 81/73/1 80/72/1
f 89/81/1 82/74/1 81/73/1
f 90/82/1 83/75/1 82/74/1
f 91/83/1 84/15/1 83/75/1
f 20/84/1 85/77/1 19/76/1
f 93/85/1 86/78/1 85/77/1
f 94/86/1 87/79/1 86/78/1
f 95/87/1 88/80/1 87/79/1
f 96/88/1 89/81/1 88/80/1
f 97/89/1 90/82/1 89/81/1
f 98/90/1 91/83/1 90/82/1
f 99/91/1 92/17/1 91/83/1
f 2/92/1 93/85/1 20/84/1
f 21/93/1 94/86/1 93/85/1
f 22/94/1 95/87/1 94/86/1
f 23/95/1 96/88/1 95/87/1
f 24/96/1 97/89/1 96/88/1
f 25/97/1 98/90/1 97/89/1
f 26/98/1 99/91/1 98/90/1
f 27/99/1 100/3/1 99/91/1
f 105/31/2 122/33/2 106/33/2
f 109/41/3 117/23/3 101/23/3
f 112/38/4 127/44/4 111/44/4
f 108/4/5 132/100/5 138/100/5
f 125/41/1 118/25/1 117/23/1
f 102/25/5 126/37/5 110/37/5
f 114/39/6 129/47/6 113/47/6
f 107/35/2 124/4/2 108/4/2
f 133/101/3 111/44/3 127/101/3
f 104/29/5 128/102/5 134/102/5
f 101/23/2 118/25/2 102/25/2
f 116/7/7 131/50/7 115/50/7
f 106/33/5 130/103/5 136/103/5
f 110/37/8 125/41/8 109/41/8
f 103/27/2 120/29/2 104/29/2
f 115/50/3 131/104/3 137/104/3
f 112/38/5 134/102/5 128/38/5
f 133/101/3 119/27/3 103/27/3
f 127/101/1 120/29/1 119/27/1
f 129/105/1 122/33/1 121/31/1
f 135/105/3 121/31/3 105/31/3
f 114/39/5 136/103/5 130/39/5
f 116/7/5 138/100/5 132/7/5
f 137/104/3 123/35/3 107/35/3
f 131/104/1 124/4/1 123/35/1
f 135/105/3 113/47/3 129/105/3
f 139/41/8 140/37/8 141/41/8
f 142/41/8 143/37/8 144/41/8
f 145/41/8 146/37/8 147/41/8
f 148/41/8 149/37/8 150/41/8
f 28/1/1 4/106/1 29/2/1
f 44/4/1 36/8/1 3/5/1
f 52/7/1 35/10/1 36/8/1
f 60/9/1 34/12/1 35/10/1
f 68/11/1 33/14/1 34/12/1
f 76/13/1 32/16/1 33/14/1
f 84/15/1 31/18/1 32/16/1
f 92/17/1 30/19/1 31/18/1
f 100/3/1 29/2/1 30/19/1
f 13/20/1 37/23/1 12/21/1
f 37/23/1 38/25/1 11/24/1
f 38/25/1 39/27/1 10/26/1
f 39/27/1 40/29/1 9/28/1
f 40/29/1 41/31/1 8/30/1
f 41/31/1 42/33/1 7/32/1
f 42/33/1 43/35/1 6/34/1
f 43/35/1 44/4/1 5/6/1
f 14/36/1 45/41/1 37/23/1
f 46/37/1 47/44/1 39/27/1
f 48/38/1 49/47/1 41/31/1
f 50/39/1 51/50/1 43/35/1
f 15/40/1 53/42/1 45/41/1
f 53/42/1 54/43/1 46/37/1
f 54/43/1 55/45/1 47/44/1
f 55/45/1 56/46/1 48/38/1
f 56/46/1 57/48/1 49/47/1
f 57/48/1 58/49/1 50/39/1
f 58/49/1 59/51/1 51/50/1
f 59/51/1 60/9/1 52/7/1
f 16/52/1 61/53/1 53/42/1
f 61/53/1 62/54/1 54/43/1
f 62/54/1 63/55/1 55/45/1
f 63/55/1 64/56/1 56/46/1
f 64/56/1 65/57/1 57/48/1
f 65/57/1 66/58/1 58/49/1
f 66/58/1 67/59/1 59/51/1
f 67/59/1 68/11/1 60/9/1
f 17/60/1 69/61/1 61/53/1
f 69/61/1 70/62/1 62/54/1
f 70/62/1 71/63/1 63/55/1
f 71/63/1 72/64/1 64/56/1
f 72/64/1 73/65/1 65/57/1
f 73/65/1 74/66/1 66/58/1
f 74/66/1 75/67/1 67/59/1
f 75/67/1 76/13/1 68/11/1
f 18/68/1 77/69/1 69/61/1
f 77/69/1 78/70/1 70/62/1
f 78/70/1 79/71/1 71/63/1
f 79/71/1 80/72/1 72/64/1
f 80/72/1 81/73/1 73/65/1
f 81/73/1 82/74/1 74/66/1
f 82/74/1 83/75/1 75/67/1
f 83/75/1 84/15/1 76/13/1
f 19/76/1 85/77/1 77/69/1
f 85/77/1 86/78/1 78/70/1
f 86/78/1 87/79/1 79/71/1
f 87/79/1 88/80/1 80/72/1
f 88/80/1 89/81/1 81/73/1
f 89/81/1 90/82/1 82/74/1
f 90/82/1 91/83/1 83/75/1
f 91/83/1 92/17/1 84/15/1
f 20/84/1 93/85/1 85/77/1
f 93/85/1 94/86/1 86/78/1
f 94/86/1 95/87/1 87/79/1
f 95/87/1 96/88/1 88/80/1
f 96/88/1 97/89/1 89/81/1
f 97/89/1 98/90/1 90/82/1
f 98/90/1 99/91/1 91/83/1
f 99/91/1 100/3/1 92/17/1
f 2/92/1 21/93/1 93/85/1
f 21/93/1 22/94/1 94/86/1
f 22/94/1 23/95/1 95/87/1
f 23/95/1 24/96/1 96/88/1
f 24/96/1 25/97/1 97/89/1
f 25/97/1 26/98/1 98/90/1
f 26/98/1 27/99/1 99/91/1
f 27/99/1 28/1/1 100/3/1
f 105/31/2 121/31/2 122/33/2
f 109/41/3 125/41/3 117/23/3
f 112/38/4 128/38/4 127/44/4
f 108/4/5 124/4/5 132/100/5
f 125/41/1 126/37/1 118/25/1
f 102/25/5 118/25/5 126/37/5
f 114/39/6 130/39/6 129/47/6
f 107/35/2 123/35/2 124/4/2
f 104/29/5 120/29/5 128/102/5
f 101/23/2 117/23/2 118/25/2
f 116/7/7 132/7/7 131/50/7
f 106/33/5 122/33/5 130/103/5
f 110/37/8 126/37/8 125/41/8
f 103/27/2 119/27/2 120/29/2
f 133/101/3 127/101/3 119/27/3
f 127/101/1 128/102/1 120/29/1
f 129/105/1 130/103/1 122/33/1
f 135/105/3 129/105/3 121/31/3
f 137/104/3 131/104/3 123/35/3
f 131/104/1 132/100/1 124/4/1
